<svg id="242129" viewBox="0 0 1416 64" xmlns="http://www.w3.org/2000/svg" xmlns:xlink="http://www.w3.org/1999/xlink"><g transform="matrix(1,0,0,1,0,0)"><g id="242129" opacity="1" style="mix-blend-mode:normal"><g><g><g transform="matrix(1,0,0,1,0,0)"><g id="242127" opacity="1" style="mix-blend-mode:normal"><g><g><g transform="matrix(1,0,0,1,0,0)"><g id="242120" opacity="1" style="mix-blend-mode:normal"><g><g><defs><clipPath id="242120_stroke_clip_path" clipPathUnits="userSpaceOnUse"><path d="M-2,-2 H356 V66 H-2 Z M27.9665,11.6c3.2587,0 6.1013,0.5547 8.528,1.664c2.4267,1.1093 4.2813,2.6173 5.564,4.524c1.2827,1.9067 1.924,4.0387 1.924,6.396c0,3.8827 -1.2133,6.9333 -3.64,9.152c-2.4267,2.184 -6.552,3.276 -12.376,3.276h-6.864v9.984c0,0.3813 -0.1387,0.7107 -0.416,0.988c-0.2773,0.2773 -0.6067,0.416 -0.988,0.416h-11.18c-0.38133,0 -0.71067,-0.1387 -0.988,-0.416c-0.27733,-0.2773 -0.416,-0.6067 -0.416,-0.988v-33.592c0,-0.3813 0.13867,-0.7107 0.416,-0.988c0.27733,-0.2773 0.60667,-0.416 0.988,-0.416zM27.7585,26.992c0.832,0 1.4907,-0.2427 1.976,-0.728c0.4853,-0.52 0.728,-1.196 0.728,-2.028c0,-0.8667 -0.2427,-1.5773 -0.728,-2.132c-0.4853,-0.5547 -1.144,-0.832 -1.976,-0.832h-6.604v5.72zM87.4862,46.388c0.0693,0.1387 0.104,0.2947 0.104,0.468c0,0.312 -0.1213,0.5893 -0.364,0.832c-0.208,0.208 -0.468,0.312 -0.78,0.312h-11.804c-0.4853,0 -0.936,-0.1213 -1.352,-0.364c-0.3813,-0.2427 -0.6587,-0.5547 -0.832,-0.936l-4.576,-10.296h-4.368v10.192c0,0.3813 -0.1387,0.7107 -0.416,0.988c-0.2773,0.2773 -0.6067,0.416 -0.988,0.416h-11.232c-0.3813,0 -0.7107,-0.1387 -0.988,-0.416c-0.2773,-0.2773 -0.416,-0.6067 -0.416,-0.988v-33.592c0,-0.3813 0.1387,-0.7107 0.416,-0.988c0.2773,-0.2773 0.6067,-0.416 0.988,-0.416h20.228c3.12,0 5.8413,0.5027 8.164,1.508c2.3573,1.0053 4.16,2.4613 5.408,4.368c1.248,1.9067 1.872,4.1427 1.872,6.708c0,4.7147 -1.82,8.1293 -5.46,10.244zM70.0142,26.784c0.7627,0 1.352,-0.2427 1.768,-0.728c0.416,-0.52 0.624,-1.1613 0.624,-1.924c0,-0.7627 -0.208,-1.4213 -0.624,-1.976c-0.3813,-0.5893 -0.9707,-0.884 -1.768,-0.884h-6.5v5.512zM130.366,32.972c0,5.304 -1.768,9.2213 -5.304,11.752c-3.501,2.5307 -8.181,3.796 -14.04,3.796c-5.859,0 -10.556,-1.2653 -14.0921,-3.796c-3.5014,-2.5307 -5.252,-6.4827 -5.252,-11.856v-6.136c0,-3.536 0.832,-6.4653 2.496,-8.788c1.6986,-2.3573 4.004,-4.0907 6.9161,-5.2c2.912,-1.1093 6.223,-1.664 9.932,-1.664c3.709,0 7.003,0.5547 9.88,1.664c2.912,1.1093 5.217,2.8253 6.916,5.148c1.699,2.3227 2.548,5.2347 2.548,8.736zM105.718,33.96c0,1.4213 0.468,2.5133 1.404,3.276c0.971,0.7627 2.271,1.144 3.9,1.144c1.629,0 2.912,-0.3813 3.848,-1.144c0.971,-0.7973 1.456,-1.9067 1.456,-3.328v-8.216c0,-1.4213 -0.485,-2.5133 -1.456,-3.276c-0.936,-0.7973 -2.219,-1.196 -3.848,-1.196c-1.629,0 -2.929,0.3813 -3.9,1.144c-0.936,0.7627 -1.404,1.8547 -1.404,3.276zM173.038,32.868c0,5.2693 -1.734,9.204 -5.2,11.804c-3.467,2.5653 -8.095,3.848 -13.884,3.848c-4.16,0 -7.714,-0.6587 -10.66,-1.976c-2.912,-1.352 -5.114,-3.0507 -6.604,-5.096c-1.456,-2.0453 -2.184,-4.108 -2.184,-6.188c0,-0.312 0.104,-0.572 0.312,-0.78c0.242,-0.2427 0.52,-0.364 0.832,-0.364h11.752c0.312,0 0.572,0.104 0.78,0.312c0.242,0.208 0.416,0.4853 0.52,0.832c0.658,2.08 2.322,3.12 4.992,3.12c1.629,0 2.912,-0.3813 3.848,-1.144c0.97,-0.7627 1.456,-1.8547 1.456,-3.276v-11.7h-18.98c-0.382,0 -0.711,-0.1387 -0.988,-0.416c-0.278,-0.2773 -0.416,-0.6067 -0.416,-0.988v-7.852c0,-0.3813 0.138,-0.7107 0.416,-0.988c0.277,-0.2773 0.606,-0.416 0.988,-0.416h31.616c0.381,0 0.71,0.1387 0.988,0.416c0.277,0.2773 0.416,0.6067 0.416,0.988zM216.229,37.86c0.382,0 0.711,0.1387 0.988,0.416c0.278,0.2773 0.416,0.6067 0.416,0.988v7.332c0,0.3813 -0.138,0.7107 -0.416,0.988c-0.277,0.2773 -0.606,0.416 -0.988,0.416h-32.864c-0.381,0 -0.71,-0.1387 -0.988,-0.416c-0.277,-0.2773 -0.416,-0.6067 -0.416,-0.988v-33.592c0,-0.3813 0.139,-0.7107 0.416,-0.988c0.278,-0.2773 0.607,-0.416 0.988,-0.416h32.344c0.382,0 0.711,0.1387 0.988,0.416c0.278,0.2773 0.416,0.6067 0.416,0.988v7.332c0,0.3813 -0.138,0.7107 -0.416,0.988c-0.277,0.2773 -0.606,0.416 -0.988,0.416h-20.228v3.276h17.368c0.382,0 0.711,0.1387 0.988,0.416c0.278,0.2773 0.416,0.6067 0.416,0.988v6.76c0,0.3813 -0.138,0.7107 -0.416,0.988c-0.277,0.2773 -0.606,0.416 -0.988,0.416h-17.368v3.276zM261.501,11.6c0.381,0 0.711,0.1387 0.988,0.416c0.277,0.2773 0.416,0.6067 0.416,0.988v8.372c0,0.3813 -0.139,0.7107 -0.416,0.988c-0.277,0.2773 -0.607,0.416 -0.988,0.416h-11.18v23.816c0,0.3813 -0.139,0.7107 -0.416,0.988c-0.277,0.2773 -0.607,0.416 -0.988,0.416h-10.712c-0.381,0 -0.711,-0.1387 -0.988,-0.416c-0.277,-0.2773 -0.416,-0.6067 -0.416,-0.988v-23.816h-11.18c-0.381,0 -0.711,-0.1387 -0.988,-0.416c-0.277,-0.2773 -0.416,-0.6067 -0.416,-0.988v-8.372c0,-0.3813 0.139,-0.7107 0.416,-0.988c0.277,-0.2773 0.607,-0.416 0.988,-0.416zM290.601,24.808c3.813,0.416 6.864,1.092 9.152,2.028c2.322,0.936 4.004,2.1667 5.044,3.692c1.04,1.5253 1.56,3.432 1.56,5.72c0,2.496 -0.815,4.68 -2.444,6.552c-1.595,1.8373 -3.814,3.2587 -6.656,4.264c-2.843,0.9707 -6.084,1.456 -9.724,1.456c-4.056,0 -7.488,-0.5027 -10.296,-1.508c-2.808,-1.0053 -4.906,-2.34 -6.292,-4.004c-1.387,-1.6987 -2.08,-3.5533 -2.08,-5.564c0,-0.3467 0.104,-0.624 0.312,-0.832c0.242,-0.208 0.537,-0.312 0.884,-0.312h10.66c0.728,0 1.317,0.2253 1.768,0.676c0.589,0.5547 1.248,0.936 1.976,1.144c0.728,0.1733 1.75,0.26 3.068,0.26c3.293,0 4.94,-0.5027 4.94,-1.508c0,-0.416 -0.226,-0.7627 -0.676,-1.04c-0.416,-0.312 -1.179,-0.572 -2.288,-0.78c-1.075,-0.2427 -2.67,-0.4853 -4.784,-0.728c-4.75,-0.5547 -8.39,-1.7333 -10.92,-3.536c-2.531,-1.8373 -3.796,-4.42 -3.796,-7.748c0,-2.3573 0.71,-4.4373 2.132,-6.24c1.421,-1.8027 3.432,-3.2067 6.032,-4.212c2.634,-1.0053 5.685,-1.508 9.152,-1.508c3.605,0 6.76,0.572 9.464,1.716c2.704,1.1093 4.766,2.496 6.188,4.16c1.421,1.664 2.132,3.2933 2.132,4.888c0,0.3467 -0.122,0.624 -0.364,0.832c-0.208,0.208 -0.503,0.312 -0.884,0.312h-11.18c-0.59,0 -1.127,-0.208 -1.612,-0.624c-0.382,-0.3467 -0.832,-0.624 -1.352,-0.832c-0.52,-0.208 -1.318,-0.312 -2.392,-0.312c-2.323,0 -3.484,0.4853 -3.484,1.456c0,0.52 0.45,0.936 1.352,1.248c0.901,0.2773 2.704,0.572 5.408,0.884zM323.912,25.432c0,-1.456 0.347,-2.7907 1.04,-4.004c0.728,-1.248 1.699,-2.2187 2.912,-2.912c1.248,-0.728 2.6,-1.092 4.056,-1.092c1.456,0 2.791,0.364 4.004,1.092c1.248,0.6933 2.219,1.664 2.912,2.912c0.728,1.2133 1.092,2.548 1.092,4.004c0,1.456 -0.364,2.808 -1.092,4.056c-0.693,1.2133 -1.664,2.184 -2.912,2.912c-1.213,0.6933 -2.548,1.04 -4.004,1.04c-1.456,0 -2.808,-0.3467 -4.056,-1.04c-1.213,-0.728 -2.184,-1.6987 -2.912,-2.912c-0.693,-1.248 -1.04,-2.6 -1.04,-4.056z" clip-rule="evenodd"></path></clipPath></defs><g style="mix-blend-mode:NORMAL"><g clip-path="url(#242120_stroke_clip_path)"><path id="242120_stroke_path" d="M27.9665,11.6c3.2587,0 6.1013,0.5547 8.528,1.664c2.4267,1.1093 4.2813,2.6173 5.564,4.524c1.2827,1.9067 1.924,4.0387 1.924,6.396c0,3.8827 -1.2133,6.9333 -3.64,9.152c-2.4267,2.184 -6.552,3.276 -12.376,3.276h-6.864v9.984c0,0.3813 -0.1387,0.7107 -0.416,0.988c-0.2773,0.2773 -0.6067,0.416 -0.988,0.416h-11.18c-0.38133,0 -0.71067,-0.1387 -0.988,-0.416c-0.27733,-0.2773 -0.416,-0.6067 -0.416,-0.988v-33.592c0,-0.3813 0.13867,-0.7107 0.416,-0.988c0.27733,-0.2773 0.60667,-0.416 0.988,-0.416z M27.7585,26.992c0.832,0 1.4907,-0.2427 1.976,-0.728c0.4853,-0.52 0.728,-1.196 0.728,-2.028c0,-0.8667 -0.2427,-1.5773 -0.728,-2.132c-0.4853,-0.5547 -1.144,-0.832 -1.976,-0.832h-6.604v5.72z M87.4862,46.388c0.0693,0.1387 0.104,0.2947 0.104,0.468c0,0.312 -0.1213,0.5893 -0.364,0.832c-0.208,0.208 -0.468,0.312 -0.78,0.312h-11.804c-0.4853,0 -0.936,-0.1213 -1.352,-0.364c-0.3813,-0.2427 -0.6587,-0.5547 -0.832,-0.936l-4.576,-10.296h-4.368v10.192c0,0.3813 -0.1387,0.7107 -0.416,0.988c-0.2773,0.2773 -0.6067,0.416 -0.988,0.416h-11.232c-0.3813,0 -0.7107,-0.1387 -0.988,-0.416c-0.2773,-0.2773 -0.416,-0.6067 -0.416,-0.988v-33.592c0,-0.3813 0.1387,-0.7107 0.416,-0.988c0.2773,-0.2773 0.6067,-0.416 0.988,-0.416h20.228c3.12,0 5.8413,0.5027 8.164,1.508c2.3573,1.0053 4.16,2.4613 5.408,4.368c1.248,1.9067 1.872,4.1427 1.872,6.708c0,4.7147 -1.82,8.1293 -5.46,10.244z M70.0142,26.784c0.7627,0 1.352,-0.2427 1.768,-0.728c0.416,-0.52 0.624,-1.1613 0.624,-1.924c0,-0.7627 -0.208,-1.4213 -0.624,-1.976c-0.3813,-0.5893 -0.9707,-0.884 -1.768,-0.884h-6.5v5.512z M130.366,32.972c0,5.304 -1.768,9.2213 -5.304,11.752c-3.501,2.5307 -8.181,3.796 -14.04,3.796c-5.859,0 -10.556,-1.2653 -14.0921,-3.796c-3.5014,-2.5307 -5.252,-6.4827 -5.252,-11.856v-6.136c0,-3.536 0.832,-6.4653 2.496,-8.788c1.6986,-2.3573 4.004,-4.0907 6.9161,-5.2c2.912,-1.1093 6.223,-1.664 9.932,-1.664c3.709,0 7.003,0.5547 9.88,1.664c2.912,1.1093 5.217,2.8253 6.916,5.148c1.699,2.3227 2.548,5.2347 2.548,8.736z M105.718,33.96c0,1.4213 0.468,2.5133 1.404,3.276c0.971,0.7627 2.271,1.144 3.9,1.144c1.629,0 2.912,-0.3813 3.848,-1.144c0.971,-0.7973 1.456,-1.9067 1.456,-3.328v-8.216c0,-1.4213 -0.485,-2.5133 -1.456,-3.276c-0.936,-0.7973 -2.219,-1.196 -3.848,-1.196c-1.629,0 -2.929,0.3813 -3.9,1.144c-0.936,0.7627 -1.404,1.8547 -1.404,3.276z M173.038,32.868c0,5.2693 -1.734,9.204 -5.2,11.804c-3.467,2.5653 -8.095,3.848 -13.884,3.848c-4.16,0 -7.714,-0.6587 -10.66,-1.976c-2.912,-1.352 -5.114,-3.0507 -6.604,-5.096c-1.456,-2.0453 -2.184,-4.108 -2.184,-6.188c0,-0.312 0.104,-0.572 0.312,-0.78c0.242,-0.2427 0.52,-0.364 0.832,-0.364h11.752c0.312,0 0.572,0.104 0.78,0.312c0.242,0.208 0.416,0.4853 0.52,0.832c0.658,2.08 2.322,3.12 4.992,3.12c1.629,0 2.912,-0.3813 3.848,-1.144c0.97,-0.7627 1.456,-1.8547 1.456,-3.276v-11.7h-18.98c-0.382,0 -0.711,-0.1387 -0.988,-0.416c-0.278,-0.2773 -0.416,-0.6067 -0.416,-0.988v-7.852c0,-0.3813 0.138,-0.7107 0.416,-0.988c0.277,-0.2773 0.606,-0.416 0.988,-0.416h31.616c0.381,0 0.71,0.1387 0.988,0.416c0.277,0.2773 0.416,0.6067 0.416,0.988z M216.229,37.86c0.382,0 0.711,0.1387 0.988,0.416c0.278,0.2773 0.416,0.6067 0.416,0.988v7.332c0,0.3813 -0.138,0.7107 -0.416,0.988c-0.277,0.2773 -0.606,0.416 -0.988,0.416h-32.864c-0.381,0 -0.71,-0.1387 -0.988,-0.416c-0.277,-0.2773 -0.416,-0.6067 -0.416,-0.988v-33.592c0,-0.3813 0.139,-0.7107 0.416,-0.988c0.278,-0.2773 0.607,-0.416 0.988,-0.416h32.344c0.382,0 0.711,0.1387 0.988,0.416c0.278,0.2773 0.416,0.6067 0.416,0.988v7.332c0,0.3813 -0.138,0.7107 -0.416,0.988c-0.277,0.2773 -0.606,0.416 -0.988,0.416h-20.228v3.276h17.368c0.382,0 0.711,0.1387 0.988,0.416c0.278,0.2773 0.416,0.6067 0.416,0.988v6.76c0,0.3813 -0.138,0.7107 -0.416,0.988c-0.277,0.2773 -0.606,0.416 -0.988,0.416h-17.368v3.276z M261.501,11.6c0.381,0 0.711,0.1387 0.988,0.416c0.277,0.2773 0.416,0.6067 0.416,0.988v8.372c0,0.3813 -0.139,0.7107 -0.416,0.988c-0.277,0.2773 -0.607,0.416 -0.988,0.416h-11.18v23.816c0,0.3813 -0.139,0.7107 -0.416,0.988c-0.277,0.2773 -0.607,0.416 -0.988,0.416h-10.712c-0.381,0 -0.711,-0.1387 -0.988,-0.416c-0.277,-0.2773 -0.416,-0.6067 -0.416,-0.988v-23.816h-11.18c-0.381,0 -0.711,-0.1387 -0.988,-0.416c-0.277,-0.2773 -0.416,-0.6067 -0.416,-0.988v-8.372c0,-0.3813 0.139,-0.7107 0.416,-0.988c0.277,-0.2773 0.607,-0.416 0.988,-0.416z M290.601,24.808c3.813,0.416 6.864,1.092 9.152,2.028c2.322,0.936 4.004,2.1667 5.044,3.692c1.04,1.5253 1.56,3.432 1.56,5.72c0,2.496 -0.815,4.68 -2.444,6.552c-1.595,1.8373 -3.814,3.2587 -6.656,4.264c-2.843,0.9707 -6.084,1.456 -9.724,1.456c-4.056,0 -7.488,-0.5027 -10.296,-1.508c-2.808,-1.0053 -4.906,-2.34 -6.292,-4.004c-1.387,-1.6987 -2.08,-3.5533 -2.08,-5.564c0,-0.3467 0.104,-0.624 0.312,-0.832c0.242,-0.208 0.537,-0.312 0.884,-0.312h10.66c0.728,0 1.317,0.2253 1.768,0.676c0.589,0.5547 1.248,0.936 1.976,1.144c0.728,0.1733 1.75,0.26 3.068,0.26c3.293,0 4.94,-0.5027 4.94,-1.508c0,-0.416 -0.226,-0.7627 -0.676,-1.04c-0.416,-0.312 -1.179,-0.572 -2.288,-0.78c-1.075,-0.2427 -2.67,-0.4853 -4.784,-0.728c-4.75,-0.5547 -8.39,-1.7333 -10.92,-3.536c-2.531,-1.8373 -3.796,-4.42 -3.796,-7.748c0,-2.3573 0.71,-4.4373 2.132,-6.24c1.421,-1.8027 3.432,-3.2067 6.032,-4.212c2.634,-1.0053 5.685,-1.508 9.152,-1.508c3.605,0 6.76,0.572 9.464,1.716c2.704,1.1093 4.766,2.496 6.188,4.16c1.421,1.664 2.132,3.2933 2.132,4.888c0,0.3467 -0.122,0.624 -0.364,0.832c-0.208,0.208 -0.503,0.312 -0.884,0.312h-11.18c-0.59,0 -1.127,-0.208 -1.612,-0.624c-0.382,-0.3467 -0.832,-0.624 -1.352,-0.832c-0.52,-0.208 -1.318,-0.312 -2.392,-0.312c-2.323,0 -3.484,0.4853 -3.484,1.456c0,0.52 0.45,0.936 1.352,1.248c0.901,0.2773 2.704,0.572 5.408,0.884z M323.912,25.432c0,-1.456 0.347,-2.7907 1.04,-4.004c0.728,-1.248 1.699,-2.2187 2.912,-2.912c1.248,-0.728 2.6,-1.092 4.056,-1.092c1.456,0 2.791,0.364 4.004,1.092c1.248,0.6933 2.219,1.664 2.912,2.912c0.728,1.2133 1.092,2.548 1.092,4.004c0,1.456 -0.364,2.808 -1.092,4.056c-0.693,1.2133 -1.664,2.184 -2.912,2.912c-1.213,0.6933 -2.548,1.04 -4.004,1.04c-1.456,0 -2.808,-0.3467 -4.056,-1.04c-1.213,-0.728 -2.184,-1.6987 -2.912,-2.912c-0.693,-1.248 -1.04,-2.6 -1.04,-4.056z" fill="none" stroke="rgb(255, 255, 255)" stroke-width="4" stroke-linecap="butt" stroke-linejoin="miter" stroke-dasharray="0 0" stroke-opacity="1"></path></g></g></g></g></g></g><g transform="matrix(1,0,0,1,354,0)"><g id="242121" opacity="1" style="mix-blend-mode:normal"><g><g><defs><clipPath id="242121_stroke_clip_path" clipPathUnits="userSpaceOnUse"><path d="M-2,-2 H356 V66 H-2 Z M27.9665,11.6c3.2587,0 6.1013,0.5547 8.528,1.664c2.4267,1.1093 4.2813,2.6173 5.564,4.524c1.2827,1.9067 1.924,4.0387 1.924,6.396c0,3.8827 -1.2133,6.9333 -3.64,9.152c-2.4267,2.184 -6.552,3.276 -12.376,3.276h-6.864v9.984c0,0.3813 -0.1387,0.7107 -0.416,0.988c-0.2773,0.2773 -0.6067,0.416 -0.988,0.416h-11.18c-0.38133,0 -0.71067,-0.1387 -0.988,-0.416c-0.27733,-0.2773 -0.416,-0.6067 -0.416,-0.988v-33.592c0,-0.3813 0.13867,-0.7107 0.416,-0.988c0.27733,-0.2773 0.60667,-0.416 0.988,-0.416zM27.7585,26.992c0.832,0 1.4907,-0.2427 1.976,-0.728c0.4853,-0.52 0.728,-1.196 0.728,-2.028c0,-0.8667 -0.2427,-1.5773 -0.728,-2.132c-0.4853,-0.5547 -1.144,-0.832 -1.976,-0.832h-6.604v5.72zM87.4862,46.388c0.0693,0.1387 0.104,0.2947 0.104,0.468c0,0.312 -0.1213,0.5893 -0.364,0.832c-0.208,0.208 -0.468,0.312 -0.78,0.312h-11.804c-0.4853,0 -0.936,-0.1213 -1.352,-0.364c-0.3813,-0.2427 -0.6587,-0.5547 -0.832,-0.936l-4.576,-10.296h-4.368v10.192c0,0.3813 -0.1387,0.7107 -0.416,0.988c-0.2773,0.2773 -0.6067,0.416 -0.988,0.416h-11.232c-0.3813,0 -0.7107,-0.1387 -0.988,-0.416c-0.2773,-0.2773 -0.416,-0.6067 -0.416,-0.988v-33.592c0,-0.3813 0.1387,-0.7107 0.416,-0.988c0.2773,-0.2773 0.6067,-0.416 0.988,-0.416h20.228c3.12,0 5.8413,0.5027 8.164,1.508c2.3573,1.0053 4.16,2.4613 5.408,4.368c1.248,1.9067 1.872,4.1427 1.872,6.708c0,4.7147 -1.82,8.1293 -5.46,10.244zM70.0142,26.784c0.7627,0 1.352,-0.2427 1.768,-0.728c0.416,-0.52 0.624,-1.1613 0.624,-1.924c0,-0.7627 -0.208,-1.4213 -0.624,-1.976c-0.3813,-0.5893 -0.9707,-0.884 -1.768,-0.884h-6.5v5.512zM130.366,32.972c0,5.304 -1.768,9.2213 -5.304,11.752c-3.501,2.5307 -8.181,3.796 -14.04,3.796c-5.859,0 -10.556,-1.2653 -14.0921,-3.796c-3.5014,-2.5307 -5.252,-6.4827 -5.252,-11.856v-6.136c0,-3.536 0.832,-6.4653 2.496,-8.788c1.6986,-2.3573 4.004,-4.0907 6.9161,-5.2c2.912,-1.1093 6.223,-1.664 9.932,-1.664c3.709,0 7.003,0.5547 9.88,1.664c2.912,1.1093 5.217,2.8253 6.916,5.148c1.699,2.3227 2.548,5.2347 2.548,8.736zM105.718,33.96c0,1.4213 0.468,2.5133 1.404,3.276c0.971,0.7627 2.271,1.144 3.9,1.144c1.629,0 2.912,-0.3813 3.848,-1.144c0.971,-0.7973 1.456,-1.9067 1.456,-3.328v-8.216c0,-1.4213 -0.485,-2.5133 -1.456,-3.276c-0.936,-0.7973 -2.219,-1.196 -3.848,-1.196c-1.629,0 -2.929,0.3813 -3.9,1.144c-0.936,0.7627 -1.404,1.8547 -1.404,3.276zM173.038,32.868c0,5.2693 -1.734,9.204 -5.2,11.804c-3.467,2.5653 -8.095,3.848 -13.884,3.848c-4.16,0 -7.714,-0.6587 -10.66,-1.976c-2.912,-1.352 -5.114,-3.0507 -6.604,-5.096c-1.456,-2.0453 -2.184,-4.108 -2.184,-6.188c0,-0.312 0.104,-0.572 0.312,-0.78c0.242,-0.2427 0.52,-0.364 0.832,-0.364h11.752c0.312,0 0.572,0.104 0.78,0.312c0.242,0.208 0.416,0.4853 0.52,0.832c0.658,2.08 2.322,3.12 4.992,3.12c1.629,0 2.912,-0.3813 3.848,-1.144c0.97,-0.7627 1.456,-1.8547 1.456,-3.276v-11.7h-18.98c-0.382,0 -0.711,-0.1387 -0.988,-0.416c-0.278,-0.2773 -0.416,-0.6067 -0.416,-0.988v-7.852c0,-0.3813 0.138,-0.7107 0.416,-0.988c0.277,-0.2773 0.606,-0.416 0.988,-0.416h31.616c0.381,0 0.71,0.1387 0.988,0.416c0.277,0.2773 0.416,0.6067 0.416,0.988zM216.229,37.86c0.382,0 0.711,0.1387 0.988,0.416c0.278,0.2773 0.416,0.6067 0.416,0.988v7.332c0,0.3813 -0.138,0.7107 -0.416,0.988c-0.277,0.2773 -0.606,0.416 -0.988,0.416h-32.864c-0.381,0 -0.71,-0.1387 -0.988,-0.416c-0.277,-0.2773 -0.416,-0.6067 -0.416,-0.988v-33.592c0,-0.3813 0.139,-0.7107 0.416,-0.988c0.278,-0.2773 0.607,-0.416 0.988,-0.416h32.344c0.382,0 0.711,0.1387 0.988,0.416c0.278,0.2773 0.416,0.6067 0.416,0.988v7.332c0,0.3813 -0.138,0.7107 -0.416,0.988c-0.277,0.2773 -0.606,0.416 -0.988,0.416h-20.228v3.276h17.368c0.382,0 0.711,0.1387 0.988,0.416c0.278,0.2773 0.416,0.6067 0.416,0.988v6.76c0,0.3813 -0.138,0.7107 -0.416,0.988c-0.277,0.2773 -0.606,0.416 -0.988,0.416h-17.368v3.276zM261.501,11.6c0.381,0 0.711,0.1387 0.988,0.416c0.277,0.2773 0.416,0.6067 0.416,0.988v8.372c0,0.3813 -0.139,0.7107 -0.416,0.988c-0.277,0.2773 -0.607,0.416 -0.988,0.416h-11.18v23.816c0,0.3813 -0.139,0.7107 -0.416,0.988c-0.277,0.2773 -0.607,0.416 -0.988,0.416h-10.712c-0.381,0 -0.711,-0.1387 -0.988,-0.416c-0.277,-0.2773 -0.416,-0.6067 -0.416,-0.988v-23.816h-11.18c-0.381,0 -0.711,-0.1387 -0.988,-0.416c-0.277,-0.2773 -0.416,-0.6067 -0.416,-0.988v-8.372c0,-0.3813 0.139,-0.7107 0.416,-0.988c0.277,-0.2773 0.607,-0.416 0.988,-0.416zM290.601,24.808c3.813,0.416 6.864,1.092 9.152,2.028c2.322,0.936 4.004,2.1667 5.044,3.692c1.04,1.5253 1.56,3.432 1.56,5.72c0,2.496 -0.815,4.68 -2.444,6.552c-1.595,1.8373 -3.814,3.2587 -6.656,4.264c-2.843,0.9707 -6.084,1.456 -9.724,1.456c-4.056,0 -7.488,-0.5027 -10.296,-1.508c-2.808,-1.0053 -4.906,-2.34 -6.292,-4.004c-1.387,-1.6987 -2.08,-3.5533 -2.08,-5.564c0,-0.3467 0.104,-0.624 0.312,-0.832c0.242,-0.208 0.537,-0.312 0.884,-0.312h10.66c0.728,0 1.317,0.2253 1.768,0.676c0.589,0.5547 1.248,0.936 1.976,1.144c0.728,0.1733 1.75,0.26 3.068,0.26c3.293,0 4.94,-0.5027 4.94,-1.508c0,-0.416 -0.226,-0.7627 -0.676,-1.04c-0.416,-0.312 -1.179,-0.572 -2.288,-0.78c-1.075,-0.2427 -2.67,-0.4853 -4.784,-0.728c-4.75,-0.5547 -8.39,-1.7333 -10.92,-3.536c-2.531,-1.8373 -3.796,-4.42 -3.796,-7.748c0,-2.3573 0.71,-4.4373 2.132,-6.24c1.421,-1.8027 3.432,-3.2067 6.032,-4.212c2.634,-1.0053 5.685,-1.508 9.152,-1.508c3.605,0 6.76,0.572 9.464,1.716c2.704,1.1093 4.766,2.496 6.188,4.16c1.421,1.664 2.132,3.2933 2.132,4.888c0,0.3467 -0.122,0.624 -0.364,0.832c-0.208,0.208 -0.503,0.312 -0.884,0.312h-11.18c-0.59,0 -1.127,-0.208 -1.612,-0.624c-0.382,-0.3467 -0.832,-0.624 -1.352,-0.832c-0.52,-0.208 -1.318,-0.312 -2.392,-0.312c-2.323,0 -3.484,0.4853 -3.484,1.456c0,0.52 0.45,0.936 1.352,1.248c0.901,0.2773 2.704,0.572 5.408,0.884zM323.912,25.432c0,-1.456 0.347,-2.7907 1.04,-4.004c0.728,-1.248 1.699,-2.2187 2.912,-2.912c1.248,-0.728 2.6,-1.092 4.056,-1.092c1.456,0 2.791,0.364 4.004,1.092c1.248,0.6933 2.219,1.664 2.912,2.912c0.728,1.2133 1.092,2.548 1.092,4.004c0,1.456 -0.364,2.808 -1.092,4.056c-0.693,1.2133 -1.664,2.184 -2.912,2.912c-1.213,0.6933 -2.548,1.04 -4.004,1.04c-1.456,0 -2.808,-0.3467 -4.056,-1.04c-1.213,-0.728 -2.184,-1.6987 -2.912,-2.912c-0.693,-1.248 -1.04,-2.6 -1.04,-4.056z" clip-rule="evenodd"></path></clipPath></defs><g style="mix-blend-mode:NORMAL"><g clip-path="url(#242121_stroke_clip_path)"><path id="242121_stroke_path" d="M27.9665,11.6c3.2587,0 6.1013,0.5547 8.528,1.664c2.4267,1.1093 4.2813,2.6173 5.564,4.524c1.2827,1.9067 1.924,4.0387 1.924,6.396c0,3.8827 -1.2133,6.9333 -3.64,9.152c-2.4267,2.184 -6.552,3.276 -12.376,3.276h-6.864v9.984c0,0.3813 -0.1387,0.7107 -0.416,0.988c-0.2773,0.2773 -0.6067,0.416 -0.988,0.416h-11.18c-0.38133,0 -0.71067,-0.1387 -0.988,-0.416c-0.27733,-0.2773 -0.416,-0.6067 -0.416,-0.988v-33.592c0,-0.3813 0.13867,-0.7107 0.416,-0.988c0.27733,-0.2773 0.60667,-0.416 0.988,-0.416z M27.7585,26.992c0.832,0 1.4907,-0.2427 1.976,-0.728c0.4853,-0.52 0.728,-1.196 0.728,-2.028c0,-0.8667 -0.2427,-1.5773 -0.728,-2.132c-0.4853,-0.5547 -1.144,-0.832 -1.976,-0.832h-6.604v5.72z M87.4862,46.388c0.0693,0.1387 0.104,0.2947 0.104,0.468c0,0.312 -0.1213,0.5893 -0.364,0.832c-0.208,0.208 -0.468,0.312 -0.78,0.312h-11.804c-0.4853,0 -0.936,-0.1213 -1.352,-0.364c-0.3813,-0.2427 -0.6587,-0.5547 -0.832,-0.936l-4.576,-10.296h-4.368v10.192c0,0.3813 -0.1387,0.7107 -0.416,0.988c-0.2773,0.2773 -0.6067,0.416 -0.988,0.416h-11.232c-0.3813,0 -0.7107,-0.1387 -0.988,-0.416c-0.2773,-0.2773 -0.416,-0.6067 -0.416,-0.988v-33.592c0,-0.3813 0.1387,-0.7107 0.416,-0.988c0.2773,-0.2773 0.6067,-0.416 0.988,-0.416h20.228c3.12,0 5.8413,0.5027 8.164,1.508c2.3573,1.0053 4.16,2.4613 5.408,4.368c1.248,1.9067 1.872,4.1427 1.872,6.708c0,4.7147 -1.82,8.1293 -5.46,10.244z M70.0142,26.784c0.7627,0 1.352,-0.2427 1.768,-0.728c0.416,-0.52 0.624,-1.1613 0.624,-1.924c0,-0.7627 -0.208,-1.4213 -0.624,-1.976c-0.3813,-0.5893 -0.9707,-0.884 -1.768,-0.884h-6.5v5.512z M130.366,32.972c0,5.304 -1.768,9.2213 -5.304,11.752c-3.501,2.5307 -8.181,3.796 -14.04,3.796c-5.859,0 -10.556,-1.2653 -14.0921,-3.796c-3.5014,-2.5307 -5.252,-6.4827 -5.252,-11.856v-6.136c0,-3.536 0.832,-6.4653 2.496,-8.788c1.6986,-2.3573 4.004,-4.0907 6.9161,-5.2c2.912,-1.1093 6.223,-1.664 9.932,-1.664c3.709,0 7.003,0.5547 9.88,1.664c2.912,1.1093 5.217,2.8253 6.916,5.148c1.699,2.3227 2.548,5.2347 2.548,8.736z M105.718,33.96c0,1.4213 0.468,2.5133 1.404,3.276c0.971,0.7627 2.271,1.144 3.9,1.144c1.629,0 2.912,-0.3813 3.848,-1.144c0.971,-0.7973 1.456,-1.9067 1.456,-3.328v-8.216c0,-1.4213 -0.485,-2.5133 -1.456,-3.276c-0.936,-0.7973 -2.219,-1.196 -3.848,-1.196c-1.629,0 -2.929,0.3813 -3.9,1.144c-0.936,0.7627 -1.404,1.8547 -1.404,3.276z M173.038,32.868c0,5.2693 -1.734,9.204 -5.2,11.804c-3.467,2.5653 -8.095,3.848 -13.884,3.848c-4.16,0 -7.714,-0.6587 -10.66,-1.976c-2.912,-1.352 -5.114,-3.0507 -6.604,-5.096c-1.456,-2.0453 -2.184,-4.108 -2.184,-6.188c0,-0.312 0.104,-0.572 0.312,-0.78c0.242,-0.2427 0.52,-0.364 0.832,-0.364h11.752c0.312,0 0.572,0.104 0.78,0.312c0.242,0.208 0.416,0.4853 0.52,0.832c0.658,2.08 2.322,3.12 4.992,3.12c1.629,0 2.912,-0.3813 3.848,-1.144c0.97,-0.7627 1.456,-1.8547 1.456,-3.276v-11.7h-18.98c-0.382,0 -0.711,-0.1387 -0.988,-0.416c-0.278,-0.2773 -0.416,-0.6067 -0.416,-0.988v-7.852c0,-0.3813 0.138,-0.7107 0.416,-0.988c0.277,-0.2773 0.606,-0.416 0.988,-0.416h31.616c0.381,0 0.71,0.1387 0.988,0.416c0.277,0.2773 0.416,0.6067 0.416,0.988z M216.229,37.86c0.382,0 0.711,0.1387 0.988,0.416c0.278,0.2773 0.416,0.6067 0.416,0.988v7.332c0,0.3813 -0.138,0.7107 -0.416,0.988c-0.277,0.2773 -0.606,0.416 -0.988,0.416h-32.864c-0.381,0 -0.71,-0.1387 -0.988,-0.416c-0.277,-0.2773 -0.416,-0.6067 -0.416,-0.988v-33.592c0,-0.3813 0.139,-0.7107 0.416,-0.988c0.278,-0.2773 0.607,-0.416 0.988,-0.416h32.344c0.382,0 0.711,0.1387 0.988,0.416c0.278,0.2773 0.416,0.6067 0.416,0.988v7.332c0,0.3813 -0.138,0.7107 -0.416,0.988c-0.277,0.2773 -0.606,0.416 -0.988,0.416h-20.228v3.276h17.368c0.382,0 0.711,0.1387 0.988,0.416c0.278,0.2773 0.416,0.6067 0.416,0.988v6.76c0,0.3813 -0.138,0.7107 -0.416,0.988c-0.277,0.2773 -0.606,0.416 -0.988,0.416h-17.368v3.276z M261.501,11.6c0.381,0 0.711,0.1387 0.988,0.416c0.277,0.2773 0.416,0.6067 0.416,0.988v8.372c0,0.3813 -0.139,0.7107 -0.416,0.988c-0.277,0.2773 -0.607,0.416 -0.988,0.416h-11.18v23.816c0,0.3813 -0.139,0.7107 -0.416,0.988c-0.277,0.2773 -0.607,0.416 -0.988,0.416h-10.712c-0.381,0 -0.711,-0.1387 -0.988,-0.416c-0.277,-0.2773 -0.416,-0.6067 -0.416,-0.988v-23.816h-11.18c-0.381,0 -0.711,-0.1387 -0.988,-0.416c-0.277,-0.2773 -0.416,-0.6067 -0.416,-0.988v-8.372c0,-0.3813 0.139,-0.7107 0.416,-0.988c0.277,-0.2773 0.607,-0.416 0.988,-0.416z M290.601,24.808c3.813,0.416 6.864,1.092 9.152,2.028c2.322,0.936 4.004,2.1667 5.044,3.692c1.04,1.5253 1.56,3.432 1.56,5.72c0,2.496 -0.815,4.68 -2.444,6.552c-1.595,1.8373 -3.814,3.2587 -6.656,4.264c-2.843,0.9707 -6.084,1.456 -9.724,1.456c-4.056,0 -7.488,-0.5027 -10.296,-1.508c-2.808,-1.0053 -4.906,-2.34 -6.292,-4.004c-1.387,-1.6987 -2.08,-3.5533 -2.08,-5.564c0,-0.3467 0.104,-0.624 0.312,-0.832c0.242,-0.208 0.537,-0.312 0.884,-0.312h10.66c0.728,0 1.317,0.2253 1.768,0.676c0.589,0.5547 1.248,0.936 1.976,1.144c0.728,0.1733 1.75,0.26 3.068,0.26c3.293,0 4.94,-0.5027 4.94,-1.508c0,-0.416 -0.226,-0.7627 -0.676,-1.04c-0.416,-0.312 -1.179,-0.572 -2.288,-0.78c-1.075,-0.2427 -2.67,-0.4853 -4.784,-0.728c-4.75,-0.5547 -8.39,-1.7333 -10.92,-3.536c-2.531,-1.8373 -3.796,-4.42 -3.796,-7.748c0,-2.3573 0.71,-4.4373 2.132,-6.24c1.421,-1.8027 3.432,-3.2067 6.032,-4.212c2.634,-1.0053 5.685,-1.508 9.152,-1.508c3.605,0 6.76,0.572 9.464,1.716c2.704,1.1093 4.766,2.496 6.188,4.16c1.421,1.664 2.132,3.2933 2.132,4.888c0,0.3467 -0.122,0.624 -0.364,0.832c-0.208,0.208 -0.503,0.312 -0.884,0.312h-11.18c-0.59,0 -1.127,-0.208 -1.612,-0.624c-0.382,-0.3467 -0.832,-0.624 -1.352,-0.832c-0.52,-0.208 -1.318,-0.312 -2.392,-0.312c-2.323,0 -3.484,0.4853 -3.484,1.456c0,0.52 0.45,0.936 1.352,1.248c0.901,0.2773 2.704,0.572 5.408,0.884z M323.912,25.432c0,-1.456 0.347,-2.7907 1.04,-4.004c0.728,-1.248 1.699,-2.2187 2.912,-2.912c1.248,-0.728 2.6,-1.092 4.056,-1.092c1.456,0 2.791,0.364 4.004,1.092c1.248,0.6933 2.219,1.664 2.912,2.912c0.728,1.2133 1.092,2.548 1.092,4.004c0,1.456 -0.364,2.808 -1.092,4.056c-0.693,1.2133 -1.664,2.184 -2.912,2.912c-1.213,0.6933 -2.548,1.04 -4.004,1.04c-1.456,0 -2.808,-0.3467 -4.056,-1.04c-1.213,-0.728 -2.184,-1.6987 -2.912,-2.912c-0.693,-1.248 -1.04,-2.6 -1.04,-4.056z" fill="none" stroke="rgb(255, 255, 255)" stroke-width="4" stroke-linecap="butt" stroke-linejoin="miter" stroke-dasharray="0 0" stroke-opacity="1"></path></g></g></g></g></g></g><g transform="matrix(1,0,0,1,708,0)"><g id="242122" opacity="1" style="mix-blend-mode:normal"><g><g><defs><clipPath id="242122_stroke_clip_path" clipPathUnits="userSpaceOnUse"><path d="M-2,-2 H356 V66 H-2 Z M27.9665,11.6c3.2587,0 6.1013,0.5547 8.528,1.664c2.4267,1.1093 4.2813,2.6173 5.564,4.524c1.2827,1.9067 1.924,4.0387 1.924,6.396c0,3.8827 -1.2133,6.9333 -3.64,9.152c-2.4267,2.184 -6.552,3.276 -12.376,3.276h-6.864v9.984c0,0.3813 -0.1387,0.7107 -0.416,0.988c-0.2773,0.2773 -0.6067,0.416 -0.988,0.416h-11.18c-0.38133,0 -0.71067,-0.1387 -0.988,-0.416c-0.27733,-0.2773 -0.416,-0.6067 -0.416,-0.988v-33.592c0,-0.3813 0.13867,-0.7107 0.416,-0.988c0.27733,-0.2773 0.60667,-0.416 0.988,-0.416zM27.7585,26.992c0.832,0 1.4907,-0.2427 1.976,-0.728c0.4853,-0.52 0.728,-1.196 0.728,-2.028c0,-0.8667 -0.2427,-1.5773 -0.728,-2.132c-0.4853,-0.5547 -1.144,-0.832 -1.976,-0.832h-6.604v5.72zM87.4862,46.388c0.0693,0.1387 0.104,0.2947 0.104,0.468c0,0.312 -0.1213,0.5893 -0.364,0.832c-0.208,0.208 -0.468,0.312 -0.78,0.312h-11.804c-0.4853,0 -0.936,-0.1213 -1.352,-0.364c-0.3813,-0.2427 -0.6587,-0.5547 -0.832,-0.936l-4.576,-10.296h-4.368v10.192c0,0.3813 -0.1387,0.7107 -0.416,0.988c-0.2773,0.2773 -0.6067,0.416 -0.988,0.416h-11.232c-0.3813,0 -0.7107,-0.1387 -0.988,-0.416c-0.2773,-0.2773 -0.416,-0.6067 -0.416,-0.988v-33.592c0,-0.3813 0.1387,-0.7107 0.416,-0.988c0.2773,-0.2773 0.6067,-0.416 0.988,-0.416h20.228c3.12,0 5.8413,0.5027 8.164,1.508c2.3573,1.0053 4.16,2.4613 5.408,4.368c1.248,1.9067 1.872,4.1427 1.872,6.708c0,4.7147 -1.82,8.1293 -5.46,10.244zM70.0142,26.784c0.7627,0 1.352,-0.2427 1.768,-0.728c0.416,-0.52 0.624,-1.1613 0.624,-1.924c0,-0.7627 -0.208,-1.4213 -0.624,-1.976c-0.3813,-0.5893 -0.9707,-0.884 -1.768,-0.884h-6.5v5.512zM130.366,32.972c0,5.304 -1.768,9.2213 -5.304,11.752c-3.501,2.5307 -8.181,3.796 -14.04,3.796c-5.859,0 -10.556,-1.2653 -14.0921,-3.796c-3.5014,-2.5307 -5.252,-6.4827 -5.252,-11.856v-6.136c0,-3.536 0.832,-6.4653 2.496,-8.788c1.6986,-2.3573 4.004,-4.0907 6.9161,-5.2c2.912,-1.1093 6.223,-1.664 9.932,-1.664c3.709,0 7.003,0.5547 9.88,1.664c2.912,1.1093 5.217,2.8253 6.916,5.148c1.699,2.3227 2.548,5.2347 2.548,8.736zM105.718,33.96c0,1.4213 0.468,2.5133 1.404,3.276c0.971,0.7627 2.271,1.144 3.9,1.144c1.629,0 2.912,-0.3813 3.848,-1.144c0.971,-0.7973 1.456,-1.9067 1.456,-3.328v-8.216c0,-1.4213 -0.485,-2.5133 -1.456,-3.276c-0.936,-0.7973 -2.219,-1.196 -3.848,-1.196c-1.629,0 -2.929,0.3813 -3.9,1.144c-0.936,0.7627 -1.404,1.8547 -1.404,3.276zM173.038,32.868c0,5.2693 -1.734,9.204 -5.2,11.804c-3.467,2.5653 -8.095,3.848 -13.884,3.848c-4.16,0 -7.714,-0.6587 -10.66,-1.976c-2.912,-1.352 -5.114,-3.0507 -6.604,-5.096c-1.456,-2.0453 -2.184,-4.108 -2.184,-6.188c0,-0.312 0.104,-0.572 0.312,-0.78c0.242,-0.2427 0.52,-0.364 0.832,-0.364h11.752c0.312,0 0.572,0.104 0.78,0.312c0.242,0.208 0.416,0.4853 0.52,0.832c0.658,2.08 2.322,3.12 4.992,3.12c1.629,0 2.912,-0.3813 3.848,-1.144c0.97,-0.7627 1.456,-1.8547 1.456,-3.276v-11.7h-18.98c-0.382,0 -0.711,-0.1387 -0.988,-0.416c-0.278,-0.2773 -0.416,-0.6067 -0.416,-0.988v-7.852c0,-0.3813 0.138,-0.7107 0.416,-0.988c0.277,-0.2773 0.606,-0.416 0.988,-0.416h31.616c0.381,0 0.71,0.1387 0.988,0.416c0.277,0.2773 0.416,0.6067 0.416,0.988zM216.229,37.86c0.382,0 0.711,0.1387 0.988,0.416c0.278,0.2773 0.416,0.6067 0.416,0.988v7.332c0,0.3813 -0.138,0.7107 -0.416,0.988c-0.277,0.2773 -0.606,0.416 -0.988,0.416h-32.864c-0.381,0 -0.71,-0.1387 -0.988,-0.416c-0.277,-0.2773 -0.416,-0.6067 -0.416,-0.988v-33.592c0,-0.3813 0.139,-0.7107 0.416,-0.988c0.278,-0.2773 0.607,-0.416 0.988,-0.416h32.344c0.382,0 0.711,0.1387 0.988,0.416c0.278,0.2773 0.416,0.6067 0.416,0.988v7.332c0,0.3813 -0.138,0.7107 -0.416,0.988c-0.277,0.2773 -0.606,0.416 -0.988,0.416h-20.228v3.276h17.368c0.382,0 0.711,0.1387 0.988,0.416c0.278,0.2773 0.416,0.6067 0.416,0.988v6.76c0,0.3813 -0.138,0.7107 -0.416,0.988c-0.277,0.2773 -0.606,0.416 -0.988,0.416h-17.368v3.276zM261.501,11.6c0.381,0 0.711,0.1387 0.988,0.416c0.277,0.2773 0.416,0.6067 0.416,0.988v8.372c0,0.3813 -0.139,0.7107 -0.416,0.988c-0.277,0.2773 -0.607,0.416 -0.988,0.416h-11.18v23.816c0,0.3813 -0.139,0.7107 -0.416,0.988c-0.277,0.2773 -0.607,0.416 -0.988,0.416h-10.712c-0.381,0 -0.711,-0.1387 -0.988,-0.416c-0.277,-0.2773 -0.416,-0.6067 -0.416,-0.988v-23.816h-11.18c-0.381,0 -0.711,-0.1387 -0.988,-0.416c-0.277,-0.2773 -0.416,-0.6067 -0.416,-0.988v-8.372c0,-0.3813 0.139,-0.7107 0.416,-0.988c0.277,-0.2773 0.607,-0.416 0.988,-0.416zM290.601,24.808c3.813,0.416 6.864,1.092 9.152,2.028c2.322,0.936 4.004,2.1667 5.044,3.692c1.04,1.5253 1.56,3.432 1.56,5.72c0,2.496 -0.815,4.68 -2.444,6.552c-1.595,1.8373 -3.814,3.2587 -6.656,4.264c-2.843,0.9707 -6.084,1.456 -9.724,1.456c-4.056,0 -7.488,-0.5027 -10.296,-1.508c-2.808,-1.0053 -4.906,-2.34 -6.292,-4.004c-1.387,-1.6987 -2.08,-3.5533 -2.08,-5.564c0,-0.3467 0.104,-0.624 0.312,-0.832c0.242,-0.208 0.537,-0.312 0.884,-0.312h10.66c0.728,0 1.317,0.2253 1.768,0.676c0.589,0.5547 1.248,0.936 1.976,1.144c0.728,0.1733 1.75,0.26 3.068,0.26c3.293,0 4.94,-0.5027 4.94,-1.508c0,-0.416 -0.226,-0.7627 -0.676,-1.04c-0.416,-0.312 -1.179,-0.572 -2.288,-0.78c-1.075,-0.2427 -2.67,-0.4853 -4.784,-0.728c-4.75,-0.5547 -8.39,-1.7333 -10.92,-3.536c-2.531,-1.8373 -3.796,-4.42 -3.796,-7.748c0,-2.3573 0.71,-4.4373 2.132,-6.24c1.421,-1.8027 3.432,-3.2067 6.032,-4.212c2.634,-1.0053 5.685,-1.508 9.152,-1.508c3.605,0 6.76,0.572 9.464,1.716c2.704,1.1093 4.766,2.496 6.188,4.16c1.421,1.664 2.132,3.2933 2.132,4.888c0,0.3467 -0.122,0.624 -0.364,0.832c-0.208,0.208 -0.503,0.312 -0.884,0.312h-11.18c-0.59,0 -1.127,-0.208 -1.612,-0.624c-0.382,-0.3467 -0.832,-0.624 -1.352,-0.832c-0.52,-0.208 -1.318,-0.312 -2.392,-0.312c-2.323,0 -3.484,0.4853 -3.484,1.456c0,0.52 0.45,0.936 1.352,1.248c0.901,0.2773 2.704,0.572 5.408,0.884zM323.912,25.432c0,-1.456 0.347,-2.7907 1.04,-4.004c0.728,-1.248 1.699,-2.2187 2.912,-2.912c1.248,-0.728 2.6,-1.092 4.056,-1.092c1.456,0 2.791,0.364 4.004,1.092c1.248,0.6933 2.219,1.664 2.912,2.912c0.728,1.2133 1.092,2.548 1.092,4.004c0,1.456 -0.364,2.808 -1.092,4.056c-0.693,1.2133 -1.664,2.184 -2.912,2.912c-1.213,0.6933 -2.548,1.04 -4.004,1.04c-1.456,0 -2.808,-0.3467 -4.056,-1.04c-1.213,-0.728 -2.184,-1.6987 -2.912,-2.912c-0.693,-1.248 -1.04,-2.6 -1.04,-4.056z" clip-rule="evenodd"></path></clipPath></defs><g style="mix-blend-mode:NORMAL"><g clip-path="url(#242122_stroke_clip_path)"><path id="242122_stroke_path" d="M27.9665,11.6c3.2587,0 6.1013,0.5547 8.528,1.664c2.4267,1.1093 4.2813,2.6173 5.564,4.524c1.2827,1.9067 1.924,4.0387 1.924,6.396c0,3.8827 -1.2133,6.9333 -3.64,9.152c-2.4267,2.184 -6.552,3.276 -12.376,3.276h-6.864v9.984c0,0.3813 -0.1387,0.7107 -0.416,0.988c-0.2773,0.2773 -0.6067,0.416 -0.988,0.416h-11.18c-0.38133,0 -0.71067,-0.1387 -0.988,-0.416c-0.27733,-0.2773 -0.416,-0.6067 -0.416,-0.988v-33.592c0,-0.3813 0.13867,-0.7107 0.416,-0.988c0.27733,-0.2773 0.60667,-0.416 0.988,-0.416z M27.7585,26.992c0.832,0 1.4907,-0.2427 1.976,-0.728c0.4853,-0.52 0.728,-1.196 0.728,-2.028c0,-0.8667 -0.2427,-1.5773 -0.728,-2.132c-0.4853,-0.5547 -1.144,-0.832 -1.976,-0.832h-6.604v5.72z M87.4862,46.388c0.0693,0.1387 0.104,0.2947 0.104,0.468c0,0.312 -0.1213,0.5893 -0.364,0.832c-0.208,0.208 -0.468,0.312 -0.78,0.312h-11.804c-0.4853,0 -0.936,-0.1213 -1.352,-0.364c-0.3813,-0.2427 -0.6587,-0.5547 -0.832,-0.936l-4.576,-10.296h-4.368v10.192c0,0.3813 -0.1387,0.7107 -0.416,0.988c-0.2773,0.2773 -0.6067,0.416 -0.988,0.416h-11.232c-0.3813,0 -0.7107,-0.1387 -0.988,-0.416c-0.2773,-0.2773 -0.416,-0.6067 -0.416,-0.988v-33.592c0,-0.3813 0.1387,-0.7107 0.416,-0.988c0.2773,-0.2773 0.6067,-0.416 0.988,-0.416h20.228c3.12,0 5.8413,0.5027 8.164,1.508c2.3573,1.0053 4.16,2.4613 5.408,4.368c1.248,1.9067 1.872,4.1427 1.872,6.708c0,4.7147 -1.82,8.1293 -5.46,10.244z M70.0142,26.784c0.7627,0 1.352,-0.2427 1.768,-0.728c0.416,-0.52 0.624,-1.1613 0.624,-1.924c0,-0.7627 -0.208,-1.4213 -0.624,-1.976c-0.3813,-0.5893 -0.9707,-0.884 -1.768,-0.884h-6.5v5.512z M130.366,32.972c0,5.304 -1.768,9.2213 -5.304,11.752c-3.501,2.5307 -8.181,3.796 -14.04,3.796c-5.859,0 -10.556,-1.2653 -14.0921,-3.796c-3.5014,-2.5307 -5.252,-6.4827 -5.252,-11.856v-6.136c0,-3.536 0.832,-6.4653 2.496,-8.788c1.6986,-2.3573 4.004,-4.0907 6.9161,-5.2c2.912,-1.1093 6.223,-1.664 9.932,-1.664c3.709,0 7.003,0.5547 9.88,1.664c2.912,1.1093 5.217,2.8253 6.916,5.148c1.699,2.3227 2.548,5.2347 2.548,8.736z M105.718,33.96c0,1.4213 0.468,2.5133 1.404,3.276c0.971,0.7627 2.271,1.144 3.9,1.144c1.629,0 2.912,-0.3813 3.848,-1.144c0.971,-0.7973 1.456,-1.9067 1.456,-3.328v-8.216c0,-1.4213 -0.485,-2.5133 -1.456,-3.276c-0.936,-0.7973 -2.219,-1.196 -3.848,-1.196c-1.629,0 -2.929,0.3813 -3.9,1.144c-0.936,0.7627 -1.404,1.8547 -1.404,3.276z M173.038,32.868c0,5.2693 -1.734,9.204 -5.2,11.804c-3.467,2.5653 -8.095,3.848 -13.884,3.848c-4.16,0 -7.714,-0.6587 -10.66,-1.976c-2.912,-1.352 -5.114,-3.0507 -6.604,-5.096c-1.456,-2.0453 -2.184,-4.108 -2.184,-6.188c0,-0.312 0.104,-0.572 0.312,-0.78c0.242,-0.2427 0.52,-0.364 0.832,-0.364h11.752c0.312,0 0.572,0.104 0.78,0.312c0.242,0.208 0.416,0.4853 0.52,0.832c0.658,2.08 2.322,3.12 4.992,3.12c1.629,0 2.912,-0.3813 3.848,-1.144c0.97,-0.7627 1.456,-1.8547 1.456,-3.276v-11.7h-18.98c-0.382,0 -0.711,-0.1387 -0.988,-0.416c-0.278,-0.2773 -0.416,-0.6067 -0.416,-0.988v-7.852c0,-0.3813 0.138,-0.7107 0.416,-0.988c0.277,-0.2773 0.606,-0.416 0.988,-0.416h31.616c0.381,0 0.71,0.1387 0.988,0.416c0.277,0.2773 0.416,0.6067 0.416,0.988z M216.229,37.86c0.382,0 0.711,0.1387 0.988,0.416c0.278,0.2773 0.416,0.6067 0.416,0.988v7.332c0,0.3813 -0.138,0.7107 -0.416,0.988c-0.277,0.2773 -0.606,0.416 -0.988,0.416h-32.864c-0.381,0 -0.71,-0.1387 -0.988,-0.416c-0.277,-0.2773 -0.416,-0.6067 -0.416,-0.988v-33.592c0,-0.3813 0.139,-0.7107 0.416,-0.988c0.278,-0.2773 0.607,-0.416 0.988,-0.416h32.344c0.382,0 0.711,0.1387 0.988,0.416c0.278,0.2773 0.416,0.6067 0.416,0.988v7.332c0,0.3813 -0.138,0.7107 -0.416,0.988c-0.277,0.2773 -0.606,0.416 -0.988,0.416h-20.228v3.276h17.368c0.382,0 0.711,0.1387 0.988,0.416c0.278,0.2773 0.416,0.6067 0.416,0.988v6.76c0,0.3813 -0.138,0.7107 -0.416,0.988c-0.277,0.2773 -0.606,0.416 -0.988,0.416h-17.368v3.276z M261.501,11.6c0.381,0 0.711,0.1387 0.988,0.416c0.277,0.2773 0.416,0.6067 0.416,0.988v8.372c0,0.3813 -0.139,0.7107 -0.416,0.988c-0.277,0.2773 -0.607,0.416 -0.988,0.416h-11.18v23.816c0,0.3813 -0.139,0.7107 -0.416,0.988c-0.277,0.2773 -0.607,0.416 -0.988,0.416h-10.712c-0.381,0 -0.711,-0.1387 -0.988,-0.416c-0.277,-0.2773 -0.416,-0.6067 -0.416,-0.988v-23.816h-11.18c-0.381,0 -0.711,-0.1387 -0.988,-0.416c-0.277,-0.2773 -0.416,-0.6067 -0.416,-0.988v-8.372c0,-0.3813 0.139,-0.7107 0.416,-0.988c0.277,-0.2773 0.607,-0.416 0.988,-0.416z M290.601,24.808c3.813,0.416 6.864,1.092 9.152,2.028c2.322,0.936 4.004,2.1667 5.044,3.692c1.04,1.5253 1.56,3.432 1.56,5.72c0,2.496 -0.815,4.68 -2.444,6.552c-1.595,1.8373 -3.814,3.2587 -6.656,4.264c-2.843,0.9707 -6.084,1.456 -9.724,1.456c-4.056,0 -7.488,-0.5027 -10.296,-1.508c-2.808,-1.0053 -4.906,-2.34 -6.292,-4.004c-1.387,-1.6987 -2.08,-3.5533 -2.08,-5.564c0,-0.3467 0.104,-0.624 0.312,-0.832c0.242,-0.208 0.537,-0.312 0.884,-0.312h10.66c0.728,0 1.317,0.2253 1.768,0.676c0.589,0.5547 1.248,0.936 1.976,1.144c0.728,0.1733 1.75,0.26 3.068,0.26c3.293,0 4.94,-0.5027 4.94,-1.508c0,-0.416 -0.226,-0.7627 -0.676,-1.04c-0.416,-0.312 -1.179,-0.572 -2.288,-0.78c-1.075,-0.2427 -2.67,-0.4853 -4.784,-0.728c-4.75,-0.5547 -8.39,-1.7333 -10.92,-3.536c-2.531,-1.8373 -3.796,-4.42 -3.796,-7.748c0,-2.3573 0.71,-4.4373 2.132,-6.24c1.421,-1.8027 3.432,-3.2067 6.032,-4.212c2.634,-1.0053 5.685,-1.508 9.152,-1.508c3.605,0 6.76,0.572 9.464,1.716c2.704,1.1093 4.766,2.496 6.188,4.16c1.421,1.664 2.132,3.2933 2.132,4.888c0,0.3467 -0.122,0.624 -0.364,0.832c-0.208,0.208 -0.503,0.312 -0.884,0.312h-11.18c-0.59,0 -1.127,-0.208 -1.612,-0.624c-0.382,-0.3467 -0.832,-0.624 -1.352,-0.832c-0.52,-0.208 -1.318,-0.312 -2.392,-0.312c-2.323,0 -3.484,0.4853 -3.484,1.456c0,0.52 0.45,0.936 1.352,1.248c0.901,0.2773 2.704,0.572 5.408,0.884z M323.912,25.432c0,-1.456 0.347,-2.7907 1.04,-4.004c0.728,-1.248 1.699,-2.2187 2.912,-2.912c1.248,-0.728 2.6,-1.092 4.056,-1.092c1.456,0 2.791,0.364 4.004,1.092c1.248,0.6933 2.219,1.664 2.912,2.912c0.728,1.2133 1.092,2.548 1.092,4.004c0,1.456 -0.364,2.808 -1.092,4.056c-0.693,1.2133 -1.664,2.184 -2.912,2.912c-1.213,0.6933 -2.548,1.04 -4.004,1.04c-1.456,0 -2.808,-0.3467 -4.056,-1.04c-1.213,-0.728 -2.184,-1.6987 -2.912,-2.912c-0.693,-1.248 -1.04,-2.6 -1.04,-4.056z" fill="none" stroke="rgb(255, 255, 255)" stroke-width="4" stroke-linecap="butt" stroke-linejoin="miter" stroke-dasharray="0 0" stroke-opacity="1"></path></g></g></g></g></g></g><g transform="matrix(1,0,0,1,1062,0)"><g id="242123" opacity="1" style="mix-blend-mode:normal"><g><g><defs><clipPath id="242123_stroke_clip_path" clipPathUnits="userSpaceOnUse"><path d="M-2,-2 H356 V66 H-2 Z M27.9665,11.6c3.2587,0 6.1013,0.5547 8.528,1.664c2.4267,1.1093 4.2813,2.6173 5.564,4.524c1.2827,1.9067 1.924,4.0387 1.924,6.396c0,3.8827 -1.2133,6.9333 -3.64,9.152c-2.4267,2.184 -6.552,3.276 -12.376,3.276h-6.864v9.984c0,0.3813 -0.1387,0.7107 -0.416,0.988c-0.2773,0.2773 -0.6067,0.416 -0.988,0.416h-11.18c-0.38133,0 -0.71067,-0.1387 -0.988,-0.416c-0.27733,-0.2773 -0.416,-0.6067 -0.416,-0.988v-33.592c0,-0.3813 0.13867,-0.7107 0.416,-0.988c0.27733,-0.2773 0.60667,-0.416 0.988,-0.416zM27.7585,26.992c0.832,0 1.4907,-0.2427 1.976,-0.728c0.4853,-0.52 0.728,-1.196 0.728,-2.028c0,-0.8667 -0.2427,-1.5773 -0.728,-2.132c-0.4853,-0.5547 -1.144,-0.832 -1.976,-0.832h-6.604v5.72zM87.4862,46.388c0.0693,0.1387 0.104,0.2947 0.104,0.468c0,0.312 -0.1213,0.5893 -0.364,0.832c-0.208,0.208 -0.468,0.312 -0.78,0.312h-11.804c-0.4853,0 -0.936,-0.1213 -1.352,-0.364c-0.3813,-0.2427 -0.6587,-0.5547 -0.832,-0.936l-4.576,-10.296h-4.368v10.192c0,0.3813 -0.1387,0.7107 -0.416,0.988c-0.2773,0.2773 -0.6067,0.416 -0.988,0.416h-11.232c-0.3813,0 -0.7107,-0.1387 -0.988,-0.416c-0.2773,-0.2773 -0.416,-0.6067 -0.416,-0.988v-33.592c0,-0.3813 0.1387,-0.7107 0.416,-0.988c0.2773,-0.2773 0.6067,-0.416 0.988,-0.416h20.228c3.12,0 5.8413,0.5027 8.164,1.508c2.3573,1.0053 4.16,2.4613 5.408,4.368c1.248,1.9067 1.872,4.1427 1.872,6.708c0,4.7147 -1.82,8.1293 -5.46,10.244zM70.0142,26.784c0.7627,0 1.352,-0.2427 1.768,-0.728c0.416,-0.52 0.624,-1.1613 0.624,-1.924c0,-0.7627 -0.208,-1.4213 -0.624,-1.976c-0.3813,-0.5893 -0.9707,-0.884 -1.768,-0.884h-6.5v5.512zM130.366,32.972c0,5.304 -1.768,9.2213 -5.304,11.752c-3.501,2.5307 -8.181,3.796 -14.04,3.796c-5.859,0 -10.556,-1.2653 -14.0921,-3.796c-3.5014,-2.5307 -5.252,-6.4827 -5.252,-11.856v-6.136c0,-3.536 0.832,-6.4653 2.496,-8.788c1.6986,-2.3573 4.004,-4.0907 6.9161,-5.2c2.912,-1.1093 6.223,-1.664 9.932,-1.664c3.709,0 7.003,0.5547 9.88,1.664c2.912,1.1093 5.217,2.8253 6.916,5.148c1.699,2.3227 2.548,5.2347 2.548,8.736zM105.718,33.96c0,1.4213 0.468,2.5133 1.404,3.276c0.971,0.7627 2.271,1.144 3.9,1.144c1.629,0 2.912,-0.3813 3.848,-1.144c0.971,-0.7973 1.456,-1.9067 1.456,-3.328v-8.216c0,-1.4213 -0.485,-2.5133 -1.456,-3.276c-0.936,-0.7973 -2.219,-1.196 -3.848,-1.196c-1.629,0 -2.929,0.3813 -3.9,1.144c-0.936,0.7627 -1.404,1.8547 -1.404,3.276zM173.038,32.868c0,5.2693 -1.734,9.204 -5.2,11.804c-3.467,2.5653 -8.095,3.848 -13.884,3.848c-4.16,0 -7.714,-0.6587 -10.66,-1.976c-2.912,-1.352 -5.114,-3.0507 -6.604,-5.096c-1.456,-2.0453 -2.184,-4.108 -2.184,-6.188c0,-0.312 0.104,-0.572 0.312,-0.78c0.242,-0.2427 0.52,-0.364 0.832,-0.364h11.752c0.312,0 0.572,0.104 0.78,0.312c0.242,0.208 0.416,0.4853 0.52,0.832c0.658,2.08 2.322,3.12 4.992,3.12c1.629,0 2.912,-0.3813 3.848,-1.144c0.97,-0.7627 1.456,-1.8547 1.456,-3.276v-11.7h-18.98c-0.382,0 -0.711,-0.1387 -0.988,-0.416c-0.278,-0.2773 -0.416,-0.6067 -0.416,-0.988v-7.852c0,-0.3813 0.138,-0.7107 0.416,-0.988c0.277,-0.2773 0.606,-0.416 0.988,-0.416h31.616c0.381,0 0.71,0.1387 0.988,0.416c0.277,0.2773 0.416,0.6067 0.416,0.988zM216.229,37.86c0.382,0 0.711,0.1387 0.988,0.416c0.278,0.2773 0.416,0.6067 0.416,0.988v7.332c0,0.3813 -0.138,0.7107 -0.416,0.988c-0.277,0.2773 -0.606,0.416 -0.988,0.416h-32.864c-0.381,0 -0.71,-0.1387 -0.988,-0.416c-0.277,-0.2773 -0.416,-0.6067 -0.416,-0.988v-33.592c0,-0.3813 0.139,-0.7107 0.416,-0.988c0.278,-0.2773 0.607,-0.416 0.988,-0.416h32.344c0.382,0 0.711,0.1387 0.988,0.416c0.278,0.2773 0.416,0.6067 0.416,0.988v7.332c0,0.3813 -0.138,0.7107 -0.416,0.988c-0.277,0.2773 -0.606,0.416 -0.988,0.416h-20.228v3.276h17.368c0.382,0 0.711,0.1387 0.988,0.416c0.278,0.2773 0.416,0.6067 0.416,0.988v6.76c0,0.3813 -0.138,0.7107 -0.416,0.988c-0.277,0.2773 -0.606,0.416 -0.988,0.416h-17.368v3.276zM261.501,11.6c0.381,0 0.711,0.1387 0.988,0.416c0.277,0.2773 0.416,0.6067 0.416,0.988v8.372c0,0.3813 -0.139,0.7107 -0.416,0.988c-0.277,0.2773 -0.607,0.416 -0.988,0.416h-11.18v23.816c0,0.3813 -0.139,0.7107 -0.416,0.988c-0.277,0.2773 -0.607,0.416 -0.988,0.416h-10.712c-0.381,0 -0.711,-0.1387 -0.988,-0.416c-0.277,-0.2773 -0.416,-0.6067 -0.416,-0.988v-23.816h-11.18c-0.381,0 -0.711,-0.1387 -0.988,-0.416c-0.277,-0.2773 -0.416,-0.6067 -0.416,-0.988v-8.372c0,-0.3813 0.139,-0.7107 0.416,-0.988c0.277,-0.2773 0.607,-0.416 0.988,-0.416zM290.601,24.808c3.813,0.416 6.864,1.092 9.152,2.028c2.322,0.936 4.004,2.1667 5.044,3.692c1.04,1.5253 1.56,3.432 1.56,5.72c0,2.496 -0.815,4.68 -2.444,6.552c-1.595,1.8373 -3.814,3.2587 -6.656,4.264c-2.843,0.9707 -6.084,1.456 -9.724,1.456c-4.056,0 -7.488,-0.5027 -10.296,-1.508c-2.808,-1.0053 -4.906,-2.34 -6.292,-4.004c-1.387,-1.6987 -2.08,-3.5533 -2.08,-5.564c0,-0.3467 0.104,-0.624 0.312,-0.832c0.242,-0.208 0.537,-0.312 0.884,-0.312h10.66c0.728,0 1.317,0.2253 1.768,0.676c0.589,0.5547 1.248,0.936 1.976,1.144c0.728,0.1733 1.75,0.26 3.068,0.26c3.293,0 4.94,-0.5027 4.94,-1.508c0,-0.416 -0.226,-0.7627 -0.676,-1.04c-0.416,-0.312 -1.179,-0.572 -2.288,-0.78c-1.075,-0.2427 -2.67,-0.4853 -4.784,-0.728c-4.75,-0.5547 -8.39,-1.7333 -10.92,-3.536c-2.531,-1.8373 -3.796,-4.42 -3.796,-7.748c0,-2.3573 0.71,-4.4373 2.132,-6.24c1.421,-1.8027 3.432,-3.2067 6.032,-4.212c2.634,-1.0053 5.685,-1.508 9.152,-1.508c3.605,0 6.76,0.572 9.464,1.716c2.704,1.1093 4.766,2.496 6.188,4.16c1.421,1.664 2.132,3.2933 2.132,4.888c0,0.3467 -0.122,0.624 -0.364,0.832c-0.208,0.208 -0.503,0.312 -0.884,0.312h-11.18c-0.59,0 -1.127,-0.208 -1.612,-0.624c-0.382,-0.3467 -0.832,-0.624 -1.352,-0.832c-0.52,-0.208 -1.318,-0.312 -2.392,-0.312c-2.323,0 -3.484,0.4853 -3.484,1.456c0,0.52 0.45,0.936 1.352,1.248c0.901,0.2773 2.704,0.572 5.408,0.884zM323.912,25.432c0,-1.456 0.347,-2.7907 1.04,-4.004c0.728,-1.248 1.699,-2.2187 2.912,-2.912c1.248,-0.728 2.6,-1.092 4.056,-1.092c1.456,0 2.791,0.364 4.004,1.092c1.248,0.6933 2.219,1.664 2.912,2.912c0.728,1.2133 1.092,2.548 1.092,4.004c0,1.456 -0.364,2.808 -1.092,4.056c-0.693,1.2133 -1.664,2.184 -2.912,2.912c-1.213,0.6933 -2.548,1.04 -4.004,1.04c-1.456,0 -2.808,-0.3467 -4.056,-1.04c-1.213,-0.728 -2.184,-1.6987 -2.912,-2.912c-0.693,-1.248 -1.04,-2.6 -1.04,-4.056z" clip-rule="evenodd"></path></clipPath></defs><g style="mix-blend-mode:NORMAL"><g clip-path="url(#242123_stroke_clip_path)"><path id="242123_stroke_path" d="M27.9665,11.6c3.2587,0 6.1013,0.5547 8.528,1.664c2.4267,1.1093 4.2813,2.6173 5.564,4.524c1.2827,1.9067 1.924,4.0387 1.924,6.396c0,3.8827 -1.2133,6.9333 -3.64,9.152c-2.4267,2.184 -6.552,3.276 -12.376,3.276h-6.864v9.984c0,0.3813 -0.1387,0.7107 -0.416,0.988c-0.2773,0.2773 -0.6067,0.416 -0.988,0.416h-11.18c-0.38133,0 -0.71067,-0.1387 -0.988,-0.416c-0.27733,-0.2773 -0.416,-0.6067 -0.416,-0.988v-33.592c0,-0.3813 0.13867,-0.7107 0.416,-0.988c0.27733,-0.2773 0.60667,-0.416 0.988,-0.416z M27.7585,26.992c0.832,0 1.4907,-0.2427 1.976,-0.728c0.4853,-0.52 0.728,-1.196 0.728,-2.028c0,-0.8667 -0.2427,-1.5773 -0.728,-2.132c-0.4853,-0.5547 -1.144,-0.832 -1.976,-0.832h-6.604v5.72z M87.4862,46.388c0.0693,0.1387 0.104,0.2947 0.104,0.468c0,0.312 -0.1213,0.5893 -0.364,0.832c-0.208,0.208 -0.468,0.312 -0.78,0.312h-11.804c-0.4853,0 -0.936,-0.1213 -1.352,-0.364c-0.3813,-0.2427 -0.6587,-0.5547 -0.832,-0.936l-4.576,-10.296h-4.368v10.192c0,0.3813 -0.1387,0.7107 -0.416,0.988c-0.2773,0.2773 -0.6067,0.416 -0.988,0.416h-11.232c-0.3813,0 -0.7107,-0.1387 -0.988,-0.416c-0.2773,-0.2773 -0.416,-0.6067 -0.416,-0.988v-33.592c0,-0.3813 0.1387,-0.7107 0.416,-0.988c0.2773,-0.2773 0.6067,-0.416 0.988,-0.416h20.228c3.12,0 5.8413,0.5027 8.164,1.508c2.3573,1.0053 4.16,2.4613 5.408,4.368c1.248,1.9067 1.872,4.1427 1.872,6.708c0,4.7147 -1.82,8.1293 -5.46,10.244z M70.0142,26.784c0.7627,0 1.352,-0.2427 1.768,-0.728c0.416,-0.52 0.624,-1.1613 0.624,-1.924c0,-0.7627 -0.208,-1.4213 -0.624,-1.976c-0.3813,-0.5893 -0.9707,-0.884 -1.768,-0.884h-6.5v5.512z M130.366,32.972c0,5.304 -1.768,9.2213 -5.304,11.752c-3.501,2.5307 -8.181,3.796 -14.04,3.796c-5.859,0 -10.556,-1.2653 -14.0921,-3.796c-3.5014,-2.5307 -5.252,-6.4827 -5.252,-11.856v-6.136c0,-3.536 0.832,-6.4653 2.496,-8.788c1.6986,-2.3573 4.004,-4.0907 6.9161,-5.2c2.912,-1.1093 6.223,-1.664 9.932,-1.664c3.709,0 7.003,0.5547 9.88,1.664c2.912,1.1093 5.217,2.8253 6.916,5.148c1.699,2.3227 2.548,5.2347 2.548,8.736z M105.718,33.96c0,1.4213 0.468,2.5133 1.404,3.276c0.971,0.7627 2.271,1.144 3.9,1.144c1.629,0 2.912,-0.3813 3.848,-1.144c0.971,-0.7973 1.456,-1.9067 1.456,-3.328v-8.216c0,-1.4213 -0.485,-2.5133 -1.456,-3.276c-0.936,-0.7973 -2.219,-1.196 -3.848,-1.196c-1.629,0 -2.929,0.3813 -3.9,1.144c-0.936,0.7627 -1.404,1.8547 -1.404,3.276z M173.038,32.868c0,5.2693 -1.734,9.204 -5.2,11.804c-3.467,2.5653 -8.095,3.848 -13.884,3.848c-4.16,0 -7.714,-0.6587 -10.66,-1.976c-2.912,-1.352 -5.114,-3.0507 -6.604,-5.096c-1.456,-2.0453 -2.184,-4.108 -2.184,-6.188c0,-0.312 0.104,-0.572 0.312,-0.78c0.242,-0.2427 0.52,-0.364 0.832,-0.364h11.752c0.312,0 0.572,0.104 0.78,0.312c0.242,0.208 0.416,0.4853 0.52,0.832c0.658,2.08 2.322,3.12 4.992,3.12c1.629,0 2.912,-0.3813 3.848,-1.144c0.97,-0.7627 1.456,-1.8547 1.456,-3.276v-11.7h-18.98c-0.382,0 -0.711,-0.1387 -0.988,-0.416c-0.278,-0.2773 -0.416,-0.6067 -0.416,-0.988v-7.852c0,-0.3813 0.138,-0.7107 0.416,-0.988c0.277,-0.2773 0.606,-0.416 0.988,-0.416h31.616c0.381,0 0.71,0.1387 0.988,0.416c0.277,0.2773 0.416,0.6067 0.416,0.988z M216.229,37.86c0.382,0 0.711,0.1387 0.988,0.416c0.278,0.2773 0.416,0.6067 0.416,0.988v7.332c0,0.3813 -0.138,0.7107 -0.416,0.988c-0.277,0.2773 -0.606,0.416 -0.988,0.416h-32.864c-0.381,0 -0.71,-0.1387 -0.988,-0.416c-0.277,-0.2773 -0.416,-0.6067 -0.416,-0.988v-33.592c0,-0.3813 0.139,-0.7107 0.416,-0.988c0.278,-0.2773 0.607,-0.416 0.988,-0.416h32.344c0.382,0 0.711,0.1387 0.988,0.416c0.278,0.2773 0.416,0.6067 0.416,0.988v7.332c0,0.3813 -0.138,0.7107 -0.416,0.988c-0.277,0.2773 -0.606,0.416 -0.988,0.416h-20.228v3.276h17.368c0.382,0 0.711,0.1387 0.988,0.416c0.278,0.2773 0.416,0.6067 0.416,0.988v6.76c0,0.3813 -0.138,0.7107 -0.416,0.988c-0.277,0.2773 -0.606,0.416 -0.988,0.416h-17.368v3.276z M261.501,11.6c0.381,0 0.711,0.1387 0.988,0.416c0.277,0.2773 0.416,0.6067 0.416,0.988v8.372c0,0.3813 -0.139,0.7107 -0.416,0.988c-0.277,0.2773 -0.607,0.416 -0.988,0.416h-11.18v23.816c0,0.3813 -0.139,0.7107 -0.416,0.988c-0.277,0.2773 -0.607,0.416 -0.988,0.416h-10.712c-0.381,0 -0.711,-0.1387 -0.988,-0.416c-0.277,-0.2773 -0.416,-0.6067 -0.416,-0.988v-23.816h-11.18c-0.381,0 -0.711,-0.1387 -0.988,-0.416c-0.277,-0.2773 -0.416,-0.6067 -0.416,-0.988v-8.372c0,-0.3813 0.139,-0.7107 0.416,-0.988c0.277,-0.2773 0.607,-0.416 0.988,-0.416z M290.601,24.808c3.813,0.416 6.864,1.092 9.152,2.028c2.322,0.936 4.004,2.1667 5.044,3.692c1.04,1.5253 1.56,3.432 1.56,5.72c0,2.496 -0.815,4.68 -2.444,6.552c-1.595,1.8373 -3.814,3.2587 -6.656,4.264c-2.843,0.9707 -6.084,1.456 -9.724,1.456c-4.056,0 -7.488,-0.5027 -10.296,-1.508c-2.808,-1.0053 -4.906,-2.34 -6.292,-4.004c-1.387,-1.6987 -2.08,-3.5533 -2.08,-5.564c0,-0.3467 0.104,-0.624 0.312,-0.832c0.242,-0.208 0.537,-0.312 0.884,-0.312h10.66c0.728,0 1.317,0.2253 1.768,0.676c0.589,0.5547 1.248,0.936 1.976,1.144c0.728,0.1733 1.75,0.26 3.068,0.26c3.293,0 4.94,-0.5027 4.94,-1.508c0,-0.416 -0.226,-0.7627 -0.676,-1.04c-0.416,-0.312 -1.179,-0.572 -2.288,-0.78c-1.075,-0.2427 -2.67,-0.4853 -4.784,-0.728c-4.75,-0.5547 -8.39,-1.7333 -10.92,-3.536c-2.531,-1.8373 -3.796,-4.42 -3.796,-7.748c0,-2.3573 0.71,-4.4373 2.132,-6.24c1.421,-1.8027 3.432,-3.2067 6.032,-4.212c2.634,-1.0053 5.685,-1.508 9.152,-1.508c3.605,0 6.76,0.572 9.464,1.716c2.704,1.1093 4.766,2.496 6.188,4.16c1.421,1.664 2.132,3.2933 2.132,4.888c0,0.3467 -0.122,0.624 -0.364,0.832c-0.208,0.208 -0.503,0.312 -0.884,0.312h-11.18c-0.59,0 -1.127,-0.208 -1.612,-0.624c-0.382,-0.3467 -0.832,-0.624 -1.352,-0.832c-0.52,-0.208 -1.318,-0.312 -2.392,-0.312c-2.323,0 -3.484,0.4853 -3.484,1.456c0,0.52 0.45,0.936 1.352,1.248c0.901,0.2773 2.704,0.572 5.408,0.884z M323.912,25.432c0,-1.456 0.347,-2.7907 1.04,-4.004c0.728,-1.248 1.699,-2.2187 2.912,-2.912c1.248,-0.728 2.6,-1.092 4.056,-1.092c1.456,0 2.791,0.364 4.004,1.092c1.248,0.6933 2.219,1.664 2.912,2.912c0.728,1.2133 1.092,2.548 1.092,4.004c0,1.456 -0.364,2.808 -1.092,4.056c-0.693,1.2133 -1.664,2.184 -2.912,2.912c-1.213,0.6933 -2.548,1.04 -4.004,1.04c-1.456,0 -2.808,-0.3467 -4.056,-1.04c-1.213,-0.728 -2.184,-1.6987 -2.912,-2.912c-0.693,-1.248 -1.04,-2.6 -1.04,-4.056z" fill="none" stroke="rgb(255, 255, 255)" stroke-width="4" stroke-linecap="butt" stroke-linejoin="miter" stroke-dasharray="0 0" stroke-opacity="1"></path></g></g></g></g></g></g><g transform="matrix(1,0,0,1,1416,0)"><g id="242124" opacity="1" style="mix-blend-mode:normal"><g><g><defs><clipPath id="242124_stroke_clip_path" clipPathUnits="userSpaceOnUse"><path d="M-2,-2 H356 V66 H-2 Z M27.9665,11.6c3.2587,0 6.1013,0.5547 8.528,1.664c2.4267,1.1093 4.2813,2.6173 5.564,4.524c1.2827,1.9067 1.924,4.0387 1.924,6.396c0,3.8827 -1.2133,6.9333 -3.64,9.152c-2.4267,2.184 -6.552,3.276 -12.376,3.276h-6.864v9.984c0,0.3813 -0.1387,0.7107 -0.416,0.988c-0.2773,0.2773 -0.6067,0.416 -0.988,0.416h-11.18c-0.38133,0 -0.71067,-0.1387 -0.988,-0.416c-0.27733,-0.2773 -0.416,-0.6067 -0.416,-0.988v-33.592c0,-0.3813 0.13867,-0.7107 0.416,-0.988c0.27733,-0.2773 0.60667,-0.416 0.988,-0.416zM27.7585,26.992c0.832,0 1.4907,-0.2427 1.976,-0.728c0.4853,-0.52 0.728,-1.196 0.728,-2.028c0,-0.8667 -0.2427,-1.5773 -0.728,-2.132c-0.4853,-0.5547 -1.144,-0.832 -1.976,-0.832h-6.604v5.72zM87.4862,46.388c0.0693,0.1387 0.104,0.2947 0.104,0.468c0,0.312 -0.1213,0.5893 -0.364,0.832c-0.208,0.208 -0.468,0.312 -0.78,0.312h-11.804c-0.4853,0 -0.936,-0.1213 -1.352,-0.364c-0.3813,-0.2427 -0.6587,-0.5547 -0.832,-0.936l-4.576,-10.296h-4.368v10.192c0,0.3813 -0.1387,0.7107 -0.416,0.988c-0.2773,0.2773 -0.6067,0.416 -0.988,0.416h-11.232c-0.3813,0 -0.7107,-0.1387 -0.988,-0.416c-0.2773,-0.2773 -0.416,-0.6067 -0.416,-0.988v-33.592c0,-0.3813 0.1387,-0.7107 0.416,-0.988c0.2773,-0.2773 0.6067,-0.416 0.988,-0.416h20.228c3.12,0 5.8413,0.5027 8.164,1.508c2.3573,1.0053 4.16,2.4613 5.408,4.368c1.248,1.9067 1.872,4.1427 1.872,6.708c0,4.7147 -1.82,8.1293 -5.46,10.244zM70.0142,26.784c0.7627,0 1.352,-0.2427 1.768,-0.728c0.416,-0.52 0.624,-1.1613 0.624,-1.924c0,-0.7627 -0.208,-1.4213 -0.624,-1.976c-0.3813,-0.5893 -0.9707,-0.884 -1.768,-0.884h-6.5v5.512zM130.366,32.972c0,5.304 -1.768,9.2213 -5.304,11.752c-3.501,2.5307 -8.181,3.796 -14.04,3.796c-5.859,0 -10.556,-1.2653 -14.0921,-3.796c-3.5014,-2.5307 -5.252,-6.4827 -5.252,-11.856v-6.136c0,-3.536 0.832,-6.4653 2.496,-8.788c1.6986,-2.3573 4.004,-4.0907 6.9161,-5.2c2.912,-1.1093 6.223,-1.664 9.932,-1.664c3.709,0 7.003,0.5547 9.88,1.664c2.912,1.1093 5.217,2.8253 6.916,5.148c1.699,2.3227 2.548,5.2347 2.548,8.736zM105.718,33.96c0,1.4213 0.468,2.5133 1.404,3.276c0.971,0.7627 2.271,1.144 3.9,1.144c1.629,0 2.912,-0.3813 3.848,-1.144c0.971,-0.7973 1.456,-1.9067 1.456,-3.328v-8.216c0,-1.4213 -0.485,-2.5133 -1.456,-3.276c-0.936,-0.7973 -2.219,-1.196 -3.848,-1.196c-1.629,0 -2.929,0.3813 -3.9,1.144c-0.936,0.7627 -1.404,1.8547 -1.404,3.276zM173.038,32.868c0,5.2693 -1.734,9.204 -5.2,11.804c-3.467,2.5653 -8.095,3.848 -13.884,3.848c-4.16,0 -7.714,-0.6587 -10.66,-1.976c-2.912,-1.352 -5.114,-3.0507 -6.604,-5.096c-1.456,-2.0453 -2.184,-4.108 -2.184,-6.188c0,-0.312 0.104,-0.572 0.312,-0.78c0.242,-0.2427 0.52,-0.364 0.832,-0.364h11.752c0.312,0 0.572,0.104 0.78,0.312c0.242,0.208 0.416,0.4853 0.52,0.832c0.658,2.08 2.322,3.12 4.992,3.12c1.629,0 2.912,-0.3813 3.848,-1.144c0.97,-0.7627 1.456,-1.8547 1.456,-3.276v-11.7h-18.98c-0.382,0 -0.711,-0.1387 -0.988,-0.416c-0.278,-0.2773 -0.416,-0.6067 -0.416,-0.988v-7.852c0,-0.3813 0.138,-0.7107 0.416,-0.988c0.277,-0.2773 0.606,-0.416 0.988,-0.416h31.616c0.381,0 0.71,0.1387 0.988,0.416c0.277,0.2773 0.416,0.6067 0.416,0.988zM216.229,37.86c0.382,0 0.711,0.1387 0.988,0.416c0.278,0.2773 0.416,0.6067 0.416,0.988v7.332c0,0.3813 -0.138,0.7107 -0.416,0.988c-0.277,0.2773 -0.606,0.416 -0.988,0.416h-32.864c-0.381,0 -0.71,-0.1387 -0.988,-0.416c-0.277,-0.2773 -0.416,-0.6067 -0.416,-0.988v-33.592c0,-0.3813 0.139,-0.7107 0.416,-0.988c0.278,-0.2773 0.607,-0.416 0.988,-0.416h32.344c0.382,0 0.711,0.1387 0.988,0.416c0.278,0.2773 0.416,0.6067 0.416,0.988v7.332c0,0.3813 -0.138,0.7107 -0.416,0.988c-0.277,0.2773 -0.606,0.416 -0.988,0.416h-20.228v3.276h17.368c0.382,0 0.711,0.1387 0.988,0.416c0.278,0.2773 0.416,0.6067 0.416,0.988v6.76c0,0.3813 -0.138,0.7107 -0.416,0.988c-0.277,0.2773 -0.606,0.416 -0.988,0.416h-17.368v3.276zM261.501,11.6c0.381,0 0.711,0.1387 0.988,0.416c0.277,0.2773 0.416,0.6067 0.416,0.988v8.372c0,0.3813 -0.139,0.7107 -0.416,0.988c-0.277,0.2773 -0.607,0.416 -0.988,0.416h-11.18v23.816c0,0.3813 -0.139,0.7107 -0.416,0.988c-0.277,0.2773 -0.607,0.416 -0.988,0.416h-10.712c-0.381,0 -0.711,-0.1387 -0.988,-0.416c-0.277,-0.2773 -0.416,-0.6067 -0.416,-0.988v-23.816h-11.18c-0.381,0 -0.711,-0.1387 -0.988,-0.416c-0.277,-0.2773 -0.416,-0.6067 -0.416,-0.988v-8.372c0,-0.3813 0.139,-0.7107 0.416,-0.988c0.277,-0.2773 0.607,-0.416 0.988,-0.416zM290.601,24.808c3.813,0.416 6.864,1.092 9.152,2.028c2.322,0.936 4.004,2.1667 5.044,3.692c1.04,1.5253 1.56,3.432 1.56,5.72c0,2.496 -0.815,4.68 -2.444,6.552c-1.595,1.8373 -3.814,3.2587 -6.656,4.264c-2.843,0.9707 -6.084,1.456 -9.724,1.456c-4.056,0 -7.488,-0.5027 -10.296,-1.508c-2.808,-1.0053 -4.906,-2.34 -6.292,-4.004c-1.387,-1.6987 -2.08,-3.5533 -2.08,-5.564c0,-0.3467 0.104,-0.624 0.312,-0.832c0.242,-0.208 0.537,-0.312 0.884,-0.312h10.66c0.728,0 1.317,0.2253 1.768,0.676c0.589,0.5547 1.248,0.936 1.976,1.144c0.728,0.1733 1.75,0.26 3.068,0.26c3.293,0 4.94,-0.5027 4.94,-1.508c0,-0.416 -0.226,-0.7627 -0.676,-1.04c-0.416,-0.312 -1.179,-0.572 -2.288,-0.78c-1.075,-0.2427 -2.67,-0.4853 -4.784,-0.728c-4.75,-0.5547 -8.39,-1.7333 -10.92,-3.536c-2.531,-1.8373 -3.796,-4.42 -3.796,-7.748c0,-2.3573 0.71,-4.4373 2.132,-6.24c1.421,-1.8027 3.432,-3.2067 6.032,-4.212c2.634,-1.0053 5.685,-1.508 9.152,-1.508c3.605,0 6.76,0.572 9.464,1.716c2.704,1.1093 4.766,2.496 6.188,4.16c1.421,1.664 2.132,3.2933 2.132,4.888c0,0.3467 -0.122,0.624 -0.364,0.832c-0.208,0.208 -0.503,0.312 -0.884,0.312h-11.18c-0.59,0 -1.127,-0.208 -1.612,-0.624c-0.382,-0.3467 -0.832,-0.624 -1.352,-0.832c-0.52,-0.208 -1.318,-0.312 -2.392,-0.312c-2.323,0 -3.484,0.4853 -3.484,1.456c0,0.52 0.45,0.936 1.352,1.248c0.901,0.2773 2.704,0.572 5.408,0.884zM323.912,25.432c0,-1.456 0.347,-2.7907 1.04,-4.004c0.728,-1.248 1.699,-2.2187 2.912,-2.912c1.248,-0.728 2.6,-1.092 4.056,-1.092c1.456,0 2.791,0.364 4.004,1.092c1.248,0.6933 2.219,1.664 2.912,2.912c0.728,1.2133 1.092,2.548 1.092,4.004c0,1.456 -0.364,2.808 -1.092,4.056c-0.693,1.2133 -1.664,2.184 -2.912,2.912c-1.213,0.6933 -2.548,1.04 -4.004,1.04c-1.456,0 -2.808,-0.3467 -4.056,-1.04c-1.213,-0.728 -2.184,-1.6987 -2.912,-2.912c-0.693,-1.248 -1.04,-2.6 -1.04,-4.056z" clip-rule="evenodd"></path></clipPath></defs><g style="mix-blend-mode:NORMAL"><g clip-path="url(#242124_stroke_clip_path)"><path id="242124_stroke_path" d="M27.9665,11.6c3.2587,0 6.1013,0.5547 8.528,1.664c2.4267,1.1093 4.2813,2.6173 5.564,4.524c1.2827,1.9067 1.924,4.0387 1.924,6.396c0,3.8827 -1.2133,6.9333 -3.64,9.152c-2.4267,2.184 -6.552,3.276 -12.376,3.276h-6.864v9.984c0,0.3813 -0.1387,0.7107 -0.416,0.988c-0.2773,0.2773 -0.6067,0.416 -0.988,0.416h-11.18c-0.38133,0 -0.71067,-0.1387 -0.988,-0.416c-0.27733,-0.2773 -0.416,-0.6067 -0.416,-0.988v-33.592c0,-0.3813 0.13867,-0.7107 0.416,-0.988c0.27733,-0.2773 0.60667,-0.416 0.988,-0.416z M27.7585,26.992c0.832,0 1.4907,-0.2427 1.976,-0.728c0.4853,-0.52 0.728,-1.196 0.728,-2.028c0,-0.8667 -0.2427,-1.5773 -0.728,-2.132c-0.4853,-0.5547 -1.144,-0.832 -1.976,-0.832h-6.604v5.72z M87.4862,46.388c0.0693,0.1387 0.104,0.2947 0.104,0.468c0,0.312 -0.1213,0.5893 -0.364,0.832c-0.208,0.208 -0.468,0.312 -0.78,0.312h-11.804c-0.4853,0 -0.936,-0.1213 -1.352,-0.364c-0.3813,-0.2427 -0.6587,-0.5547 -0.832,-0.936l-4.576,-10.296h-4.368v10.192c0,0.3813 -0.1387,0.7107 -0.416,0.988c-0.2773,0.2773 -0.6067,0.416 -0.988,0.416h-11.232c-0.3813,0 -0.7107,-0.1387 -0.988,-0.416c-0.2773,-0.2773 -0.416,-0.6067 -0.416,-0.988v-33.592c0,-0.3813 0.1387,-0.7107 0.416,-0.988c0.2773,-0.2773 0.6067,-0.416 0.988,-0.416h20.228c3.12,0 5.8413,0.5027 8.164,1.508c2.3573,1.0053 4.16,2.4613 5.408,4.368c1.248,1.9067 1.872,4.1427 1.872,6.708c0,4.7147 -1.82,8.1293 -5.46,10.244z M70.0142,26.784c0.7627,0 1.352,-0.2427 1.768,-0.728c0.416,-0.52 0.624,-1.1613 0.624,-1.924c0,-0.7627 -0.208,-1.4213 -0.624,-1.976c-0.3813,-0.5893 -0.9707,-0.884 -1.768,-0.884h-6.5v5.512z M130.366,32.972c0,5.304 -1.768,9.2213 -5.304,11.752c-3.501,2.5307 -8.181,3.796 -14.04,3.796c-5.859,0 -10.556,-1.2653 -14.0921,-3.796c-3.5014,-2.5307 -5.252,-6.4827 -5.252,-11.856v-6.136c0,-3.536 0.832,-6.4653 2.496,-8.788c1.6986,-2.3573 4.004,-4.0907 6.9161,-5.2c2.912,-1.1093 6.223,-1.664 9.932,-1.664c3.709,0 7.003,0.5547 9.88,1.664c2.912,1.1093 5.217,2.8253 6.916,5.148c1.699,2.3227 2.548,5.2347 2.548,8.736z M105.718,33.96c0,1.4213 0.468,2.5133 1.404,3.276c0.971,0.7627 2.271,1.144 3.9,1.144c1.629,0 2.912,-0.3813 3.848,-1.144c0.971,-0.7973 1.456,-1.9067 1.456,-3.328v-8.216c0,-1.4213 -0.485,-2.5133 -1.456,-3.276c-0.936,-0.7973 -2.219,-1.196 -3.848,-1.196c-1.629,0 -2.929,0.3813 -3.9,1.144c-0.936,0.7627 -1.404,1.8547 -1.404,3.276z M173.038,32.868c0,5.2693 -1.734,9.204 -5.2,11.804c-3.467,2.5653 -8.095,3.848 -13.884,3.848c-4.16,0 -7.714,-0.6587 -10.66,-1.976c-2.912,-1.352 -5.114,-3.0507 -6.604,-5.096c-1.456,-2.0453 -2.184,-4.108 -2.184,-6.188c0,-0.312 0.104,-0.572 0.312,-0.78c0.242,-0.2427 0.52,-0.364 0.832,-0.364h11.752c0.312,0 0.572,0.104 0.78,0.312c0.242,0.208 0.416,0.4853 0.52,0.832c0.658,2.08 2.322,3.12 4.992,3.12c1.629,0 2.912,-0.3813 3.848,-1.144c0.97,-0.7627 1.456,-1.8547 1.456,-3.276v-11.7h-18.98c-0.382,0 -0.711,-0.1387 -0.988,-0.416c-0.278,-0.2773 -0.416,-0.6067 -0.416,-0.988v-7.852c0,-0.3813 0.138,-0.7107 0.416,-0.988c0.277,-0.2773 0.606,-0.416 0.988,-0.416h31.616c0.381,0 0.71,0.1387 0.988,0.416c0.277,0.2773 0.416,0.6067 0.416,0.988z M216.229,37.86c0.382,0 0.711,0.1387 0.988,0.416c0.278,0.2773 0.416,0.6067 0.416,0.988v7.332c0,0.3813 -0.138,0.7107 -0.416,0.988c-0.277,0.2773 -0.606,0.416 -0.988,0.416h-32.864c-0.381,0 -0.71,-0.1387 -0.988,-0.416c-0.277,-0.2773 -0.416,-0.6067 -0.416,-0.988v-33.592c0,-0.3813 0.139,-0.7107 0.416,-0.988c0.278,-0.2773 0.607,-0.416 0.988,-0.416h32.344c0.382,0 0.711,0.1387 0.988,0.416c0.278,0.2773 0.416,0.6067 0.416,0.988v7.332c0,0.3813 -0.138,0.7107 -0.416,0.988c-0.277,0.2773 -0.606,0.416 -0.988,0.416h-20.228v3.276h17.368c0.382,0 0.711,0.1387 0.988,0.416c0.278,0.2773 0.416,0.6067 0.416,0.988v6.76c0,0.3813 -0.138,0.7107 -0.416,0.988c-0.277,0.2773 -0.606,0.416 -0.988,0.416h-17.368v3.276z M261.501,11.6c0.381,0 0.711,0.1387 0.988,0.416c0.277,0.2773 0.416,0.6067 0.416,0.988v8.372c0,0.3813 -0.139,0.7107 -0.416,0.988c-0.277,0.2773 -0.607,0.416 -0.988,0.416h-11.18v23.816c0,0.3813 -0.139,0.7107 -0.416,0.988c-0.277,0.2773 -0.607,0.416 -0.988,0.416h-10.712c-0.381,0 -0.711,-0.1387 -0.988,-0.416c-0.277,-0.2773 -0.416,-0.6067 -0.416,-0.988v-23.816h-11.18c-0.381,0 -0.711,-0.1387 -0.988,-0.416c-0.277,-0.2773 -0.416,-0.6067 -0.416,-0.988v-8.372c0,-0.3813 0.139,-0.7107 0.416,-0.988c0.277,-0.2773 0.607,-0.416 0.988,-0.416z M290.601,24.808c3.813,0.416 6.864,1.092 9.152,2.028c2.322,0.936 4.004,2.1667 5.044,3.692c1.04,1.5253 1.56,3.432 1.56,5.72c0,2.496 -0.815,4.68 -2.444,6.552c-1.595,1.8373 -3.814,3.2587 -6.656,4.264c-2.843,0.9707 -6.084,1.456 -9.724,1.456c-4.056,0 -7.488,-0.5027 -10.296,-1.508c-2.808,-1.0053 -4.906,-2.34 -6.292,-4.004c-1.387,-1.6987 -2.08,-3.5533 -2.08,-5.564c0,-0.3467 0.104,-0.624 0.312,-0.832c0.242,-0.208 0.537,-0.312 0.884,-0.312h10.66c0.728,0 1.317,0.2253 1.768,0.676c0.589,0.5547 1.248,0.936 1.976,1.144c0.728,0.1733 1.75,0.26 3.068,0.26c3.293,0 4.94,-0.5027 4.94,-1.508c0,-0.416 -0.226,-0.7627 -0.676,-1.04c-0.416,-0.312 -1.179,-0.572 -2.288,-0.78c-1.075,-0.2427 -2.67,-0.4853 -4.784,-0.728c-4.75,-0.5547 -8.39,-1.7333 -10.92,-3.536c-2.531,-1.8373 -3.796,-4.42 -3.796,-7.748c0,-2.3573 0.71,-4.4373 2.132,-6.24c1.421,-1.8027 3.432,-3.2067 6.032,-4.212c2.634,-1.0053 5.685,-1.508 9.152,-1.508c3.605,0 6.76,0.572 9.464,1.716c2.704,1.1093 4.766,2.496 6.188,4.16c1.421,1.664 2.132,3.2933 2.132,4.888c0,0.3467 -0.122,0.624 -0.364,0.832c-0.208,0.208 -0.503,0.312 -0.884,0.312h-11.18c-0.59,0 -1.127,-0.208 -1.612,-0.624c-0.382,-0.3467 -0.832,-0.624 -1.352,-0.832c-0.52,-0.208 -1.318,-0.312 -2.392,-0.312c-2.323,0 -3.484,0.4853 -3.484,1.456c0,0.52 0.45,0.936 1.352,1.248c0.901,0.2773 2.704,0.572 5.408,0.884z M323.912,25.432c0,-1.456 0.347,-2.7907 1.04,-4.004c0.728,-1.248 1.699,-2.2187 2.912,-2.912c1.248,-0.728 2.6,-1.092 4.056,-1.092c1.456,0 2.791,0.364 4.004,1.092c1.248,0.6933 2.219,1.664 2.912,2.912c0.728,1.2133 1.092,2.548 1.092,4.004c0,1.456 -0.364,2.808 -1.092,4.056c-0.693,1.2133 -1.664,2.184 -2.912,2.912c-1.213,0.6933 -2.548,1.04 -4.004,1.04c-1.456,0 -2.808,-0.3467 -4.056,-1.04c-1.213,-0.728 -2.184,-1.6987 -2.912,-2.912c-0.693,-1.248 -1.04,-2.6 -1.04,-4.056z" fill="none" stroke="rgb(255, 255, 255)" stroke-width="4" stroke-linecap="butt" stroke-linejoin="miter" stroke-dasharray="0 0" stroke-opacity="1"></path></g></g></g></g></g></g><g transform="matrix(1,0,0,1,1770,0)"><g id="242125" opacity="1" style="mix-blend-mode:normal"><g><g><defs><clipPath id="242125_stroke_clip_path" clipPathUnits="userSpaceOnUse"><path d="M-2,-2 H356 V66 H-2 Z M27.9665,11.6c3.2587,0 6.1013,0.5547 8.528,1.664c2.4267,1.1093 4.2813,2.6173 5.564,4.524c1.2827,1.9067 1.924,4.0387 1.924,6.396c0,3.8827 -1.2133,6.9333 -3.64,9.152c-2.4267,2.184 -6.552,3.276 -12.376,3.276h-6.864v9.984c0,0.3813 -0.1387,0.7107 -0.416,0.988c-0.2773,0.2773 -0.6067,0.416 -0.988,0.416h-11.18c-0.38133,0 -0.71067,-0.1387 -0.988,-0.416c-0.27733,-0.2773 -0.416,-0.6067 -0.416,-0.988v-33.592c0,-0.3813 0.13867,-0.7107 0.416,-0.988c0.27733,-0.2773 0.60667,-0.416 0.988,-0.416zM27.7585,26.992c0.832,0 1.4907,-0.2427 1.976,-0.728c0.4853,-0.52 0.728,-1.196 0.728,-2.028c0,-0.8667 -0.2427,-1.5773 -0.728,-2.132c-0.4853,-0.5547 -1.144,-0.832 -1.976,-0.832h-6.604v5.72zM87.4862,46.388c0.0693,0.1387 0.104,0.2947 0.104,0.468c0,0.312 -0.1213,0.5893 -0.364,0.832c-0.208,0.208 -0.468,0.312 -0.78,0.312h-11.804c-0.4853,0 -0.936,-0.1213 -1.352,-0.364c-0.3813,-0.2427 -0.6587,-0.5547 -0.832,-0.936l-4.576,-10.296h-4.368v10.192c0,0.3813 -0.1387,0.7107 -0.416,0.988c-0.2773,0.2773 -0.6067,0.416 -0.988,0.416h-11.232c-0.3813,0 -0.7107,-0.1387 -0.988,-0.416c-0.2773,-0.2773 -0.416,-0.6067 -0.416,-0.988v-33.592c0,-0.3813 0.1387,-0.7107 0.416,-0.988c0.2773,-0.2773 0.6067,-0.416 0.988,-0.416h20.228c3.12,0 5.8413,0.5027 8.164,1.508c2.3573,1.0053 4.16,2.4613 5.408,4.368c1.248,1.9067 1.872,4.1427 1.872,6.708c0,4.7147 -1.82,8.1293 -5.46,10.244zM70.0142,26.784c0.7627,0 1.352,-0.2427 1.768,-0.728c0.416,-0.52 0.624,-1.1613 0.624,-1.924c0,-0.7627 -0.208,-1.4213 -0.624,-1.976c-0.3813,-0.5893 -0.9707,-0.884 -1.768,-0.884h-6.5v5.512zM130.366,32.972c0,5.304 -1.768,9.2213 -5.304,11.752c-3.501,2.5307 -8.181,3.796 -14.04,3.796c-5.859,0 -10.556,-1.2653 -14.0921,-3.796c-3.5014,-2.5307 -5.252,-6.4827 -5.252,-11.856v-6.136c0,-3.536 0.832,-6.4653 2.496,-8.788c1.6986,-2.3573 4.004,-4.0907 6.9161,-5.2c2.912,-1.1093 6.223,-1.664 9.932,-1.664c3.709,0 7.003,0.5547 9.88,1.664c2.912,1.1093 5.217,2.8253 6.916,5.148c1.699,2.3227 2.548,5.2347 2.548,8.736zM105.718,33.96c0,1.4213 0.468,2.5133 1.404,3.276c0.971,0.7627 2.271,1.144 3.9,1.144c1.629,0 2.912,-0.3813 3.848,-1.144c0.971,-0.7973 1.456,-1.9067 1.456,-3.328v-8.216c0,-1.4213 -0.485,-2.5133 -1.456,-3.276c-0.936,-0.7973 -2.219,-1.196 -3.848,-1.196c-1.629,0 -2.929,0.3813 -3.9,1.144c-0.936,0.7627 -1.404,1.8547 -1.404,3.276zM173.038,32.868c0,5.2693 -1.734,9.204 -5.2,11.804c-3.467,2.5653 -8.095,3.848 -13.884,3.848c-4.16,0 -7.714,-0.6587 -10.66,-1.976c-2.912,-1.352 -5.114,-3.0507 -6.604,-5.096c-1.456,-2.0453 -2.184,-4.108 -2.184,-6.188c0,-0.312 0.104,-0.572 0.312,-0.78c0.242,-0.2427 0.52,-0.364 0.832,-0.364h11.752c0.312,0 0.572,0.104 0.78,0.312c0.242,0.208 0.416,0.4853 0.52,0.832c0.658,2.08 2.322,3.12 4.992,3.12c1.629,0 2.912,-0.3813 3.848,-1.144c0.97,-0.7627 1.456,-1.8547 1.456,-3.276v-11.7h-18.98c-0.382,0 -0.711,-0.1387 -0.988,-0.416c-0.278,-0.2773 -0.416,-0.6067 -0.416,-0.988v-7.852c0,-0.3813 0.138,-0.7107 0.416,-0.988c0.277,-0.2773 0.606,-0.416 0.988,-0.416h31.616c0.381,0 0.71,0.1387 0.988,0.416c0.277,0.2773 0.416,0.6067 0.416,0.988zM216.229,37.86c0.382,0 0.711,0.1387 0.988,0.416c0.278,0.2773 0.416,0.6067 0.416,0.988v7.332c0,0.3813 -0.138,0.7107 -0.416,0.988c-0.277,0.2773 -0.606,0.416 -0.988,0.416h-32.864c-0.381,0 -0.71,-0.1387 -0.988,-0.416c-0.277,-0.2773 -0.416,-0.6067 -0.416,-0.988v-33.592c0,-0.3813 0.139,-0.7107 0.416,-0.988c0.278,-0.2773 0.607,-0.416 0.988,-0.416h32.344c0.382,0 0.711,0.1387 0.988,0.416c0.278,0.2773 0.416,0.6067 0.416,0.988v7.332c0,0.3813 -0.138,0.7107 -0.416,0.988c-0.277,0.2773 -0.606,0.416 -0.988,0.416h-20.228v3.276h17.368c0.382,0 0.711,0.1387 0.988,0.416c0.278,0.2773 0.416,0.6067 0.416,0.988v6.76c0,0.3813 -0.138,0.7107 -0.416,0.988c-0.277,0.2773 -0.606,0.416 -0.988,0.416h-17.368v3.276zM261.501,11.6c0.381,0 0.711,0.1387 0.988,0.416c0.277,0.2773 0.416,0.6067 0.416,0.988v8.372c0,0.3813 -0.139,0.7107 -0.416,0.988c-0.277,0.2773 -0.607,0.416 -0.988,0.416h-11.18v23.816c0,0.3813 -0.139,0.7107 -0.416,0.988c-0.277,0.2773 -0.607,0.416 -0.988,0.416h-10.712c-0.381,0 -0.711,-0.1387 -0.988,-0.416c-0.277,-0.2773 -0.416,-0.6067 -0.416,-0.988v-23.816h-11.18c-0.381,0 -0.711,-0.1387 -0.988,-0.416c-0.277,-0.2773 -0.416,-0.6067 -0.416,-0.988v-8.372c0,-0.3813 0.139,-0.7107 0.416,-0.988c0.277,-0.2773 0.607,-0.416 0.988,-0.416zM290.601,24.808c3.813,0.416 6.864,1.092 9.152,2.028c2.322,0.936 4.004,2.1667 5.044,3.692c1.04,1.5253 1.56,3.432 1.56,5.72c0,2.496 -0.815,4.68 -2.444,6.552c-1.595,1.8373 -3.814,3.2587 -6.656,4.264c-2.843,0.9707 -6.084,1.456 -9.724,1.456c-4.056,0 -7.488,-0.5027 -10.296,-1.508c-2.808,-1.0053 -4.906,-2.34 -6.292,-4.004c-1.387,-1.6987 -2.08,-3.5533 -2.08,-5.564c0,-0.3467 0.104,-0.624 0.312,-0.832c0.242,-0.208 0.537,-0.312 0.884,-0.312h10.66c0.728,0 1.317,0.2253 1.768,0.676c0.589,0.5547 1.248,0.936 1.976,1.144c0.728,0.1733 1.75,0.26 3.068,0.26c3.293,0 4.94,-0.5027 4.94,-1.508c0,-0.416 -0.226,-0.7627 -0.676,-1.04c-0.416,-0.312 -1.179,-0.572 -2.288,-0.78c-1.075,-0.2427 -2.67,-0.4853 -4.784,-0.728c-4.75,-0.5547 -8.39,-1.7333 -10.92,-3.536c-2.531,-1.8373 -3.796,-4.42 -3.796,-7.748c0,-2.3573 0.71,-4.4373 2.132,-6.24c1.421,-1.8027 3.432,-3.2067 6.032,-4.212c2.634,-1.0053 5.685,-1.508 9.152,-1.508c3.605,0 6.76,0.572 9.464,1.716c2.704,1.1093 4.766,2.496 6.188,4.16c1.421,1.664 2.132,3.2933 2.132,4.888c0,0.3467 -0.122,0.624 -0.364,0.832c-0.208,0.208 -0.503,0.312 -0.884,0.312h-11.18c-0.59,0 -1.127,-0.208 -1.612,-0.624c-0.382,-0.3467 -0.832,-0.624 -1.352,-0.832c-0.52,-0.208 -1.318,-0.312 -2.392,-0.312c-2.323,0 -3.484,0.4853 -3.484,1.456c0,0.52 0.45,0.936 1.352,1.248c0.901,0.2773 2.704,0.572 5.408,0.884zM323.912,25.432c0,-1.456 0.347,-2.7907 1.04,-4.004c0.728,-1.248 1.699,-2.2187 2.912,-2.912c1.248,-0.728 2.6,-1.092 4.056,-1.092c1.456,0 2.791,0.364 4.004,1.092c1.248,0.6933 2.219,1.664 2.912,2.912c0.728,1.2133 1.092,2.548 1.092,4.004c0,1.456 -0.364,2.808 -1.092,4.056c-0.693,1.2133 -1.664,2.184 -2.912,2.912c-1.213,0.6933 -2.548,1.04 -4.004,1.04c-1.456,0 -2.808,-0.3467 -4.056,-1.04c-1.213,-0.728 -2.184,-1.6987 -2.912,-2.912c-0.693,-1.248 -1.04,-2.6 -1.04,-4.056z" clip-rule="evenodd"></path></clipPath></defs><g style="mix-blend-mode:NORMAL"><g clip-path="url(#242125_stroke_clip_path)"><path id="242125_stroke_path" d="M27.9665,11.6c3.2587,0 6.1013,0.5547 8.528,1.664c2.4267,1.1093 4.2813,2.6173 5.564,4.524c1.2827,1.9067 1.924,4.0387 1.924,6.396c0,3.8827 -1.2133,6.9333 -3.64,9.152c-2.4267,2.184 -6.552,3.276 -12.376,3.276h-6.864v9.984c0,0.3813 -0.1387,0.7107 -0.416,0.988c-0.2773,0.2773 -0.6067,0.416 -0.988,0.416h-11.18c-0.38133,0 -0.71067,-0.1387 -0.988,-0.416c-0.27733,-0.2773 -0.416,-0.6067 -0.416,-0.988v-33.592c0,-0.3813 0.13867,-0.7107 0.416,-0.988c0.27733,-0.2773 0.60667,-0.416 0.988,-0.416z M27.7585,26.992c0.832,0 1.4907,-0.2427 1.976,-0.728c0.4853,-0.52 0.728,-1.196 0.728,-2.028c0,-0.8667 -0.2427,-1.5773 -0.728,-2.132c-0.4853,-0.5547 -1.144,-0.832 -1.976,-0.832h-6.604v5.72z M87.4862,46.388c0.0693,0.1387 0.104,0.2947 0.104,0.468c0,0.312 -0.1213,0.5893 -0.364,0.832c-0.208,0.208 -0.468,0.312 -0.78,0.312h-11.804c-0.4853,0 -0.936,-0.1213 -1.352,-0.364c-0.3813,-0.2427 -0.6587,-0.5547 -0.832,-0.936l-4.576,-10.296h-4.368v10.192c0,0.3813 -0.1387,0.7107 -0.416,0.988c-0.2773,0.2773 -0.6067,0.416 -0.988,0.416h-11.232c-0.3813,0 -0.7107,-0.1387 -0.988,-0.416c-0.2773,-0.2773 -0.416,-0.6067 -0.416,-0.988v-33.592c0,-0.3813 0.1387,-0.7107 0.416,-0.988c0.2773,-0.2773 0.6067,-0.416 0.988,-0.416h20.228c3.12,0 5.8413,0.5027 8.164,1.508c2.3573,1.0053 4.16,2.4613 5.408,4.368c1.248,1.9067 1.872,4.1427 1.872,6.708c0,4.7147 -1.82,8.1293 -5.46,10.244z M70.0142,26.784c0.7627,0 1.352,-0.2427 1.768,-0.728c0.416,-0.52 0.624,-1.1613 0.624,-1.924c0,-0.7627 -0.208,-1.4213 -0.624,-1.976c-0.3813,-0.5893 -0.9707,-0.884 -1.768,-0.884h-6.5v5.512z M130.366,32.972c0,5.304 -1.768,9.2213 -5.304,11.752c-3.501,2.5307 -8.181,3.796 -14.04,3.796c-5.859,0 -10.556,-1.2653 -14.0921,-3.796c-3.5014,-2.5307 -5.252,-6.4827 -5.252,-11.856v-6.136c0,-3.536 0.832,-6.4653 2.496,-8.788c1.6986,-2.3573 4.004,-4.0907 6.9161,-5.2c2.912,-1.1093 6.223,-1.664 9.932,-1.664c3.709,0 7.003,0.5547 9.88,1.664c2.912,1.1093 5.217,2.8253 6.916,5.148c1.699,2.3227 2.548,5.2347 2.548,8.736z M105.718,33.96c0,1.4213 0.468,2.5133 1.404,3.276c0.971,0.7627 2.271,1.144 3.9,1.144c1.629,0 2.912,-0.3813 3.848,-1.144c0.971,-0.7973 1.456,-1.9067 1.456,-3.328v-8.216c0,-1.4213 -0.485,-2.5133 -1.456,-3.276c-0.936,-0.7973 -2.219,-1.196 -3.848,-1.196c-1.629,0 -2.929,0.3813 -3.9,1.144c-0.936,0.7627 -1.404,1.8547 -1.404,3.276z M173.038,32.868c0,5.2693 -1.734,9.204 -5.2,11.804c-3.467,2.5653 -8.095,3.848 -13.884,3.848c-4.16,0 -7.714,-0.6587 -10.66,-1.976c-2.912,-1.352 -5.114,-3.0507 -6.604,-5.096c-1.456,-2.0453 -2.184,-4.108 -2.184,-6.188c0,-0.312 0.104,-0.572 0.312,-0.78c0.242,-0.2427 0.52,-0.364 0.832,-0.364h11.752c0.312,0 0.572,0.104 0.78,0.312c0.242,0.208 0.416,0.4853 0.52,0.832c0.658,2.08 2.322,3.12 4.992,3.12c1.629,0 2.912,-0.3813 3.848,-1.144c0.97,-0.7627 1.456,-1.8547 1.456,-3.276v-11.7h-18.98c-0.382,0 -0.711,-0.1387 -0.988,-0.416c-0.278,-0.2773 -0.416,-0.6067 -0.416,-0.988v-7.852c0,-0.3813 0.138,-0.7107 0.416,-0.988c0.277,-0.2773 0.606,-0.416 0.988,-0.416h31.616c0.381,0 0.71,0.1387 0.988,0.416c0.277,0.2773 0.416,0.6067 0.416,0.988z M216.229,37.86c0.382,0 0.711,0.1387 0.988,0.416c0.278,0.2773 0.416,0.6067 0.416,0.988v7.332c0,0.3813 -0.138,0.7107 -0.416,0.988c-0.277,0.2773 -0.606,0.416 -0.988,0.416h-32.864c-0.381,0 -0.71,-0.1387 -0.988,-0.416c-0.277,-0.2773 -0.416,-0.6067 -0.416,-0.988v-33.592c0,-0.3813 0.139,-0.7107 0.416,-0.988c0.278,-0.2773 0.607,-0.416 0.988,-0.416h32.344c0.382,0 0.711,0.1387 0.988,0.416c0.278,0.2773 0.416,0.6067 0.416,0.988v7.332c0,0.3813 -0.138,0.7107 -0.416,0.988c-0.277,0.2773 -0.606,0.416 -0.988,0.416h-20.228v3.276h17.368c0.382,0 0.711,0.1387 0.988,0.416c0.278,0.2773 0.416,0.6067 0.416,0.988v6.76c0,0.3813 -0.138,0.7107 -0.416,0.988c-0.277,0.2773 -0.606,0.416 -0.988,0.416h-17.368v3.276z M261.501,11.6c0.381,0 0.711,0.1387 0.988,0.416c0.277,0.2773 0.416,0.6067 0.416,0.988v8.372c0,0.3813 -0.139,0.7107 -0.416,0.988c-0.277,0.2773 -0.607,0.416 -0.988,0.416h-11.18v23.816c0,0.3813 -0.139,0.7107 -0.416,0.988c-0.277,0.2773 -0.607,0.416 -0.988,0.416h-10.712c-0.381,0 -0.711,-0.1387 -0.988,-0.416c-0.277,-0.2773 -0.416,-0.6067 -0.416,-0.988v-23.816h-11.18c-0.381,0 -0.711,-0.1387 -0.988,-0.416c-0.277,-0.2773 -0.416,-0.6067 -0.416,-0.988v-8.372c0,-0.3813 0.139,-0.7107 0.416,-0.988c0.277,-0.2773 0.607,-0.416 0.988,-0.416z M290.601,24.808c3.813,0.416 6.864,1.092 9.152,2.028c2.322,0.936 4.004,2.1667 5.044,3.692c1.04,1.5253 1.56,3.432 1.56,5.72c0,2.496 -0.815,4.68 -2.444,6.552c-1.595,1.8373 -3.814,3.2587 -6.656,4.264c-2.843,0.9707 -6.084,1.456 -9.724,1.456c-4.056,0 -7.488,-0.5027 -10.296,-1.508c-2.808,-1.0053 -4.906,-2.34 -6.292,-4.004c-1.387,-1.6987 -2.08,-3.5533 -2.08,-5.564c0,-0.3467 0.104,-0.624 0.312,-0.832c0.242,-0.208 0.537,-0.312 0.884,-0.312h10.66c0.728,0 1.317,0.2253 1.768,0.676c0.589,0.5547 1.248,0.936 1.976,1.144c0.728,0.1733 1.75,0.26 3.068,0.26c3.293,0 4.94,-0.5027 4.94,-1.508c0,-0.416 -0.226,-0.7627 -0.676,-1.04c-0.416,-0.312 -1.179,-0.572 -2.288,-0.78c-1.075,-0.2427 -2.67,-0.4853 -4.784,-0.728c-4.75,-0.5547 -8.39,-1.7333 -10.92,-3.536c-2.531,-1.8373 -3.796,-4.42 -3.796,-7.748c0,-2.3573 0.71,-4.4373 2.132,-6.24c1.421,-1.8027 3.432,-3.2067 6.032,-4.212c2.634,-1.0053 5.685,-1.508 9.152,-1.508c3.605,0 6.76,0.572 9.464,1.716c2.704,1.1093 4.766,2.496 6.188,4.16c1.421,1.664 2.132,3.2933 2.132,4.888c0,0.3467 -0.122,0.624 -0.364,0.832c-0.208,0.208 -0.503,0.312 -0.884,0.312h-11.18c-0.59,0 -1.127,-0.208 -1.612,-0.624c-0.382,-0.3467 -0.832,-0.624 -1.352,-0.832c-0.52,-0.208 -1.318,-0.312 -2.392,-0.312c-2.323,0 -3.484,0.4853 -3.484,1.456c0,0.52 0.45,0.936 1.352,1.248c0.901,0.2773 2.704,0.572 5.408,0.884z M323.912,25.432c0,-1.456 0.347,-2.7907 1.04,-4.004c0.728,-1.248 1.699,-2.2187 2.912,-2.912c1.248,-0.728 2.6,-1.092 4.056,-1.092c1.456,0 2.791,0.364 4.004,1.092c1.248,0.6933 2.219,1.664 2.912,2.912c0.728,1.2133 1.092,2.548 1.092,4.004c0,1.456 -0.364,2.808 -1.092,4.056c-0.693,1.2133 -1.664,2.184 -2.912,2.912c-1.213,0.6933 -2.548,1.04 -4.004,1.04c-1.456,0 -2.808,-0.3467 -4.056,-1.04c-1.213,-0.728 -2.184,-1.6987 -2.912,-2.912c-0.693,-1.248 -1.04,-2.6 -1.04,-4.056z" fill="none" stroke="rgb(255, 255, 255)" stroke-width="4" stroke-linecap="butt" stroke-linejoin="miter" stroke-dasharray="0 0" stroke-opacity="1"></path></g></g></g></g></g></g><g transform="matrix(1,0,0,1,2124,0)"><g id="242126" opacity="1" style="mix-blend-mode:normal"><g><g><defs><clipPath id="242126_stroke_clip_path" clipPathUnits="userSpaceOnUse"><path d="M-2,-2 H356 V66 H-2 Z M27.9665,11.6c3.2587,0 6.1013,0.5547 8.528,1.664c2.4267,1.1093 4.2813,2.6173 5.564,4.524c1.2827,1.9067 1.924,4.0387 1.924,6.396c0,3.8827 -1.2133,6.9333 -3.64,9.152c-2.4267,2.184 -6.552,3.276 -12.376,3.276h-6.864v9.984c0,0.3813 -0.1387,0.7107 -0.416,0.988c-0.2773,0.2773 -0.6067,0.416 -0.988,0.416h-11.18c-0.38133,0 -0.71067,-0.1387 -0.988,-0.416c-0.27733,-0.2773 -0.416,-0.6067 -0.416,-0.988v-33.592c0,-0.3813 0.13867,-0.7107 0.416,-0.988c0.27733,-0.2773 0.60667,-0.416 0.988,-0.416zM27.7585,26.992c0.832,0 1.4907,-0.2427 1.976,-0.728c0.4853,-0.52 0.728,-1.196 0.728,-2.028c0,-0.8667 -0.2427,-1.5773 -0.728,-2.132c-0.4853,-0.5547 -1.144,-0.832 -1.976,-0.832h-6.604v5.72zM87.4862,46.388c0.0693,0.1387 0.104,0.2947 0.104,0.468c0,0.312 -0.1213,0.5893 -0.364,0.832c-0.208,0.208 -0.468,0.312 -0.78,0.312h-11.804c-0.4853,0 -0.936,-0.1213 -1.352,-0.364c-0.3813,-0.2427 -0.6587,-0.5547 -0.832,-0.936l-4.576,-10.296h-4.368v10.192c0,0.3813 -0.1387,0.7107 -0.416,0.988c-0.2773,0.2773 -0.6067,0.416 -0.988,0.416h-11.232c-0.3813,0 -0.7107,-0.1387 -0.988,-0.416c-0.2773,-0.2773 -0.416,-0.6067 -0.416,-0.988v-33.592c0,-0.3813 0.1387,-0.7107 0.416,-0.988c0.2773,-0.2773 0.6067,-0.416 0.988,-0.416h20.228c3.12,0 5.8413,0.5027 8.164,1.508c2.3573,1.0053 4.16,2.4613 5.408,4.368c1.248,1.9067 1.872,4.1427 1.872,6.708c0,4.7147 -1.82,8.1293 -5.46,10.244zM70.0142,26.784c0.7627,0 1.352,-0.2427 1.768,-0.728c0.416,-0.52 0.624,-1.1613 0.624,-1.924c0,-0.7627 -0.208,-1.4213 -0.624,-1.976c-0.3813,-0.5893 -0.9707,-0.884 -1.768,-0.884h-6.5v5.512zM130.366,32.972c0,5.304 -1.768,9.2213 -5.304,11.752c-3.501,2.5307 -8.181,3.796 -14.04,3.796c-5.859,0 -10.556,-1.2653 -14.0921,-3.796c-3.5014,-2.5307 -5.252,-6.4827 -5.252,-11.856v-6.136c0,-3.536 0.832,-6.4653 2.496,-8.788c1.6986,-2.3573 4.004,-4.0907 6.9161,-5.2c2.912,-1.1093 6.223,-1.664 9.932,-1.664c3.709,0 7.003,0.5547 9.88,1.664c2.912,1.1093 5.217,2.8253 6.916,5.148c1.699,2.3227 2.548,5.2347 2.548,8.736zM105.718,33.96c0,1.4213 0.468,2.5133 1.404,3.276c0.971,0.7627 2.271,1.144 3.9,1.144c1.629,0 2.912,-0.3813 3.848,-1.144c0.971,-0.7973 1.456,-1.9067 1.456,-3.328v-8.216c0,-1.4213 -0.485,-2.5133 -1.456,-3.276c-0.936,-0.7973 -2.219,-1.196 -3.848,-1.196c-1.629,0 -2.929,0.3813 -3.9,1.144c-0.936,0.7627 -1.404,1.8547 -1.404,3.276zM173.038,32.868c0,5.2693 -1.734,9.204 -5.2,11.804c-3.467,2.5653 -8.095,3.848 -13.884,3.848c-4.16,0 -7.714,-0.6587 -10.66,-1.976c-2.912,-1.352 -5.114,-3.0507 -6.604,-5.096c-1.456,-2.0453 -2.184,-4.108 -2.184,-6.188c0,-0.312 0.104,-0.572 0.312,-0.78c0.242,-0.2427 0.52,-0.364 0.832,-0.364h11.752c0.312,0 0.572,0.104 0.78,0.312c0.242,0.208 0.416,0.4853 0.52,0.832c0.658,2.08 2.322,3.12 4.992,3.12c1.629,0 2.912,-0.3813 3.848,-1.144c0.97,-0.7627 1.456,-1.8547 1.456,-3.276v-11.7h-18.98c-0.382,0 -0.711,-0.1387 -0.988,-0.416c-0.278,-0.2773 -0.416,-0.6067 -0.416,-0.988v-7.852c0,-0.3813 0.138,-0.7107 0.416,-0.988c0.277,-0.2773 0.606,-0.416 0.988,-0.416h31.616c0.381,0 0.71,0.1387 0.988,0.416c0.277,0.2773 0.416,0.6067 0.416,0.988zM216.229,37.86c0.382,0 0.711,0.1387 0.988,0.416c0.278,0.2773 0.416,0.6067 0.416,0.988v7.332c0,0.3813 -0.138,0.7107 -0.416,0.988c-0.277,0.2773 -0.606,0.416 -0.988,0.416h-32.864c-0.381,0 -0.71,-0.1387 -0.988,-0.416c-0.277,-0.2773 -0.416,-0.6067 -0.416,-0.988v-33.592c0,-0.3813 0.139,-0.7107 0.416,-0.988c0.278,-0.2773 0.607,-0.416 0.988,-0.416h32.344c0.382,0 0.711,0.1387 0.988,0.416c0.278,0.2773 0.416,0.6067 0.416,0.988v7.332c0,0.3813 -0.138,0.7107 -0.416,0.988c-0.277,0.2773 -0.606,0.416 -0.988,0.416h-20.228v3.276h17.368c0.382,0 0.711,0.1387 0.988,0.416c0.278,0.2773 0.416,0.6067 0.416,0.988v6.76c0,0.3813 -0.138,0.7107 -0.416,0.988c-0.277,0.2773 -0.606,0.416 -0.988,0.416h-17.368v3.276zM261.501,11.6c0.381,0 0.711,0.1387 0.988,0.416c0.277,0.2773 0.416,0.6067 0.416,0.988v8.372c0,0.3813 -0.139,0.7107 -0.416,0.988c-0.277,0.2773 -0.607,0.416 -0.988,0.416h-11.18v23.816c0,0.3813 -0.139,0.7107 -0.416,0.988c-0.277,0.2773 -0.607,0.416 -0.988,0.416h-10.712c-0.381,0 -0.711,-0.1387 -0.988,-0.416c-0.277,-0.2773 -0.416,-0.6067 -0.416,-0.988v-23.816h-11.18c-0.381,0 -0.711,-0.1387 -0.988,-0.416c-0.277,-0.2773 -0.416,-0.6067 -0.416,-0.988v-8.372c0,-0.3813 0.139,-0.7107 0.416,-0.988c0.277,-0.2773 0.607,-0.416 0.988,-0.416zM290.601,24.808c3.813,0.416 6.864,1.092 9.152,2.028c2.322,0.936 4.004,2.1667 5.044,3.692c1.04,1.5253 1.56,3.432 1.56,5.72c0,2.496 -0.815,4.68 -2.444,6.552c-1.595,1.8373 -3.814,3.2587 -6.656,4.264c-2.843,0.9707 -6.084,1.456 -9.724,1.456c-4.056,0 -7.488,-0.5027 -10.296,-1.508c-2.808,-1.0053 -4.906,-2.34 -6.292,-4.004c-1.387,-1.6987 -2.08,-3.5533 -2.08,-5.564c0,-0.3467 0.104,-0.624 0.312,-0.832c0.242,-0.208 0.537,-0.312 0.884,-0.312h10.66c0.728,0 1.317,0.2253 1.768,0.676c0.589,0.5547 1.248,0.936 1.976,1.144c0.728,0.1733 1.75,0.26 3.068,0.26c3.293,0 4.94,-0.5027 4.94,-1.508c0,-0.416 -0.226,-0.7627 -0.676,-1.04c-0.416,-0.312 -1.179,-0.572 -2.288,-0.78c-1.075,-0.2427 -2.67,-0.4853 -4.784,-0.728c-4.75,-0.5547 -8.39,-1.7333 -10.92,-3.536c-2.531,-1.8373 -3.796,-4.42 -3.796,-7.748c0,-2.3573 0.71,-4.4373 2.132,-6.24c1.421,-1.8027 3.432,-3.2067 6.032,-4.212c2.634,-1.0053 5.685,-1.508 9.152,-1.508c3.605,0 6.76,0.572 9.464,1.716c2.704,1.1093 4.766,2.496 6.188,4.16c1.421,1.664 2.132,3.2933 2.132,4.888c0,0.3467 -0.122,0.624 -0.364,0.832c-0.208,0.208 -0.503,0.312 -0.884,0.312h-11.18c-0.59,0 -1.127,-0.208 -1.612,-0.624c-0.382,-0.3467 -0.832,-0.624 -1.352,-0.832c-0.52,-0.208 -1.318,-0.312 -2.392,-0.312c-2.323,0 -3.484,0.4853 -3.484,1.456c0,0.52 0.45,0.936 1.352,1.248c0.901,0.2773 2.704,0.572 5.408,0.884zM323.912,25.432c0,-1.456 0.347,-2.7907 1.04,-4.004c0.728,-1.248 1.699,-2.2187 2.912,-2.912c1.248,-0.728 2.6,-1.092 4.056,-1.092c1.456,0 2.791,0.364 4.004,1.092c1.248,0.6933 2.219,1.664 2.912,2.912c0.728,1.2133 1.092,2.548 1.092,4.004c0,1.456 -0.364,2.808 -1.092,4.056c-0.693,1.2133 -1.664,2.184 -2.912,2.912c-1.213,0.6933 -2.548,1.04 -4.004,1.04c-1.456,0 -2.808,-0.3467 -4.056,-1.04c-1.213,-0.728 -2.184,-1.6987 -2.912,-2.912c-0.693,-1.248 -1.04,-2.6 -1.04,-4.056z" clip-rule="evenodd"></path></clipPath></defs><g style="mix-blend-mode:NORMAL"><g clip-path="url(#242126_stroke_clip_path)"><path id="242126_stroke_path" d="M27.9665,11.6c3.2587,0 6.1013,0.5547 8.528,1.664c2.4267,1.1093 4.2813,2.6173 5.564,4.524c1.2827,1.9067 1.924,4.0387 1.924,6.396c0,3.8827 -1.2133,6.9333 -3.64,9.152c-2.4267,2.184 -6.552,3.276 -12.376,3.276h-6.864v9.984c0,0.3813 -0.1387,0.7107 -0.416,0.988c-0.2773,0.2773 -0.6067,0.416 -0.988,0.416h-11.18c-0.38133,0 -0.71067,-0.1387 -0.988,-0.416c-0.27733,-0.2773 -0.416,-0.6067 -0.416,-0.988v-33.592c0,-0.3813 0.13867,-0.7107 0.416,-0.988c0.27733,-0.2773 0.60667,-0.416 0.988,-0.416z M27.7585,26.992c0.832,0 1.4907,-0.2427 1.976,-0.728c0.4853,-0.52 0.728,-1.196 0.728,-2.028c0,-0.8667 -0.2427,-1.5773 -0.728,-2.132c-0.4853,-0.5547 -1.144,-0.832 -1.976,-0.832h-6.604v5.72z M87.4862,46.388c0.0693,0.1387 0.104,0.2947 0.104,0.468c0,0.312 -0.1213,0.5893 -0.364,0.832c-0.208,0.208 -0.468,0.312 -0.78,0.312h-11.804c-0.4853,0 -0.936,-0.1213 -1.352,-0.364c-0.3813,-0.2427 -0.6587,-0.5547 -0.832,-0.936l-4.576,-10.296h-4.368v10.192c0,0.3813 -0.1387,0.7107 -0.416,0.988c-0.2773,0.2773 -0.6067,0.416 -0.988,0.416h-11.232c-0.3813,0 -0.7107,-0.1387 -0.988,-0.416c-0.2773,-0.2773 -0.416,-0.6067 -0.416,-0.988v-33.592c0,-0.3813 0.1387,-0.7107 0.416,-0.988c0.2773,-0.2773 0.6067,-0.416 0.988,-0.416h20.228c3.12,0 5.8413,0.5027 8.164,1.508c2.3573,1.0053 4.16,2.4613 5.408,4.368c1.248,1.9067 1.872,4.1427 1.872,6.708c0,4.7147 -1.82,8.1293 -5.46,10.244z M70.0142,26.784c0.7627,0 1.352,-0.2427 1.768,-0.728c0.416,-0.52 0.624,-1.1613 0.624,-1.924c0,-0.7627 -0.208,-1.4213 -0.624,-1.976c-0.3813,-0.5893 -0.9707,-0.884 -1.768,-0.884h-6.5v5.512z M130.366,32.972c0,5.304 -1.768,9.2213 -5.304,11.752c-3.501,2.5307 -8.181,3.796 -14.04,3.796c-5.859,0 -10.556,-1.2653 -14.0921,-3.796c-3.5014,-2.5307 -5.252,-6.4827 -5.252,-11.856v-6.136c0,-3.536 0.832,-6.4653 2.496,-8.788c1.6986,-2.3573 4.004,-4.0907 6.9161,-5.2c2.912,-1.1093 6.223,-1.664 9.932,-1.664c3.709,0 7.003,0.5547 9.88,1.664c2.912,1.1093 5.217,2.8253 6.916,5.148c1.699,2.3227 2.548,5.2347 2.548,8.736z M105.718,33.96c0,1.4213 0.468,2.5133 1.404,3.276c0.971,0.7627 2.271,1.144 3.9,1.144c1.629,0 2.912,-0.3813 3.848,-1.144c0.971,-0.7973 1.456,-1.9067 1.456,-3.328v-8.216c0,-1.4213 -0.485,-2.5133 -1.456,-3.276c-0.936,-0.7973 -2.219,-1.196 -3.848,-1.196c-1.629,0 -2.929,0.3813 -3.9,1.144c-0.936,0.7627 -1.404,1.8547 -1.404,3.276z M173.038,32.868c0,5.2693 -1.734,9.204 -5.2,11.804c-3.467,2.5653 -8.095,3.848 -13.884,3.848c-4.16,0 -7.714,-0.6587 -10.66,-1.976c-2.912,-1.352 -5.114,-3.0507 -6.604,-5.096c-1.456,-2.0453 -2.184,-4.108 -2.184,-6.188c0,-0.312 0.104,-0.572 0.312,-0.78c0.242,-0.2427 0.52,-0.364 0.832,-0.364h11.752c0.312,0 0.572,0.104 0.78,0.312c0.242,0.208 0.416,0.4853 0.52,0.832c0.658,2.08 2.322,3.12 4.992,3.12c1.629,0 2.912,-0.3813 3.848,-1.144c0.97,-0.7627 1.456,-1.8547 1.456,-3.276v-11.7h-18.98c-0.382,0 -0.711,-0.1387 -0.988,-0.416c-0.278,-0.2773 -0.416,-0.6067 -0.416,-0.988v-7.852c0,-0.3813 0.138,-0.7107 0.416,-0.988c0.277,-0.2773 0.606,-0.416 0.988,-0.416h31.616c0.381,0 0.71,0.1387 0.988,0.416c0.277,0.2773 0.416,0.6067 0.416,0.988z M216.229,37.86c0.382,0 0.711,0.1387 0.988,0.416c0.278,0.2773 0.416,0.6067 0.416,0.988v7.332c0,0.3813 -0.138,0.7107 -0.416,0.988c-0.277,0.2773 -0.606,0.416 -0.988,0.416h-32.864c-0.381,0 -0.71,-0.1387 -0.988,-0.416c-0.277,-0.2773 -0.416,-0.6067 -0.416,-0.988v-33.592c0,-0.3813 0.139,-0.7107 0.416,-0.988c0.278,-0.2773 0.607,-0.416 0.988,-0.416h32.344c0.382,0 0.711,0.1387 0.988,0.416c0.278,0.2773 0.416,0.6067 0.416,0.988v7.332c0,0.3813 -0.138,0.7107 -0.416,0.988c-0.277,0.2773 -0.606,0.416 -0.988,0.416h-20.228v3.276h17.368c0.382,0 0.711,0.1387 0.988,0.416c0.278,0.2773 0.416,0.6067 0.416,0.988v6.76c0,0.3813 -0.138,0.7107 -0.416,0.988c-0.277,0.2773 -0.606,0.416 -0.988,0.416h-17.368v3.276z M261.501,11.6c0.381,0 0.711,0.1387 0.988,0.416c0.277,0.2773 0.416,0.6067 0.416,0.988v8.372c0,0.3813 -0.139,0.7107 -0.416,0.988c-0.277,0.2773 -0.607,0.416 -0.988,0.416h-11.18v23.816c0,0.3813 -0.139,0.7107 -0.416,0.988c-0.277,0.2773 -0.607,0.416 -0.988,0.416h-10.712c-0.381,0 -0.711,-0.1387 -0.988,-0.416c-0.277,-0.2773 -0.416,-0.6067 -0.416,-0.988v-23.816h-11.18c-0.381,0 -0.711,-0.1387 -0.988,-0.416c-0.277,-0.2773 -0.416,-0.6067 -0.416,-0.988v-8.372c0,-0.3813 0.139,-0.7107 0.416,-0.988c0.277,-0.2773 0.607,-0.416 0.988,-0.416z M290.601,24.808c3.813,0.416 6.864,1.092 9.152,2.028c2.322,0.936 4.004,2.1667 5.044,3.692c1.04,1.5253 1.56,3.432 1.56,5.72c0,2.496 -0.815,4.68 -2.444,6.552c-1.595,1.8373 -3.814,3.2587 -6.656,4.264c-2.843,0.9707 -6.084,1.456 -9.724,1.456c-4.056,0 -7.488,-0.5027 -10.296,-1.508c-2.808,-1.0053 -4.906,-2.34 -6.292,-4.004c-1.387,-1.6987 -2.08,-3.5533 -2.08,-5.564c0,-0.3467 0.104,-0.624 0.312,-0.832c0.242,-0.208 0.537,-0.312 0.884,-0.312h10.66c0.728,0 1.317,0.2253 1.768,0.676c0.589,0.5547 1.248,0.936 1.976,1.144c0.728,0.1733 1.75,0.26 3.068,0.26c3.293,0 4.94,-0.5027 4.94,-1.508c0,-0.416 -0.226,-0.7627 -0.676,-1.04c-0.416,-0.312 -1.179,-0.572 -2.288,-0.78c-1.075,-0.2427 -2.67,-0.4853 -4.784,-0.728c-4.75,-0.5547 -8.39,-1.7333 -10.92,-3.536c-2.531,-1.8373 -3.796,-4.42 -3.796,-7.748c0,-2.3573 0.71,-4.4373 2.132,-6.24c1.421,-1.8027 3.432,-3.2067 6.032,-4.212c2.634,-1.0053 5.685,-1.508 9.152,-1.508c3.605,0 6.76,0.572 9.464,1.716c2.704,1.1093 4.766,2.496 6.188,4.16c1.421,1.664 2.132,3.2933 2.132,4.888c0,0.3467 -0.122,0.624 -0.364,0.832c-0.208,0.208 -0.503,0.312 -0.884,0.312h-11.18c-0.59,0 -1.127,-0.208 -1.612,-0.624c-0.382,-0.3467 -0.832,-0.624 -1.352,-0.832c-0.52,-0.208 -1.318,-0.312 -2.392,-0.312c-2.323,0 -3.484,0.4853 -3.484,1.456c0,0.52 0.45,0.936 1.352,1.248c0.901,0.2773 2.704,0.572 5.408,0.884z M323.912,25.432c0,-1.456 0.347,-2.7907 1.04,-4.004c0.728,-1.248 1.699,-2.2187 2.912,-2.912c1.248,-0.728 2.6,-1.092 4.056,-1.092c1.456,0 2.791,0.364 4.004,1.092c1.248,0.6933 2.219,1.664 2.912,2.912c0.728,1.2133 1.092,2.548 1.092,4.004c0,1.456 -0.364,2.808 -1.092,4.056c-0.693,1.2133 -1.664,2.184 -2.912,2.912c-1.213,0.6933 -2.548,1.04 -4.004,1.04c-1.456,0 -2.808,-0.3467 -4.056,-1.04c-1.213,-0.728 -2.184,-1.6987 -2.912,-2.912c-0.693,-1.248 -1.04,-2.6 -1.04,-4.056z" fill="none" stroke="rgb(255, 255, 255)" stroke-width="4" stroke-linecap="butt" stroke-linejoin="miter" stroke-dasharray="0 0" stroke-opacity="1"></path></g></g></g></g></g></g></g></g></g></g></g></g></g></g><animateTransform href="#242127" attributeName="transform" type="translate" values="0 0;-1062 0" dur="10s" repeatCount="indefinite" calcMode="spline" keyTimes="0;1" keySplines="0 0 1 1" additive="sum" fill="freeze"></animateTransform></svg>