<svg id="280129" viewBox="0 0 1416 64" xmlns="http://www.w3.org/2000/svg" xmlns:xlink="http://www.w3.org/1999/xlink"><g transform="matrix(1,0,0,1,0,0)"><g id="280129" opacity="1" style="mix-blend-mode:normal"><g><g><g transform="matrix(1,0,0,1,-930,0)"><g id="280128" opacity="1" style="mix-blend-mode:normal"><g><g><g transform="matrix(1,0,0,1,310,0)"><g id="280118" opacity="1" style="mix-blend-mode:normal"><g><g><defs><clipPath id="280118_stroke_clip_path" clipPathUnits="userSpaceOnUse"><path d="M-2,-2 H312 V66 H-2 Z M28.1462,11.6c3.2587,0 6.1013,0.5547 8.528,1.664c2.4267,1.1093 4.2813,2.6173 5.564,4.524c1.2827,1.9067 1.924,4.0387 1.924,6.396c0,3.8827 -1.2133,6.9333 -3.64,9.152c-2.4267,2.184 -6.552,3.276 -12.376,3.276h-6.864v9.984c0,0.3813 -0.1387,0.7107 -0.416,0.988c-0.2773,0.2773 -0.6067,0.416 -0.988,0.416h-11.18001c-0.38134,0 -0.71067,-0.1387 -0.988,-0.416c-0.27734,-0.2773 -0.416,-0.6067 -0.416,-0.988v-33.592c0,-0.3813 0.13866,-0.7107 0.416,-0.988c0.27733,-0.2773 0.60666,-0.416 0.988,-0.416zM27.9382,26.992c0.832,0 1.4907,-0.2427 1.976,-0.728c0.4853,-0.52 0.728,-1.196 0.728,-2.028c0,-0.8667 -0.2427,-1.5773 -0.728,-2.132c-0.4853,-0.5547 -1.144,-0.832 -1.976,-0.832h-6.604v5.72zM87.6659,46.388c0.0693,0.1387 0.104,0.2947 0.104,0.468c0,0.312 -0.1214,0.5893 -0.364,0.832c-0.208,0.208 -0.468,0.312 -0.78,0.312h-11.804c-0.4854,0 -0.936,-0.1213 -1.352,-0.364c-0.3814,-0.2427 -0.6587,-0.5547 -0.832,-0.936l-4.576,-10.296h-4.368v10.192c0,0.3813 -0.1387,0.7107 -0.416,0.988c-0.2774,0.2773 -0.6067,0.416 -0.988,0.416h-11.232c-0.3814,0 -0.7107,-0.1387 -0.988,-0.416c-0.2774,-0.2773 -0.416,-0.6067 -0.416,-0.988v-33.592c0,-0.3813 0.1386,-0.7107 0.416,-0.988c0.2773,-0.2773 0.6066,-0.416 0.988,-0.416h20.228c3.12,0 5.8413,0.5027 8.164,1.508c2.3573,1.0053 4.16,2.4613 5.408,4.368c1.248,1.9067 1.872,4.1427 1.872,6.708c0,4.7147 -1.82,8.1293 -5.46,10.244zM70.1939,26.784c0.7626,0 1.352,-0.2427 1.768,-0.728c0.416,-0.52 0.624,-1.1613 0.624,-1.924c0,-0.7627 -0.208,-1.4213 -0.624,-1.976c-0.3814,-0.5893 -0.9707,-0.884 -1.768,-0.884h-6.5v5.512zM130.546,32.972c0,5.304 -1.768,9.2213 -5.304,11.752c-3.502,2.5307 -8.182,3.796 -14.04,3.796c-5.859,0 -10.556,-1.2653 -14.0924,-3.796c-3.5014,-2.5307 -5.252,-6.4827 -5.252,-11.856v-6.136c0,-3.536 0.832,-6.4653 2.496,-8.788c1.6986,-2.3573 4.004,-4.0907 6.9164,-5.2c2.912,-1.1093 6.222,-1.664 9.932,-1.664c3.709,0 7.002,0.5547 9.88,1.664c2.912,1.1093 5.217,2.8253 6.916,5.148c1.698,2.3227 2.548,5.2347 2.548,8.736zM105.898,33.96c0,1.4213 0.468,2.5133 1.404,3.276c0.97,0.7627 2.27,1.144 3.9,1.144c1.629,0 2.912,-0.3813 3.848,-1.144c0.97,-0.7973 1.456,-1.9067 1.456,-3.328v-8.216c0,-1.4213 -0.486,-2.5133 -1.456,-3.276c-0.936,-0.7973 -2.219,-1.196 -3.848,-1.196c-1.63,0 -2.93,0.3813 -3.9,1.144c-0.936,0.7627 -1.404,1.8547 -1.404,3.276zM172.957,11.6c0.382,0 0.711,0.1387 0.988,0.416c0.278,0.2773 0.416,0.6067 0.416,0.988v7.904c0,0.3813 -0.138,0.7107 -0.416,0.988c-0.277,0.2773 -0.606,0.416 -0.988,0.416h-20.436v3.328h17.056c0.382,0 0.711,0.1387 0.988,0.416c0.278,0.2773 0.416,0.6067 0.416,0.988v7.852c0,0.3813 -0.138,0.7107 -0.416,0.988c-0.277,0.2773 -0.606,0.416 -0.988,0.416h-17.056v10.296c0,0.3813 -0.138,0.7107 -0.416,0.988c-0.277,0.2773 -0.606,0.416 -0.988,0.416h-11.232c-0.381,0 -0.71,-0.1387 -0.988,-0.416c-0.277,-0.2773 -0.416,-0.6067 -0.416,-0.988v-33.592c0,-0.3813 0.139,-0.7107 0.416,-0.988c0.278,-0.2773 0.607,-0.416 0.988,-0.416zM206.633,37.34h9.412c0.381,0 0.711,0.1387 0.988,0.416c0.277,0.2773 0.416,0.6067 0.416,0.988v7.852c0,0.3813 -0.139,0.7107 -0.416,0.988c-0.277,0.2773 -0.607,0.416 -0.988,0.416h-32.968c-0.381,0 -0.711,-0.1387 -0.988,-0.416c-0.277,-0.2773 -0.416,-0.6067 -0.416,-0.988v-7.852c0,-0.3813 0.139,-0.7107 0.416,-0.988c0.277,-0.2773 0.607,-0.416 0.988,-0.416h9.516v-15.08h-9.516c-0.381,0 -0.711,-0.1387 -0.988,-0.416c-0.277,-0.2773 -0.416,-0.6067 -0.416,-0.988v-7.852c0,-0.3813 0.139,-0.7107 0.416,-0.988c0.277,-0.2773 0.607,-0.416 0.988,-0.416h32.968c0.381,0 0.711,0.1387 0.988,0.416c0.277,0.2773 0.416,0.6067 0.416,0.988v7.852c0,0.3813 -0.139,0.7107 -0.416,0.988c-0.277,0.2773 -0.607,0.416 -0.988,0.416h-9.412zM260.693,37.34c0.381,0 0.71,0.1387 0.988,0.416c0.277,0.2773 0.416,0.6067 0.416,0.988v7.852c0,0.3813 -0.139,0.7107 -0.416,0.988c-0.278,0.2773 -0.607,0.416 -0.988,0.416h-30.368c-0.382,0 -0.711,-0.1387 -0.988,-0.416c-0.278,-0.2773 -0.416,-0.6067 -0.416,-0.988v-33.592c0,-0.3813 0.138,-0.7107 0.416,-0.988c0.277,-0.2773 0.606,-0.416 0.988,-0.416h11.232c0.381,0 0.71,0.1387 0.988,0.416c0.277,0.2773 0.416,0.6067 0.416,0.988v24.336zM279.912,25.432c0,-1.456 0.347,-2.7907 1.04,-4.004c0.728,-1.248 1.699,-2.2187 2.912,-2.912c1.248,-0.728 2.6,-1.092 4.056,-1.092c1.456,0 2.791,0.364 4.004,1.092c1.248,0.6933 2.219,1.664 2.912,2.912c0.728,1.2133 1.092,2.548 1.092,4.004c0,1.456 -0.364,2.808 -1.092,4.056c-0.693,1.2133 -1.664,2.184 -2.912,2.912c-1.213,0.6933 -2.548,1.04 -4.004,1.04c-1.456,0 -2.808,-0.3467 -4.056,-1.04c-1.213,-0.728 -2.184,-1.6987 -2.912,-2.912c-0.693,-1.248 -1.04,-2.6 -1.04,-4.056z" clip-rule="evenodd"></path></clipPath></defs><g style="mix-blend-mode:NORMAL"><g clip-path="url(#280118_stroke_clip_path)"><path id="280118_stroke_path" d="M28.1462,11.6c3.2587,0 6.1013,0.5547 8.528,1.664c2.4267,1.1093 4.2813,2.6173 5.564,4.524c1.2827,1.9067 1.924,4.0387 1.924,6.396c0,3.8827 -1.2133,6.9333 -3.64,9.152c-2.4267,2.184 -6.552,3.276 -12.376,3.276h-6.864v9.984c0,0.3813 -0.1387,0.7107 -0.416,0.988c-0.2773,0.2773 -0.6067,0.416 -0.988,0.416h-11.18001c-0.38134,0 -0.71067,-0.1387 -0.988,-0.416c-0.27734,-0.2773 -0.416,-0.6067 -0.416,-0.988v-33.592c0,-0.3813 0.13866,-0.7107 0.416,-0.988c0.27733,-0.2773 0.60666,-0.416 0.988,-0.416z M27.9382,26.992c0.832,0 1.4907,-0.2427 1.976,-0.728c0.4853,-0.52 0.728,-1.196 0.728,-2.028c0,-0.8667 -0.2427,-1.5773 -0.728,-2.132c-0.4853,-0.5547 -1.144,-0.832 -1.976,-0.832h-6.604v5.72z M87.6659,46.388c0.0693,0.1387 0.104,0.2947 0.104,0.468c0,0.312 -0.1214,0.5893 -0.364,0.832c-0.208,0.208 -0.468,0.312 -0.78,0.312h-11.804c-0.4854,0 -0.936,-0.1213 -1.352,-0.364c-0.3814,-0.2427 -0.6587,-0.5547 -0.832,-0.936l-4.576,-10.296h-4.368v10.192c0,0.3813 -0.1387,0.7107 -0.416,0.988c-0.2774,0.2773 -0.6067,0.416 -0.988,0.416h-11.232c-0.3814,0 -0.7107,-0.1387 -0.988,-0.416c-0.2774,-0.2773 -0.416,-0.6067 -0.416,-0.988v-33.592c0,-0.3813 0.1386,-0.7107 0.416,-0.988c0.2773,-0.2773 0.6066,-0.416 0.988,-0.416h20.228c3.12,0 5.8413,0.5027 8.164,1.508c2.3573,1.0053 4.16,2.4613 5.408,4.368c1.248,1.9067 1.872,4.1427 1.872,6.708c0,4.7147 -1.82,8.1293 -5.46,10.244z M70.1939,26.784c0.7626,0 1.352,-0.2427 1.768,-0.728c0.416,-0.52 0.624,-1.1613 0.624,-1.924c0,-0.7627 -0.208,-1.4213 -0.624,-1.976c-0.3814,-0.5893 -0.9707,-0.884 -1.768,-0.884h-6.5v5.512z M130.546,32.972c0,5.304 -1.768,9.2213 -5.304,11.752c-3.502,2.5307 -8.182,3.796 -14.04,3.796c-5.859,0 -10.556,-1.2653 -14.0924,-3.796c-3.5014,-2.5307 -5.252,-6.4827 -5.252,-11.856v-6.136c0,-3.536 0.832,-6.4653 2.496,-8.788c1.6986,-2.3573 4.004,-4.0907 6.9164,-5.2c2.912,-1.1093 6.222,-1.664 9.932,-1.664c3.709,0 7.002,0.5547 9.88,1.664c2.912,1.1093 5.217,2.8253 6.916,5.148c1.698,2.3227 2.548,5.2347 2.548,8.736z M105.898,33.96c0,1.4213 0.468,2.5133 1.404,3.276c0.97,0.7627 2.27,1.144 3.9,1.144c1.629,0 2.912,-0.3813 3.848,-1.144c0.97,-0.7973 1.456,-1.9067 1.456,-3.328v-8.216c0,-1.4213 -0.486,-2.5133 -1.456,-3.276c-0.936,-0.7973 -2.219,-1.196 -3.848,-1.196c-1.63,0 -2.93,0.3813 -3.9,1.144c-0.936,0.7627 -1.404,1.8547 -1.404,3.276z M172.957,11.6c0.382,0 0.711,0.1387 0.988,0.416c0.278,0.2773 0.416,0.6067 0.416,0.988v7.904c0,0.3813 -0.138,0.7107 -0.416,0.988c-0.277,0.2773 -0.606,0.416 -0.988,0.416h-20.436v3.328h17.056c0.382,0 0.711,0.1387 0.988,0.416c0.278,0.2773 0.416,0.6067 0.416,0.988v7.852c0,0.3813 -0.138,0.7107 -0.416,0.988c-0.277,0.2773 -0.606,0.416 -0.988,0.416h-17.056v10.296c0,0.3813 -0.138,0.7107 -0.416,0.988c-0.277,0.2773 -0.606,0.416 -0.988,0.416h-11.232c-0.381,0 -0.71,-0.1387 -0.988,-0.416c-0.277,-0.2773 -0.416,-0.6067 -0.416,-0.988v-33.592c0,-0.3813 0.139,-0.7107 0.416,-0.988c0.278,-0.2773 0.607,-0.416 0.988,-0.416z M206.633,37.34h9.412c0.381,0 0.711,0.1387 0.988,0.416c0.277,0.2773 0.416,0.6067 0.416,0.988v7.852c0,0.3813 -0.139,0.7107 -0.416,0.988c-0.277,0.2773 -0.607,0.416 -0.988,0.416h-32.968c-0.381,0 -0.711,-0.1387 -0.988,-0.416c-0.277,-0.2773 -0.416,-0.6067 -0.416,-0.988v-7.852c0,-0.3813 0.139,-0.7107 0.416,-0.988c0.277,-0.2773 0.607,-0.416 0.988,-0.416h9.516v-15.08h-9.516c-0.381,0 -0.711,-0.1387 -0.988,-0.416c-0.277,-0.2773 -0.416,-0.6067 -0.416,-0.988v-7.852c0,-0.3813 0.139,-0.7107 0.416,-0.988c0.277,-0.2773 0.607,-0.416 0.988,-0.416h32.968c0.381,0 0.711,0.1387 0.988,0.416c0.277,0.2773 0.416,0.6067 0.416,0.988v7.852c0,0.3813 -0.139,0.7107 -0.416,0.988c-0.277,0.2773 -0.607,0.416 -0.988,0.416h-9.412z M260.693,37.34c0.381,0 0.71,0.1387 0.988,0.416c0.277,0.2773 0.416,0.6067 0.416,0.988v7.852c0,0.3813 -0.139,0.7107 -0.416,0.988c-0.278,0.2773 -0.607,0.416 -0.988,0.416h-30.368c-0.382,0 -0.711,-0.1387 -0.988,-0.416c-0.278,-0.2773 -0.416,-0.6067 -0.416,-0.988v-33.592c0,-0.3813 0.138,-0.7107 0.416,-0.988c0.277,-0.2773 0.606,-0.416 0.988,-0.416h11.232c0.381,0 0.71,0.1387 0.988,0.416c0.277,0.2773 0.416,0.6067 0.416,0.988v24.336z M279.912,25.432c0,-1.456 0.347,-2.7907 1.04,-4.004c0.728,-1.248 1.699,-2.2187 2.912,-2.912c1.248,-0.728 2.6,-1.092 4.056,-1.092c1.456,0 2.791,0.364 4.004,1.092c1.248,0.6933 2.219,1.664 2.912,2.912c0.728,1.2133 1.092,2.548 1.092,4.004c0,1.456 -0.364,2.808 -1.092,4.056c-0.693,1.2133 -1.664,2.184 -2.912,2.912c-1.213,0.6933 -2.548,1.04 -4.004,1.04c-1.456,0 -2.808,-0.3467 -4.056,-1.04c-1.213,-0.728 -2.184,-1.6987 -2.912,-2.912c-0.693,-1.248 -1.04,-2.6 -1.04,-4.056z" fill="none" stroke="rgb(255, 255, 255)" stroke-width="4" stroke-linecap="butt" stroke-linejoin="miter" stroke-dasharray="0 0" stroke-opacity="1"></path></g></g></g></g></g></g><g transform="matrix(1,0,0,1,930,0)"><g id="280122" opacity="1" style="mix-blend-mode:normal"><g><g><defs><clipPath id="280122_stroke_clip_path" clipPathUnits="userSpaceOnUse"><path d="M-2,-2 H312 V66 H-2 Z M28.1462,11.6c3.2587,0 6.1013,0.5547 8.528,1.664c2.4267,1.1093 4.2813,2.6173 5.564,4.524c1.2827,1.9067 1.924,4.0387 1.924,6.396c0,3.8827 -1.2133,6.9333 -3.64,9.152c-2.4267,2.184 -6.552,3.276 -12.376,3.276h-6.864v9.984c0,0.3813 -0.1387,0.7107 -0.416,0.988c-0.2773,0.2773 -0.6067,0.416 -0.988,0.416h-11.18001c-0.38134,0 -0.71067,-0.1387 -0.988,-0.416c-0.27734,-0.2773 -0.416,-0.6067 -0.416,-0.988v-33.592c0,-0.3813 0.13866,-0.7107 0.416,-0.988c0.27733,-0.2773 0.60666,-0.416 0.988,-0.416zM27.9382,26.992c0.832,0 1.4907,-0.2427 1.976,-0.728c0.4853,-0.52 0.728,-1.196 0.728,-2.028c0,-0.8667 -0.2427,-1.5773 -0.728,-2.132c-0.4853,-0.5547 -1.144,-0.832 -1.976,-0.832h-6.604v5.72zM87.6659,46.388c0.0693,0.1387 0.104,0.2947 0.104,0.468c0,0.312 -0.1214,0.5893 -0.364,0.832c-0.208,0.208 -0.468,0.312 -0.78,0.312h-11.804c-0.4854,0 -0.936,-0.1213 -1.352,-0.364c-0.3814,-0.2427 -0.6587,-0.5547 -0.832,-0.936l-4.576,-10.296h-4.368v10.192c0,0.3813 -0.1387,0.7107 -0.416,0.988c-0.2774,0.2773 -0.6067,0.416 -0.988,0.416h-11.232c-0.3814,0 -0.7107,-0.1387 -0.988,-0.416c-0.2774,-0.2773 -0.416,-0.6067 -0.416,-0.988v-33.592c0,-0.3813 0.1386,-0.7107 0.416,-0.988c0.2773,-0.2773 0.6066,-0.416 0.988,-0.416h20.228c3.12,0 5.8413,0.5027 8.164,1.508c2.3573,1.0053 4.16,2.4613 5.408,4.368c1.248,1.9067 1.872,4.1427 1.872,6.708c0,4.7147 -1.82,8.1293 -5.46,10.244zM70.1939,26.784c0.7626,0 1.352,-0.2427 1.768,-0.728c0.416,-0.52 0.624,-1.1613 0.624,-1.924c0,-0.7627 -0.208,-1.4213 -0.624,-1.976c-0.3814,-0.5893 -0.9707,-0.884 -1.768,-0.884h-6.5v5.512zM130.546,32.972c0,5.304 -1.768,9.2213 -5.304,11.752c-3.502,2.5307 -8.182,3.796 -14.04,3.796c-5.859,0 -10.556,-1.2653 -14.0924,-3.796c-3.5014,-2.5307 -5.252,-6.4827 -5.252,-11.856v-6.136c0,-3.536 0.832,-6.4653 2.496,-8.788c1.6986,-2.3573 4.004,-4.0907 6.9164,-5.2c2.912,-1.1093 6.222,-1.664 9.932,-1.664c3.709,0 7.002,0.5547 9.88,1.664c2.912,1.1093 5.217,2.8253 6.916,5.148c1.698,2.3227 2.548,5.2347 2.548,8.736zM105.898,33.96c0,1.4213 0.468,2.5133 1.404,3.276c0.97,0.7627 2.27,1.144 3.9,1.144c1.629,0 2.912,-0.3813 3.848,-1.144c0.97,-0.7973 1.456,-1.9067 1.456,-3.328v-8.216c0,-1.4213 -0.486,-2.5133 -1.456,-3.276c-0.936,-0.7973 -2.219,-1.196 -3.848,-1.196c-1.63,0 -2.93,0.3813 -3.9,1.144c-0.936,0.7627 -1.404,1.8547 -1.404,3.276zM172.957,11.6c0.382,0 0.711,0.1387 0.988,0.416c0.278,0.2773 0.416,0.6067 0.416,0.988v7.904c0,0.3813 -0.138,0.7107 -0.416,0.988c-0.277,0.2773 -0.606,0.416 -0.988,0.416h-20.436v3.328h17.056c0.382,0 0.711,0.1387 0.988,0.416c0.278,0.2773 0.416,0.6067 0.416,0.988v7.852c0,0.3813 -0.138,0.7107 -0.416,0.988c-0.277,0.2773 -0.606,0.416 -0.988,0.416h-17.056v10.296c0,0.3813 -0.138,0.7107 -0.416,0.988c-0.277,0.2773 -0.606,0.416 -0.988,0.416h-11.232c-0.381,0 -0.71,-0.1387 -0.988,-0.416c-0.277,-0.2773 -0.416,-0.6067 -0.416,-0.988v-33.592c0,-0.3813 0.139,-0.7107 0.416,-0.988c0.278,-0.2773 0.607,-0.416 0.988,-0.416zM206.633,37.34h9.412c0.381,0 0.711,0.1387 0.988,0.416c0.277,0.2773 0.416,0.6067 0.416,0.988v7.852c0,0.3813 -0.139,0.7107 -0.416,0.988c-0.277,0.2773 -0.607,0.416 -0.988,0.416h-32.968c-0.381,0 -0.711,-0.1387 -0.988,-0.416c-0.277,-0.2773 -0.416,-0.6067 -0.416,-0.988v-7.852c0,-0.3813 0.139,-0.7107 0.416,-0.988c0.277,-0.2773 0.607,-0.416 0.988,-0.416h9.516v-15.08h-9.516c-0.381,0 -0.711,-0.1387 -0.988,-0.416c-0.277,-0.2773 -0.416,-0.6067 -0.416,-0.988v-7.852c0,-0.3813 0.139,-0.7107 0.416,-0.988c0.277,-0.2773 0.607,-0.416 0.988,-0.416h32.968c0.381,0 0.711,0.1387 0.988,0.416c0.277,0.2773 0.416,0.6067 0.416,0.988v7.852c0,0.3813 -0.139,0.7107 -0.416,0.988c-0.277,0.2773 -0.607,0.416 -0.988,0.416h-9.412zM260.693,37.34c0.381,0 0.71,0.1387 0.988,0.416c0.277,0.2773 0.416,0.6067 0.416,0.988v7.852c0,0.3813 -0.139,0.7107 -0.416,0.988c-0.278,0.2773 -0.607,0.416 -0.988,0.416h-30.368c-0.382,0 -0.711,-0.1387 -0.988,-0.416c-0.278,-0.2773 -0.416,-0.6067 -0.416,-0.988v-33.592c0,-0.3813 0.138,-0.7107 0.416,-0.988c0.277,-0.2773 0.606,-0.416 0.988,-0.416h11.232c0.381,0 0.71,0.1387 0.988,0.416c0.277,0.2773 0.416,0.6067 0.416,0.988v24.336zM279.912,25.432c0,-1.456 0.347,-2.7907 1.04,-4.004c0.728,-1.248 1.699,-2.2187 2.912,-2.912c1.248,-0.728 2.6,-1.092 4.056,-1.092c1.456,0 2.791,0.364 4.004,1.092c1.248,0.6933 2.219,1.664 2.912,2.912c0.728,1.2133 1.092,2.548 1.092,4.004c0,1.456 -0.364,2.808 -1.092,4.056c-0.693,1.2133 -1.664,2.184 -2.912,2.912c-1.213,0.6933 -2.548,1.04 -4.004,1.04c-1.456,0 -2.808,-0.3467 -4.056,-1.04c-1.213,-0.728 -2.184,-1.6987 -2.912,-2.912c-0.693,-1.248 -1.04,-2.6 -1.04,-4.056z" clip-rule="evenodd"></path></clipPath></defs><g style="mix-blend-mode:NORMAL"><g clip-path="url(#280122_stroke_clip_path)"><path id="280122_stroke_path" d="M28.1462,11.6c3.2587,0 6.1013,0.5547 8.528,1.664c2.4267,1.1093 4.2813,2.6173 5.564,4.524c1.2827,1.9067 1.924,4.0387 1.924,6.396c0,3.8827 -1.2133,6.9333 -3.64,9.152c-2.4267,2.184 -6.552,3.276 -12.376,3.276h-6.864v9.984c0,0.3813 -0.1387,0.7107 -0.416,0.988c-0.2773,0.2773 -0.6067,0.416 -0.988,0.416h-11.18001c-0.38134,0 -0.71067,-0.1387 -0.988,-0.416c-0.27734,-0.2773 -0.416,-0.6067 -0.416,-0.988v-33.592c0,-0.3813 0.13866,-0.7107 0.416,-0.988c0.27733,-0.2773 0.60666,-0.416 0.988,-0.416z M27.9382,26.992c0.832,0 1.4907,-0.2427 1.976,-0.728c0.4853,-0.52 0.728,-1.196 0.728,-2.028c0,-0.8667 -0.2427,-1.5773 -0.728,-2.132c-0.4853,-0.5547 -1.144,-0.832 -1.976,-0.832h-6.604v5.72z M87.6659,46.388c0.0693,0.1387 0.104,0.2947 0.104,0.468c0,0.312 -0.1214,0.5893 -0.364,0.832c-0.208,0.208 -0.468,0.312 -0.78,0.312h-11.804c-0.4854,0 -0.936,-0.1213 -1.352,-0.364c-0.3814,-0.2427 -0.6587,-0.5547 -0.832,-0.936l-4.576,-10.296h-4.368v10.192c0,0.3813 -0.1387,0.7107 -0.416,0.988c-0.2774,0.2773 -0.6067,0.416 -0.988,0.416h-11.232c-0.3814,0 -0.7107,-0.1387 -0.988,-0.416c-0.2774,-0.2773 -0.416,-0.6067 -0.416,-0.988v-33.592c0,-0.3813 0.1386,-0.7107 0.416,-0.988c0.2773,-0.2773 0.6066,-0.416 0.988,-0.416h20.228c3.12,0 5.8413,0.5027 8.164,1.508c2.3573,1.0053 4.16,2.4613 5.408,4.368c1.248,1.9067 1.872,4.1427 1.872,6.708c0,4.7147 -1.82,8.1293 -5.46,10.244z M70.1939,26.784c0.7626,0 1.352,-0.2427 1.768,-0.728c0.416,-0.52 0.624,-1.1613 0.624,-1.924c0,-0.7627 -0.208,-1.4213 -0.624,-1.976c-0.3814,-0.5893 -0.9707,-0.884 -1.768,-0.884h-6.5v5.512z M130.546,32.972c0,5.304 -1.768,9.2213 -5.304,11.752c-3.502,2.5307 -8.182,3.796 -14.04,3.796c-5.859,0 -10.556,-1.2653 -14.0924,-3.796c-3.5014,-2.5307 -5.252,-6.4827 -5.252,-11.856v-6.136c0,-3.536 0.832,-6.4653 2.496,-8.788c1.6986,-2.3573 4.004,-4.0907 6.9164,-5.2c2.912,-1.1093 6.222,-1.664 9.932,-1.664c3.709,0 7.002,0.5547 9.88,1.664c2.912,1.1093 5.217,2.8253 6.916,5.148c1.698,2.3227 2.548,5.2347 2.548,8.736z M105.898,33.96c0,1.4213 0.468,2.5133 1.404,3.276c0.97,0.7627 2.27,1.144 3.9,1.144c1.629,0 2.912,-0.3813 3.848,-1.144c0.97,-0.7973 1.456,-1.9067 1.456,-3.328v-8.216c0,-1.4213 -0.486,-2.5133 -1.456,-3.276c-0.936,-0.7973 -2.219,-1.196 -3.848,-1.196c-1.63,0 -2.93,0.3813 -3.9,1.144c-0.936,0.7627 -1.404,1.8547 -1.404,3.276z M172.957,11.6c0.382,0 0.711,0.1387 0.988,0.416c0.278,0.2773 0.416,0.6067 0.416,0.988v7.904c0,0.3813 -0.138,0.7107 -0.416,0.988c-0.277,0.2773 -0.606,0.416 -0.988,0.416h-20.436v3.328h17.056c0.382,0 0.711,0.1387 0.988,0.416c0.278,0.2773 0.416,0.6067 0.416,0.988v7.852c0,0.3813 -0.138,0.7107 -0.416,0.988c-0.277,0.2773 -0.606,0.416 -0.988,0.416h-17.056v10.296c0,0.3813 -0.138,0.7107 -0.416,0.988c-0.277,0.2773 -0.606,0.416 -0.988,0.416h-11.232c-0.381,0 -0.71,-0.1387 -0.988,-0.416c-0.277,-0.2773 -0.416,-0.6067 -0.416,-0.988v-33.592c0,-0.3813 0.139,-0.7107 0.416,-0.988c0.278,-0.2773 0.607,-0.416 0.988,-0.416z M206.633,37.34h9.412c0.381,0 0.711,0.1387 0.988,0.416c0.277,0.2773 0.416,0.6067 0.416,0.988v7.852c0,0.3813 -0.139,0.7107 -0.416,0.988c-0.277,0.2773 -0.607,0.416 -0.988,0.416h-32.968c-0.381,0 -0.711,-0.1387 -0.988,-0.416c-0.277,-0.2773 -0.416,-0.6067 -0.416,-0.988v-7.852c0,-0.3813 0.139,-0.7107 0.416,-0.988c0.277,-0.2773 0.607,-0.416 0.988,-0.416h9.516v-15.08h-9.516c-0.381,0 -0.711,-0.1387 -0.988,-0.416c-0.277,-0.2773 -0.416,-0.6067 -0.416,-0.988v-7.852c0,-0.3813 0.139,-0.7107 0.416,-0.988c0.277,-0.2773 0.607,-0.416 0.988,-0.416h32.968c0.381,0 0.711,0.1387 0.988,0.416c0.277,0.2773 0.416,0.6067 0.416,0.988v7.852c0,0.3813 -0.139,0.7107 -0.416,0.988c-0.277,0.2773 -0.607,0.416 -0.988,0.416h-9.412z M260.693,37.34c0.381,0 0.71,0.1387 0.988,0.416c0.277,0.2773 0.416,0.6067 0.416,0.988v7.852c0,0.3813 -0.139,0.7107 -0.416,0.988c-0.278,0.2773 -0.607,0.416 -0.988,0.416h-30.368c-0.382,0 -0.711,-0.1387 -0.988,-0.416c-0.278,-0.2773 -0.416,-0.6067 -0.416,-0.988v-33.592c0,-0.3813 0.138,-0.7107 0.416,-0.988c0.277,-0.2773 0.606,-0.416 0.988,-0.416h11.232c0.381,0 0.71,0.1387 0.988,0.416c0.277,0.2773 0.416,0.6067 0.416,0.988v24.336z M279.912,25.432c0,-1.456 0.347,-2.7907 1.04,-4.004c0.728,-1.248 1.699,-2.2187 2.912,-2.912c1.248,-0.728 2.6,-1.092 4.056,-1.092c1.456,0 2.791,0.364 4.004,1.092c1.248,0.6933 2.219,1.664 2.912,2.912c0.728,1.2133 1.092,2.548 1.092,4.004c0,1.456 -0.364,2.808 -1.092,4.056c-0.693,1.2133 -1.664,2.184 -2.912,2.912c-1.213,0.6933 -2.548,1.04 -4.004,1.04c-1.456,0 -2.808,-0.3467 -4.056,-1.04c-1.213,-0.728 -2.184,-1.6987 -2.912,-2.912c-0.693,-1.248 -1.04,-2.6 -1.04,-4.056z" fill="none" stroke="rgb(255, 255, 255)" stroke-width="4" stroke-linecap="butt" stroke-linejoin="miter" stroke-dasharray="0 0" stroke-opacity="1"></path></g></g></g></g></g></g><g transform="matrix(1,0,0,1,1550,0)"><g id="280124" opacity="1" style="mix-blend-mode:normal"><g><g><defs><clipPath id="280124_stroke_clip_path" clipPathUnits="userSpaceOnUse"><path d="M-2,-2 H312 V66 H-2 Z M28.1462,11.6c3.2587,0 6.1013,0.5547 8.528,1.664c2.4267,1.1093 4.2813,2.6173 5.564,4.524c1.2827,1.9067 1.924,4.0387 1.924,6.396c0,3.8827 -1.2133,6.9333 -3.64,9.152c-2.4267,2.184 -6.552,3.276 -12.376,3.276h-6.864v9.984c0,0.3813 -0.1387,0.7107 -0.416,0.988c-0.2773,0.2773 -0.6067,0.416 -0.988,0.416h-11.18001c-0.38134,0 -0.71067,-0.1387 -0.988,-0.416c-0.27734,-0.2773 -0.416,-0.6067 -0.416,-0.988v-33.592c0,-0.3813 0.13866,-0.7107 0.416,-0.988c0.27733,-0.2773 0.60666,-0.416 0.988,-0.416zM27.9382,26.992c0.832,0 1.4907,-0.2427 1.976,-0.728c0.4853,-0.52 0.728,-1.196 0.728,-2.028c0,-0.8667 -0.2427,-1.5773 -0.728,-2.132c-0.4853,-0.5547 -1.144,-0.832 -1.976,-0.832h-6.604v5.72zM87.6659,46.388c0.0693,0.1387 0.104,0.2947 0.104,0.468c0,0.312 -0.1214,0.5893 -0.364,0.832c-0.208,0.208 -0.468,0.312 -0.78,0.312h-11.804c-0.4854,0 -0.936,-0.1213 -1.352,-0.364c-0.3814,-0.2427 -0.6587,-0.5547 -0.832,-0.936l-4.576,-10.296h-4.368v10.192c0,0.3813 -0.1387,0.7107 -0.416,0.988c-0.2774,0.2773 -0.6067,0.416 -0.988,0.416h-11.232c-0.3814,0 -0.7107,-0.1387 -0.988,-0.416c-0.2774,-0.2773 -0.416,-0.6067 -0.416,-0.988v-33.592c0,-0.3813 0.1386,-0.7107 0.416,-0.988c0.2773,-0.2773 0.6066,-0.416 0.988,-0.416h20.228c3.12,0 5.8413,0.5027 8.164,1.508c2.3573,1.0053 4.16,2.4613 5.408,4.368c1.248,1.9067 1.872,4.1427 1.872,6.708c0,4.7147 -1.82,8.1293 -5.46,10.244zM70.1939,26.784c0.7626,0 1.352,-0.2427 1.768,-0.728c0.416,-0.52 0.624,-1.1613 0.624,-1.924c0,-0.7627 -0.208,-1.4213 -0.624,-1.976c-0.3814,-0.5893 -0.9707,-0.884 -1.768,-0.884h-6.5v5.512zM130.546,32.972c0,5.304 -1.768,9.2213 -5.304,11.752c-3.502,2.5307 -8.182,3.796 -14.04,3.796c-5.859,0 -10.556,-1.2653 -14.0924,-3.796c-3.5014,-2.5307 -5.252,-6.4827 -5.252,-11.856v-6.136c0,-3.536 0.832,-6.4653 2.496,-8.788c1.6986,-2.3573 4.004,-4.0907 6.9164,-5.2c2.912,-1.1093 6.222,-1.664 9.932,-1.664c3.709,0 7.002,0.5547 9.88,1.664c2.912,1.1093 5.217,2.8253 6.916,5.148c1.698,2.3227 2.548,5.2347 2.548,8.736zM105.898,33.96c0,1.4213 0.468,2.5133 1.404,3.276c0.97,0.7627 2.27,1.144 3.9,1.144c1.629,0 2.912,-0.3813 3.848,-1.144c0.97,-0.7973 1.456,-1.9067 1.456,-3.328v-8.216c0,-1.4213 -0.486,-2.5133 -1.456,-3.276c-0.936,-0.7973 -2.219,-1.196 -3.848,-1.196c-1.63,0 -2.93,0.3813 -3.9,1.144c-0.936,0.7627 -1.404,1.8547 -1.404,3.276zM172.957,11.6c0.382,0 0.711,0.1387 0.988,0.416c0.278,0.2773 0.416,0.6067 0.416,0.988v7.904c0,0.3813 -0.138,0.7107 -0.416,0.988c-0.277,0.2773 -0.606,0.416 -0.988,0.416h-20.436v3.328h17.056c0.382,0 0.711,0.1387 0.988,0.416c0.278,0.2773 0.416,0.6067 0.416,0.988v7.852c0,0.3813 -0.138,0.7107 -0.416,0.988c-0.277,0.2773 -0.606,0.416 -0.988,0.416h-17.056v10.296c0,0.3813 -0.138,0.7107 -0.416,0.988c-0.277,0.2773 -0.606,0.416 -0.988,0.416h-11.232c-0.381,0 -0.71,-0.1387 -0.988,-0.416c-0.277,-0.2773 -0.416,-0.6067 -0.416,-0.988v-33.592c0,-0.3813 0.139,-0.7107 0.416,-0.988c0.278,-0.2773 0.607,-0.416 0.988,-0.416zM206.633,37.34h9.412c0.381,0 0.711,0.1387 0.988,0.416c0.277,0.2773 0.416,0.6067 0.416,0.988v7.852c0,0.3813 -0.139,0.7107 -0.416,0.988c-0.277,0.2773 -0.607,0.416 -0.988,0.416h-32.968c-0.381,0 -0.711,-0.1387 -0.988,-0.416c-0.277,-0.2773 -0.416,-0.6067 -0.416,-0.988v-7.852c0,-0.3813 0.139,-0.7107 0.416,-0.988c0.277,-0.2773 0.607,-0.416 0.988,-0.416h9.516v-15.08h-9.516c-0.381,0 -0.711,-0.1387 -0.988,-0.416c-0.277,-0.2773 -0.416,-0.6067 -0.416,-0.988v-7.852c0,-0.3813 0.139,-0.7107 0.416,-0.988c0.277,-0.2773 0.607,-0.416 0.988,-0.416h32.968c0.381,0 0.711,0.1387 0.988,0.416c0.277,0.2773 0.416,0.6067 0.416,0.988v7.852c0,0.3813 -0.139,0.7107 -0.416,0.988c-0.277,0.2773 -0.607,0.416 -0.988,0.416h-9.412zM260.693,37.34c0.381,0 0.71,0.1387 0.988,0.416c0.277,0.2773 0.416,0.6067 0.416,0.988v7.852c0,0.3813 -0.139,0.7107 -0.416,0.988c-0.278,0.2773 -0.607,0.416 -0.988,0.416h-30.368c-0.382,0 -0.711,-0.1387 -0.988,-0.416c-0.278,-0.2773 -0.416,-0.6067 -0.416,-0.988v-33.592c0,-0.3813 0.138,-0.7107 0.416,-0.988c0.277,-0.2773 0.606,-0.416 0.988,-0.416h11.232c0.381,0 0.71,0.1387 0.988,0.416c0.277,0.2773 0.416,0.6067 0.416,0.988v24.336zM279.912,25.432c0,-1.456 0.347,-2.7907 1.04,-4.004c0.728,-1.248 1.699,-2.2187 2.912,-2.912c1.248,-0.728 2.6,-1.092 4.056,-1.092c1.456,0 2.791,0.364 4.004,1.092c1.248,0.6933 2.219,1.664 2.912,2.912c0.728,1.2133 1.092,2.548 1.092,4.004c0,1.456 -0.364,2.808 -1.092,4.056c-0.693,1.2133 -1.664,2.184 -2.912,2.912c-1.213,0.6933 -2.548,1.04 -4.004,1.04c-1.456,0 -2.808,-0.3467 -4.056,-1.04c-1.213,-0.728 -2.184,-1.6987 -2.912,-2.912c-0.693,-1.248 -1.04,-2.6 -1.04,-4.056z" clip-rule="evenodd"></path></clipPath></defs><g style="mix-blend-mode:NORMAL"><g clip-path="url(#280124_stroke_clip_path)"><path id="280124_stroke_path" d="M28.1462,11.6c3.2587,0 6.1013,0.5547 8.528,1.664c2.4267,1.1093 4.2813,2.6173 5.564,4.524c1.2827,1.9067 1.924,4.0387 1.924,6.396c0,3.8827 -1.2133,6.9333 -3.64,9.152c-2.4267,2.184 -6.552,3.276 -12.376,3.276h-6.864v9.984c0,0.3813 -0.1387,0.7107 -0.416,0.988c-0.2773,0.2773 -0.6067,0.416 -0.988,0.416h-11.18001c-0.38134,0 -0.71067,-0.1387 -0.988,-0.416c-0.27734,-0.2773 -0.416,-0.6067 -0.416,-0.988v-33.592c0,-0.3813 0.13866,-0.7107 0.416,-0.988c0.27733,-0.2773 0.60666,-0.416 0.988,-0.416z M27.9382,26.992c0.832,0 1.4907,-0.2427 1.976,-0.728c0.4853,-0.52 0.728,-1.196 0.728,-2.028c0,-0.8667 -0.2427,-1.5773 -0.728,-2.132c-0.4853,-0.5547 -1.144,-0.832 -1.976,-0.832h-6.604v5.72z M87.6659,46.388c0.0693,0.1387 0.104,0.2947 0.104,0.468c0,0.312 -0.1214,0.5893 -0.364,0.832c-0.208,0.208 -0.468,0.312 -0.78,0.312h-11.804c-0.4854,0 -0.936,-0.1213 -1.352,-0.364c-0.3814,-0.2427 -0.6587,-0.5547 -0.832,-0.936l-4.576,-10.296h-4.368v10.192c0,0.3813 -0.1387,0.7107 -0.416,0.988c-0.2774,0.2773 -0.6067,0.416 -0.988,0.416h-11.232c-0.3814,0 -0.7107,-0.1387 -0.988,-0.416c-0.2774,-0.2773 -0.416,-0.6067 -0.416,-0.988v-33.592c0,-0.3813 0.1386,-0.7107 0.416,-0.988c0.2773,-0.2773 0.6066,-0.416 0.988,-0.416h20.228c3.12,0 5.8413,0.5027 8.164,1.508c2.3573,1.0053 4.16,2.4613 5.408,4.368c1.248,1.9067 1.872,4.1427 1.872,6.708c0,4.7147 -1.82,8.1293 -5.46,10.244z M70.1939,26.784c0.7626,0 1.352,-0.2427 1.768,-0.728c0.416,-0.52 0.624,-1.1613 0.624,-1.924c0,-0.7627 -0.208,-1.4213 -0.624,-1.976c-0.3814,-0.5893 -0.9707,-0.884 -1.768,-0.884h-6.5v5.512z M130.546,32.972c0,5.304 -1.768,9.2213 -5.304,11.752c-3.502,2.5307 -8.182,3.796 -14.04,3.796c-5.859,0 -10.556,-1.2653 -14.0924,-3.796c-3.5014,-2.5307 -5.252,-6.4827 -5.252,-11.856v-6.136c0,-3.536 0.832,-6.4653 2.496,-8.788c1.6986,-2.3573 4.004,-4.0907 6.9164,-5.2c2.912,-1.1093 6.222,-1.664 9.932,-1.664c3.709,0 7.002,0.5547 9.88,1.664c2.912,1.1093 5.217,2.8253 6.916,5.148c1.698,2.3227 2.548,5.2347 2.548,8.736z M105.898,33.96c0,1.4213 0.468,2.5133 1.404,3.276c0.97,0.7627 2.27,1.144 3.9,1.144c1.629,0 2.912,-0.3813 3.848,-1.144c0.97,-0.7973 1.456,-1.9067 1.456,-3.328v-8.216c0,-1.4213 -0.486,-2.5133 -1.456,-3.276c-0.936,-0.7973 -2.219,-1.196 -3.848,-1.196c-1.63,0 -2.93,0.3813 -3.9,1.144c-0.936,0.7627 -1.404,1.8547 -1.404,3.276z M172.957,11.6c0.382,0 0.711,0.1387 0.988,0.416c0.278,0.2773 0.416,0.6067 0.416,0.988v7.904c0,0.3813 -0.138,0.7107 -0.416,0.988c-0.277,0.2773 -0.606,0.416 -0.988,0.416h-20.436v3.328h17.056c0.382,0 0.711,0.1387 0.988,0.416c0.278,0.2773 0.416,0.6067 0.416,0.988v7.852c0,0.3813 -0.138,0.7107 -0.416,0.988c-0.277,0.2773 -0.606,0.416 -0.988,0.416h-17.056v10.296c0,0.3813 -0.138,0.7107 -0.416,0.988c-0.277,0.2773 -0.606,0.416 -0.988,0.416h-11.232c-0.381,0 -0.71,-0.1387 -0.988,-0.416c-0.277,-0.2773 -0.416,-0.6067 -0.416,-0.988v-33.592c0,-0.3813 0.139,-0.7107 0.416,-0.988c0.278,-0.2773 0.607,-0.416 0.988,-0.416z M206.633,37.34h9.412c0.381,0 0.711,0.1387 0.988,0.416c0.277,0.2773 0.416,0.6067 0.416,0.988v7.852c0,0.3813 -0.139,0.7107 -0.416,0.988c-0.277,0.2773 -0.607,0.416 -0.988,0.416h-32.968c-0.381,0 -0.711,-0.1387 -0.988,-0.416c-0.277,-0.2773 -0.416,-0.6067 -0.416,-0.988v-7.852c0,-0.3813 0.139,-0.7107 0.416,-0.988c0.277,-0.2773 0.607,-0.416 0.988,-0.416h9.516v-15.08h-9.516c-0.381,0 -0.711,-0.1387 -0.988,-0.416c-0.277,-0.2773 -0.416,-0.6067 -0.416,-0.988v-7.852c0,-0.3813 0.139,-0.7107 0.416,-0.988c0.277,-0.2773 0.607,-0.416 0.988,-0.416h32.968c0.381,0 0.711,0.1387 0.988,0.416c0.277,0.2773 0.416,0.6067 0.416,0.988v7.852c0,0.3813 -0.139,0.7107 -0.416,0.988c-0.277,0.2773 -0.607,0.416 -0.988,0.416h-9.412z M260.693,37.34c0.381,0 0.71,0.1387 0.988,0.416c0.277,0.2773 0.416,0.6067 0.416,0.988v7.852c0,0.3813 -0.139,0.7107 -0.416,0.988c-0.278,0.2773 -0.607,0.416 -0.988,0.416h-30.368c-0.382,0 -0.711,-0.1387 -0.988,-0.416c-0.278,-0.2773 -0.416,-0.6067 -0.416,-0.988v-33.592c0,-0.3813 0.138,-0.7107 0.416,-0.988c0.277,-0.2773 0.606,-0.416 0.988,-0.416h11.232c0.381,0 0.71,0.1387 0.988,0.416c0.277,0.2773 0.416,0.6067 0.416,0.988v24.336z M279.912,25.432c0,-1.456 0.347,-2.7907 1.04,-4.004c0.728,-1.248 1.699,-2.2187 2.912,-2.912c1.248,-0.728 2.6,-1.092 4.056,-1.092c1.456,0 2.791,0.364 4.004,1.092c1.248,0.6933 2.219,1.664 2.912,2.912c0.728,1.2133 1.092,2.548 1.092,4.004c0,1.456 -0.364,2.808 -1.092,4.056c-0.693,1.2133 -1.664,2.184 -2.912,2.912c-1.213,0.6933 -2.548,1.04 -4.004,1.04c-1.456,0 -2.808,-0.3467 -4.056,-1.04c-1.213,-0.728 -2.184,-1.6987 -2.912,-2.912c-0.693,-1.248 -1.04,-2.6 -1.04,-4.056z" fill="none" stroke="rgb(255, 255, 255)" stroke-width="4" stroke-linecap="butt" stroke-linejoin="miter" stroke-dasharray="0 0" stroke-opacity="1"></path></g></g></g></g></g></g><g transform="matrix(1,0,0,1,2170,0)"><g id="280126" opacity="1" style="mix-blend-mode:normal"><g><g><defs><clipPath id="280126_stroke_clip_path" clipPathUnits="userSpaceOnUse"><path d="M-2,-2 H312 V66 H-2 Z M28.1462,11.6c3.2587,0 6.1013,0.5547 8.528,1.664c2.4267,1.1093 4.2813,2.6173 5.564,4.524c1.2827,1.9067 1.924,4.0387 1.924,6.396c0,3.8827 -1.2133,6.9333 -3.64,9.152c-2.4267,2.184 -6.552,3.276 -12.376,3.276h-6.864v9.984c0,0.3813 -0.1387,0.7107 -0.416,0.988c-0.2773,0.2773 -0.6067,0.416 -0.988,0.416h-11.18001c-0.38134,0 -0.71067,-0.1387 -0.988,-0.416c-0.27734,-0.2773 -0.416,-0.6067 -0.416,-0.988v-33.592c0,-0.3813 0.13866,-0.7107 0.416,-0.988c0.27733,-0.2773 0.60666,-0.416 0.988,-0.416zM27.9382,26.992c0.832,0 1.4907,-0.2427 1.976,-0.728c0.4853,-0.52 0.728,-1.196 0.728,-2.028c0,-0.8667 -0.2427,-1.5773 -0.728,-2.132c-0.4853,-0.5547 -1.144,-0.832 -1.976,-0.832h-6.604v5.72zM87.6659,46.388c0.0693,0.1387 0.104,0.2947 0.104,0.468c0,0.312 -0.1214,0.5893 -0.364,0.832c-0.208,0.208 -0.468,0.312 -0.78,0.312h-11.804c-0.4854,0 -0.936,-0.1213 -1.352,-0.364c-0.3814,-0.2427 -0.6587,-0.5547 -0.832,-0.936l-4.576,-10.296h-4.368v10.192c0,0.3813 -0.1387,0.7107 -0.416,0.988c-0.2774,0.2773 -0.6067,0.416 -0.988,0.416h-11.232c-0.3814,0 -0.7107,-0.1387 -0.988,-0.416c-0.2774,-0.2773 -0.416,-0.6067 -0.416,-0.988v-33.592c0,-0.3813 0.1386,-0.7107 0.416,-0.988c0.2773,-0.2773 0.6066,-0.416 0.988,-0.416h20.228c3.12,0 5.8413,0.5027 8.164,1.508c2.3573,1.0053 4.16,2.4613 5.408,4.368c1.248,1.9067 1.872,4.1427 1.872,6.708c0,4.7147 -1.82,8.1293 -5.46,10.244zM70.1939,26.784c0.7626,0 1.352,-0.2427 1.768,-0.728c0.416,-0.52 0.624,-1.1613 0.624,-1.924c0,-0.7627 -0.208,-1.4213 -0.624,-1.976c-0.3814,-0.5893 -0.9707,-0.884 -1.768,-0.884h-6.5v5.512zM130.546,32.972c0,5.304 -1.768,9.2213 -5.304,11.752c-3.502,2.5307 -8.182,3.796 -14.04,3.796c-5.859,0 -10.556,-1.2653 -14.0924,-3.796c-3.5014,-2.5307 -5.252,-6.4827 -5.252,-11.856v-6.136c0,-3.536 0.832,-6.4653 2.496,-8.788c1.6986,-2.3573 4.004,-4.0907 6.9164,-5.2c2.912,-1.1093 6.222,-1.664 9.932,-1.664c3.709,0 7.002,0.5547 9.88,1.664c2.912,1.1093 5.217,2.8253 6.916,5.148c1.698,2.3227 2.548,5.2347 2.548,8.736zM105.898,33.96c0,1.4213 0.468,2.5133 1.404,3.276c0.97,0.7627 2.27,1.144 3.9,1.144c1.629,0 2.912,-0.3813 3.848,-1.144c0.97,-0.7973 1.456,-1.9067 1.456,-3.328v-8.216c0,-1.4213 -0.486,-2.5133 -1.456,-3.276c-0.936,-0.7973 -2.219,-1.196 -3.848,-1.196c-1.63,0 -2.93,0.3813 -3.9,1.144c-0.936,0.7627 -1.404,1.8547 -1.404,3.276zM172.957,11.6c0.382,0 0.711,0.1387 0.988,0.416c0.278,0.2773 0.416,0.6067 0.416,0.988v7.904c0,0.3813 -0.138,0.7107 -0.416,0.988c-0.277,0.2773 -0.606,0.416 -0.988,0.416h-20.436v3.328h17.056c0.382,0 0.711,0.1387 0.988,0.416c0.278,0.2773 0.416,0.6067 0.416,0.988v7.852c0,0.3813 -0.138,0.7107 -0.416,0.988c-0.277,0.2773 -0.606,0.416 -0.988,0.416h-17.056v10.296c0,0.3813 -0.138,0.7107 -0.416,0.988c-0.277,0.2773 -0.606,0.416 -0.988,0.416h-11.232c-0.381,0 -0.71,-0.1387 -0.988,-0.416c-0.277,-0.2773 -0.416,-0.6067 -0.416,-0.988v-33.592c0,-0.3813 0.139,-0.7107 0.416,-0.988c0.278,-0.2773 0.607,-0.416 0.988,-0.416zM206.633,37.34h9.412c0.381,0 0.711,0.1387 0.988,0.416c0.277,0.2773 0.416,0.6067 0.416,0.988v7.852c0,0.3813 -0.139,0.7107 -0.416,0.988c-0.277,0.2773 -0.607,0.416 -0.988,0.416h-32.968c-0.381,0 -0.711,-0.1387 -0.988,-0.416c-0.277,-0.2773 -0.416,-0.6067 -0.416,-0.988v-7.852c0,-0.3813 0.139,-0.7107 0.416,-0.988c0.277,-0.2773 0.607,-0.416 0.988,-0.416h9.516v-15.08h-9.516c-0.381,0 -0.711,-0.1387 -0.988,-0.416c-0.277,-0.2773 -0.416,-0.6067 -0.416,-0.988v-7.852c0,-0.3813 0.139,-0.7107 0.416,-0.988c0.277,-0.2773 0.607,-0.416 0.988,-0.416h32.968c0.381,0 0.711,0.1387 0.988,0.416c0.277,0.2773 0.416,0.6067 0.416,0.988v7.852c0,0.3813 -0.139,0.7107 -0.416,0.988c-0.277,0.2773 -0.607,0.416 -0.988,0.416h-9.412zM260.693,37.34c0.381,0 0.71,0.1387 0.988,0.416c0.277,0.2773 0.416,0.6067 0.416,0.988v7.852c0,0.3813 -0.139,0.7107 -0.416,0.988c-0.278,0.2773 -0.607,0.416 -0.988,0.416h-30.368c-0.382,0 -0.711,-0.1387 -0.988,-0.416c-0.278,-0.2773 -0.416,-0.6067 -0.416,-0.988v-33.592c0,-0.3813 0.138,-0.7107 0.416,-0.988c0.277,-0.2773 0.606,-0.416 0.988,-0.416h11.232c0.381,0 0.71,0.1387 0.988,0.416c0.277,0.2773 0.416,0.6067 0.416,0.988v24.336zM279.912,25.432c0,-1.456 0.347,-2.7907 1.04,-4.004c0.728,-1.248 1.699,-2.2187 2.912,-2.912c1.248,-0.728 2.6,-1.092 4.056,-1.092c1.456,0 2.791,0.364 4.004,1.092c1.248,0.6933 2.219,1.664 2.912,2.912c0.728,1.2133 1.092,2.548 1.092,4.004c0,1.456 -0.364,2.808 -1.092,4.056c-0.693,1.2133 -1.664,2.184 -2.912,2.912c-1.213,0.6933 -2.548,1.04 -4.004,1.04c-1.456,0 -2.808,-0.3467 -4.056,-1.04c-1.213,-0.728 -2.184,-1.6987 -2.912,-2.912c-0.693,-1.248 -1.04,-2.6 -1.04,-4.056z" clip-rule="evenodd"></path></clipPath></defs><g style="mix-blend-mode:NORMAL"><g clip-path="url(#280126_stroke_clip_path)"><path id="280126_stroke_path" d="M28.1462,11.6c3.2587,0 6.1013,0.5547 8.528,1.664c2.4267,1.1093 4.2813,2.6173 5.564,4.524c1.2827,1.9067 1.924,4.0387 1.924,6.396c0,3.8827 -1.2133,6.9333 -3.64,9.152c-2.4267,2.184 -6.552,3.276 -12.376,3.276h-6.864v9.984c0,0.3813 -0.1387,0.7107 -0.416,0.988c-0.2773,0.2773 -0.6067,0.416 -0.988,0.416h-11.18001c-0.38134,0 -0.71067,-0.1387 -0.988,-0.416c-0.27734,-0.2773 -0.416,-0.6067 -0.416,-0.988v-33.592c0,-0.3813 0.13866,-0.7107 0.416,-0.988c0.27733,-0.2773 0.60666,-0.416 0.988,-0.416z M27.9382,26.992c0.832,0 1.4907,-0.2427 1.976,-0.728c0.4853,-0.52 0.728,-1.196 0.728,-2.028c0,-0.8667 -0.2427,-1.5773 -0.728,-2.132c-0.4853,-0.5547 -1.144,-0.832 -1.976,-0.832h-6.604v5.72z M87.6659,46.388c0.0693,0.1387 0.104,0.2947 0.104,0.468c0,0.312 -0.1214,0.5893 -0.364,0.832c-0.208,0.208 -0.468,0.312 -0.78,0.312h-11.804c-0.4854,0 -0.936,-0.1213 -1.352,-0.364c-0.3814,-0.2427 -0.6587,-0.5547 -0.832,-0.936l-4.576,-10.296h-4.368v10.192c0,0.3813 -0.1387,0.7107 -0.416,0.988c-0.2774,0.2773 -0.6067,0.416 -0.988,0.416h-11.232c-0.3814,0 -0.7107,-0.1387 -0.988,-0.416c-0.2774,-0.2773 -0.416,-0.6067 -0.416,-0.988v-33.592c0,-0.3813 0.1386,-0.7107 0.416,-0.988c0.2773,-0.2773 0.6066,-0.416 0.988,-0.416h20.228c3.12,0 5.8413,0.5027 8.164,1.508c2.3573,1.0053 4.16,2.4613 5.408,4.368c1.248,1.9067 1.872,4.1427 1.872,6.708c0,4.7147 -1.82,8.1293 -5.46,10.244z M70.1939,26.784c0.7626,0 1.352,-0.2427 1.768,-0.728c0.416,-0.52 0.624,-1.1613 0.624,-1.924c0,-0.7627 -0.208,-1.4213 -0.624,-1.976c-0.3814,-0.5893 -0.9707,-0.884 -1.768,-0.884h-6.5v5.512z M130.546,32.972c0,5.304 -1.768,9.2213 -5.304,11.752c-3.502,2.5307 -8.182,3.796 -14.04,3.796c-5.859,0 -10.556,-1.2653 -14.0924,-3.796c-3.5014,-2.5307 -5.252,-6.4827 -5.252,-11.856v-6.136c0,-3.536 0.832,-6.4653 2.496,-8.788c1.6986,-2.3573 4.004,-4.0907 6.9164,-5.2c2.912,-1.1093 6.222,-1.664 9.932,-1.664c3.709,0 7.002,0.5547 9.88,1.664c2.912,1.1093 5.217,2.8253 6.916,5.148c1.698,2.3227 2.548,5.2347 2.548,8.736z M105.898,33.96c0,1.4213 0.468,2.5133 1.404,3.276c0.97,0.7627 2.27,1.144 3.9,1.144c1.629,0 2.912,-0.3813 3.848,-1.144c0.97,-0.7973 1.456,-1.9067 1.456,-3.328v-8.216c0,-1.4213 -0.486,-2.5133 -1.456,-3.276c-0.936,-0.7973 -2.219,-1.196 -3.848,-1.196c-1.63,0 -2.93,0.3813 -3.9,1.144c-0.936,0.7627 -1.404,1.8547 -1.404,3.276z M172.957,11.6c0.382,0 0.711,0.1387 0.988,0.416c0.278,0.2773 0.416,0.6067 0.416,0.988v7.904c0,0.3813 -0.138,0.7107 -0.416,0.988c-0.277,0.2773 -0.606,0.416 -0.988,0.416h-20.436v3.328h17.056c0.382,0 0.711,0.1387 0.988,0.416c0.278,0.2773 0.416,0.6067 0.416,0.988v7.852c0,0.3813 -0.138,0.7107 -0.416,0.988c-0.277,0.2773 -0.606,0.416 -0.988,0.416h-17.056v10.296c0,0.3813 -0.138,0.7107 -0.416,0.988c-0.277,0.2773 -0.606,0.416 -0.988,0.416h-11.232c-0.381,0 -0.71,-0.1387 -0.988,-0.416c-0.277,-0.2773 -0.416,-0.6067 -0.416,-0.988v-33.592c0,-0.3813 0.139,-0.7107 0.416,-0.988c0.278,-0.2773 0.607,-0.416 0.988,-0.416z M206.633,37.34h9.412c0.381,0 0.711,0.1387 0.988,0.416c0.277,0.2773 0.416,0.6067 0.416,0.988v7.852c0,0.3813 -0.139,0.7107 -0.416,0.988c-0.277,0.2773 -0.607,0.416 -0.988,0.416h-32.968c-0.381,0 -0.711,-0.1387 -0.988,-0.416c-0.277,-0.2773 -0.416,-0.6067 -0.416,-0.988v-7.852c0,-0.3813 0.139,-0.7107 0.416,-0.988c0.277,-0.2773 0.607,-0.416 0.988,-0.416h9.516v-15.08h-9.516c-0.381,0 -0.711,-0.1387 -0.988,-0.416c-0.277,-0.2773 -0.416,-0.6067 -0.416,-0.988v-7.852c0,-0.3813 0.139,-0.7107 0.416,-0.988c0.277,-0.2773 0.607,-0.416 0.988,-0.416h32.968c0.381,0 0.711,0.1387 0.988,0.416c0.277,0.2773 0.416,0.6067 0.416,0.988v7.852c0,0.3813 -0.139,0.7107 -0.416,0.988c-0.277,0.2773 -0.607,0.416 -0.988,0.416h-9.412z M260.693,37.34c0.381,0 0.71,0.1387 0.988,0.416c0.277,0.2773 0.416,0.6067 0.416,0.988v7.852c0,0.3813 -0.139,0.7107 -0.416,0.988c-0.278,0.2773 -0.607,0.416 -0.988,0.416h-30.368c-0.382,0 -0.711,-0.1387 -0.988,-0.416c-0.278,-0.2773 -0.416,-0.6067 -0.416,-0.988v-33.592c0,-0.3813 0.138,-0.7107 0.416,-0.988c0.277,-0.2773 0.606,-0.416 0.988,-0.416h11.232c0.381,0 0.71,0.1387 0.988,0.416c0.277,0.2773 0.416,0.6067 0.416,0.988v24.336z M279.912,25.432c0,-1.456 0.347,-2.7907 1.04,-4.004c0.728,-1.248 1.699,-2.2187 2.912,-2.912c1.248,-0.728 2.6,-1.092 4.056,-1.092c1.456,0 2.791,0.364 4.004,1.092c1.248,0.6933 2.219,1.664 2.912,2.912c0.728,1.2133 1.092,2.548 1.092,4.004c0,1.456 -0.364,2.808 -1.092,4.056c-0.693,1.2133 -1.664,2.184 -2.912,2.912c-1.213,0.6933 -2.548,1.04 -4.004,1.04c-1.456,0 -2.808,-0.3467 -4.056,-1.04c-1.213,-0.728 -2.184,-1.6987 -2.912,-2.912c-0.693,-1.248 -1.04,-2.6 -1.04,-4.056z" fill="none" stroke="rgb(255, 255, 255)" stroke-width="4" stroke-linecap="butt" stroke-linejoin="miter" stroke-dasharray="0 0" stroke-opacity="1"></path></g></g></g></g></g></g><g transform="matrix(1,0,0,1,0,0)"><g id="280119" opacity="1" style="mix-blend-mode:normal"><g><g><defs><clipPath id="280119_stroke_clip_path" clipPathUnits="userSpaceOnUse"><path d="M-2,-2 H312 V66 H-2 Z M28.1462,11.6c3.2587,0 6.1013,0.5547 8.528,1.664c2.4267,1.1093 4.2813,2.6173 5.564,4.524c1.2827,1.9067 1.924,4.0387 1.924,6.396c0,3.8827 -1.2133,6.9333 -3.64,9.152c-2.4267,2.184 -6.552,3.276 -12.376,3.276h-6.864v9.984c0,0.3813 -0.1387,0.7107 -0.416,0.988c-0.2773,0.2773 -0.6067,0.416 -0.988,0.416h-11.18001c-0.38134,0 -0.71067,-0.1387 -0.988,-0.416c-0.27734,-0.2773 -0.416,-0.6067 -0.416,-0.988v-33.592c0,-0.3813 0.13866,-0.7107 0.416,-0.988c0.27733,-0.2773 0.60666,-0.416 0.988,-0.416zM27.9382,26.992c0.832,0 1.4907,-0.2427 1.976,-0.728c0.4853,-0.52 0.728,-1.196 0.728,-2.028c0,-0.8667 -0.2427,-1.5773 -0.728,-2.132c-0.4853,-0.5547 -1.144,-0.832 -1.976,-0.832h-6.604v5.72zM87.6659,46.388c0.0693,0.1387 0.104,0.2947 0.104,0.468c0,0.312 -0.1214,0.5893 -0.364,0.832c-0.208,0.208 -0.468,0.312 -0.78,0.312h-11.804c-0.4854,0 -0.936,-0.1213 -1.352,-0.364c-0.3814,-0.2427 -0.6587,-0.5547 -0.832,-0.936l-4.576,-10.296h-4.368v10.192c0,0.3813 -0.1387,0.7107 -0.416,0.988c-0.2774,0.2773 -0.6067,0.416 -0.988,0.416h-11.232c-0.3814,0 -0.7107,-0.1387 -0.988,-0.416c-0.2774,-0.2773 -0.416,-0.6067 -0.416,-0.988v-33.592c0,-0.3813 0.1386,-0.7107 0.416,-0.988c0.2773,-0.2773 0.6066,-0.416 0.988,-0.416h20.228c3.12,0 5.8413,0.5027 8.164,1.508c2.3573,1.0053 4.16,2.4613 5.408,4.368c1.248,1.9067 1.872,4.1427 1.872,6.708c0,4.7147 -1.82,8.1293 -5.46,10.244zM70.1939,26.784c0.7626,0 1.352,-0.2427 1.768,-0.728c0.416,-0.52 0.624,-1.1613 0.624,-1.924c0,-0.7627 -0.208,-1.4213 -0.624,-1.976c-0.3814,-0.5893 -0.9707,-0.884 -1.768,-0.884h-6.5v5.512zM130.546,32.972c0,5.304 -1.768,9.2213 -5.304,11.752c-3.502,2.5307 -8.182,3.796 -14.04,3.796c-5.859,0 -10.556,-1.2653 -14.0924,-3.796c-3.5014,-2.5307 -5.252,-6.4827 -5.252,-11.856v-6.136c0,-3.536 0.832,-6.4653 2.496,-8.788c1.6986,-2.3573 4.004,-4.0907 6.9164,-5.2c2.912,-1.1093 6.222,-1.664 9.932,-1.664c3.709,0 7.002,0.5547 9.88,1.664c2.912,1.1093 5.217,2.8253 6.916,5.148c1.698,2.3227 2.548,5.2347 2.548,8.736zM105.898,33.96c0,1.4213 0.468,2.5133 1.404,3.276c0.97,0.7627 2.27,1.144 3.9,1.144c1.629,0 2.912,-0.3813 3.848,-1.144c0.97,-0.7973 1.456,-1.9067 1.456,-3.328v-8.216c0,-1.4213 -0.486,-2.5133 -1.456,-3.276c-0.936,-0.7973 -2.219,-1.196 -3.848,-1.196c-1.63,0 -2.93,0.3813 -3.9,1.144c-0.936,0.7627 -1.404,1.8547 -1.404,3.276zM172.957,11.6c0.382,0 0.711,0.1387 0.988,0.416c0.278,0.2773 0.416,0.6067 0.416,0.988v7.904c0,0.3813 -0.138,0.7107 -0.416,0.988c-0.277,0.2773 -0.606,0.416 -0.988,0.416h-20.436v3.328h17.056c0.382,0 0.711,0.1387 0.988,0.416c0.278,0.2773 0.416,0.6067 0.416,0.988v7.852c0,0.3813 -0.138,0.7107 -0.416,0.988c-0.277,0.2773 -0.606,0.416 -0.988,0.416h-17.056v10.296c0,0.3813 -0.138,0.7107 -0.416,0.988c-0.277,0.2773 -0.606,0.416 -0.988,0.416h-11.232c-0.381,0 -0.71,-0.1387 -0.988,-0.416c-0.277,-0.2773 -0.416,-0.6067 -0.416,-0.988v-33.592c0,-0.3813 0.139,-0.7107 0.416,-0.988c0.278,-0.2773 0.607,-0.416 0.988,-0.416zM206.633,37.34h9.412c0.381,0 0.711,0.1387 0.988,0.416c0.277,0.2773 0.416,0.6067 0.416,0.988v7.852c0,0.3813 -0.139,0.7107 -0.416,0.988c-0.277,0.2773 -0.607,0.416 -0.988,0.416h-32.968c-0.381,0 -0.711,-0.1387 -0.988,-0.416c-0.277,-0.2773 -0.416,-0.6067 -0.416,-0.988v-7.852c0,-0.3813 0.139,-0.7107 0.416,-0.988c0.277,-0.2773 0.607,-0.416 0.988,-0.416h9.516v-15.08h-9.516c-0.381,0 -0.711,-0.1387 -0.988,-0.416c-0.277,-0.2773 -0.416,-0.6067 -0.416,-0.988v-7.852c0,-0.3813 0.139,-0.7107 0.416,-0.988c0.277,-0.2773 0.607,-0.416 0.988,-0.416h32.968c0.381,0 0.711,0.1387 0.988,0.416c0.277,0.2773 0.416,0.6067 0.416,0.988v7.852c0,0.3813 -0.139,0.7107 -0.416,0.988c-0.277,0.2773 -0.607,0.416 -0.988,0.416h-9.412zM260.693,37.34c0.381,0 0.71,0.1387 0.988,0.416c0.277,0.2773 0.416,0.6067 0.416,0.988v7.852c0,0.3813 -0.139,0.7107 -0.416,0.988c-0.278,0.2773 -0.607,0.416 -0.988,0.416h-30.368c-0.382,0 -0.711,-0.1387 -0.988,-0.416c-0.278,-0.2773 -0.416,-0.6067 -0.416,-0.988v-33.592c0,-0.3813 0.138,-0.7107 0.416,-0.988c0.277,-0.2773 0.606,-0.416 0.988,-0.416h11.232c0.381,0 0.71,0.1387 0.988,0.416c0.277,0.2773 0.416,0.6067 0.416,0.988v24.336zM279.912,25.432c0,-1.456 0.347,-2.7907 1.04,-4.004c0.728,-1.248 1.699,-2.2187 2.912,-2.912c1.248,-0.728 2.6,-1.092 4.056,-1.092c1.456,0 2.791,0.364 4.004,1.092c1.248,0.6933 2.219,1.664 2.912,2.912c0.728,1.2133 1.092,2.548 1.092,4.004c0,1.456 -0.364,2.808 -1.092,4.056c-0.693,1.2133 -1.664,2.184 -2.912,2.912c-1.213,0.6933 -2.548,1.04 -4.004,1.04c-1.456,0 -2.808,-0.3467 -4.056,-1.04c-1.213,-0.728 -2.184,-1.6987 -2.912,-2.912c-0.693,-1.248 -1.04,-2.6 -1.04,-4.056z" clip-rule="evenodd"></path></clipPath></defs><g style="mix-blend-mode:NORMAL"><g clip-path="url(#280119_stroke_clip_path)"><path id="280119_stroke_path" d="M28.1462,11.6c3.2587,0 6.1013,0.5547 8.528,1.664c2.4267,1.1093 4.2813,2.6173 5.564,4.524c1.2827,1.9067 1.924,4.0387 1.924,6.396c0,3.8827 -1.2133,6.9333 -3.64,9.152c-2.4267,2.184 -6.552,3.276 -12.376,3.276h-6.864v9.984c0,0.3813 -0.1387,0.7107 -0.416,0.988c-0.2773,0.2773 -0.6067,0.416 -0.988,0.416h-11.18001c-0.38134,0 -0.71067,-0.1387 -0.988,-0.416c-0.27734,-0.2773 -0.416,-0.6067 -0.416,-0.988v-33.592c0,-0.3813 0.13866,-0.7107 0.416,-0.988c0.27733,-0.2773 0.60666,-0.416 0.988,-0.416z M27.9382,26.992c0.832,0 1.4907,-0.2427 1.976,-0.728c0.4853,-0.52 0.728,-1.196 0.728,-2.028c0,-0.8667 -0.2427,-1.5773 -0.728,-2.132c-0.4853,-0.5547 -1.144,-0.832 -1.976,-0.832h-6.604v5.72z M87.6659,46.388c0.0693,0.1387 0.104,0.2947 0.104,0.468c0,0.312 -0.1214,0.5893 -0.364,0.832c-0.208,0.208 -0.468,0.312 -0.78,0.312h-11.804c-0.4854,0 -0.936,-0.1213 -1.352,-0.364c-0.3814,-0.2427 -0.6587,-0.5547 -0.832,-0.936l-4.576,-10.296h-4.368v10.192c0,0.3813 -0.1387,0.7107 -0.416,0.988c-0.2774,0.2773 -0.6067,0.416 -0.988,0.416h-11.232c-0.3814,0 -0.7107,-0.1387 -0.988,-0.416c-0.2774,-0.2773 -0.416,-0.6067 -0.416,-0.988v-33.592c0,-0.3813 0.1386,-0.7107 0.416,-0.988c0.2773,-0.2773 0.6066,-0.416 0.988,-0.416h20.228c3.12,0 5.8413,0.5027 8.164,1.508c2.3573,1.0053 4.16,2.4613 5.408,4.368c1.248,1.9067 1.872,4.1427 1.872,6.708c0,4.7147 -1.82,8.1293 -5.46,10.244z M70.1939,26.784c0.7626,0 1.352,-0.2427 1.768,-0.728c0.416,-0.52 0.624,-1.1613 0.624,-1.924c0,-0.7627 -0.208,-1.4213 -0.624,-1.976c-0.3814,-0.5893 -0.9707,-0.884 -1.768,-0.884h-6.5v5.512z M130.546,32.972c0,5.304 -1.768,9.2213 -5.304,11.752c-3.502,2.5307 -8.182,3.796 -14.04,3.796c-5.859,0 -10.556,-1.2653 -14.0924,-3.796c-3.5014,-2.5307 -5.252,-6.4827 -5.252,-11.856v-6.136c0,-3.536 0.832,-6.4653 2.496,-8.788c1.6986,-2.3573 4.004,-4.0907 6.9164,-5.2c2.912,-1.1093 6.222,-1.664 9.932,-1.664c3.709,0 7.002,0.5547 9.88,1.664c2.912,1.1093 5.217,2.8253 6.916,5.148c1.698,2.3227 2.548,5.2347 2.548,8.736z M105.898,33.96c0,1.4213 0.468,2.5133 1.404,3.276c0.97,0.7627 2.27,1.144 3.9,1.144c1.629,0 2.912,-0.3813 3.848,-1.144c0.97,-0.7973 1.456,-1.9067 1.456,-3.328v-8.216c0,-1.4213 -0.486,-2.5133 -1.456,-3.276c-0.936,-0.7973 -2.219,-1.196 -3.848,-1.196c-1.63,0 -2.93,0.3813 -3.9,1.144c-0.936,0.7627 -1.404,1.8547 -1.404,3.276z M172.957,11.6c0.382,0 0.711,0.1387 0.988,0.416c0.278,0.2773 0.416,0.6067 0.416,0.988v7.904c0,0.3813 -0.138,0.7107 -0.416,0.988c-0.277,0.2773 -0.606,0.416 -0.988,0.416h-20.436v3.328h17.056c0.382,0 0.711,0.1387 0.988,0.416c0.278,0.2773 0.416,0.6067 0.416,0.988v7.852c0,0.3813 -0.138,0.7107 -0.416,0.988c-0.277,0.2773 -0.606,0.416 -0.988,0.416h-17.056v10.296c0,0.3813 -0.138,0.7107 -0.416,0.988c-0.277,0.2773 -0.606,0.416 -0.988,0.416h-11.232c-0.381,0 -0.71,-0.1387 -0.988,-0.416c-0.277,-0.2773 -0.416,-0.6067 -0.416,-0.988v-33.592c0,-0.3813 0.139,-0.7107 0.416,-0.988c0.278,-0.2773 0.607,-0.416 0.988,-0.416z M206.633,37.34h9.412c0.381,0 0.711,0.1387 0.988,0.416c0.277,0.2773 0.416,0.6067 0.416,0.988v7.852c0,0.3813 -0.139,0.7107 -0.416,0.988c-0.277,0.2773 -0.607,0.416 -0.988,0.416h-32.968c-0.381,0 -0.711,-0.1387 -0.988,-0.416c-0.277,-0.2773 -0.416,-0.6067 -0.416,-0.988v-7.852c0,-0.3813 0.139,-0.7107 0.416,-0.988c0.277,-0.2773 0.607,-0.416 0.988,-0.416h9.516v-15.08h-9.516c-0.381,0 -0.711,-0.1387 -0.988,-0.416c-0.277,-0.2773 -0.416,-0.6067 -0.416,-0.988v-7.852c0,-0.3813 0.139,-0.7107 0.416,-0.988c0.277,-0.2773 0.607,-0.416 0.988,-0.416h32.968c0.381,0 0.711,0.1387 0.988,0.416c0.277,0.2773 0.416,0.6067 0.416,0.988v7.852c0,0.3813 -0.139,0.7107 -0.416,0.988c-0.277,0.2773 -0.607,0.416 -0.988,0.416h-9.412z M260.693,37.34c0.381,0 0.71,0.1387 0.988,0.416c0.277,0.2773 0.416,0.6067 0.416,0.988v7.852c0,0.3813 -0.139,0.7107 -0.416,0.988c-0.278,0.2773 -0.607,0.416 -0.988,0.416h-30.368c-0.382,0 -0.711,-0.1387 -0.988,-0.416c-0.278,-0.2773 -0.416,-0.6067 -0.416,-0.988v-33.592c0,-0.3813 0.138,-0.7107 0.416,-0.988c0.277,-0.2773 0.606,-0.416 0.988,-0.416h11.232c0.381,0 0.71,0.1387 0.988,0.416c0.277,0.2773 0.416,0.6067 0.416,0.988v24.336z M279.912,25.432c0,-1.456 0.347,-2.7907 1.04,-4.004c0.728,-1.248 1.699,-2.2187 2.912,-2.912c1.248,-0.728 2.6,-1.092 4.056,-1.092c1.456,0 2.791,0.364 4.004,1.092c1.248,0.6933 2.219,1.664 2.912,2.912c0.728,1.2133 1.092,2.548 1.092,4.004c0,1.456 -0.364,2.808 -1.092,4.056c-0.693,1.2133 -1.664,2.184 -2.912,2.912c-1.213,0.6933 -2.548,1.04 -4.004,1.04c-1.456,0 -2.808,-0.3467 -4.056,-1.04c-1.213,-0.728 -2.184,-1.6987 -2.912,-2.912c-0.693,-1.248 -1.04,-2.6 -1.04,-4.056z" fill="none" stroke="rgb(255, 255, 255)" stroke-width="4" stroke-linecap="butt" stroke-linejoin="miter" stroke-dasharray="0 0" stroke-opacity="1"></path></g></g></g></g></g></g><g transform="matrix(1,0,0,1,620,0)"><g id="280123" opacity="1" style="mix-blend-mode:normal"><g><g><defs><clipPath id="280123_stroke_clip_path" clipPathUnits="userSpaceOnUse"><path d="M-2,-2 H312 V66 H-2 Z M28.1462,11.6c3.2587,0 6.1013,0.5547 8.528,1.664c2.4267,1.1093 4.2813,2.6173 5.564,4.524c1.2827,1.9067 1.924,4.0387 1.924,6.396c0,3.8827 -1.2133,6.9333 -3.64,9.152c-2.4267,2.184 -6.552,3.276 -12.376,3.276h-6.864v9.984c0,0.3813 -0.1387,0.7107 -0.416,0.988c-0.2773,0.2773 -0.6067,0.416 -0.988,0.416h-11.18001c-0.38134,0 -0.71067,-0.1387 -0.988,-0.416c-0.27734,-0.2773 -0.416,-0.6067 -0.416,-0.988v-33.592c0,-0.3813 0.13866,-0.7107 0.416,-0.988c0.27733,-0.2773 0.60666,-0.416 0.988,-0.416zM27.9382,26.992c0.832,0 1.4907,-0.2427 1.976,-0.728c0.4853,-0.52 0.728,-1.196 0.728,-2.028c0,-0.8667 -0.2427,-1.5773 -0.728,-2.132c-0.4853,-0.5547 -1.144,-0.832 -1.976,-0.832h-6.604v5.72zM87.6659,46.388c0.0693,0.1387 0.104,0.2947 0.104,0.468c0,0.312 -0.1214,0.5893 -0.364,0.832c-0.208,0.208 -0.468,0.312 -0.78,0.312h-11.804c-0.4854,0 -0.936,-0.1213 -1.352,-0.364c-0.3814,-0.2427 -0.6587,-0.5547 -0.832,-0.936l-4.576,-10.296h-4.368v10.192c0,0.3813 -0.1387,0.7107 -0.416,0.988c-0.2774,0.2773 -0.6067,0.416 -0.988,0.416h-11.232c-0.3814,0 -0.7107,-0.1387 -0.988,-0.416c-0.2774,-0.2773 -0.416,-0.6067 -0.416,-0.988v-33.592c0,-0.3813 0.1386,-0.7107 0.416,-0.988c0.2773,-0.2773 0.6066,-0.416 0.988,-0.416h20.228c3.12,0 5.8413,0.5027 8.164,1.508c2.3573,1.0053 4.16,2.4613 5.408,4.368c1.248,1.9067 1.872,4.1427 1.872,6.708c0,4.7147 -1.82,8.1293 -5.46,10.244zM70.1939,26.784c0.7626,0 1.352,-0.2427 1.768,-0.728c0.416,-0.52 0.624,-1.1613 0.624,-1.924c0,-0.7627 -0.208,-1.4213 -0.624,-1.976c-0.3814,-0.5893 -0.9707,-0.884 -1.768,-0.884h-6.5v5.512zM130.546,32.972c0,5.304 -1.768,9.2213 -5.304,11.752c-3.502,2.5307 -8.182,3.796 -14.04,3.796c-5.859,0 -10.556,-1.2653 -14.0924,-3.796c-3.5014,-2.5307 -5.252,-6.4827 -5.252,-11.856v-6.136c0,-3.536 0.832,-6.4653 2.496,-8.788c1.6986,-2.3573 4.004,-4.0907 6.9164,-5.2c2.912,-1.1093 6.222,-1.664 9.932,-1.664c3.709,0 7.002,0.5547 9.88,1.664c2.912,1.1093 5.217,2.8253 6.916,5.148c1.698,2.3227 2.548,5.2347 2.548,8.736zM105.898,33.96c0,1.4213 0.468,2.5133 1.404,3.276c0.97,0.7627 2.27,1.144 3.9,1.144c1.629,0 2.912,-0.3813 3.848,-1.144c0.97,-0.7973 1.456,-1.9067 1.456,-3.328v-8.216c0,-1.4213 -0.486,-2.5133 -1.456,-3.276c-0.936,-0.7973 -2.219,-1.196 -3.848,-1.196c-1.63,0 -2.93,0.3813 -3.9,1.144c-0.936,0.7627 -1.404,1.8547 -1.404,3.276zM172.957,11.6c0.382,0 0.711,0.1387 0.988,0.416c0.278,0.2773 0.416,0.6067 0.416,0.988v7.904c0,0.3813 -0.138,0.7107 -0.416,0.988c-0.277,0.2773 -0.606,0.416 -0.988,0.416h-20.436v3.328h17.056c0.382,0 0.711,0.1387 0.988,0.416c0.278,0.2773 0.416,0.6067 0.416,0.988v7.852c0,0.3813 -0.138,0.7107 -0.416,0.988c-0.277,0.2773 -0.606,0.416 -0.988,0.416h-17.056v10.296c0,0.3813 -0.138,0.7107 -0.416,0.988c-0.277,0.2773 -0.606,0.416 -0.988,0.416h-11.232c-0.381,0 -0.71,-0.1387 -0.988,-0.416c-0.277,-0.2773 -0.416,-0.6067 -0.416,-0.988v-33.592c0,-0.3813 0.139,-0.7107 0.416,-0.988c0.278,-0.2773 0.607,-0.416 0.988,-0.416zM206.633,37.34h9.412c0.381,0 0.711,0.1387 0.988,0.416c0.277,0.2773 0.416,0.6067 0.416,0.988v7.852c0,0.3813 -0.139,0.7107 -0.416,0.988c-0.277,0.2773 -0.607,0.416 -0.988,0.416h-32.968c-0.381,0 -0.711,-0.1387 -0.988,-0.416c-0.277,-0.2773 -0.416,-0.6067 -0.416,-0.988v-7.852c0,-0.3813 0.139,-0.7107 0.416,-0.988c0.277,-0.2773 0.607,-0.416 0.988,-0.416h9.516v-15.08h-9.516c-0.381,0 -0.711,-0.1387 -0.988,-0.416c-0.277,-0.2773 -0.416,-0.6067 -0.416,-0.988v-7.852c0,-0.3813 0.139,-0.7107 0.416,-0.988c0.277,-0.2773 0.607,-0.416 0.988,-0.416h32.968c0.381,0 0.711,0.1387 0.988,0.416c0.277,0.2773 0.416,0.6067 0.416,0.988v7.852c0,0.3813 -0.139,0.7107 -0.416,0.988c-0.277,0.2773 -0.607,0.416 -0.988,0.416h-9.412zM260.693,37.34c0.381,0 0.71,0.1387 0.988,0.416c0.277,0.2773 0.416,0.6067 0.416,0.988v7.852c0,0.3813 -0.139,0.7107 -0.416,0.988c-0.278,0.2773 -0.607,0.416 -0.988,0.416h-30.368c-0.382,0 -0.711,-0.1387 -0.988,-0.416c-0.278,-0.2773 -0.416,-0.6067 -0.416,-0.988v-33.592c0,-0.3813 0.138,-0.7107 0.416,-0.988c0.277,-0.2773 0.606,-0.416 0.988,-0.416h11.232c0.381,0 0.71,0.1387 0.988,0.416c0.277,0.2773 0.416,0.6067 0.416,0.988v24.336zM279.912,25.432c0,-1.456 0.347,-2.7907 1.04,-4.004c0.728,-1.248 1.699,-2.2187 2.912,-2.912c1.248,-0.728 2.6,-1.092 4.056,-1.092c1.456,0 2.791,0.364 4.004,1.092c1.248,0.6933 2.219,1.664 2.912,2.912c0.728,1.2133 1.092,2.548 1.092,4.004c0,1.456 -0.364,2.808 -1.092,4.056c-0.693,1.2133 -1.664,2.184 -2.912,2.912c-1.213,0.6933 -2.548,1.04 -4.004,1.04c-1.456,0 -2.808,-0.3467 -4.056,-1.04c-1.213,-0.728 -2.184,-1.6987 -2.912,-2.912c-0.693,-1.248 -1.04,-2.6 -1.04,-4.056z" clip-rule="evenodd"></path></clipPath></defs><g style="mix-blend-mode:NORMAL"><g clip-path="url(#280123_stroke_clip_path)"><path id="280123_stroke_path" d="M28.1462,11.6c3.2587,0 6.1013,0.5547 8.528,1.664c2.4267,1.1093 4.2813,2.6173 5.564,4.524c1.2827,1.9067 1.924,4.0387 1.924,6.396c0,3.8827 -1.2133,6.9333 -3.64,9.152c-2.4267,2.184 -6.552,3.276 -12.376,3.276h-6.864v9.984c0,0.3813 -0.1387,0.7107 -0.416,0.988c-0.2773,0.2773 -0.6067,0.416 -0.988,0.416h-11.18001c-0.38134,0 -0.71067,-0.1387 -0.988,-0.416c-0.27734,-0.2773 -0.416,-0.6067 -0.416,-0.988v-33.592c0,-0.3813 0.13866,-0.7107 0.416,-0.988c0.27733,-0.2773 0.60666,-0.416 0.988,-0.416z M27.9382,26.992c0.832,0 1.4907,-0.2427 1.976,-0.728c0.4853,-0.52 0.728,-1.196 0.728,-2.028c0,-0.8667 -0.2427,-1.5773 -0.728,-2.132c-0.4853,-0.5547 -1.144,-0.832 -1.976,-0.832h-6.604v5.72z M87.6659,46.388c0.0693,0.1387 0.104,0.2947 0.104,0.468c0,0.312 -0.1214,0.5893 -0.364,0.832c-0.208,0.208 -0.468,0.312 -0.78,0.312h-11.804c-0.4854,0 -0.936,-0.1213 -1.352,-0.364c-0.3814,-0.2427 -0.6587,-0.5547 -0.832,-0.936l-4.576,-10.296h-4.368v10.192c0,0.3813 -0.1387,0.7107 -0.416,0.988c-0.2774,0.2773 -0.6067,0.416 -0.988,0.416h-11.232c-0.3814,0 -0.7107,-0.1387 -0.988,-0.416c-0.2774,-0.2773 -0.416,-0.6067 -0.416,-0.988v-33.592c0,-0.3813 0.1386,-0.7107 0.416,-0.988c0.2773,-0.2773 0.6066,-0.416 0.988,-0.416h20.228c3.12,0 5.8413,0.5027 8.164,1.508c2.3573,1.0053 4.16,2.4613 5.408,4.368c1.248,1.9067 1.872,4.1427 1.872,6.708c0,4.7147 -1.82,8.1293 -5.46,10.244z M70.1939,26.784c0.7626,0 1.352,-0.2427 1.768,-0.728c0.416,-0.52 0.624,-1.1613 0.624,-1.924c0,-0.7627 -0.208,-1.4213 -0.624,-1.976c-0.3814,-0.5893 -0.9707,-0.884 -1.768,-0.884h-6.5v5.512z M130.546,32.972c0,5.304 -1.768,9.2213 -5.304,11.752c-3.502,2.5307 -8.182,3.796 -14.04,3.796c-5.859,0 -10.556,-1.2653 -14.0924,-3.796c-3.5014,-2.5307 -5.252,-6.4827 -5.252,-11.856v-6.136c0,-3.536 0.832,-6.4653 2.496,-8.788c1.6986,-2.3573 4.004,-4.0907 6.9164,-5.2c2.912,-1.1093 6.222,-1.664 9.932,-1.664c3.709,0 7.002,0.5547 9.88,1.664c2.912,1.1093 5.217,2.8253 6.916,5.148c1.698,2.3227 2.548,5.2347 2.548,8.736z M105.898,33.96c0,1.4213 0.468,2.5133 1.404,3.276c0.97,0.7627 2.27,1.144 3.9,1.144c1.629,0 2.912,-0.3813 3.848,-1.144c0.97,-0.7973 1.456,-1.9067 1.456,-3.328v-8.216c0,-1.4213 -0.486,-2.5133 -1.456,-3.276c-0.936,-0.7973 -2.219,-1.196 -3.848,-1.196c-1.63,0 -2.93,0.3813 -3.9,1.144c-0.936,0.7627 -1.404,1.8547 -1.404,3.276z M172.957,11.6c0.382,0 0.711,0.1387 0.988,0.416c0.278,0.2773 0.416,0.6067 0.416,0.988v7.904c0,0.3813 -0.138,0.7107 -0.416,0.988c-0.277,0.2773 -0.606,0.416 -0.988,0.416h-20.436v3.328h17.056c0.382,0 0.711,0.1387 0.988,0.416c0.278,0.2773 0.416,0.6067 0.416,0.988v7.852c0,0.3813 -0.138,0.7107 -0.416,0.988c-0.277,0.2773 -0.606,0.416 -0.988,0.416h-17.056v10.296c0,0.3813 -0.138,0.7107 -0.416,0.988c-0.277,0.2773 -0.606,0.416 -0.988,0.416h-11.232c-0.381,0 -0.71,-0.1387 -0.988,-0.416c-0.277,-0.2773 -0.416,-0.6067 -0.416,-0.988v-33.592c0,-0.3813 0.139,-0.7107 0.416,-0.988c0.278,-0.2773 0.607,-0.416 0.988,-0.416z M206.633,37.34h9.412c0.381,0 0.711,0.1387 0.988,0.416c0.277,0.2773 0.416,0.6067 0.416,0.988v7.852c0,0.3813 -0.139,0.7107 -0.416,0.988c-0.277,0.2773 -0.607,0.416 -0.988,0.416h-32.968c-0.381,0 -0.711,-0.1387 -0.988,-0.416c-0.277,-0.2773 -0.416,-0.6067 -0.416,-0.988v-7.852c0,-0.3813 0.139,-0.7107 0.416,-0.988c0.277,-0.2773 0.607,-0.416 0.988,-0.416h9.516v-15.08h-9.516c-0.381,0 -0.711,-0.1387 -0.988,-0.416c-0.277,-0.2773 -0.416,-0.6067 -0.416,-0.988v-7.852c0,-0.3813 0.139,-0.7107 0.416,-0.988c0.277,-0.2773 0.607,-0.416 0.988,-0.416h32.968c0.381,0 0.711,0.1387 0.988,0.416c0.277,0.2773 0.416,0.6067 0.416,0.988v7.852c0,0.3813 -0.139,0.7107 -0.416,0.988c-0.277,0.2773 -0.607,0.416 -0.988,0.416h-9.412z M260.693,37.34c0.381,0 0.71,0.1387 0.988,0.416c0.277,0.2773 0.416,0.6067 0.416,0.988v7.852c0,0.3813 -0.139,0.7107 -0.416,0.988c-0.278,0.2773 -0.607,0.416 -0.988,0.416h-30.368c-0.382,0 -0.711,-0.1387 -0.988,-0.416c-0.278,-0.2773 -0.416,-0.6067 -0.416,-0.988v-33.592c0,-0.3813 0.138,-0.7107 0.416,-0.988c0.277,-0.2773 0.606,-0.416 0.988,-0.416h11.232c0.381,0 0.71,0.1387 0.988,0.416c0.277,0.2773 0.416,0.6067 0.416,0.988v24.336z M279.912,25.432c0,-1.456 0.347,-2.7907 1.04,-4.004c0.728,-1.248 1.699,-2.2187 2.912,-2.912c1.248,-0.728 2.6,-1.092 4.056,-1.092c1.456,0 2.791,0.364 4.004,1.092c1.248,0.6933 2.219,1.664 2.912,2.912c0.728,1.2133 1.092,2.548 1.092,4.004c0,1.456 -0.364,2.808 -1.092,4.056c-0.693,1.2133 -1.664,2.184 -2.912,2.912c-1.213,0.6933 -2.548,1.04 -4.004,1.04c-1.456,0 -2.808,-0.3467 -4.056,-1.04c-1.213,-0.728 -2.184,-1.6987 -2.912,-2.912c-0.693,-1.248 -1.04,-2.6 -1.04,-4.056z" fill="none" stroke="rgb(255, 255, 255)" stroke-width="4" stroke-linecap="butt" stroke-linejoin="miter" stroke-dasharray="0 0" stroke-opacity="1"></path></g></g></g></g></g></g><g transform="matrix(1,0,0,1,1240,0)"><g id="280125" opacity="1" style="mix-blend-mode:normal"><g><g><defs><clipPath id="280125_stroke_clip_path" clipPathUnits="userSpaceOnUse"><path d="M-2,-2 H312 V66 H-2 Z M28.1462,11.6c3.2587,0 6.1013,0.5547 8.528,1.664c2.4267,1.1093 4.2813,2.6173 5.564,4.524c1.2827,1.9067 1.924,4.0387 1.924,6.396c0,3.8827 -1.2133,6.9333 -3.64,9.152c-2.4267,2.184 -6.552,3.276 -12.376,3.276h-6.864v9.984c0,0.3813 -0.1387,0.7107 -0.416,0.988c-0.2773,0.2773 -0.6067,0.416 -0.988,0.416h-11.18001c-0.38134,0 -0.71067,-0.1387 -0.988,-0.416c-0.27734,-0.2773 -0.416,-0.6067 -0.416,-0.988v-33.592c0,-0.3813 0.13866,-0.7107 0.416,-0.988c0.27733,-0.2773 0.60666,-0.416 0.988,-0.416zM27.9382,26.992c0.832,0 1.4907,-0.2427 1.976,-0.728c0.4853,-0.52 0.728,-1.196 0.728,-2.028c0,-0.8667 -0.2427,-1.5773 -0.728,-2.132c-0.4853,-0.5547 -1.144,-0.832 -1.976,-0.832h-6.604v5.72zM87.6659,46.388c0.0693,0.1387 0.104,0.2947 0.104,0.468c0,0.312 -0.1214,0.5893 -0.364,0.832c-0.208,0.208 -0.468,0.312 -0.78,0.312h-11.804c-0.4854,0 -0.936,-0.1213 -1.352,-0.364c-0.3814,-0.2427 -0.6587,-0.5547 -0.832,-0.936l-4.576,-10.296h-4.368v10.192c0,0.3813 -0.1387,0.7107 -0.416,0.988c-0.2774,0.2773 -0.6067,0.416 -0.988,0.416h-11.232c-0.3814,0 -0.7107,-0.1387 -0.988,-0.416c-0.2774,-0.2773 -0.416,-0.6067 -0.416,-0.988v-33.592c0,-0.3813 0.1386,-0.7107 0.416,-0.988c0.2773,-0.2773 0.6066,-0.416 0.988,-0.416h20.228c3.12,0 5.8413,0.5027 8.164,1.508c2.3573,1.0053 4.16,2.4613 5.408,4.368c1.248,1.9067 1.872,4.1427 1.872,6.708c0,4.7147 -1.82,8.1293 -5.46,10.244zM70.1939,26.784c0.7626,0 1.352,-0.2427 1.768,-0.728c0.416,-0.52 0.624,-1.1613 0.624,-1.924c0,-0.7627 -0.208,-1.4213 -0.624,-1.976c-0.3814,-0.5893 -0.9707,-0.884 -1.768,-0.884h-6.5v5.512zM130.546,32.972c0,5.304 -1.768,9.2213 -5.304,11.752c-3.502,2.5307 -8.182,3.796 -14.04,3.796c-5.859,0 -10.556,-1.2653 -14.0924,-3.796c-3.5014,-2.5307 -5.252,-6.4827 -5.252,-11.856v-6.136c0,-3.536 0.832,-6.4653 2.496,-8.788c1.6986,-2.3573 4.004,-4.0907 6.9164,-5.2c2.912,-1.1093 6.222,-1.664 9.932,-1.664c3.709,0 7.002,0.5547 9.88,1.664c2.912,1.1093 5.217,2.8253 6.916,5.148c1.698,2.3227 2.548,5.2347 2.548,8.736zM105.898,33.96c0,1.4213 0.468,2.5133 1.404,3.276c0.97,0.7627 2.27,1.144 3.9,1.144c1.629,0 2.912,-0.3813 3.848,-1.144c0.97,-0.7973 1.456,-1.9067 1.456,-3.328v-8.216c0,-1.4213 -0.486,-2.5133 -1.456,-3.276c-0.936,-0.7973 -2.219,-1.196 -3.848,-1.196c-1.63,0 -2.93,0.3813 -3.9,1.144c-0.936,0.7627 -1.404,1.8547 -1.404,3.276zM172.957,11.6c0.382,0 0.711,0.1387 0.988,0.416c0.278,0.2773 0.416,0.6067 0.416,0.988v7.904c0,0.3813 -0.138,0.7107 -0.416,0.988c-0.277,0.2773 -0.606,0.416 -0.988,0.416h-20.436v3.328h17.056c0.382,0 0.711,0.1387 0.988,0.416c0.278,0.2773 0.416,0.6067 0.416,0.988v7.852c0,0.3813 -0.138,0.7107 -0.416,0.988c-0.277,0.2773 -0.606,0.416 -0.988,0.416h-17.056v10.296c0,0.3813 -0.138,0.7107 -0.416,0.988c-0.277,0.2773 -0.606,0.416 -0.988,0.416h-11.232c-0.381,0 -0.71,-0.1387 -0.988,-0.416c-0.277,-0.2773 -0.416,-0.6067 -0.416,-0.988v-33.592c0,-0.3813 0.139,-0.7107 0.416,-0.988c0.278,-0.2773 0.607,-0.416 0.988,-0.416zM206.633,37.34h9.412c0.381,0 0.711,0.1387 0.988,0.416c0.277,0.2773 0.416,0.6067 0.416,0.988v7.852c0,0.3813 -0.139,0.7107 -0.416,0.988c-0.277,0.2773 -0.607,0.416 -0.988,0.416h-32.968c-0.381,0 -0.711,-0.1387 -0.988,-0.416c-0.277,-0.2773 -0.416,-0.6067 -0.416,-0.988v-7.852c0,-0.3813 0.139,-0.7107 0.416,-0.988c0.277,-0.2773 0.607,-0.416 0.988,-0.416h9.516v-15.08h-9.516c-0.381,0 -0.711,-0.1387 -0.988,-0.416c-0.277,-0.2773 -0.416,-0.6067 -0.416,-0.988v-7.852c0,-0.3813 0.139,-0.7107 0.416,-0.988c0.277,-0.2773 0.607,-0.416 0.988,-0.416h32.968c0.381,0 0.711,0.1387 0.988,0.416c0.277,0.2773 0.416,0.6067 0.416,0.988v7.852c0,0.3813 -0.139,0.7107 -0.416,0.988c-0.277,0.2773 -0.607,0.416 -0.988,0.416h-9.412zM260.693,37.34c0.381,0 0.71,0.1387 0.988,0.416c0.277,0.2773 0.416,0.6067 0.416,0.988v7.852c0,0.3813 -0.139,0.7107 -0.416,0.988c-0.278,0.2773 -0.607,0.416 -0.988,0.416h-30.368c-0.382,0 -0.711,-0.1387 -0.988,-0.416c-0.278,-0.2773 -0.416,-0.6067 -0.416,-0.988v-33.592c0,-0.3813 0.138,-0.7107 0.416,-0.988c0.277,-0.2773 0.606,-0.416 0.988,-0.416h11.232c0.381,0 0.71,0.1387 0.988,0.416c0.277,0.2773 0.416,0.6067 0.416,0.988v24.336zM279.912,25.432c0,-1.456 0.347,-2.7907 1.04,-4.004c0.728,-1.248 1.699,-2.2187 2.912,-2.912c1.248,-0.728 2.6,-1.092 4.056,-1.092c1.456,0 2.791,0.364 4.004,1.092c1.248,0.6933 2.219,1.664 2.912,2.912c0.728,1.2133 1.092,2.548 1.092,4.004c0,1.456 -0.364,2.808 -1.092,4.056c-0.693,1.2133 -1.664,2.184 -2.912,2.912c-1.213,0.6933 -2.548,1.04 -4.004,1.04c-1.456,0 -2.808,-0.3467 -4.056,-1.04c-1.213,-0.728 -2.184,-1.6987 -2.912,-2.912c-0.693,-1.248 -1.04,-2.6 -1.04,-4.056z" clip-rule="evenodd"></path></clipPath></defs><g style="mix-blend-mode:NORMAL"><g clip-path="url(#280125_stroke_clip_path)"><path id="280125_stroke_path" d="M28.1462,11.6c3.2587,0 6.1013,0.5547 8.528,1.664c2.4267,1.1093 4.2813,2.6173 5.564,4.524c1.2827,1.9067 1.924,4.0387 1.924,6.396c0,3.8827 -1.2133,6.9333 -3.64,9.152c-2.4267,2.184 -6.552,3.276 -12.376,3.276h-6.864v9.984c0,0.3813 -0.1387,0.7107 -0.416,0.988c-0.2773,0.2773 -0.6067,0.416 -0.988,0.416h-11.18001c-0.38134,0 -0.71067,-0.1387 -0.988,-0.416c-0.27734,-0.2773 -0.416,-0.6067 -0.416,-0.988v-33.592c0,-0.3813 0.13866,-0.7107 0.416,-0.988c0.27733,-0.2773 0.60666,-0.416 0.988,-0.416z M27.9382,26.992c0.832,0 1.4907,-0.2427 1.976,-0.728c0.4853,-0.52 0.728,-1.196 0.728,-2.028c0,-0.8667 -0.2427,-1.5773 -0.728,-2.132c-0.4853,-0.5547 -1.144,-0.832 -1.976,-0.832h-6.604v5.72z M87.6659,46.388c0.0693,0.1387 0.104,0.2947 0.104,0.468c0,0.312 -0.1214,0.5893 -0.364,0.832c-0.208,0.208 -0.468,0.312 -0.78,0.312h-11.804c-0.4854,0 -0.936,-0.1213 -1.352,-0.364c-0.3814,-0.2427 -0.6587,-0.5547 -0.832,-0.936l-4.576,-10.296h-4.368v10.192c0,0.3813 -0.1387,0.7107 -0.416,0.988c-0.2774,0.2773 -0.6067,0.416 -0.988,0.416h-11.232c-0.3814,0 -0.7107,-0.1387 -0.988,-0.416c-0.2774,-0.2773 -0.416,-0.6067 -0.416,-0.988v-33.592c0,-0.3813 0.1386,-0.7107 0.416,-0.988c0.2773,-0.2773 0.6066,-0.416 0.988,-0.416h20.228c3.12,0 5.8413,0.5027 8.164,1.508c2.3573,1.0053 4.16,2.4613 5.408,4.368c1.248,1.9067 1.872,4.1427 1.872,6.708c0,4.7147 -1.82,8.1293 -5.46,10.244z M70.1939,26.784c0.7626,0 1.352,-0.2427 1.768,-0.728c0.416,-0.52 0.624,-1.1613 0.624,-1.924c0,-0.7627 -0.208,-1.4213 -0.624,-1.976c-0.3814,-0.5893 -0.9707,-0.884 -1.768,-0.884h-6.5v5.512z M130.546,32.972c0,5.304 -1.768,9.2213 -5.304,11.752c-3.502,2.5307 -8.182,3.796 -14.04,3.796c-5.859,0 -10.556,-1.2653 -14.0924,-3.796c-3.5014,-2.5307 -5.252,-6.4827 -5.252,-11.856v-6.136c0,-3.536 0.832,-6.4653 2.496,-8.788c1.6986,-2.3573 4.004,-4.0907 6.9164,-5.2c2.912,-1.1093 6.222,-1.664 9.932,-1.664c3.709,0 7.002,0.5547 9.88,1.664c2.912,1.1093 5.217,2.8253 6.916,5.148c1.698,2.3227 2.548,5.2347 2.548,8.736z M105.898,33.96c0,1.4213 0.468,2.5133 1.404,3.276c0.97,0.7627 2.27,1.144 3.9,1.144c1.629,0 2.912,-0.3813 3.848,-1.144c0.97,-0.7973 1.456,-1.9067 1.456,-3.328v-8.216c0,-1.4213 -0.486,-2.5133 -1.456,-3.276c-0.936,-0.7973 -2.219,-1.196 -3.848,-1.196c-1.63,0 -2.93,0.3813 -3.9,1.144c-0.936,0.7627 -1.404,1.8547 -1.404,3.276z M172.957,11.6c0.382,0 0.711,0.1387 0.988,0.416c0.278,0.2773 0.416,0.6067 0.416,0.988v7.904c0,0.3813 -0.138,0.7107 -0.416,0.988c-0.277,0.2773 -0.606,0.416 -0.988,0.416h-20.436v3.328h17.056c0.382,0 0.711,0.1387 0.988,0.416c0.278,0.2773 0.416,0.6067 0.416,0.988v7.852c0,0.3813 -0.138,0.7107 -0.416,0.988c-0.277,0.2773 -0.606,0.416 -0.988,0.416h-17.056v10.296c0,0.3813 -0.138,0.7107 -0.416,0.988c-0.277,0.2773 -0.606,0.416 -0.988,0.416h-11.232c-0.381,0 -0.71,-0.1387 -0.988,-0.416c-0.277,-0.2773 -0.416,-0.6067 -0.416,-0.988v-33.592c0,-0.3813 0.139,-0.7107 0.416,-0.988c0.278,-0.2773 0.607,-0.416 0.988,-0.416z M206.633,37.34h9.412c0.381,0 0.711,0.1387 0.988,0.416c0.277,0.2773 0.416,0.6067 0.416,0.988v7.852c0,0.3813 -0.139,0.7107 -0.416,0.988c-0.277,0.2773 -0.607,0.416 -0.988,0.416h-32.968c-0.381,0 -0.711,-0.1387 -0.988,-0.416c-0.277,-0.2773 -0.416,-0.6067 -0.416,-0.988v-7.852c0,-0.3813 0.139,-0.7107 0.416,-0.988c0.277,-0.2773 0.607,-0.416 0.988,-0.416h9.516v-15.08h-9.516c-0.381,0 -0.711,-0.1387 -0.988,-0.416c-0.277,-0.2773 -0.416,-0.6067 -0.416,-0.988v-7.852c0,-0.3813 0.139,-0.7107 0.416,-0.988c0.277,-0.2773 0.607,-0.416 0.988,-0.416h32.968c0.381,0 0.711,0.1387 0.988,0.416c0.277,0.2773 0.416,0.6067 0.416,0.988v7.852c0,0.3813 -0.139,0.7107 -0.416,0.988c-0.277,0.2773 -0.607,0.416 -0.988,0.416h-9.412z M260.693,37.34c0.381,0 0.71,0.1387 0.988,0.416c0.277,0.2773 0.416,0.6067 0.416,0.988v7.852c0,0.3813 -0.139,0.7107 -0.416,0.988c-0.278,0.2773 -0.607,0.416 -0.988,0.416h-30.368c-0.382,0 -0.711,-0.1387 -0.988,-0.416c-0.278,-0.2773 -0.416,-0.6067 -0.416,-0.988v-33.592c0,-0.3813 0.138,-0.7107 0.416,-0.988c0.277,-0.2773 0.606,-0.416 0.988,-0.416h11.232c0.381,0 0.71,0.1387 0.988,0.416c0.277,0.2773 0.416,0.6067 0.416,0.988v24.336z M279.912,25.432c0,-1.456 0.347,-2.7907 1.04,-4.004c0.728,-1.248 1.699,-2.2187 2.912,-2.912c1.248,-0.728 2.6,-1.092 4.056,-1.092c1.456,0 2.791,0.364 4.004,1.092c1.248,0.6933 2.219,1.664 2.912,2.912c0.728,1.2133 1.092,2.548 1.092,4.004c0,1.456 -0.364,2.808 -1.092,4.056c-0.693,1.2133 -1.664,2.184 -2.912,2.912c-1.213,0.6933 -2.548,1.04 -4.004,1.04c-1.456,0 -2.808,-0.3467 -4.056,-1.04c-1.213,-0.728 -2.184,-1.6987 -2.912,-2.912c-0.693,-1.248 -1.04,-2.6 -1.04,-4.056z" fill="none" stroke="rgb(255, 255, 255)" stroke-width="4" stroke-linecap="butt" stroke-linejoin="miter" stroke-dasharray="0 0" stroke-opacity="1"></path></g></g></g></g></g></g><g transform="matrix(1,0,0,1,1860,0)"><g id="280127" opacity="1" style="mix-blend-mode:normal"><g><g><defs><clipPath id="280127_stroke_clip_path" clipPathUnits="userSpaceOnUse"><path d="M-2,-2 H312 V66 H-2 Z M28.1462,11.6c3.2587,0 6.1013,0.5547 8.528,1.664c2.4267,1.1093 4.2813,2.6173 5.564,4.524c1.2827,1.9067 1.924,4.0387 1.924,6.396c0,3.8827 -1.2133,6.9333 -3.64,9.152c-2.4267,2.184 -6.552,3.276 -12.376,3.276h-6.864v9.984c0,0.3813 -0.1387,0.7107 -0.416,0.988c-0.2773,0.2773 -0.6067,0.416 -0.988,0.416h-11.18001c-0.38134,0 -0.71067,-0.1387 -0.988,-0.416c-0.27734,-0.2773 -0.416,-0.6067 -0.416,-0.988v-33.592c0,-0.3813 0.13866,-0.7107 0.416,-0.988c0.27733,-0.2773 0.60666,-0.416 0.988,-0.416zM27.9382,26.992c0.832,0 1.4907,-0.2427 1.976,-0.728c0.4853,-0.52 0.728,-1.196 0.728,-2.028c0,-0.8667 -0.2427,-1.5773 -0.728,-2.132c-0.4853,-0.5547 -1.144,-0.832 -1.976,-0.832h-6.604v5.72zM87.6659,46.388c0.0693,0.1387 0.104,0.2947 0.104,0.468c0,0.312 -0.1214,0.5893 -0.364,0.832c-0.208,0.208 -0.468,0.312 -0.78,0.312h-11.804c-0.4854,0 -0.936,-0.1213 -1.352,-0.364c-0.3814,-0.2427 -0.6587,-0.5547 -0.832,-0.936l-4.576,-10.296h-4.368v10.192c0,0.3813 -0.1387,0.7107 -0.416,0.988c-0.2774,0.2773 -0.6067,0.416 -0.988,0.416h-11.232c-0.3814,0 -0.7107,-0.1387 -0.988,-0.416c-0.2774,-0.2773 -0.416,-0.6067 -0.416,-0.988v-33.592c0,-0.3813 0.1386,-0.7107 0.416,-0.988c0.2773,-0.2773 0.6066,-0.416 0.988,-0.416h20.228c3.12,0 5.8413,0.5027 8.164,1.508c2.3573,1.0053 4.16,2.4613 5.408,4.368c1.248,1.9067 1.872,4.1427 1.872,6.708c0,4.7147 -1.82,8.1293 -5.46,10.244zM70.1939,26.784c0.7626,0 1.352,-0.2427 1.768,-0.728c0.416,-0.52 0.624,-1.1613 0.624,-1.924c0,-0.7627 -0.208,-1.4213 -0.624,-1.976c-0.3814,-0.5893 -0.9707,-0.884 -1.768,-0.884h-6.5v5.512zM130.546,32.972c0,5.304 -1.768,9.2213 -5.304,11.752c-3.502,2.5307 -8.182,3.796 -14.04,3.796c-5.859,0 -10.556,-1.2653 -14.0924,-3.796c-3.5014,-2.5307 -5.252,-6.4827 -5.252,-11.856v-6.136c0,-3.536 0.832,-6.4653 2.496,-8.788c1.6986,-2.3573 4.004,-4.0907 6.9164,-5.2c2.912,-1.1093 6.222,-1.664 9.932,-1.664c3.709,0 7.002,0.5547 9.88,1.664c2.912,1.1093 5.217,2.8253 6.916,5.148c1.698,2.3227 2.548,5.2347 2.548,8.736zM105.898,33.96c0,1.4213 0.468,2.5133 1.404,3.276c0.97,0.7627 2.27,1.144 3.9,1.144c1.629,0 2.912,-0.3813 3.848,-1.144c0.97,-0.7973 1.456,-1.9067 1.456,-3.328v-8.216c0,-1.4213 -0.486,-2.5133 -1.456,-3.276c-0.936,-0.7973 -2.219,-1.196 -3.848,-1.196c-1.63,0 -2.93,0.3813 -3.9,1.144c-0.936,0.7627 -1.404,1.8547 -1.404,3.276zM172.957,11.6c0.382,0 0.711,0.1387 0.988,0.416c0.278,0.2773 0.416,0.6067 0.416,0.988v7.904c0,0.3813 -0.138,0.7107 -0.416,0.988c-0.277,0.2773 -0.606,0.416 -0.988,0.416h-20.436v3.328h17.056c0.382,0 0.711,0.1387 0.988,0.416c0.278,0.2773 0.416,0.6067 0.416,0.988v7.852c0,0.3813 -0.138,0.7107 -0.416,0.988c-0.277,0.2773 -0.606,0.416 -0.988,0.416h-17.056v10.296c0,0.3813 -0.138,0.7107 -0.416,0.988c-0.277,0.2773 -0.606,0.416 -0.988,0.416h-11.232c-0.381,0 -0.71,-0.1387 -0.988,-0.416c-0.277,-0.2773 -0.416,-0.6067 -0.416,-0.988v-33.592c0,-0.3813 0.139,-0.7107 0.416,-0.988c0.278,-0.2773 0.607,-0.416 0.988,-0.416zM206.633,37.34h9.412c0.381,0 0.711,0.1387 0.988,0.416c0.277,0.2773 0.416,0.6067 0.416,0.988v7.852c0,0.3813 -0.139,0.7107 -0.416,0.988c-0.277,0.2773 -0.607,0.416 -0.988,0.416h-32.968c-0.381,0 -0.711,-0.1387 -0.988,-0.416c-0.277,-0.2773 -0.416,-0.6067 -0.416,-0.988v-7.852c0,-0.3813 0.139,-0.7107 0.416,-0.988c0.277,-0.2773 0.607,-0.416 0.988,-0.416h9.516v-15.08h-9.516c-0.381,0 -0.711,-0.1387 -0.988,-0.416c-0.277,-0.2773 -0.416,-0.6067 -0.416,-0.988v-7.852c0,-0.3813 0.139,-0.7107 0.416,-0.988c0.277,-0.2773 0.607,-0.416 0.988,-0.416h32.968c0.381,0 0.711,0.1387 0.988,0.416c0.277,0.2773 0.416,0.6067 0.416,0.988v7.852c0,0.3813 -0.139,0.7107 -0.416,0.988c-0.277,0.2773 -0.607,0.416 -0.988,0.416h-9.412zM260.693,37.34c0.381,0 0.71,0.1387 0.988,0.416c0.277,0.2773 0.416,0.6067 0.416,0.988v7.852c0,0.3813 -0.139,0.7107 -0.416,0.988c-0.278,0.2773 -0.607,0.416 -0.988,0.416h-30.368c-0.382,0 -0.711,-0.1387 -0.988,-0.416c-0.278,-0.2773 -0.416,-0.6067 -0.416,-0.988v-33.592c0,-0.3813 0.138,-0.7107 0.416,-0.988c0.277,-0.2773 0.606,-0.416 0.988,-0.416h11.232c0.381,0 0.71,0.1387 0.988,0.416c0.277,0.2773 0.416,0.6067 0.416,0.988v24.336zM279.912,25.432c0,-1.456 0.347,-2.7907 1.04,-4.004c0.728,-1.248 1.699,-2.2187 2.912,-2.912c1.248,-0.728 2.6,-1.092 4.056,-1.092c1.456,0 2.791,0.364 4.004,1.092c1.248,0.6933 2.219,1.664 2.912,2.912c0.728,1.2133 1.092,2.548 1.092,4.004c0,1.456 -0.364,2.808 -1.092,4.056c-0.693,1.2133 -1.664,2.184 -2.912,2.912c-1.213,0.6933 -2.548,1.04 -4.004,1.04c-1.456,0 -2.808,-0.3467 -4.056,-1.04c-1.213,-0.728 -2.184,-1.6987 -2.912,-2.912c-0.693,-1.248 -1.04,-2.6 -1.04,-4.056z" clip-rule="evenodd"></path></clipPath></defs><g style="mix-blend-mode:NORMAL"><g clip-path="url(#280127_stroke_clip_path)"><path id="280127_stroke_path" d="M28.1462,11.6c3.2587,0 6.1013,0.5547 8.528,1.664c2.4267,1.1093 4.2813,2.6173 5.564,4.524c1.2827,1.9067 1.924,4.0387 1.924,6.396c0,3.8827 -1.2133,6.9333 -3.64,9.152c-2.4267,2.184 -6.552,3.276 -12.376,3.276h-6.864v9.984c0,0.3813 -0.1387,0.7107 -0.416,0.988c-0.2773,0.2773 -0.6067,0.416 -0.988,0.416h-11.18001c-0.38134,0 -0.71067,-0.1387 -0.988,-0.416c-0.27734,-0.2773 -0.416,-0.6067 -0.416,-0.988v-33.592c0,-0.3813 0.13866,-0.7107 0.416,-0.988c0.27733,-0.2773 0.60666,-0.416 0.988,-0.416z M27.9382,26.992c0.832,0 1.4907,-0.2427 1.976,-0.728c0.4853,-0.52 0.728,-1.196 0.728,-2.028c0,-0.8667 -0.2427,-1.5773 -0.728,-2.132c-0.4853,-0.5547 -1.144,-0.832 -1.976,-0.832h-6.604v5.72z M87.6659,46.388c0.0693,0.1387 0.104,0.2947 0.104,0.468c0,0.312 -0.1214,0.5893 -0.364,0.832c-0.208,0.208 -0.468,0.312 -0.78,0.312h-11.804c-0.4854,0 -0.936,-0.1213 -1.352,-0.364c-0.3814,-0.2427 -0.6587,-0.5547 -0.832,-0.936l-4.576,-10.296h-4.368v10.192c0,0.3813 -0.1387,0.7107 -0.416,0.988c-0.2774,0.2773 -0.6067,0.416 -0.988,0.416h-11.232c-0.3814,0 -0.7107,-0.1387 -0.988,-0.416c-0.2774,-0.2773 -0.416,-0.6067 -0.416,-0.988v-33.592c0,-0.3813 0.1386,-0.7107 0.416,-0.988c0.2773,-0.2773 0.6066,-0.416 0.988,-0.416h20.228c3.12,0 5.8413,0.5027 8.164,1.508c2.3573,1.0053 4.16,2.4613 5.408,4.368c1.248,1.9067 1.872,4.1427 1.872,6.708c0,4.7147 -1.82,8.1293 -5.46,10.244z M70.1939,26.784c0.7626,0 1.352,-0.2427 1.768,-0.728c0.416,-0.52 0.624,-1.1613 0.624,-1.924c0,-0.7627 -0.208,-1.4213 -0.624,-1.976c-0.3814,-0.5893 -0.9707,-0.884 -1.768,-0.884h-6.5v5.512z M130.546,32.972c0,5.304 -1.768,9.2213 -5.304,11.752c-3.502,2.5307 -8.182,3.796 -14.04,3.796c-5.859,0 -10.556,-1.2653 -14.0924,-3.796c-3.5014,-2.5307 -5.252,-6.4827 -5.252,-11.856v-6.136c0,-3.536 0.832,-6.4653 2.496,-8.788c1.6986,-2.3573 4.004,-4.0907 6.9164,-5.2c2.912,-1.1093 6.222,-1.664 9.932,-1.664c3.709,0 7.002,0.5547 9.88,1.664c2.912,1.1093 5.217,2.8253 6.916,5.148c1.698,2.3227 2.548,5.2347 2.548,8.736z M105.898,33.96c0,1.4213 0.468,2.5133 1.404,3.276c0.97,0.7627 2.27,1.144 3.9,1.144c1.629,0 2.912,-0.3813 3.848,-1.144c0.97,-0.7973 1.456,-1.9067 1.456,-3.328v-8.216c0,-1.4213 -0.486,-2.5133 -1.456,-3.276c-0.936,-0.7973 -2.219,-1.196 -3.848,-1.196c-1.63,0 -2.93,0.3813 -3.9,1.144c-0.936,0.7627 -1.404,1.8547 -1.404,3.276z M172.957,11.6c0.382,0 0.711,0.1387 0.988,0.416c0.278,0.2773 0.416,0.6067 0.416,0.988v7.904c0,0.3813 -0.138,0.7107 -0.416,0.988c-0.277,0.2773 -0.606,0.416 -0.988,0.416h-20.436v3.328h17.056c0.382,0 0.711,0.1387 0.988,0.416c0.278,0.2773 0.416,0.6067 0.416,0.988v7.852c0,0.3813 -0.138,0.7107 -0.416,0.988c-0.277,0.2773 -0.606,0.416 -0.988,0.416h-17.056v10.296c0,0.3813 -0.138,0.7107 -0.416,0.988c-0.277,0.2773 -0.606,0.416 -0.988,0.416h-11.232c-0.381,0 -0.71,-0.1387 -0.988,-0.416c-0.277,-0.2773 -0.416,-0.6067 -0.416,-0.988v-33.592c0,-0.3813 0.139,-0.7107 0.416,-0.988c0.278,-0.2773 0.607,-0.416 0.988,-0.416z M206.633,37.34h9.412c0.381,0 0.711,0.1387 0.988,0.416c0.277,0.2773 0.416,0.6067 0.416,0.988v7.852c0,0.3813 -0.139,0.7107 -0.416,0.988c-0.277,0.2773 -0.607,0.416 -0.988,0.416h-32.968c-0.381,0 -0.711,-0.1387 -0.988,-0.416c-0.277,-0.2773 -0.416,-0.6067 -0.416,-0.988v-7.852c0,-0.3813 0.139,-0.7107 0.416,-0.988c0.277,-0.2773 0.607,-0.416 0.988,-0.416h9.516v-15.08h-9.516c-0.381,0 -0.711,-0.1387 -0.988,-0.416c-0.277,-0.2773 -0.416,-0.6067 -0.416,-0.988v-7.852c0,-0.3813 0.139,-0.7107 0.416,-0.988c0.277,-0.2773 0.607,-0.416 0.988,-0.416h32.968c0.381,0 0.711,0.1387 0.988,0.416c0.277,0.2773 0.416,0.6067 0.416,0.988v7.852c0,0.3813 -0.139,0.7107 -0.416,0.988c-0.277,0.2773 -0.607,0.416 -0.988,0.416h-9.412z M260.693,37.34c0.381,0 0.71,0.1387 0.988,0.416c0.277,0.2773 0.416,0.6067 0.416,0.988v7.852c0,0.3813 -0.139,0.7107 -0.416,0.988c-0.278,0.2773 -0.607,0.416 -0.988,0.416h-30.368c-0.382,0 -0.711,-0.1387 -0.988,-0.416c-0.278,-0.2773 -0.416,-0.6067 -0.416,-0.988v-33.592c0,-0.3813 0.138,-0.7107 0.416,-0.988c0.277,-0.2773 0.606,-0.416 0.988,-0.416h11.232c0.381,0 0.71,0.1387 0.988,0.416c0.277,0.2773 0.416,0.6067 0.416,0.988v24.336z M279.912,25.432c0,-1.456 0.347,-2.7907 1.04,-4.004c0.728,-1.248 1.699,-2.2187 2.912,-2.912c1.248,-0.728 2.6,-1.092 4.056,-1.092c1.456,0 2.791,0.364 4.004,1.092c1.248,0.6933 2.219,1.664 2.912,2.912c0.728,1.2133 1.092,2.548 1.092,4.004c0,1.456 -0.364,2.808 -1.092,4.056c-0.693,1.2133 -1.664,2.184 -2.912,2.912c-1.213,0.6933 -2.548,1.04 -4.004,1.04c-1.456,0 -2.808,-0.3467 -4.056,-1.04c-1.213,-0.728 -2.184,-1.6987 -2.912,-2.912c-0.693,-1.248 -1.04,-2.6 -1.04,-4.056z" fill="none" stroke="rgb(255, 255, 255)" stroke-width="4" stroke-linecap="butt" stroke-linejoin="miter" stroke-dasharray="0 0" stroke-opacity="1"></path></g></g></g></g></g></g></g></g></g></g></g></g></g></g><animateTransform href="#280128" attributeName="transform" type="translate" values="0 0;930 0" dur="10s" repeatCount="indefinite" calcMode="spline" keyTimes="0;1" keySplines="0 0 1 1" additive="sum" fill="freeze"></animateTransform></svg>