<svg id="280141" viewBox="0 0 1416 64" xmlns="http://www.w3.org/2000/svg" xmlns:xlink="http://www.w3.org/1999/xlink"><g transform="matrix(1,0,0,1,0,0)"><g id="280141" opacity="1" style="mix-blend-mode:normal"><g><g><g transform="matrix(1,0,0,1,0,0)"><g id="280140" opacity="1" style="mix-blend-mode:normal"><g><g><g transform="matrix(1,0,0,1,354,0)"><g id="280132" opacity="1" style="mix-blend-mode:normal"><g><g><defs><clipPath id="280132_stroke_clip_path" clipPathUnits="userSpaceOnUse"><path d="M-2,-2 H356 V66 H-2 Z M17.8785,33.96c0,1.4213 0.468,2.5133 1.404,3.276c0.9707,0.7627 2.2707,1.144 3.9,1.144c1.456,0 2.5307,-0.2427 3.224,-0.728c0.6933,-0.4853 1.2827,-1.2133 1.768,-2.184c0.4507,-0.9013 1.0573,-1.352 1.82,-1.352h11.232c0.312,0 0.572,0.1213 0.78,0.364c0.2427,0.208 0.364,0.468 0.364,0.78c0,2.1147 -0.7107,4.1947 -2.132,6.24c-1.4213,2.0107 -3.588,3.692 -6.5,5.044c-2.8773,1.3173 -6.396,1.976 -10.556,1.976c-3.7093,0 -7.02,-0.5547 -9.932,-1.664c-2.8773,-1.144 -5.16533,-2.8773 -6.864,-5.2c-1.69867,-2.3573 -2.548,-5.2867 -2.548,-8.788v-6.136c0,-3.5013 0.84933,-6.4133 2.548,-8.736c1.69867,-2.3573 3.9867,-4.0907 6.864,-5.2c2.912,-1.144 6.2227,-1.716 9.932,-1.716c4.16,0 7.6787,0.676 10.556,2.028c2.912,1.3173 5.0787,2.9987 6.5,5.044c1.4213,2.0107 2.132,4.0733 2.132,6.188c0,0.312 -0.1213,0.5893 -0.364,0.832c-0.208,0.208 -0.468,0.312 -0.78,0.312h-11.232c-0.7627,0 -1.3693,-0.4507 -1.82,-1.352c-0.4853,-0.9707 -1.0747,-1.6987 -1.768,-2.184c-0.6933,-0.4853 -1.768,-0.728 -3.224,-0.728c-1.6293,0 -2.9293,0.3813 -3.9,1.144c-0.936,0.7627 -1.404,1.8547 -1.404,3.276zM86.1862,32.972c0,5.304 -1.768,9.2213 -5.304,11.752c-3.5013,2.5307 -8.1813,3.796 -14.04,3.796c-5.8587,0 -10.556,-1.2653 -14.092,-3.796c-3.5013,-2.5307 -5.252,-6.4827 -5.252,-11.856v-6.136c0,-3.536 0.832,-6.4653 2.496,-8.788c1.6987,-2.3573 4.004,-4.0907 6.916,-5.2c2.912,-1.1093 6.2227,-1.664 9.932,-1.664c3.7093,0 7.0027,0.5547 9.88,1.664c2.912,1.1093 5.2173,2.8253 6.916,5.148c1.6987,2.3227 2.548,5.2347 2.548,8.736zM61.5382,33.96c0,1.4213 0.468,2.5133 1.404,3.276c0.9707,0.7627 2.2707,1.144 3.9,1.144c1.6293,0 2.912,-0.3813 3.848,-1.144c0.9707,-0.7973 1.456,-1.9067 1.456,-3.328v-8.216c0,-1.4213 -0.4853,-2.5133 -1.456,-3.276c-0.936,-0.7973 -2.2187,-1.196 -3.848,-1.196c-1.6293,0 -2.9293,0.3813 -3.9,1.144c-0.936,0.7627 -1.404,1.8547 -1.404,3.276zM127.298,11.6c0.381,0 0.711,0.1387 0.988,0.416c0.277,0.2773 0.416,0.6067 0.416,0.988v33.592c0,0.3813 -0.139,0.7107 -0.416,0.988c-0.277,0.2773 -0.607,0.416 -0.988,0.416h-8.372c-0.832,0 -1.525,-0.364 -2.08,-1.092l-11.336,-14.456v14.144c0,0.3813 -0.139,0.7107 -0.416,0.988c-0.277,0.2773 -0.607,0.416 -0.988,0.416h-9.6721c-0.3814,0 -0.7107,-0.1387 -0.988,-0.416c-0.2774,-0.2773 -0.416,-0.6067 -0.416,-0.988v-33.592c0,-0.3813 0.1386,-0.7107 0.416,-0.988c0.2773,-0.2773 0.6066,-0.416 0.988,-0.416h8.4241c0.832,0 1.508,0.3467 2.028,1.04l11.336,15.652v-15.288c0,-0.3813 0.139,-0.7107 0.416,-0.988c0.277,-0.2773 0.607,-0.416 0.988,-0.416zM173.142,11.6c0.381,0 0.71,0.1387 0.988,0.416c0.277,0.2773 0.416,0.6067 0.416,0.988v8.372c0,0.3813 -0.139,0.7107 -0.416,0.988c-0.278,0.2773 -0.607,0.416 -0.988,0.416h-11.18v23.816c0,0.3813 -0.139,0.7107 -0.416,0.988c-0.278,0.2773 -0.607,0.416 -0.988,0.416h-10.712c-0.382,0 -0.711,-0.1387 -0.988,-0.416c-0.278,-0.2773 -0.416,-0.6067 -0.416,-0.988v-23.816h-11.18c-0.382,0 -0.711,-0.1387 -0.988,-0.416c-0.278,-0.2773 -0.416,-0.6067 -0.416,-0.988v-8.372c0,-0.3813 0.138,-0.7107 0.416,-0.988c0.277,-0.2773 0.606,-0.416 0.988,-0.416zM191.893,46.232c-0.45,1.1787 -1.23,1.768 -2.34,1.768h-9.828c-0.312,0 -0.589,-0.104 -0.832,-0.312c-0.208,-0.2427 -0.312,-0.52 -0.312,-0.832l0.052,-0.312l11.336,-33.228c0.139,-0.4507 0.399,-0.8493 0.78,-1.196c0.382,-0.3467 0.902,-0.52 1.56,-0.52h14.456c0.659,0 1.179,0.1733 1.56,0.52c0.382,0.3467 0.642,0.7453 0.78,1.196l11.336,33.228l0.052,0.312c0,0.312 -0.121,0.5893 -0.364,0.832c-0.208,0.208 -0.468,0.312 -0.78,0.312h-9.828c-1.109,0 -1.889,-0.5893 -2.34,-1.768l-1.3,-3.64h-12.688zM199.537,21.636l-3.692,10.816h7.384zM238.777,33.96c0,1.4213 0.468,2.5133 1.404,3.276c0.971,0.7627 2.271,1.144 3.9,1.144c1.456,0 2.531,-0.2427 3.224,-0.728c0.693,-0.4853 1.283,-1.2133 1.768,-2.184c0.451,-0.9013 1.057,-1.352 1.82,-1.352h11.232c0.312,0 0.572,0.1213 0.78,0.364c0.243,0.208 0.364,0.468 0.364,0.78c0,2.1147 -0.711,4.1947 -2.132,6.24c-1.421,2.0107 -3.588,3.692 -6.5,5.044c-2.877,1.3173 -6.396,1.976 -10.556,1.976c-3.709,0 -7.02,-0.5547 -9.932,-1.664c-2.877,-1.144 -5.165,-2.8773 -6.864,-5.2c-1.699,-2.3573 -2.548,-5.2867 -2.548,-8.788v-6.136c0,-3.5013 0.849,-6.4133 2.548,-8.736c1.699,-2.3573 3.987,-4.0907 6.864,-5.2c2.912,-1.144 6.223,-1.716 9.932,-1.716c4.16,0 7.679,0.676 10.556,2.028c2.912,1.3173 5.079,2.9987 6.5,5.044c1.421,2.0107 2.132,4.0733 2.132,6.188c0,0.312 -0.121,0.5893 -0.364,0.832c-0.208,0.208 -0.468,0.312 -0.78,0.312h-11.232c-0.763,0 -1.369,-0.4507 -1.82,-1.352c-0.485,-0.9707 -1.075,-1.6987 -1.768,-2.184c-0.693,-0.4853 -1.768,-0.728 -3.224,-0.728c-1.629,0 -2.929,0.3813 -3.9,1.144c-0.936,0.7627 -1.404,1.8547 -1.404,3.276zM305.681,11.6c0.381,0 0.71,0.1387 0.988,0.416c0.277,0.2773 0.416,0.6067 0.416,0.988v8.372c0,0.3813 -0.139,0.7107 -0.416,0.988c-0.278,0.2773 -0.607,0.416 -0.988,0.416h-11.18v23.816c0,0.3813 -0.139,0.7107 -0.416,0.988c-0.278,0.2773 -0.607,0.416 -0.988,0.416h-10.712c-0.382,0 -0.711,-0.1387 -0.988,-0.416c-0.278,-0.2773 -0.416,-0.6067 -0.416,-0.988v-23.816h-11.18c-0.382,0 -0.711,-0.1387 -0.988,-0.416c-0.278,-0.2773 -0.416,-0.6067 -0.416,-0.988v-8.372c0,-0.3813 0.138,-0.7107 0.416,-0.988c0.277,-0.2773 0.606,-0.416 0.988,-0.416zM323.912,25.432c0,-1.456 0.347,-2.7907 1.04,-4.004c0.728,-1.248 1.699,-2.2187 2.912,-2.912c1.248,-0.728 2.6,-1.092 4.056,-1.092c1.456,0 2.791,0.364 4.004,1.092c1.248,0.6933 2.219,1.664 2.912,2.912c0.728,1.2133 1.092,2.548 1.092,4.004c0,1.456 -0.364,2.808 -1.092,4.056c-0.693,1.2133 -1.664,2.184 -2.912,2.912c-1.213,0.6933 -2.548,1.04 -4.004,1.04c-1.456,0 -2.808,-0.3467 -4.056,-1.04c-1.213,-0.728 -2.184,-1.6987 -2.912,-2.912c-0.693,-1.248 -1.04,-2.6 -1.04,-4.056z" clip-rule="evenodd"></path></clipPath></defs><g style="mix-blend-mode:NORMAL"><g clip-path="url(#280132_stroke_clip_path)"><path id="280132_stroke_path" d="M17.8785,33.96c0,1.4213 0.468,2.5133 1.404,3.276c0.9707,0.7627 2.2707,1.144 3.9,1.144c1.456,0 2.5307,-0.2427 3.224,-0.728c0.6933,-0.4853 1.2827,-1.2133 1.768,-2.184c0.4507,-0.9013 1.0573,-1.352 1.82,-1.352h11.232c0.312,0 0.572,0.1213 0.78,0.364c0.2427,0.208 0.364,0.468 0.364,0.78c0,2.1147 -0.7107,4.1947 -2.132,6.24c-1.4213,2.0107 -3.588,3.692 -6.5,5.044c-2.8773,1.3173 -6.396,1.976 -10.556,1.976c-3.7093,0 -7.02,-0.5547 -9.932,-1.664c-2.8773,-1.144 -5.16533,-2.8773 -6.864,-5.2c-1.69867,-2.3573 -2.548,-5.2867 -2.548,-8.788v-6.136c0,-3.5013 0.84933,-6.4133 2.548,-8.736c1.69867,-2.3573 3.9867,-4.0907 6.864,-5.2c2.912,-1.144 6.2227,-1.716 9.932,-1.716c4.16,0 7.6787,0.676 10.556,2.028c2.912,1.3173 5.0787,2.9987 6.5,5.044c1.4213,2.0107 2.132,4.0733 2.132,6.188c0,0.312 -0.1213,0.5893 -0.364,0.832c-0.208,0.208 -0.468,0.312 -0.78,0.312h-11.232c-0.7627,0 -1.3693,-0.4507 -1.82,-1.352c-0.4853,-0.9707 -1.0747,-1.6987 -1.768,-2.184c-0.6933,-0.4853 -1.768,-0.728 -3.224,-0.728c-1.6293,0 -2.9293,0.3813 -3.9,1.144c-0.936,0.7627 -1.404,1.8547 -1.404,3.276z M86.1862,32.972c0,5.304 -1.768,9.2213 -5.304,11.752c-3.5013,2.5307 -8.1813,3.796 -14.04,3.796c-5.8587,0 -10.556,-1.2653 -14.092,-3.796c-3.5013,-2.5307 -5.252,-6.4827 -5.252,-11.856v-6.136c0,-3.536 0.832,-6.4653 2.496,-8.788c1.6987,-2.3573 4.004,-4.0907 6.916,-5.2c2.912,-1.1093 6.2227,-1.664 9.932,-1.664c3.7093,0 7.0027,0.5547 9.88,1.664c2.912,1.1093 5.2173,2.8253 6.916,5.148c1.6987,2.3227 2.548,5.2347 2.548,8.736z M61.5382,33.96c0,1.4213 0.468,2.5133 1.404,3.276c0.9707,0.7627 2.2707,1.144 3.9,1.144c1.6293,0 2.912,-0.3813 3.848,-1.144c0.9707,-0.7973 1.456,-1.9067 1.456,-3.328v-8.216c0,-1.4213 -0.4853,-2.5133 -1.456,-3.276c-0.936,-0.7973 -2.2187,-1.196 -3.848,-1.196c-1.6293,0 -2.9293,0.3813 -3.9,1.144c-0.936,0.7627 -1.404,1.8547 -1.404,3.276z M127.298,11.6c0.381,0 0.711,0.1387 0.988,0.416c0.277,0.2773 0.416,0.6067 0.416,0.988v33.592c0,0.3813 -0.139,0.7107 -0.416,0.988c-0.277,0.2773 -0.607,0.416 -0.988,0.416h-8.372c-0.832,0 -1.525,-0.364 -2.08,-1.092l-11.336,-14.456v14.144c0,0.3813 -0.139,0.7107 -0.416,0.988c-0.277,0.2773 -0.607,0.416 -0.988,0.416h-9.6721c-0.3814,0 -0.7107,-0.1387 -0.988,-0.416c-0.2774,-0.2773 -0.416,-0.6067 -0.416,-0.988v-33.592c0,-0.3813 0.1386,-0.7107 0.416,-0.988c0.2773,-0.2773 0.6066,-0.416 0.988,-0.416h8.4241c0.832,0 1.508,0.3467 2.028,1.04l11.336,15.652v-15.288c0,-0.3813 0.139,-0.7107 0.416,-0.988c0.277,-0.2773 0.607,-0.416 0.988,-0.416z M173.142,11.6c0.381,0 0.71,0.1387 0.988,0.416c0.277,0.2773 0.416,0.6067 0.416,0.988v8.372c0,0.3813 -0.139,0.7107 -0.416,0.988c-0.278,0.2773 -0.607,0.416 -0.988,0.416h-11.18v23.816c0,0.3813 -0.139,0.7107 -0.416,0.988c-0.278,0.2773 -0.607,0.416 -0.988,0.416h-10.712c-0.382,0 -0.711,-0.1387 -0.988,-0.416c-0.278,-0.2773 -0.416,-0.6067 -0.416,-0.988v-23.816h-11.18c-0.382,0 -0.711,-0.1387 -0.988,-0.416c-0.278,-0.2773 -0.416,-0.6067 -0.416,-0.988v-8.372c0,-0.3813 0.138,-0.7107 0.416,-0.988c0.277,-0.2773 0.606,-0.416 0.988,-0.416z M191.893,46.232c-0.45,1.1787 -1.23,1.768 -2.34,1.768h-9.828c-0.312,0 -0.589,-0.104 -0.832,-0.312c-0.208,-0.2427 -0.312,-0.52 -0.312,-0.832l0.052,-0.312l11.336,-33.228c0.139,-0.4507 0.399,-0.8493 0.78,-1.196c0.382,-0.3467 0.902,-0.52 1.56,-0.52h14.456c0.659,0 1.179,0.1733 1.56,0.52c0.382,0.3467 0.642,0.7453 0.78,1.196l11.336,33.228l0.052,0.312c0,0.312 -0.121,0.5893 -0.364,0.832c-0.208,0.208 -0.468,0.312 -0.78,0.312h-9.828c-1.109,0 -1.889,-0.5893 -2.34,-1.768l-1.3,-3.64h-12.688z M199.537,21.636l-3.692,10.816h7.384z M238.777,33.96c0,1.4213 0.468,2.5133 1.404,3.276c0.971,0.7627 2.271,1.144 3.9,1.144c1.456,0 2.531,-0.2427 3.224,-0.728c0.693,-0.4853 1.283,-1.2133 1.768,-2.184c0.451,-0.9013 1.057,-1.352 1.82,-1.352h11.232c0.312,0 0.572,0.1213 0.78,0.364c0.243,0.208 0.364,0.468 0.364,0.78c0,2.1147 -0.711,4.1947 -2.132,6.24c-1.421,2.0107 -3.588,3.692 -6.5,5.044c-2.877,1.3173 -6.396,1.976 -10.556,1.976c-3.709,0 -7.02,-0.5547 -9.932,-1.664c-2.877,-1.144 -5.165,-2.8773 -6.864,-5.2c-1.699,-2.3573 -2.548,-5.2867 -2.548,-8.788v-6.136c0,-3.5013 0.849,-6.4133 2.548,-8.736c1.699,-2.3573 3.987,-4.0907 6.864,-5.2c2.912,-1.144 6.223,-1.716 9.932,-1.716c4.16,0 7.679,0.676 10.556,2.028c2.912,1.3173 5.079,2.9987 6.5,5.044c1.421,2.0107 2.132,4.0733 2.132,6.188c0,0.312 -0.121,0.5893 -0.364,0.832c-0.208,0.208 -0.468,0.312 -0.78,0.312h-11.232c-0.763,0 -1.369,-0.4507 -1.82,-1.352c-0.485,-0.9707 -1.075,-1.6987 -1.768,-2.184c-0.693,-0.4853 -1.768,-0.728 -3.224,-0.728c-1.629,0 -2.929,0.3813 -3.9,1.144c-0.936,0.7627 -1.404,1.8547 -1.404,3.276z M305.681,11.6c0.381,0 0.71,0.1387 0.988,0.416c0.277,0.2773 0.416,0.6067 0.416,0.988v8.372c0,0.3813 -0.139,0.7107 -0.416,0.988c-0.278,0.2773 -0.607,0.416 -0.988,0.416h-11.18v23.816c0,0.3813 -0.139,0.7107 -0.416,0.988c-0.278,0.2773 -0.607,0.416 -0.988,0.416h-10.712c-0.382,0 -0.711,-0.1387 -0.988,-0.416c-0.278,-0.2773 -0.416,-0.6067 -0.416,-0.988v-23.816h-11.18c-0.382,0 -0.711,-0.1387 -0.988,-0.416c-0.278,-0.2773 -0.416,-0.6067 -0.416,-0.988v-8.372c0,-0.3813 0.138,-0.7107 0.416,-0.988c0.277,-0.2773 0.606,-0.416 0.988,-0.416z M323.912,25.432c0,-1.456 0.347,-2.7907 1.04,-4.004c0.728,-1.248 1.699,-2.2187 2.912,-2.912c1.248,-0.728 2.6,-1.092 4.056,-1.092c1.456,0 2.791,0.364 4.004,1.092c1.248,0.6933 2.219,1.664 2.912,2.912c0.728,1.2133 1.092,2.548 1.092,4.004c0,1.456 -0.364,2.808 -1.092,4.056c-0.693,1.2133 -1.664,2.184 -2.912,2.912c-1.213,0.6933 -2.548,1.04 -4.004,1.04c-1.456,0 -2.808,-0.3467 -4.056,-1.04c-1.213,-0.728 -2.184,-1.6987 -2.912,-2.912c-0.693,-1.248 -1.04,-2.6 -1.04,-4.056z" fill="none" stroke="rgb(255, 255, 255)" stroke-width="4" stroke-linecap="butt" stroke-linejoin="miter" stroke-dasharray="0 0" stroke-opacity="1"></path></g></g></g></g></g></g><g transform="matrix(1,0,0,1,1062,0)"><g id="280134" opacity="1" style="mix-blend-mode:normal"><g><g><defs><clipPath id="280134_stroke_clip_path" clipPathUnits="userSpaceOnUse"><path d="M-2,-2 H356 V66 H-2 Z M17.8785,33.96c0,1.4213 0.468,2.5133 1.404,3.276c0.9707,0.7627 2.2707,1.144 3.9,1.144c1.456,0 2.5307,-0.2427 3.224,-0.728c0.6933,-0.4853 1.2827,-1.2133 1.768,-2.184c0.4507,-0.9013 1.0573,-1.352 1.82,-1.352h11.232c0.312,0 0.572,0.1213 0.78,0.364c0.2427,0.208 0.364,0.468 0.364,0.78c0,2.1147 -0.7107,4.1947 -2.132,6.24c-1.4213,2.0107 -3.588,3.692 -6.5,5.044c-2.8773,1.3173 -6.396,1.976 -10.556,1.976c-3.7093,0 -7.02,-0.5547 -9.932,-1.664c-2.8773,-1.144 -5.16533,-2.8773 -6.864,-5.2c-1.69867,-2.3573 -2.548,-5.2867 -2.548,-8.788v-6.136c0,-3.5013 0.84933,-6.4133 2.548,-8.736c1.69867,-2.3573 3.9867,-4.0907 6.864,-5.2c2.912,-1.144 6.2227,-1.716 9.932,-1.716c4.16,0 7.6787,0.676 10.556,2.028c2.912,1.3173 5.0787,2.9987 6.5,5.044c1.4213,2.0107 2.132,4.0733 2.132,6.188c0,0.312 -0.1213,0.5893 -0.364,0.832c-0.208,0.208 -0.468,0.312 -0.78,0.312h-11.232c-0.7627,0 -1.3693,-0.4507 -1.82,-1.352c-0.4853,-0.9707 -1.0747,-1.6987 -1.768,-2.184c-0.6933,-0.4853 -1.768,-0.728 -3.224,-0.728c-1.6293,0 -2.9293,0.3813 -3.9,1.144c-0.936,0.7627 -1.404,1.8547 -1.404,3.276zM86.1862,32.972c0,5.304 -1.768,9.2213 -5.304,11.752c-3.5013,2.5307 -8.1813,3.796 -14.04,3.796c-5.8587,0 -10.556,-1.2653 -14.092,-3.796c-3.5013,-2.5307 -5.252,-6.4827 -5.252,-11.856v-6.136c0,-3.536 0.832,-6.4653 2.496,-8.788c1.6987,-2.3573 4.004,-4.0907 6.916,-5.2c2.912,-1.1093 6.2227,-1.664 9.932,-1.664c3.7093,0 7.0027,0.5547 9.88,1.664c2.912,1.1093 5.2173,2.8253 6.916,5.148c1.6987,2.3227 2.548,5.2347 2.548,8.736zM61.5382,33.96c0,1.4213 0.468,2.5133 1.404,3.276c0.9707,0.7627 2.2707,1.144 3.9,1.144c1.6293,0 2.912,-0.3813 3.848,-1.144c0.9707,-0.7973 1.456,-1.9067 1.456,-3.328v-8.216c0,-1.4213 -0.4853,-2.5133 -1.456,-3.276c-0.936,-0.7973 -2.2187,-1.196 -3.848,-1.196c-1.6293,0 -2.9293,0.3813 -3.9,1.144c-0.936,0.7627 -1.404,1.8547 -1.404,3.276zM127.298,11.6c0.381,0 0.711,0.1387 0.988,0.416c0.277,0.2773 0.416,0.6067 0.416,0.988v33.592c0,0.3813 -0.139,0.7107 -0.416,0.988c-0.277,0.2773 -0.607,0.416 -0.988,0.416h-8.372c-0.832,0 -1.525,-0.364 -2.08,-1.092l-11.336,-14.456v14.144c0,0.3813 -0.139,0.7107 -0.416,0.988c-0.277,0.2773 -0.607,0.416 -0.988,0.416h-9.6721c-0.3814,0 -0.7107,-0.1387 -0.988,-0.416c-0.2774,-0.2773 -0.416,-0.6067 -0.416,-0.988v-33.592c0,-0.3813 0.1386,-0.7107 0.416,-0.988c0.2773,-0.2773 0.6066,-0.416 0.988,-0.416h8.4241c0.832,0 1.508,0.3467 2.028,1.04l11.336,15.652v-15.288c0,-0.3813 0.139,-0.7107 0.416,-0.988c0.277,-0.2773 0.607,-0.416 0.988,-0.416zM173.142,11.6c0.381,0 0.71,0.1387 0.988,0.416c0.277,0.2773 0.416,0.6067 0.416,0.988v8.372c0,0.3813 -0.139,0.7107 -0.416,0.988c-0.278,0.2773 -0.607,0.416 -0.988,0.416h-11.18v23.816c0,0.3813 -0.139,0.7107 -0.416,0.988c-0.278,0.2773 -0.607,0.416 -0.988,0.416h-10.712c-0.382,0 -0.711,-0.1387 -0.988,-0.416c-0.278,-0.2773 -0.416,-0.6067 -0.416,-0.988v-23.816h-11.18c-0.382,0 -0.711,-0.1387 -0.988,-0.416c-0.278,-0.2773 -0.416,-0.6067 -0.416,-0.988v-8.372c0,-0.3813 0.138,-0.7107 0.416,-0.988c0.277,-0.2773 0.606,-0.416 0.988,-0.416zM191.893,46.232c-0.45,1.1787 -1.23,1.768 -2.34,1.768h-9.828c-0.312,0 -0.589,-0.104 -0.832,-0.312c-0.208,-0.2427 -0.312,-0.52 -0.312,-0.832l0.052,-0.312l11.336,-33.228c0.139,-0.4507 0.399,-0.8493 0.78,-1.196c0.382,-0.3467 0.902,-0.52 1.56,-0.52h14.456c0.659,0 1.179,0.1733 1.56,0.52c0.382,0.3467 0.642,0.7453 0.78,1.196l11.336,33.228l0.052,0.312c0,0.312 -0.121,0.5893 -0.364,0.832c-0.208,0.208 -0.468,0.312 -0.78,0.312h-9.828c-1.109,0 -1.889,-0.5893 -2.34,-1.768l-1.3,-3.64h-12.688zM199.537,21.636l-3.692,10.816h7.384zM238.777,33.96c0,1.4213 0.468,2.5133 1.404,3.276c0.971,0.7627 2.271,1.144 3.9,1.144c1.456,0 2.531,-0.2427 3.224,-0.728c0.693,-0.4853 1.283,-1.2133 1.768,-2.184c0.451,-0.9013 1.057,-1.352 1.82,-1.352h11.232c0.312,0 0.572,0.1213 0.78,0.364c0.243,0.208 0.364,0.468 0.364,0.78c0,2.1147 -0.711,4.1947 -2.132,6.24c-1.421,2.0107 -3.588,3.692 -6.5,5.044c-2.877,1.3173 -6.396,1.976 -10.556,1.976c-3.709,0 -7.02,-0.5547 -9.932,-1.664c-2.877,-1.144 -5.165,-2.8773 -6.864,-5.2c-1.699,-2.3573 -2.548,-5.2867 -2.548,-8.788v-6.136c0,-3.5013 0.849,-6.4133 2.548,-8.736c1.699,-2.3573 3.987,-4.0907 6.864,-5.2c2.912,-1.144 6.223,-1.716 9.932,-1.716c4.16,0 7.679,0.676 10.556,2.028c2.912,1.3173 5.079,2.9987 6.5,5.044c1.421,2.0107 2.132,4.0733 2.132,6.188c0,0.312 -0.121,0.5893 -0.364,0.832c-0.208,0.208 -0.468,0.312 -0.78,0.312h-11.232c-0.763,0 -1.369,-0.4507 -1.82,-1.352c-0.485,-0.9707 -1.075,-1.6987 -1.768,-2.184c-0.693,-0.4853 -1.768,-0.728 -3.224,-0.728c-1.629,0 -2.929,0.3813 -3.9,1.144c-0.936,0.7627 -1.404,1.8547 -1.404,3.276zM305.681,11.6c0.381,0 0.71,0.1387 0.988,0.416c0.277,0.2773 0.416,0.6067 0.416,0.988v8.372c0,0.3813 -0.139,0.7107 -0.416,0.988c-0.278,0.2773 -0.607,0.416 -0.988,0.416h-11.18v23.816c0,0.3813 -0.139,0.7107 -0.416,0.988c-0.278,0.2773 -0.607,0.416 -0.988,0.416h-10.712c-0.382,0 -0.711,-0.1387 -0.988,-0.416c-0.278,-0.2773 -0.416,-0.6067 -0.416,-0.988v-23.816h-11.18c-0.382,0 -0.711,-0.1387 -0.988,-0.416c-0.278,-0.2773 -0.416,-0.6067 -0.416,-0.988v-8.372c0,-0.3813 0.138,-0.7107 0.416,-0.988c0.277,-0.2773 0.606,-0.416 0.988,-0.416zM323.912,25.432c0,-1.456 0.347,-2.7907 1.04,-4.004c0.728,-1.248 1.699,-2.2187 2.912,-2.912c1.248,-0.728 2.6,-1.092 4.056,-1.092c1.456,0 2.791,0.364 4.004,1.092c1.248,0.6933 2.219,1.664 2.912,2.912c0.728,1.2133 1.092,2.548 1.092,4.004c0,1.456 -0.364,2.808 -1.092,4.056c-0.693,1.2133 -1.664,2.184 -2.912,2.912c-1.213,0.6933 -2.548,1.04 -4.004,1.04c-1.456,0 -2.808,-0.3467 -4.056,-1.04c-1.213,-0.728 -2.184,-1.6987 -2.912,-2.912c-0.693,-1.248 -1.04,-2.6 -1.04,-4.056z" clip-rule="evenodd"></path></clipPath></defs><g style="mix-blend-mode:NORMAL"><g clip-path="url(#280134_stroke_clip_path)"><path id="280134_stroke_path" d="M17.8785,33.96c0,1.4213 0.468,2.5133 1.404,3.276c0.9707,0.7627 2.2707,1.144 3.9,1.144c1.456,0 2.5307,-0.2427 3.224,-0.728c0.6933,-0.4853 1.2827,-1.2133 1.768,-2.184c0.4507,-0.9013 1.0573,-1.352 1.82,-1.352h11.232c0.312,0 0.572,0.1213 0.78,0.364c0.2427,0.208 0.364,0.468 0.364,0.78c0,2.1147 -0.7107,4.1947 -2.132,6.24c-1.4213,2.0107 -3.588,3.692 -6.5,5.044c-2.8773,1.3173 -6.396,1.976 -10.556,1.976c-3.7093,0 -7.02,-0.5547 -9.932,-1.664c-2.8773,-1.144 -5.16533,-2.8773 -6.864,-5.2c-1.69867,-2.3573 -2.548,-5.2867 -2.548,-8.788v-6.136c0,-3.5013 0.84933,-6.4133 2.548,-8.736c1.69867,-2.3573 3.9867,-4.0907 6.864,-5.2c2.912,-1.144 6.2227,-1.716 9.932,-1.716c4.16,0 7.6787,0.676 10.556,2.028c2.912,1.3173 5.0787,2.9987 6.5,5.044c1.4213,2.0107 2.132,4.0733 2.132,6.188c0,0.312 -0.1213,0.5893 -0.364,0.832c-0.208,0.208 -0.468,0.312 -0.78,0.312h-11.232c-0.7627,0 -1.3693,-0.4507 -1.82,-1.352c-0.4853,-0.9707 -1.0747,-1.6987 -1.768,-2.184c-0.6933,-0.4853 -1.768,-0.728 -3.224,-0.728c-1.6293,0 -2.9293,0.3813 -3.9,1.144c-0.936,0.7627 -1.404,1.8547 -1.404,3.276z M86.1862,32.972c0,5.304 -1.768,9.2213 -5.304,11.752c-3.5013,2.5307 -8.1813,3.796 -14.04,3.796c-5.8587,0 -10.556,-1.2653 -14.092,-3.796c-3.5013,-2.5307 -5.252,-6.4827 -5.252,-11.856v-6.136c0,-3.536 0.832,-6.4653 2.496,-8.788c1.6987,-2.3573 4.004,-4.0907 6.916,-5.2c2.912,-1.1093 6.2227,-1.664 9.932,-1.664c3.7093,0 7.0027,0.5547 9.88,1.664c2.912,1.1093 5.2173,2.8253 6.916,5.148c1.6987,2.3227 2.548,5.2347 2.548,8.736z M61.5382,33.96c0,1.4213 0.468,2.5133 1.404,3.276c0.9707,0.7627 2.2707,1.144 3.9,1.144c1.6293,0 2.912,-0.3813 3.848,-1.144c0.9707,-0.7973 1.456,-1.9067 1.456,-3.328v-8.216c0,-1.4213 -0.4853,-2.5133 -1.456,-3.276c-0.936,-0.7973 -2.2187,-1.196 -3.848,-1.196c-1.6293,0 -2.9293,0.3813 -3.9,1.144c-0.936,0.7627 -1.404,1.8547 -1.404,3.276z M127.298,11.6c0.381,0 0.711,0.1387 0.988,0.416c0.277,0.2773 0.416,0.6067 0.416,0.988v33.592c0,0.3813 -0.139,0.7107 -0.416,0.988c-0.277,0.2773 -0.607,0.416 -0.988,0.416h-8.372c-0.832,0 -1.525,-0.364 -2.08,-1.092l-11.336,-14.456v14.144c0,0.3813 -0.139,0.7107 -0.416,0.988c-0.277,0.2773 -0.607,0.416 -0.988,0.416h-9.6721c-0.3814,0 -0.7107,-0.1387 -0.988,-0.416c-0.2774,-0.2773 -0.416,-0.6067 -0.416,-0.988v-33.592c0,-0.3813 0.1386,-0.7107 0.416,-0.988c0.2773,-0.2773 0.6066,-0.416 0.988,-0.416h8.4241c0.832,0 1.508,0.3467 2.028,1.04l11.336,15.652v-15.288c0,-0.3813 0.139,-0.7107 0.416,-0.988c0.277,-0.2773 0.607,-0.416 0.988,-0.416z M173.142,11.6c0.381,0 0.71,0.1387 0.988,0.416c0.277,0.2773 0.416,0.6067 0.416,0.988v8.372c0,0.3813 -0.139,0.7107 -0.416,0.988c-0.278,0.2773 -0.607,0.416 -0.988,0.416h-11.18v23.816c0,0.3813 -0.139,0.7107 -0.416,0.988c-0.278,0.2773 -0.607,0.416 -0.988,0.416h-10.712c-0.382,0 -0.711,-0.1387 -0.988,-0.416c-0.278,-0.2773 -0.416,-0.6067 -0.416,-0.988v-23.816h-11.18c-0.382,0 -0.711,-0.1387 -0.988,-0.416c-0.278,-0.2773 -0.416,-0.6067 -0.416,-0.988v-8.372c0,-0.3813 0.138,-0.7107 0.416,-0.988c0.277,-0.2773 0.606,-0.416 0.988,-0.416z M191.893,46.232c-0.45,1.1787 -1.23,1.768 -2.34,1.768h-9.828c-0.312,0 -0.589,-0.104 -0.832,-0.312c-0.208,-0.2427 -0.312,-0.52 -0.312,-0.832l0.052,-0.312l11.336,-33.228c0.139,-0.4507 0.399,-0.8493 0.78,-1.196c0.382,-0.3467 0.902,-0.52 1.56,-0.52h14.456c0.659,0 1.179,0.1733 1.56,0.52c0.382,0.3467 0.642,0.7453 0.78,1.196l11.336,33.228l0.052,0.312c0,0.312 -0.121,0.5893 -0.364,0.832c-0.208,0.208 -0.468,0.312 -0.78,0.312h-9.828c-1.109,0 -1.889,-0.5893 -2.34,-1.768l-1.3,-3.64h-12.688z M199.537,21.636l-3.692,10.816h7.384z M238.777,33.96c0,1.4213 0.468,2.5133 1.404,3.276c0.971,0.7627 2.271,1.144 3.9,1.144c1.456,0 2.531,-0.2427 3.224,-0.728c0.693,-0.4853 1.283,-1.2133 1.768,-2.184c0.451,-0.9013 1.057,-1.352 1.82,-1.352h11.232c0.312,0 0.572,0.1213 0.78,0.364c0.243,0.208 0.364,0.468 0.364,0.78c0,2.1147 -0.711,4.1947 -2.132,6.24c-1.421,2.0107 -3.588,3.692 -6.5,5.044c-2.877,1.3173 -6.396,1.976 -10.556,1.976c-3.709,0 -7.02,-0.5547 -9.932,-1.664c-2.877,-1.144 -5.165,-2.8773 -6.864,-5.2c-1.699,-2.3573 -2.548,-5.2867 -2.548,-8.788v-6.136c0,-3.5013 0.849,-6.4133 2.548,-8.736c1.699,-2.3573 3.987,-4.0907 6.864,-5.2c2.912,-1.144 6.223,-1.716 9.932,-1.716c4.16,0 7.679,0.676 10.556,2.028c2.912,1.3173 5.079,2.9987 6.5,5.044c1.421,2.0107 2.132,4.0733 2.132,6.188c0,0.312 -0.121,0.5893 -0.364,0.832c-0.208,0.208 -0.468,0.312 -0.78,0.312h-11.232c-0.763,0 -1.369,-0.4507 -1.82,-1.352c-0.485,-0.9707 -1.075,-1.6987 -1.768,-2.184c-0.693,-0.4853 -1.768,-0.728 -3.224,-0.728c-1.629,0 -2.929,0.3813 -3.9,1.144c-0.936,0.7627 -1.404,1.8547 -1.404,3.276z M305.681,11.6c0.381,0 0.71,0.1387 0.988,0.416c0.277,0.2773 0.416,0.6067 0.416,0.988v8.372c0,0.3813 -0.139,0.7107 -0.416,0.988c-0.278,0.2773 -0.607,0.416 -0.988,0.416h-11.18v23.816c0,0.3813 -0.139,0.7107 -0.416,0.988c-0.278,0.2773 -0.607,0.416 -0.988,0.416h-10.712c-0.382,0 -0.711,-0.1387 -0.988,-0.416c-0.278,-0.2773 -0.416,-0.6067 -0.416,-0.988v-23.816h-11.18c-0.382,0 -0.711,-0.1387 -0.988,-0.416c-0.278,-0.2773 -0.416,-0.6067 -0.416,-0.988v-8.372c0,-0.3813 0.138,-0.7107 0.416,-0.988c0.277,-0.2773 0.606,-0.416 0.988,-0.416z M323.912,25.432c0,-1.456 0.347,-2.7907 1.04,-4.004c0.728,-1.248 1.699,-2.2187 2.912,-2.912c1.248,-0.728 2.6,-1.092 4.056,-1.092c1.456,0 2.791,0.364 4.004,1.092c1.248,0.6933 2.219,1.664 2.912,2.912c0.728,1.2133 1.092,2.548 1.092,4.004c0,1.456 -0.364,2.808 -1.092,4.056c-0.693,1.2133 -1.664,2.184 -2.912,2.912c-1.213,0.6933 -2.548,1.04 -4.004,1.04c-1.456,0 -2.808,-0.3467 -4.056,-1.04c-1.213,-0.728 -2.184,-1.6987 -2.912,-2.912c-0.693,-1.248 -1.04,-2.6 -1.04,-4.056z" fill="none" stroke="rgb(255, 255, 255)" stroke-width="4" stroke-linecap="butt" stroke-linejoin="miter" stroke-dasharray="0 0" stroke-opacity="1"></path></g></g></g></g></g></g><g transform="matrix(1,0,0,1,1770,0)"><g id="280136" opacity="1" style="mix-blend-mode:normal"><g><g><defs><clipPath id="280136_stroke_clip_path" clipPathUnits="userSpaceOnUse"><path d="M-2,-2 H356 V66 H-2 Z M17.8785,33.96c0,1.4213 0.468,2.5133 1.404,3.276c0.9707,0.7627 2.2707,1.144 3.9,1.144c1.456,0 2.5307,-0.2427 3.224,-0.728c0.6933,-0.4853 1.2827,-1.2133 1.768,-2.184c0.4507,-0.9013 1.0573,-1.352 1.82,-1.352h11.232c0.312,0 0.572,0.1213 0.78,0.364c0.2427,0.208 0.364,0.468 0.364,0.78c0,2.1147 -0.7107,4.1947 -2.132,6.24c-1.4213,2.0107 -3.588,3.692 -6.5,5.044c-2.8773,1.3173 -6.396,1.976 -10.556,1.976c-3.7093,0 -7.02,-0.5547 -9.932,-1.664c-2.8773,-1.144 -5.16533,-2.8773 -6.864,-5.2c-1.69867,-2.3573 -2.548,-5.2867 -2.548,-8.788v-6.136c0,-3.5013 0.84933,-6.4133 2.548,-8.736c1.69867,-2.3573 3.9867,-4.0907 6.864,-5.2c2.912,-1.144 6.2227,-1.716 9.932,-1.716c4.16,0 7.6787,0.676 10.556,2.028c2.912,1.3173 5.0787,2.9987 6.5,5.044c1.4213,2.0107 2.132,4.0733 2.132,6.188c0,0.312 -0.1213,0.5893 -0.364,0.832c-0.208,0.208 -0.468,0.312 -0.78,0.312h-11.232c-0.7627,0 -1.3693,-0.4507 -1.82,-1.352c-0.4853,-0.9707 -1.0747,-1.6987 -1.768,-2.184c-0.6933,-0.4853 -1.768,-0.728 -3.224,-0.728c-1.6293,0 -2.9293,0.3813 -3.9,1.144c-0.936,0.7627 -1.404,1.8547 -1.404,3.276zM86.1862,32.972c0,5.304 -1.768,9.2213 -5.304,11.752c-3.5013,2.5307 -8.1813,3.796 -14.04,3.796c-5.8587,0 -10.556,-1.2653 -14.092,-3.796c-3.5013,-2.5307 -5.252,-6.4827 -5.252,-11.856v-6.136c0,-3.536 0.832,-6.4653 2.496,-8.788c1.6987,-2.3573 4.004,-4.0907 6.916,-5.2c2.912,-1.1093 6.2227,-1.664 9.932,-1.664c3.7093,0 7.0027,0.5547 9.88,1.664c2.912,1.1093 5.2173,2.8253 6.916,5.148c1.6987,2.3227 2.548,5.2347 2.548,8.736zM61.5382,33.96c0,1.4213 0.468,2.5133 1.404,3.276c0.9707,0.7627 2.2707,1.144 3.9,1.144c1.6293,0 2.912,-0.3813 3.848,-1.144c0.9707,-0.7973 1.456,-1.9067 1.456,-3.328v-8.216c0,-1.4213 -0.4853,-2.5133 -1.456,-3.276c-0.936,-0.7973 -2.2187,-1.196 -3.848,-1.196c-1.6293,0 -2.9293,0.3813 -3.9,1.144c-0.936,0.7627 -1.404,1.8547 -1.404,3.276zM127.298,11.6c0.381,0 0.711,0.1387 0.988,0.416c0.277,0.2773 0.416,0.6067 0.416,0.988v33.592c0,0.3813 -0.139,0.7107 -0.416,0.988c-0.277,0.2773 -0.607,0.416 -0.988,0.416h-8.372c-0.832,0 -1.525,-0.364 -2.08,-1.092l-11.336,-14.456v14.144c0,0.3813 -0.139,0.7107 -0.416,0.988c-0.277,0.2773 -0.607,0.416 -0.988,0.416h-9.6721c-0.3814,0 -0.7107,-0.1387 -0.988,-0.416c-0.2774,-0.2773 -0.416,-0.6067 -0.416,-0.988v-33.592c0,-0.3813 0.1386,-0.7107 0.416,-0.988c0.2773,-0.2773 0.6066,-0.416 0.988,-0.416h8.4241c0.832,0 1.508,0.3467 2.028,1.04l11.336,15.652v-15.288c0,-0.3813 0.139,-0.7107 0.416,-0.988c0.277,-0.2773 0.607,-0.416 0.988,-0.416zM173.142,11.6c0.381,0 0.71,0.1387 0.988,0.416c0.277,0.2773 0.416,0.6067 0.416,0.988v8.372c0,0.3813 -0.139,0.7107 -0.416,0.988c-0.278,0.2773 -0.607,0.416 -0.988,0.416h-11.18v23.816c0,0.3813 -0.139,0.7107 -0.416,0.988c-0.278,0.2773 -0.607,0.416 -0.988,0.416h-10.712c-0.382,0 -0.711,-0.1387 -0.988,-0.416c-0.278,-0.2773 -0.416,-0.6067 -0.416,-0.988v-23.816h-11.18c-0.382,0 -0.711,-0.1387 -0.988,-0.416c-0.278,-0.2773 -0.416,-0.6067 -0.416,-0.988v-8.372c0,-0.3813 0.138,-0.7107 0.416,-0.988c0.277,-0.2773 0.606,-0.416 0.988,-0.416zM191.893,46.232c-0.45,1.1787 -1.23,1.768 -2.34,1.768h-9.828c-0.312,0 -0.589,-0.104 -0.832,-0.312c-0.208,-0.2427 -0.312,-0.52 -0.312,-0.832l0.052,-0.312l11.336,-33.228c0.139,-0.4507 0.399,-0.8493 0.78,-1.196c0.382,-0.3467 0.902,-0.52 1.56,-0.52h14.456c0.659,0 1.179,0.1733 1.56,0.52c0.382,0.3467 0.642,0.7453 0.78,1.196l11.336,33.228l0.052,0.312c0,0.312 -0.121,0.5893 -0.364,0.832c-0.208,0.208 -0.468,0.312 -0.78,0.312h-9.828c-1.109,0 -1.889,-0.5893 -2.34,-1.768l-1.3,-3.64h-12.688zM199.537,21.636l-3.692,10.816h7.384zM238.777,33.96c0,1.4213 0.468,2.5133 1.404,3.276c0.971,0.7627 2.271,1.144 3.9,1.144c1.456,0 2.531,-0.2427 3.224,-0.728c0.693,-0.4853 1.283,-1.2133 1.768,-2.184c0.451,-0.9013 1.057,-1.352 1.82,-1.352h11.232c0.312,0 0.572,0.1213 0.78,0.364c0.243,0.208 0.364,0.468 0.364,0.78c0,2.1147 -0.711,4.1947 -2.132,6.24c-1.421,2.0107 -3.588,3.692 -6.5,5.044c-2.877,1.3173 -6.396,1.976 -10.556,1.976c-3.709,0 -7.02,-0.5547 -9.932,-1.664c-2.877,-1.144 -5.165,-2.8773 -6.864,-5.2c-1.699,-2.3573 -2.548,-5.2867 -2.548,-8.788v-6.136c0,-3.5013 0.849,-6.4133 2.548,-8.736c1.699,-2.3573 3.987,-4.0907 6.864,-5.2c2.912,-1.144 6.223,-1.716 9.932,-1.716c4.16,0 7.679,0.676 10.556,2.028c2.912,1.3173 5.079,2.9987 6.5,5.044c1.421,2.0107 2.132,4.0733 2.132,6.188c0,0.312 -0.121,0.5893 -0.364,0.832c-0.208,0.208 -0.468,0.312 -0.78,0.312h-11.232c-0.763,0 -1.369,-0.4507 -1.82,-1.352c-0.485,-0.9707 -1.075,-1.6987 -1.768,-2.184c-0.693,-0.4853 -1.768,-0.728 -3.224,-0.728c-1.629,0 -2.929,0.3813 -3.9,1.144c-0.936,0.7627 -1.404,1.8547 -1.404,3.276zM305.681,11.6c0.381,0 0.71,0.1387 0.988,0.416c0.277,0.2773 0.416,0.6067 0.416,0.988v8.372c0,0.3813 -0.139,0.7107 -0.416,0.988c-0.278,0.2773 -0.607,0.416 -0.988,0.416h-11.18v23.816c0,0.3813 -0.139,0.7107 -0.416,0.988c-0.278,0.2773 -0.607,0.416 -0.988,0.416h-10.712c-0.382,0 -0.711,-0.1387 -0.988,-0.416c-0.278,-0.2773 -0.416,-0.6067 -0.416,-0.988v-23.816h-11.18c-0.382,0 -0.711,-0.1387 -0.988,-0.416c-0.278,-0.2773 -0.416,-0.6067 -0.416,-0.988v-8.372c0,-0.3813 0.138,-0.7107 0.416,-0.988c0.277,-0.2773 0.606,-0.416 0.988,-0.416zM323.912,25.432c0,-1.456 0.347,-2.7907 1.04,-4.004c0.728,-1.248 1.699,-2.2187 2.912,-2.912c1.248,-0.728 2.6,-1.092 4.056,-1.092c1.456,0 2.791,0.364 4.004,1.092c1.248,0.6933 2.219,1.664 2.912,2.912c0.728,1.2133 1.092,2.548 1.092,4.004c0,1.456 -0.364,2.808 -1.092,4.056c-0.693,1.2133 -1.664,2.184 -2.912,2.912c-1.213,0.6933 -2.548,1.04 -4.004,1.04c-1.456,0 -2.808,-0.3467 -4.056,-1.04c-1.213,-0.728 -2.184,-1.6987 -2.912,-2.912c-0.693,-1.248 -1.04,-2.6 -1.04,-4.056z" clip-rule="evenodd"></path></clipPath></defs><g style="mix-blend-mode:NORMAL"><g clip-path="url(#280136_stroke_clip_path)"><path id="280136_stroke_path" d="M17.8785,33.96c0,1.4213 0.468,2.5133 1.404,3.276c0.9707,0.7627 2.2707,1.144 3.9,1.144c1.456,0 2.5307,-0.2427 3.224,-0.728c0.6933,-0.4853 1.2827,-1.2133 1.768,-2.184c0.4507,-0.9013 1.0573,-1.352 1.82,-1.352h11.232c0.312,0 0.572,0.1213 0.78,0.364c0.2427,0.208 0.364,0.468 0.364,0.78c0,2.1147 -0.7107,4.1947 -2.132,6.24c-1.4213,2.0107 -3.588,3.692 -6.5,5.044c-2.8773,1.3173 -6.396,1.976 -10.556,1.976c-3.7093,0 -7.02,-0.5547 -9.932,-1.664c-2.8773,-1.144 -5.16533,-2.8773 -6.864,-5.2c-1.69867,-2.3573 -2.548,-5.2867 -2.548,-8.788v-6.136c0,-3.5013 0.84933,-6.4133 2.548,-8.736c1.69867,-2.3573 3.9867,-4.0907 6.864,-5.2c2.912,-1.144 6.2227,-1.716 9.932,-1.716c4.16,0 7.6787,0.676 10.556,2.028c2.912,1.3173 5.0787,2.9987 6.5,5.044c1.4213,2.0107 2.132,4.0733 2.132,6.188c0,0.312 -0.1213,0.5893 -0.364,0.832c-0.208,0.208 -0.468,0.312 -0.78,0.312h-11.232c-0.7627,0 -1.3693,-0.4507 -1.82,-1.352c-0.4853,-0.9707 -1.0747,-1.6987 -1.768,-2.184c-0.6933,-0.4853 -1.768,-0.728 -3.224,-0.728c-1.6293,0 -2.9293,0.3813 -3.9,1.144c-0.936,0.7627 -1.404,1.8547 -1.404,3.276z M86.1862,32.972c0,5.304 -1.768,9.2213 -5.304,11.752c-3.5013,2.5307 -8.1813,3.796 -14.04,3.796c-5.8587,0 -10.556,-1.2653 -14.092,-3.796c-3.5013,-2.5307 -5.252,-6.4827 -5.252,-11.856v-6.136c0,-3.536 0.832,-6.4653 2.496,-8.788c1.6987,-2.3573 4.004,-4.0907 6.916,-5.2c2.912,-1.1093 6.2227,-1.664 9.932,-1.664c3.7093,0 7.0027,0.5547 9.88,1.664c2.912,1.1093 5.2173,2.8253 6.916,5.148c1.6987,2.3227 2.548,5.2347 2.548,8.736z M61.5382,33.96c0,1.4213 0.468,2.5133 1.404,3.276c0.9707,0.7627 2.2707,1.144 3.9,1.144c1.6293,0 2.912,-0.3813 3.848,-1.144c0.9707,-0.7973 1.456,-1.9067 1.456,-3.328v-8.216c0,-1.4213 -0.4853,-2.5133 -1.456,-3.276c-0.936,-0.7973 -2.2187,-1.196 -3.848,-1.196c-1.6293,0 -2.9293,0.3813 -3.9,1.144c-0.936,0.7627 -1.404,1.8547 -1.404,3.276z M127.298,11.6c0.381,0 0.711,0.1387 0.988,0.416c0.277,0.2773 0.416,0.6067 0.416,0.988v33.592c0,0.3813 -0.139,0.7107 -0.416,0.988c-0.277,0.2773 -0.607,0.416 -0.988,0.416h-8.372c-0.832,0 -1.525,-0.364 -2.08,-1.092l-11.336,-14.456v14.144c0,0.3813 -0.139,0.7107 -0.416,0.988c-0.277,0.2773 -0.607,0.416 -0.988,0.416h-9.6721c-0.3814,0 -0.7107,-0.1387 -0.988,-0.416c-0.2774,-0.2773 -0.416,-0.6067 -0.416,-0.988v-33.592c0,-0.3813 0.1386,-0.7107 0.416,-0.988c0.2773,-0.2773 0.6066,-0.416 0.988,-0.416h8.4241c0.832,0 1.508,0.3467 2.028,1.04l11.336,15.652v-15.288c0,-0.3813 0.139,-0.7107 0.416,-0.988c0.277,-0.2773 0.607,-0.416 0.988,-0.416z M173.142,11.6c0.381,0 0.71,0.1387 0.988,0.416c0.277,0.2773 0.416,0.6067 0.416,0.988v8.372c0,0.3813 -0.139,0.7107 -0.416,0.988c-0.278,0.2773 -0.607,0.416 -0.988,0.416h-11.18v23.816c0,0.3813 -0.139,0.7107 -0.416,0.988c-0.278,0.2773 -0.607,0.416 -0.988,0.416h-10.712c-0.382,0 -0.711,-0.1387 -0.988,-0.416c-0.278,-0.2773 -0.416,-0.6067 -0.416,-0.988v-23.816h-11.18c-0.382,0 -0.711,-0.1387 -0.988,-0.416c-0.278,-0.2773 -0.416,-0.6067 -0.416,-0.988v-8.372c0,-0.3813 0.138,-0.7107 0.416,-0.988c0.277,-0.2773 0.606,-0.416 0.988,-0.416z M191.893,46.232c-0.45,1.1787 -1.23,1.768 -2.34,1.768h-9.828c-0.312,0 -0.589,-0.104 -0.832,-0.312c-0.208,-0.2427 -0.312,-0.52 -0.312,-0.832l0.052,-0.312l11.336,-33.228c0.139,-0.4507 0.399,-0.8493 0.78,-1.196c0.382,-0.3467 0.902,-0.52 1.56,-0.52h14.456c0.659,0 1.179,0.1733 1.56,0.52c0.382,0.3467 0.642,0.7453 0.78,1.196l11.336,33.228l0.052,0.312c0,0.312 -0.121,0.5893 -0.364,0.832c-0.208,0.208 -0.468,0.312 -0.78,0.312h-9.828c-1.109,0 -1.889,-0.5893 -2.34,-1.768l-1.3,-3.64h-12.688z M199.537,21.636l-3.692,10.816h7.384z M238.777,33.96c0,1.4213 0.468,2.5133 1.404,3.276c0.971,0.7627 2.271,1.144 3.9,1.144c1.456,0 2.531,-0.2427 3.224,-0.728c0.693,-0.4853 1.283,-1.2133 1.768,-2.184c0.451,-0.9013 1.057,-1.352 1.82,-1.352h11.232c0.312,0 0.572,0.1213 0.78,0.364c0.243,0.208 0.364,0.468 0.364,0.78c0,2.1147 -0.711,4.1947 -2.132,6.24c-1.421,2.0107 -3.588,3.692 -6.5,5.044c-2.877,1.3173 -6.396,1.976 -10.556,1.976c-3.709,0 -7.02,-0.5547 -9.932,-1.664c-2.877,-1.144 -5.165,-2.8773 -6.864,-5.2c-1.699,-2.3573 -2.548,-5.2867 -2.548,-8.788v-6.136c0,-3.5013 0.849,-6.4133 2.548,-8.736c1.699,-2.3573 3.987,-4.0907 6.864,-5.2c2.912,-1.144 6.223,-1.716 9.932,-1.716c4.16,0 7.679,0.676 10.556,2.028c2.912,1.3173 5.079,2.9987 6.5,5.044c1.421,2.0107 2.132,4.0733 2.132,6.188c0,0.312 -0.121,0.5893 -0.364,0.832c-0.208,0.208 -0.468,0.312 -0.78,0.312h-11.232c-0.763,0 -1.369,-0.4507 -1.82,-1.352c-0.485,-0.9707 -1.075,-1.6987 -1.768,-2.184c-0.693,-0.4853 -1.768,-0.728 -3.224,-0.728c-1.629,0 -2.929,0.3813 -3.9,1.144c-0.936,0.7627 -1.404,1.8547 -1.404,3.276z M305.681,11.6c0.381,0 0.71,0.1387 0.988,0.416c0.277,0.2773 0.416,0.6067 0.416,0.988v8.372c0,0.3813 -0.139,0.7107 -0.416,0.988c-0.278,0.2773 -0.607,0.416 -0.988,0.416h-11.18v23.816c0,0.3813 -0.139,0.7107 -0.416,0.988c-0.278,0.2773 -0.607,0.416 -0.988,0.416h-10.712c-0.382,0 -0.711,-0.1387 -0.988,-0.416c-0.278,-0.2773 -0.416,-0.6067 -0.416,-0.988v-23.816h-11.18c-0.382,0 -0.711,-0.1387 -0.988,-0.416c-0.278,-0.2773 -0.416,-0.6067 -0.416,-0.988v-8.372c0,-0.3813 0.138,-0.7107 0.416,-0.988c0.277,-0.2773 0.606,-0.416 0.988,-0.416z M323.912,25.432c0,-1.456 0.347,-2.7907 1.04,-4.004c0.728,-1.248 1.699,-2.2187 2.912,-2.912c1.248,-0.728 2.6,-1.092 4.056,-1.092c1.456,0 2.791,0.364 4.004,1.092c1.248,0.6933 2.219,1.664 2.912,2.912c0.728,1.2133 1.092,2.548 1.092,4.004c0,1.456 -0.364,2.808 -1.092,4.056c-0.693,1.2133 -1.664,2.184 -2.912,2.912c-1.213,0.6933 -2.548,1.04 -4.004,1.04c-1.456,0 -2.808,-0.3467 -4.056,-1.04c-1.213,-0.728 -2.184,-1.6987 -2.912,-2.912c-0.693,-1.248 -1.04,-2.6 -1.04,-4.056z" fill="none" stroke="rgb(255, 255, 255)" stroke-width="4" stroke-linecap="butt" stroke-linejoin="miter" stroke-dasharray="0 0" stroke-opacity="1"></path></g></g></g></g></g></g><g transform="matrix(1,0,0,1,0,0)"><g id="280133" opacity="1" style="mix-blend-mode:normal"><g><g><defs><clipPath id="280133_stroke_clip_path" clipPathUnits="userSpaceOnUse"><path d="M-2,-2 H356 V66 H-2 Z M17.8785,33.96c0,1.4213 0.468,2.5133 1.404,3.276c0.9707,0.7627 2.2707,1.144 3.9,1.144c1.456,0 2.5307,-0.2427 3.224,-0.728c0.6933,-0.4853 1.2827,-1.2133 1.768,-2.184c0.4507,-0.9013 1.0573,-1.352 1.82,-1.352h11.232c0.312,0 0.572,0.1213 0.78,0.364c0.2427,0.208 0.364,0.468 0.364,0.78c0,2.1147 -0.7107,4.1947 -2.132,6.24c-1.4213,2.0107 -3.588,3.692 -6.5,5.044c-2.8773,1.3173 -6.396,1.976 -10.556,1.976c-3.7093,0 -7.02,-0.5547 -9.932,-1.664c-2.8773,-1.144 -5.16533,-2.8773 -6.864,-5.2c-1.69867,-2.3573 -2.548,-5.2867 -2.548,-8.788v-6.136c0,-3.5013 0.84933,-6.4133 2.548,-8.736c1.69867,-2.3573 3.9867,-4.0907 6.864,-5.2c2.912,-1.144 6.2227,-1.716 9.932,-1.716c4.16,0 7.6787,0.676 10.556,2.028c2.912,1.3173 5.0787,2.9987 6.5,5.044c1.4213,2.0107 2.132,4.0733 2.132,6.188c0,0.312 -0.1213,0.5893 -0.364,0.832c-0.208,0.208 -0.468,0.312 -0.78,0.312h-11.232c-0.7627,0 -1.3693,-0.4507 -1.82,-1.352c-0.4853,-0.9707 -1.0747,-1.6987 -1.768,-2.184c-0.6933,-0.4853 -1.768,-0.728 -3.224,-0.728c-1.6293,0 -2.9293,0.3813 -3.9,1.144c-0.936,0.7627 -1.404,1.8547 -1.404,3.276zM86.1862,32.972c0,5.304 -1.768,9.2213 -5.304,11.752c-3.5013,2.5307 -8.1813,3.796 -14.04,3.796c-5.8587,0 -10.556,-1.2653 -14.092,-3.796c-3.5013,-2.5307 -5.252,-6.4827 -5.252,-11.856v-6.136c0,-3.536 0.832,-6.4653 2.496,-8.788c1.6987,-2.3573 4.004,-4.0907 6.916,-5.2c2.912,-1.1093 6.2227,-1.664 9.932,-1.664c3.7093,0 7.0027,0.5547 9.88,1.664c2.912,1.1093 5.2173,2.8253 6.916,5.148c1.6987,2.3227 2.548,5.2347 2.548,8.736zM61.5382,33.96c0,1.4213 0.468,2.5133 1.404,3.276c0.9707,0.7627 2.2707,1.144 3.9,1.144c1.6293,0 2.912,-0.3813 3.848,-1.144c0.9707,-0.7973 1.456,-1.9067 1.456,-3.328v-8.216c0,-1.4213 -0.4853,-2.5133 -1.456,-3.276c-0.936,-0.7973 -2.2187,-1.196 -3.848,-1.196c-1.6293,0 -2.9293,0.3813 -3.9,1.144c-0.936,0.7627 -1.404,1.8547 -1.404,3.276zM127.298,11.6c0.381,0 0.711,0.1387 0.988,0.416c0.277,0.2773 0.416,0.6067 0.416,0.988v33.592c0,0.3813 -0.139,0.7107 -0.416,0.988c-0.277,0.2773 -0.607,0.416 -0.988,0.416h-8.372c-0.832,0 -1.525,-0.364 -2.08,-1.092l-11.336,-14.456v14.144c0,0.3813 -0.139,0.7107 -0.416,0.988c-0.277,0.2773 -0.607,0.416 -0.988,0.416h-9.6721c-0.3814,0 -0.7107,-0.1387 -0.988,-0.416c-0.2774,-0.2773 -0.416,-0.6067 -0.416,-0.988v-33.592c0,-0.3813 0.1386,-0.7107 0.416,-0.988c0.2773,-0.2773 0.6066,-0.416 0.988,-0.416h8.4241c0.832,0 1.508,0.3467 2.028,1.04l11.336,15.652v-15.288c0,-0.3813 0.139,-0.7107 0.416,-0.988c0.277,-0.2773 0.607,-0.416 0.988,-0.416zM173.142,11.6c0.381,0 0.71,0.1387 0.988,0.416c0.277,0.2773 0.416,0.6067 0.416,0.988v8.372c0,0.3813 -0.139,0.7107 -0.416,0.988c-0.278,0.2773 -0.607,0.416 -0.988,0.416h-11.18v23.816c0,0.3813 -0.139,0.7107 -0.416,0.988c-0.278,0.2773 -0.607,0.416 -0.988,0.416h-10.712c-0.382,0 -0.711,-0.1387 -0.988,-0.416c-0.278,-0.2773 -0.416,-0.6067 -0.416,-0.988v-23.816h-11.18c-0.382,0 -0.711,-0.1387 -0.988,-0.416c-0.278,-0.2773 -0.416,-0.6067 -0.416,-0.988v-8.372c0,-0.3813 0.138,-0.7107 0.416,-0.988c0.277,-0.2773 0.606,-0.416 0.988,-0.416zM191.893,46.232c-0.45,1.1787 -1.23,1.768 -2.34,1.768h-9.828c-0.312,0 -0.589,-0.104 -0.832,-0.312c-0.208,-0.2427 -0.312,-0.52 -0.312,-0.832l0.052,-0.312l11.336,-33.228c0.139,-0.4507 0.399,-0.8493 0.78,-1.196c0.382,-0.3467 0.902,-0.52 1.56,-0.52h14.456c0.659,0 1.179,0.1733 1.56,0.52c0.382,0.3467 0.642,0.7453 0.78,1.196l11.336,33.228l0.052,0.312c0,0.312 -0.121,0.5893 -0.364,0.832c-0.208,0.208 -0.468,0.312 -0.78,0.312h-9.828c-1.109,0 -1.889,-0.5893 -2.34,-1.768l-1.3,-3.64h-12.688zM199.537,21.636l-3.692,10.816h7.384zM238.777,33.96c0,1.4213 0.468,2.5133 1.404,3.276c0.971,0.7627 2.271,1.144 3.9,1.144c1.456,0 2.531,-0.2427 3.224,-0.728c0.693,-0.4853 1.283,-1.2133 1.768,-2.184c0.451,-0.9013 1.057,-1.352 1.82,-1.352h11.232c0.312,0 0.572,0.1213 0.78,0.364c0.243,0.208 0.364,0.468 0.364,0.78c0,2.1147 -0.711,4.1947 -2.132,6.24c-1.421,2.0107 -3.588,3.692 -6.5,5.044c-2.877,1.3173 -6.396,1.976 -10.556,1.976c-3.709,0 -7.02,-0.5547 -9.932,-1.664c-2.877,-1.144 -5.165,-2.8773 -6.864,-5.2c-1.699,-2.3573 -2.548,-5.2867 -2.548,-8.788v-6.136c0,-3.5013 0.849,-6.4133 2.548,-8.736c1.699,-2.3573 3.987,-4.0907 6.864,-5.2c2.912,-1.144 6.223,-1.716 9.932,-1.716c4.16,0 7.679,0.676 10.556,2.028c2.912,1.3173 5.079,2.9987 6.5,5.044c1.421,2.0107 2.132,4.0733 2.132,6.188c0,0.312 -0.121,0.5893 -0.364,0.832c-0.208,0.208 -0.468,0.312 -0.78,0.312h-11.232c-0.763,0 -1.369,-0.4507 -1.82,-1.352c-0.485,-0.9707 -1.075,-1.6987 -1.768,-2.184c-0.693,-0.4853 -1.768,-0.728 -3.224,-0.728c-1.629,0 -2.929,0.3813 -3.9,1.144c-0.936,0.7627 -1.404,1.8547 -1.404,3.276zM305.681,11.6c0.381,0 0.71,0.1387 0.988,0.416c0.277,0.2773 0.416,0.6067 0.416,0.988v8.372c0,0.3813 -0.139,0.7107 -0.416,0.988c-0.278,0.2773 -0.607,0.416 -0.988,0.416h-11.18v23.816c0,0.3813 -0.139,0.7107 -0.416,0.988c-0.278,0.2773 -0.607,0.416 -0.988,0.416h-10.712c-0.382,0 -0.711,-0.1387 -0.988,-0.416c-0.278,-0.2773 -0.416,-0.6067 -0.416,-0.988v-23.816h-11.18c-0.382,0 -0.711,-0.1387 -0.988,-0.416c-0.278,-0.2773 -0.416,-0.6067 -0.416,-0.988v-8.372c0,-0.3813 0.138,-0.7107 0.416,-0.988c0.277,-0.2773 0.606,-0.416 0.988,-0.416zM323.912,25.432c0,-1.456 0.347,-2.7907 1.04,-4.004c0.728,-1.248 1.699,-2.2187 2.912,-2.912c1.248,-0.728 2.6,-1.092 4.056,-1.092c1.456,0 2.791,0.364 4.004,1.092c1.248,0.6933 2.219,1.664 2.912,2.912c0.728,1.2133 1.092,2.548 1.092,4.004c0,1.456 -0.364,2.808 -1.092,4.056c-0.693,1.2133 -1.664,2.184 -2.912,2.912c-1.213,0.6933 -2.548,1.04 -4.004,1.04c-1.456,0 -2.808,-0.3467 -4.056,-1.04c-1.213,-0.728 -2.184,-1.6987 -2.912,-2.912c-0.693,-1.248 -1.04,-2.6 -1.04,-4.056z" clip-rule="evenodd"></path></clipPath></defs><g style="mix-blend-mode:NORMAL"><g clip-path="url(#280133_stroke_clip_path)"><path id="280133_stroke_path" d="M17.8785,33.96c0,1.4213 0.468,2.5133 1.404,3.276c0.9707,0.7627 2.2707,1.144 3.9,1.144c1.456,0 2.5307,-0.2427 3.224,-0.728c0.6933,-0.4853 1.2827,-1.2133 1.768,-2.184c0.4507,-0.9013 1.0573,-1.352 1.82,-1.352h11.232c0.312,0 0.572,0.1213 0.78,0.364c0.2427,0.208 0.364,0.468 0.364,0.78c0,2.1147 -0.7107,4.1947 -2.132,6.24c-1.4213,2.0107 -3.588,3.692 -6.5,5.044c-2.8773,1.3173 -6.396,1.976 -10.556,1.976c-3.7093,0 -7.02,-0.5547 -9.932,-1.664c-2.8773,-1.144 -5.16533,-2.8773 -6.864,-5.2c-1.69867,-2.3573 -2.548,-5.2867 -2.548,-8.788v-6.136c0,-3.5013 0.84933,-6.4133 2.548,-8.736c1.69867,-2.3573 3.9867,-4.0907 6.864,-5.2c2.912,-1.144 6.2227,-1.716 9.932,-1.716c4.16,0 7.6787,0.676 10.556,2.028c2.912,1.3173 5.0787,2.9987 6.5,5.044c1.4213,2.0107 2.132,4.0733 2.132,6.188c0,0.312 -0.1213,0.5893 -0.364,0.832c-0.208,0.208 -0.468,0.312 -0.78,0.312h-11.232c-0.7627,0 -1.3693,-0.4507 -1.82,-1.352c-0.4853,-0.9707 -1.0747,-1.6987 -1.768,-2.184c-0.6933,-0.4853 -1.768,-0.728 -3.224,-0.728c-1.6293,0 -2.9293,0.3813 -3.9,1.144c-0.936,0.7627 -1.404,1.8547 -1.404,3.276z M86.1862,32.972c0,5.304 -1.768,9.2213 -5.304,11.752c-3.5013,2.5307 -8.1813,3.796 -14.04,3.796c-5.8587,0 -10.556,-1.2653 -14.092,-3.796c-3.5013,-2.5307 -5.252,-6.4827 -5.252,-11.856v-6.136c0,-3.536 0.832,-6.4653 2.496,-8.788c1.6987,-2.3573 4.004,-4.0907 6.916,-5.2c2.912,-1.1093 6.2227,-1.664 9.932,-1.664c3.7093,0 7.0027,0.5547 9.88,1.664c2.912,1.1093 5.2173,2.8253 6.916,5.148c1.6987,2.3227 2.548,5.2347 2.548,8.736z M61.5382,33.96c0,1.4213 0.468,2.5133 1.404,3.276c0.9707,0.7627 2.2707,1.144 3.9,1.144c1.6293,0 2.912,-0.3813 3.848,-1.144c0.9707,-0.7973 1.456,-1.9067 1.456,-3.328v-8.216c0,-1.4213 -0.4853,-2.5133 -1.456,-3.276c-0.936,-0.7973 -2.2187,-1.196 -3.848,-1.196c-1.6293,0 -2.9293,0.3813 -3.9,1.144c-0.936,0.7627 -1.404,1.8547 -1.404,3.276z M127.298,11.6c0.381,0 0.711,0.1387 0.988,0.416c0.277,0.2773 0.416,0.6067 0.416,0.988v33.592c0,0.3813 -0.139,0.7107 -0.416,0.988c-0.277,0.2773 -0.607,0.416 -0.988,0.416h-8.372c-0.832,0 -1.525,-0.364 -2.08,-1.092l-11.336,-14.456v14.144c0,0.3813 -0.139,0.7107 -0.416,0.988c-0.277,0.2773 -0.607,0.416 -0.988,0.416h-9.6721c-0.3814,0 -0.7107,-0.1387 -0.988,-0.416c-0.2774,-0.2773 -0.416,-0.6067 -0.416,-0.988v-33.592c0,-0.3813 0.1386,-0.7107 0.416,-0.988c0.2773,-0.2773 0.6066,-0.416 0.988,-0.416h8.4241c0.832,0 1.508,0.3467 2.028,1.04l11.336,15.652v-15.288c0,-0.3813 0.139,-0.7107 0.416,-0.988c0.277,-0.2773 0.607,-0.416 0.988,-0.416z M173.142,11.6c0.381,0 0.71,0.1387 0.988,0.416c0.277,0.2773 0.416,0.6067 0.416,0.988v8.372c0,0.3813 -0.139,0.7107 -0.416,0.988c-0.278,0.2773 -0.607,0.416 -0.988,0.416h-11.18v23.816c0,0.3813 -0.139,0.7107 -0.416,0.988c-0.278,0.2773 -0.607,0.416 -0.988,0.416h-10.712c-0.382,0 -0.711,-0.1387 -0.988,-0.416c-0.278,-0.2773 -0.416,-0.6067 -0.416,-0.988v-23.816h-11.18c-0.382,0 -0.711,-0.1387 -0.988,-0.416c-0.278,-0.2773 -0.416,-0.6067 -0.416,-0.988v-8.372c0,-0.3813 0.138,-0.7107 0.416,-0.988c0.277,-0.2773 0.606,-0.416 0.988,-0.416z M191.893,46.232c-0.45,1.1787 -1.23,1.768 -2.34,1.768h-9.828c-0.312,0 -0.589,-0.104 -0.832,-0.312c-0.208,-0.2427 -0.312,-0.52 -0.312,-0.832l0.052,-0.312l11.336,-33.228c0.139,-0.4507 0.399,-0.8493 0.78,-1.196c0.382,-0.3467 0.902,-0.52 1.56,-0.52h14.456c0.659,0 1.179,0.1733 1.56,0.52c0.382,0.3467 0.642,0.7453 0.78,1.196l11.336,33.228l0.052,0.312c0,0.312 -0.121,0.5893 -0.364,0.832c-0.208,0.208 -0.468,0.312 -0.78,0.312h-9.828c-1.109,0 -1.889,-0.5893 -2.34,-1.768l-1.3,-3.64h-12.688z M199.537,21.636l-3.692,10.816h7.384z M238.777,33.96c0,1.4213 0.468,2.5133 1.404,3.276c0.971,0.7627 2.271,1.144 3.9,1.144c1.456,0 2.531,-0.2427 3.224,-0.728c0.693,-0.4853 1.283,-1.2133 1.768,-2.184c0.451,-0.9013 1.057,-1.352 1.82,-1.352h11.232c0.312,0 0.572,0.1213 0.78,0.364c0.243,0.208 0.364,0.468 0.364,0.78c0,2.1147 -0.711,4.1947 -2.132,6.24c-1.421,2.0107 -3.588,3.692 -6.5,5.044c-2.877,1.3173 -6.396,1.976 -10.556,1.976c-3.709,0 -7.02,-0.5547 -9.932,-1.664c-2.877,-1.144 -5.165,-2.8773 -6.864,-5.2c-1.699,-2.3573 -2.548,-5.2867 -2.548,-8.788v-6.136c0,-3.5013 0.849,-6.4133 2.548,-8.736c1.699,-2.3573 3.987,-4.0907 6.864,-5.2c2.912,-1.144 6.223,-1.716 9.932,-1.716c4.16,0 7.679,0.676 10.556,2.028c2.912,1.3173 5.079,2.9987 6.5,5.044c1.421,2.0107 2.132,4.0733 2.132,6.188c0,0.312 -0.121,0.5893 -0.364,0.832c-0.208,0.208 -0.468,0.312 -0.78,0.312h-11.232c-0.763,0 -1.369,-0.4507 -1.82,-1.352c-0.485,-0.9707 -1.075,-1.6987 -1.768,-2.184c-0.693,-0.4853 -1.768,-0.728 -3.224,-0.728c-1.629,0 -2.929,0.3813 -3.9,1.144c-0.936,0.7627 -1.404,1.8547 -1.404,3.276z M305.681,11.6c0.381,0 0.71,0.1387 0.988,0.416c0.277,0.2773 0.416,0.6067 0.416,0.988v8.372c0,0.3813 -0.139,0.7107 -0.416,0.988c-0.278,0.2773 -0.607,0.416 -0.988,0.416h-11.18v23.816c0,0.3813 -0.139,0.7107 -0.416,0.988c-0.278,0.2773 -0.607,0.416 -0.988,0.416h-10.712c-0.382,0 -0.711,-0.1387 -0.988,-0.416c-0.278,-0.2773 -0.416,-0.6067 -0.416,-0.988v-23.816h-11.18c-0.382,0 -0.711,-0.1387 -0.988,-0.416c-0.278,-0.2773 -0.416,-0.6067 -0.416,-0.988v-8.372c0,-0.3813 0.138,-0.7107 0.416,-0.988c0.277,-0.2773 0.606,-0.416 0.988,-0.416z M323.912,25.432c0,-1.456 0.347,-2.7907 1.04,-4.004c0.728,-1.248 1.699,-2.2187 2.912,-2.912c1.248,-0.728 2.6,-1.092 4.056,-1.092c1.456,0 2.791,0.364 4.004,1.092c1.248,0.6933 2.219,1.664 2.912,2.912c0.728,1.2133 1.092,2.548 1.092,4.004c0,1.456 -0.364,2.808 -1.092,4.056c-0.693,1.2133 -1.664,2.184 -2.912,2.912c-1.213,0.6933 -2.548,1.04 -4.004,1.04c-1.456,0 -2.808,-0.3467 -4.056,-1.04c-1.213,-0.728 -2.184,-1.6987 -2.912,-2.912c-0.693,-1.248 -1.04,-2.6 -1.04,-4.056z" fill="none" stroke="rgb(255, 255, 255)" stroke-width="4" stroke-linecap="butt" stroke-linejoin="miter" stroke-dasharray="0 0" stroke-opacity="1"></path></g></g></g></g></g></g><g transform="matrix(1,0,0,1,708,0)"><g id="280135" opacity="1" style="mix-blend-mode:normal"><g><g><defs><clipPath id="280135_stroke_clip_path" clipPathUnits="userSpaceOnUse"><path d="M-2,-2 H356 V66 H-2 Z M17.8785,33.96c0,1.4213 0.468,2.5133 1.404,3.276c0.9707,0.7627 2.2707,1.144 3.9,1.144c1.456,0 2.5307,-0.2427 3.224,-0.728c0.6933,-0.4853 1.2827,-1.2133 1.768,-2.184c0.4507,-0.9013 1.0573,-1.352 1.82,-1.352h11.232c0.312,0 0.572,0.1213 0.78,0.364c0.2427,0.208 0.364,0.468 0.364,0.78c0,2.1147 -0.7107,4.1947 -2.132,6.24c-1.4213,2.0107 -3.588,3.692 -6.5,5.044c-2.8773,1.3173 -6.396,1.976 -10.556,1.976c-3.7093,0 -7.02,-0.5547 -9.932,-1.664c-2.8773,-1.144 -5.16533,-2.8773 -6.864,-5.2c-1.69867,-2.3573 -2.548,-5.2867 -2.548,-8.788v-6.136c0,-3.5013 0.84933,-6.4133 2.548,-8.736c1.69867,-2.3573 3.9867,-4.0907 6.864,-5.2c2.912,-1.144 6.2227,-1.716 9.932,-1.716c4.16,0 7.6787,0.676 10.556,2.028c2.912,1.3173 5.0787,2.9987 6.5,5.044c1.4213,2.0107 2.132,4.0733 2.132,6.188c0,0.312 -0.1213,0.5893 -0.364,0.832c-0.208,0.208 -0.468,0.312 -0.78,0.312h-11.232c-0.7627,0 -1.3693,-0.4507 -1.82,-1.352c-0.4853,-0.9707 -1.0747,-1.6987 -1.768,-2.184c-0.6933,-0.4853 -1.768,-0.728 -3.224,-0.728c-1.6293,0 -2.9293,0.3813 -3.9,1.144c-0.936,0.7627 -1.404,1.8547 -1.404,3.276zM86.1862,32.972c0,5.304 -1.768,9.2213 -5.304,11.752c-3.5013,2.5307 -8.1813,3.796 -14.04,3.796c-5.8587,0 -10.556,-1.2653 -14.092,-3.796c-3.5013,-2.5307 -5.252,-6.4827 -5.252,-11.856v-6.136c0,-3.536 0.832,-6.4653 2.496,-8.788c1.6987,-2.3573 4.004,-4.0907 6.916,-5.2c2.912,-1.1093 6.2227,-1.664 9.932,-1.664c3.7093,0 7.0027,0.5547 9.88,1.664c2.912,1.1093 5.2173,2.8253 6.916,5.148c1.6987,2.3227 2.548,5.2347 2.548,8.736zM61.5382,33.96c0,1.4213 0.468,2.5133 1.404,3.276c0.9707,0.7627 2.2707,1.144 3.9,1.144c1.6293,0 2.912,-0.3813 3.848,-1.144c0.9707,-0.7973 1.456,-1.9067 1.456,-3.328v-8.216c0,-1.4213 -0.4853,-2.5133 -1.456,-3.276c-0.936,-0.7973 -2.2187,-1.196 -3.848,-1.196c-1.6293,0 -2.9293,0.3813 -3.9,1.144c-0.936,0.7627 -1.404,1.8547 -1.404,3.276zM127.298,11.6c0.381,0 0.711,0.1387 0.988,0.416c0.277,0.2773 0.416,0.6067 0.416,0.988v33.592c0,0.3813 -0.139,0.7107 -0.416,0.988c-0.277,0.2773 -0.607,0.416 -0.988,0.416h-8.372c-0.832,0 -1.525,-0.364 -2.08,-1.092l-11.336,-14.456v14.144c0,0.3813 -0.139,0.7107 -0.416,0.988c-0.277,0.2773 -0.607,0.416 -0.988,0.416h-9.6721c-0.3814,0 -0.7107,-0.1387 -0.988,-0.416c-0.2774,-0.2773 -0.416,-0.6067 -0.416,-0.988v-33.592c0,-0.3813 0.1386,-0.7107 0.416,-0.988c0.2773,-0.2773 0.6066,-0.416 0.988,-0.416h8.4241c0.832,0 1.508,0.3467 2.028,1.04l11.336,15.652v-15.288c0,-0.3813 0.139,-0.7107 0.416,-0.988c0.277,-0.2773 0.607,-0.416 0.988,-0.416zM173.142,11.6c0.381,0 0.71,0.1387 0.988,0.416c0.277,0.2773 0.416,0.6067 0.416,0.988v8.372c0,0.3813 -0.139,0.7107 -0.416,0.988c-0.278,0.2773 -0.607,0.416 -0.988,0.416h-11.18v23.816c0,0.3813 -0.139,0.7107 -0.416,0.988c-0.278,0.2773 -0.607,0.416 -0.988,0.416h-10.712c-0.382,0 -0.711,-0.1387 -0.988,-0.416c-0.278,-0.2773 -0.416,-0.6067 -0.416,-0.988v-23.816h-11.18c-0.382,0 -0.711,-0.1387 -0.988,-0.416c-0.278,-0.2773 -0.416,-0.6067 -0.416,-0.988v-8.372c0,-0.3813 0.138,-0.7107 0.416,-0.988c0.277,-0.2773 0.606,-0.416 0.988,-0.416zM191.893,46.232c-0.45,1.1787 -1.23,1.768 -2.34,1.768h-9.828c-0.312,0 -0.589,-0.104 -0.832,-0.312c-0.208,-0.2427 -0.312,-0.52 -0.312,-0.832l0.052,-0.312l11.336,-33.228c0.139,-0.4507 0.399,-0.8493 0.78,-1.196c0.382,-0.3467 0.902,-0.52 1.56,-0.52h14.456c0.659,0 1.179,0.1733 1.56,0.52c0.382,0.3467 0.642,0.7453 0.78,1.196l11.336,33.228l0.052,0.312c0,0.312 -0.121,0.5893 -0.364,0.832c-0.208,0.208 -0.468,0.312 -0.78,0.312h-9.828c-1.109,0 -1.889,-0.5893 -2.34,-1.768l-1.3,-3.64h-12.688zM199.537,21.636l-3.692,10.816h7.384zM238.777,33.96c0,1.4213 0.468,2.5133 1.404,3.276c0.971,0.7627 2.271,1.144 3.9,1.144c1.456,0 2.531,-0.2427 3.224,-0.728c0.693,-0.4853 1.283,-1.2133 1.768,-2.184c0.451,-0.9013 1.057,-1.352 1.82,-1.352h11.232c0.312,0 0.572,0.1213 0.78,0.364c0.243,0.208 0.364,0.468 0.364,0.78c0,2.1147 -0.711,4.1947 -2.132,6.24c-1.421,2.0107 -3.588,3.692 -6.5,5.044c-2.877,1.3173 -6.396,1.976 -10.556,1.976c-3.709,0 -7.02,-0.5547 -9.932,-1.664c-2.877,-1.144 -5.165,-2.8773 -6.864,-5.2c-1.699,-2.3573 -2.548,-5.2867 -2.548,-8.788v-6.136c0,-3.5013 0.849,-6.4133 2.548,-8.736c1.699,-2.3573 3.987,-4.0907 6.864,-5.2c2.912,-1.144 6.223,-1.716 9.932,-1.716c4.16,0 7.679,0.676 10.556,2.028c2.912,1.3173 5.079,2.9987 6.5,5.044c1.421,2.0107 2.132,4.0733 2.132,6.188c0,0.312 -0.121,0.5893 -0.364,0.832c-0.208,0.208 -0.468,0.312 -0.78,0.312h-11.232c-0.763,0 -1.369,-0.4507 -1.82,-1.352c-0.485,-0.9707 -1.075,-1.6987 -1.768,-2.184c-0.693,-0.4853 -1.768,-0.728 -3.224,-0.728c-1.629,0 -2.929,0.3813 -3.9,1.144c-0.936,0.7627 -1.404,1.8547 -1.404,3.276zM305.681,11.6c0.381,0 0.71,0.1387 0.988,0.416c0.277,0.2773 0.416,0.6067 0.416,0.988v8.372c0,0.3813 -0.139,0.7107 -0.416,0.988c-0.278,0.2773 -0.607,0.416 -0.988,0.416h-11.18v23.816c0,0.3813 -0.139,0.7107 -0.416,0.988c-0.278,0.2773 -0.607,0.416 -0.988,0.416h-10.712c-0.382,0 -0.711,-0.1387 -0.988,-0.416c-0.278,-0.2773 -0.416,-0.6067 -0.416,-0.988v-23.816h-11.18c-0.382,0 -0.711,-0.1387 -0.988,-0.416c-0.278,-0.2773 -0.416,-0.6067 -0.416,-0.988v-8.372c0,-0.3813 0.138,-0.7107 0.416,-0.988c0.277,-0.2773 0.606,-0.416 0.988,-0.416zM323.912,25.432c0,-1.456 0.347,-2.7907 1.04,-4.004c0.728,-1.248 1.699,-2.2187 2.912,-2.912c1.248,-0.728 2.6,-1.092 4.056,-1.092c1.456,0 2.791,0.364 4.004,1.092c1.248,0.6933 2.219,1.664 2.912,2.912c0.728,1.2133 1.092,2.548 1.092,4.004c0,1.456 -0.364,2.808 -1.092,4.056c-0.693,1.2133 -1.664,2.184 -2.912,2.912c-1.213,0.6933 -2.548,1.04 -4.004,1.04c-1.456,0 -2.808,-0.3467 -4.056,-1.04c-1.213,-0.728 -2.184,-1.6987 -2.912,-2.912c-0.693,-1.248 -1.04,-2.6 -1.04,-4.056z" clip-rule="evenodd"></path></clipPath></defs><g style="mix-blend-mode:NORMAL"><g clip-path="url(#280135_stroke_clip_path)"><path id="280135_stroke_path" d="M17.8785,33.96c0,1.4213 0.468,2.5133 1.404,3.276c0.9707,0.7627 2.2707,1.144 3.9,1.144c1.456,0 2.5307,-0.2427 3.224,-0.728c0.6933,-0.4853 1.2827,-1.2133 1.768,-2.184c0.4507,-0.9013 1.0573,-1.352 1.82,-1.352h11.232c0.312,0 0.572,0.1213 0.78,0.364c0.2427,0.208 0.364,0.468 0.364,0.78c0,2.1147 -0.7107,4.1947 -2.132,6.24c-1.4213,2.0107 -3.588,3.692 -6.5,5.044c-2.8773,1.3173 -6.396,1.976 -10.556,1.976c-3.7093,0 -7.02,-0.5547 -9.932,-1.664c-2.8773,-1.144 -5.16533,-2.8773 -6.864,-5.2c-1.69867,-2.3573 -2.548,-5.2867 -2.548,-8.788v-6.136c0,-3.5013 0.84933,-6.4133 2.548,-8.736c1.69867,-2.3573 3.9867,-4.0907 6.864,-5.2c2.912,-1.144 6.2227,-1.716 9.932,-1.716c4.16,0 7.6787,0.676 10.556,2.028c2.912,1.3173 5.0787,2.9987 6.5,5.044c1.4213,2.0107 2.132,4.0733 2.132,6.188c0,0.312 -0.1213,0.5893 -0.364,0.832c-0.208,0.208 -0.468,0.312 -0.78,0.312h-11.232c-0.7627,0 -1.3693,-0.4507 -1.82,-1.352c-0.4853,-0.9707 -1.0747,-1.6987 -1.768,-2.184c-0.6933,-0.4853 -1.768,-0.728 -3.224,-0.728c-1.6293,0 -2.9293,0.3813 -3.9,1.144c-0.936,0.7627 -1.404,1.8547 -1.404,3.276z M86.1862,32.972c0,5.304 -1.768,9.2213 -5.304,11.752c-3.5013,2.5307 -8.1813,3.796 -14.04,3.796c-5.8587,0 -10.556,-1.2653 -14.092,-3.796c-3.5013,-2.5307 -5.252,-6.4827 -5.252,-11.856v-6.136c0,-3.536 0.832,-6.4653 2.496,-8.788c1.6987,-2.3573 4.004,-4.0907 6.916,-5.2c2.912,-1.1093 6.2227,-1.664 9.932,-1.664c3.7093,0 7.0027,0.5547 9.88,1.664c2.912,1.1093 5.2173,2.8253 6.916,5.148c1.6987,2.3227 2.548,5.2347 2.548,8.736z M61.5382,33.96c0,1.4213 0.468,2.5133 1.404,3.276c0.9707,0.7627 2.2707,1.144 3.9,1.144c1.6293,0 2.912,-0.3813 3.848,-1.144c0.9707,-0.7973 1.456,-1.9067 1.456,-3.328v-8.216c0,-1.4213 -0.4853,-2.5133 -1.456,-3.276c-0.936,-0.7973 -2.2187,-1.196 -3.848,-1.196c-1.6293,0 -2.9293,0.3813 -3.9,1.144c-0.936,0.7627 -1.404,1.8547 -1.404,3.276z M127.298,11.6c0.381,0 0.711,0.1387 0.988,0.416c0.277,0.2773 0.416,0.6067 0.416,0.988v33.592c0,0.3813 -0.139,0.7107 -0.416,0.988c-0.277,0.2773 -0.607,0.416 -0.988,0.416h-8.372c-0.832,0 -1.525,-0.364 -2.08,-1.092l-11.336,-14.456v14.144c0,0.3813 -0.139,0.7107 -0.416,0.988c-0.277,0.2773 -0.607,0.416 -0.988,0.416h-9.6721c-0.3814,0 -0.7107,-0.1387 -0.988,-0.416c-0.2774,-0.2773 -0.416,-0.6067 -0.416,-0.988v-33.592c0,-0.3813 0.1386,-0.7107 0.416,-0.988c0.2773,-0.2773 0.6066,-0.416 0.988,-0.416h8.4241c0.832,0 1.508,0.3467 2.028,1.04l11.336,15.652v-15.288c0,-0.3813 0.139,-0.7107 0.416,-0.988c0.277,-0.2773 0.607,-0.416 0.988,-0.416z M173.142,11.6c0.381,0 0.71,0.1387 0.988,0.416c0.277,0.2773 0.416,0.6067 0.416,0.988v8.372c0,0.3813 -0.139,0.7107 -0.416,0.988c-0.278,0.2773 -0.607,0.416 -0.988,0.416h-11.18v23.816c0,0.3813 -0.139,0.7107 -0.416,0.988c-0.278,0.2773 -0.607,0.416 -0.988,0.416h-10.712c-0.382,0 -0.711,-0.1387 -0.988,-0.416c-0.278,-0.2773 -0.416,-0.6067 -0.416,-0.988v-23.816h-11.18c-0.382,0 -0.711,-0.1387 -0.988,-0.416c-0.278,-0.2773 -0.416,-0.6067 -0.416,-0.988v-8.372c0,-0.3813 0.138,-0.7107 0.416,-0.988c0.277,-0.2773 0.606,-0.416 0.988,-0.416z M191.893,46.232c-0.45,1.1787 -1.23,1.768 -2.34,1.768h-9.828c-0.312,0 -0.589,-0.104 -0.832,-0.312c-0.208,-0.2427 -0.312,-0.52 -0.312,-0.832l0.052,-0.312l11.336,-33.228c0.139,-0.4507 0.399,-0.8493 0.78,-1.196c0.382,-0.3467 0.902,-0.52 1.56,-0.52h14.456c0.659,0 1.179,0.1733 1.56,0.52c0.382,0.3467 0.642,0.7453 0.78,1.196l11.336,33.228l0.052,0.312c0,0.312 -0.121,0.5893 -0.364,0.832c-0.208,0.208 -0.468,0.312 -0.78,0.312h-9.828c-1.109,0 -1.889,-0.5893 -2.34,-1.768l-1.3,-3.64h-12.688z M199.537,21.636l-3.692,10.816h7.384z M238.777,33.96c0,1.4213 0.468,2.5133 1.404,3.276c0.971,0.7627 2.271,1.144 3.9,1.144c1.456,0 2.531,-0.2427 3.224,-0.728c0.693,-0.4853 1.283,-1.2133 1.768,-2.184c0.451,-0.9013 1.057,-1.352 1.82,-1.352h11.232c0.312,0 0.572,0.1213 0.78,0.364c0.243,0.208 0.364,0.468 0.364,0.78c0,2.1147 -0.711,4.1947 -2.132,6.24c-1.421,2.0107 -3.588,3.692 -6.5,5.044c-2.877,1.3173 -6.396,1.976 -10.556,1.976c-3.709,0 -7.02,-0.5547 -9.932,-1.664c-2.877,-1.144 -5.165,-2.8773 -6.864,-5.2c-1.699,-2.3573 -2.548,-5.2867 -2.548,-8.788v-6.136c0,-3.5013 0.849,-6.4133 2.548,-8.736c1.699,-2.3573 3.987,-4.0907 6.864,-5.2c2.912,-1.144 6.223,-1.716 9.932,-1.716c4.16,0 7.679,0.676 10.556,2.028c2.912,1.3173 5.079,2.9987 6.5,5.044c1.421,2.0107 2.132,4.0733 2.132,6.188c0,0.312 -0.121,0.5893 -0.364,0.832c-0.208,0.208 -0.468,0.312 -0.78,0.312h-11.232c-0.763,0 -1.369,-0.4507 -1.82,-1.352c-0.485,-0.9707 -1.075,-1.6987 -1.768,-2.184c-0.693,-0.4853 -1.768,-0.728 -3.224,-0.728c-1.629,0 -2.929,0.3813 -3.9,1.144c-0.936,0.7627 -1.404,1.8547 -1.404,3.276z M305.681,11.6c0.381,0 0.71,0.1387 0.988,0.416c0.277,0.2773 0.416,0.6067 0.416,0.988v8.372c0,0.3813 -0.139,0.7107 -0.416,0.988c-0.278,0.2773 -0.607,0.416 -0.988,0.416h-11.18v23.816c0,0.3813 -0.139,0.7107 -0.416,0.988c-0.278,0.2773 -0.607,0.416 -0.988,0.416h-10.712c-0.382,0 -0.711,-0.1387 -0.988,-0.416c-0.278,-0.2773 -0.416,-0.6067 -0.416,-0.988v-23.816h-11.18c-0.382,0 -0.711,-0.1387 -0.988,-0.416c-0.278,-0.2773 -0.416,-0.6067 -0.416,-0.988v-8.372c0,-0.3813 0.138,-0.7107 0.416,-0.988c0.277,-0.2773 0.606,-0.416 0.988,-0.416z M323.912,25.432c0,-1.456 0.347,-2.7907 1.04,-4.004c0.728,-1.248 1.699,-2.2187 2.912,-2.912c1.248,-0.728 2.6,-1.092 4.056,-1.092c1.456,0 2.791,0.364 4.004,1.092c1.248,0.6933 2.219,1.664 2.912,2.912c0.728,1.2133 1.092,2.548 1.092,4.004c0,1.456 -0.364,2.808 -1.092,4.056c-0.693,1.2133 -1.664,2.184 -2.912,2.912c-1.213,0.6933 -2.548,1.04 -4.004,1.04c-1.456,0 -2.808,-0.3467 -4.056,-1.04c-1.213,-0.728 -2.184,-1.6987 -2.912,-2.912c-0.693,-1.248 -1.04,-2.6 -1.04,-4.056z" fill="none" stroke="rgb(255, 255, 255)" stroke-width="4" stroke-linecap="butt" stroke-linejoin="miter" stroke-dasharray="0 0" stroke-opacity="1"></path></g></g></g></g></g></g><g transform="matrix(1,0,0,1,1416,0)"><g id="280137" opacity="1" style="mix-blend-mode:normal"><g><g><defs><clipPath id="280137_stroke_clip_path" clipPathUnits="userSpaceOnUse"><path d="M-2,-2 H356 V66 H-2 Z M17.8785,33.96c0,1.4213 0.468,2.5133 1.404,3.276c0.9707,0.7627 2.2707,1.144 3.9,1.144c1.456,0 2.5307,-0.2427 3.224,-0.728c0.6933,-0.4853 1.2827,-1.2133 1.768,-2.184c0.4507,-0.9013 1.0573,-1.352 1.82,-1.352h11.232c0.312,0 0.572,0.1213 0.78,0.364c0.2427,0.208 0.364,0.468 0.364,0.78c0,2.1147 -0.7107,4.1947 -2.132,6.24c-1.4213,2.0107 -3.588,3.692 -6.5,5.044c-2.8773,1.3173 -6.396,1.976 -10.556,1.976c-3.7093,0 -7.02,-0.5547 -9.932,-1.664c-2.8773,-1.144 -5.16533,-2.8773 -6.864,-5.2c-1.69867,-2.3573 -2.548,-5.2867 -2.548,-8.788v-6.136c0,-3.5013 0.84933,-6.4133 2.548,-8.736c1.69867,-2.3573 3.9867,-4.0907 6.864,-5.2c2.912,-1.144 6.2227,-1.716 9.932,-1.716c4.16,0 7.6787,0.676 10.556,2.028c2.912,1.3173 5.0787,2.9987 6.5,5.044c1.4213,2.0107 2.132,4.0733 2.132,6.188c0,0.312 -0.1213,0.5893 -0.364,0.832c-0.208,0.208 -0.468,0.312 -0.78,0.312h-11.232c-0.7627,0 -1.3693,-0.4507 -1.82,-1.352c-0.4853,-0.9707 -1.0747,-1.6987 -1.768,-2.184c-0.6933,-0.4853 -1.768,-0.728 -3.224,-0.728c-1.6293,0 -2.9293,0.3813 -3.9,1.144c-0.936,0.7627 -1.404,1.8547 -1.404,3.276zM86.1862,32.972c0,5.304 -1.768,9.2213 -5.304,11.752c-3.5013,2.5307 -8.1813,3.796 -14.04,3.796c-5.8587,0 -10.556,-1.2653 -14.092,-3.796c-3.5013,-2.5307 -5.252,-6.4827 -5.252,-11.856v-6.136c0,-3.536 0.832,-6.4653 2.496,-8.788c1.6987,-2.3573 4.004,-4.0907 6.916,-5.2c2.912,-1.1093 6.2227,-1.664 9.932,-1.664c3.7093,0 7.0027,0.5547 9.88,1.664c2.912,1.1093 5.2173,2.8253 6.916,5.148c1.6987,2.3227 2.548,5.2347 2.548,8.736zM61.5382,33.96c0,1.4213 0.468,2.5133 1.404,3.276c0.9707,0.7627 2.2707,1.144 3.9,1.144c1.6293,0 2.912,-0.3813 3.848,-1.144c0.9707,-0.7973 1.456,-1.9067 1.456,-3.328v-8.216c0,-1.4213 -0.4853,-2.5133 -1.456,-3.276c-0.936,-0.7973 -2.2187,-1.196 -3.848,-1.196c-1.6293,0 -2.9293,0.3813 -3.9,1.144c-0.936,0.7627 -1.404,1.8547 -1.404,3.276zM127.298,11.6c0.381,0 0.711,0.1387 0.988,0.416c0.277,0.2773 0.416,0.6067 0.416,0.988v33.592c0,0.3813 -0.139,0.7107 -0.416,0.988c-0.277,0.2773 -0.607,0.416 -0.988,0.416h-8.372c-0.832,0 -1.525,-0.364 -2.08,-1.092l-11.336,-14.456v14.144c0,0.3813 -0.139,0.7107 -0.416,0.988c-0.277,0.2773 -0.607,0.416 -0.988,0.416h-9.6721c-0.3814,0 -0.7107,-0.1387 -0.988,-0.416c-0.2774,-0.2773 -0.416,-0.6067 -0.416,-0.988v-33.592c0,-0.3813 0.1386,-0.7107 0.416,-0.988c0.2773,-0.2773 0.6066,-0.416 0.988,-0.416h8.4241c0.832,0 1.508,0.3467 2.028,1.04l11.336,15.652v-15.288c0,-0.3813 0.139,-0.7107 0.416,-0.988c0.277,-0.2773 0.607,-0.416 0.988,-0.416zM173.142,11.6c0.381,0 0.71,0.1387 0.988,0.416c0.277,0.2773 0.416,0.6067 0.416,0.988v8.372c0,0.3813 -0.139,0.7107 -0.416,0.988c-0.278,0.2773 -0.607,0.416 -0.988,0.416h-11.18v23.816c0,0.3813 -0.139,0.7107 -0.416,0.988c-0.278,0.2773 -0.607,0.416 -0.988,0.416h-10.712c-0.382,0 -0.711,-0.1387 -0.988,-0.416c-0.278,-0.2773 -0.416,-0.6067 -0.416,-0.988v-23.816h-11.18c-0.382,0 -0.711,-0.1387 -0.988,-0.416c-0.278,-0.2773 -0.416,-0.6067 -0.416,-0.988v-8.372c0,-0.3813 0.138,-0.7107 0.416,-0.988c0.277,-0.2773 0.606,-0.416 0.988,-0.416zM191.893,46.232c-0.45,1.1787 -1.23,1.768 -2.34,1.768h-9.828c-0.312,0 -0.589,-0.104 -0.832,-0.312c-0.208,-0.2427 -0.312,-0.52 -0.312,-0.832l0.052,-0.312l11.336,-33.228c0.139,-0.4507 0.399,-0.8493 0.78,-1.196c0.382,-0.3467 0.902,-0.52 1.56,-0.52h14.456c0.659,0 1.179,0.1733 1.56,0.52c0.382,0.3467 0.642,0.7453 0.78,1.196l11.336,33.228l0.052,0.312c0,0.312 -0.121,0.5893 -0.364,0.832c-0.208,0.208 -0.468,0.312 -0.78,0.312h-9.828c-1.109,0 -1.889,-0.5893 -2.34,-1.768l-1.3,-3.64h-12.688zM199.537,21.636l-3.692,10.816h7.384zM238.777,33.96c0,1.4213 0.468,2.5133 1.404,3.276c0.971,0.7627 2.271,1.144 3.9,1.144c1.456,0 2.531,-0.2427 3.224,-0.728c0.693,-0.4853 1.283,-1.2133 1.768,-2.184c0.451,-0.9013 1.057,-1.352 1.82,-1.352h11.232c0.312,0 0.572,0.1213 0.78,0.364c0.243,0.208 0.364,0.468 0.364,0.78c0,2.1147 -0.711,4.1947 -2.132,6.24c-1.421,2.0107 -3.588,3.692 -6.5,5.044c-2.877,1.3173 -6.396,1.976 -10.556,1.976c-3.709,0 -7.02,-0.5547 -9.932,-1.664c-2.877,-1.144 -5.165,-2.8773 -6.864,-5.2c-1.699,-2.3573 -2.548,-5.2867 -2.548,-8.788v-6.136c0,-3.5013 0.849,-6.4133 2.548,-8.736c1.699,-2.3573 3.987,-4.0907 6.864,-5.2c2.912,-1.144 6.223,-1.716 9.932,-1.716c4.16,0 7.679,0.676 10.556,2.028c2.912,1.3173 5.079,2.9987 6.5,5.044c1.421,2.0107 2.132,4.0733 2.132,6.188c0,0.312 -0.121,0.5893 -0.364,0.832c-0.208,0.208 -0.468,0.312 -0.78,0.312h-11.232c-0.763,0 -1.369,-0.4507 -1.82,-1.352c-0.485,-0.9707 -1.075,-1.6987 -1.768,-2.184c-0.693,-0.4853 -1.768,-0.728 -3.224,-0.728c-1.629,0 -2.929,0.3813 -3.9,1.144c-0.936,0.7627 -1.404,1.8547 -1.404,3.276zM305.681,11.6c0.381,0 0.71,0.1387 0.988,0.416c0.277,0.2773 0.416,0.6067 0.416,0.988v8.372c0,0.3813 -0.139,0.7107 -0.416,0.988c-0.278,0.2773 -0.607,0.416 -0.988,0.416h-11.18v23.816c0,0.3813 -0.139,0.7107 -0.416,0.988c-0.278,0.2773 -0.607,0.416 -0.988,0.416h-10.712c-0.382,0 -0.711,-0.1387 -0.988,-0.416c-0.278,-0.2773 -0.416,-0.6067 -0.416,-0.988v-23.816h-11.18c-0.382,0 -0.711,-0.1387 -0.988,-0.416c-0.278,-0.2773 -0.416,-0.6067 -0.416,-0.988v-8.372c0,-0.3813 0.138,-0.7107 0.416,-0.988c0.277,-0.2773 0.606,-0.416 0.988,-0.416zM323.912,25.432c0,-1.456 0.347,-2.7907 1.04,-4.004c0.728,-1.248 1.699,-2.2187 2.912,-2.912c1.248,-0.728 2.6,-1.092 4.056,-1.092c1.456,0 2.791,0.364 4.004,1.092c1.248,0.6933 2.219,1.664 2.912,2.912c0.728,1.2133 1.092,2.548 1.092,4.004c0,1.456 -0.364,2.808 -1.092,4.056c-0.693,1.2133 -1.664,2.184 -2.912,2.912c-1.213,0.6933 -2.548,1.04 -4.004,1.04c-1.456,0 -2.808,-0.3467 -4.056,-1.04c-1.213,-0.728 -2.184,-1.6987 -2.912,-2.912c-0.693,-1.248 -1.04,-2.6 -1.04,-4.056z" clip-rule="evenodd"></path></clipPath></defs><g style="mix-blend-mode:NORMAL"><g clip-path="url(#280137_stroke_clip_path)"><path id="280137_stroke_path" d="M17.8785,33.96c0,1.4213 0.468,2.5133 1.404,3.276c0.9707,0.7627 2.2707,1.144 3.9,1.144c1.456,0 2.5307,-0.2427 3.224,-0.728c0.6933,-0.4853 1.2827,-1.2133 1.768,-2.184c0.4507,-0.9013 1.0573,-1.352 1.82,-1.352h11.232c0.312,0 0.572,0.1213 0.78,0.364c0.2427,0.208 0.364,0.468 0.364,0.78c0,2.1147 -0.7107,4.1947 -2.132,6.24c-1.4213,2.0107 -3.588,3.692 -6.5,5.044c-2.8773,1.3173 -6.396,1.976 -10.556,1.976c-3.7093,0 -7.02,-0.5547 -9.932,-1.664c-2.8773,-1.144 -5.16533,-2.8773 -6.864,-5.2c-1.69867,-2.3573 -2.548,-5.2867 -2.548,-8.788v-6.136c0,-3.5013 0.84933,-6.4133 2.548,-8.736c1.69867,-2.3573 3.9867,-4.0907 6.864,-5.2c2.912,-1.144 6.2227,-1.716 9.932,-1.716c4.16,0 7.6787,0.676 10.556,2.028c2.912,1.3173 5.0787,2.9987 6.5,5.044c1.4213,2.0107 2.132,4.0733 2.132,6.188c0,0.312 -0.1213,0.5893 -0.364,0.832c-0.208,0.208 -0.468,0.312 -0.78,0.312h-11.232c-0.7627,0 -1.3693,-0.4507 -1.82,-1.352c-0.4853,-0.9707 -1.0747,-1.6987 -1.768,-2.184c-0.6933,-0.4853 -1.768,-0.728 -3.224,-0.728c-1.6293,0 -2.9293,0.3813 -3.9,1.144c-0.936,0.7627 -1.404,1.8547 -1.404,3.276z M86.1862,32.972c0,5.304 -1.768,9.2213 -5.304,11.752c-3.5013,2.5307 -8.1813,3.796 -14.04,3.796c-5.8587,0 -10.556,-1.2653 -14.092,-3.796c-3.5013,-2.5307 -5.252,-6.4827 -5.252,-11.856v-6.136c0,-3.536 0.832,-6.4653 2.496,-8.788c1.6987,-2.3573 4.004,-4.0907 6.916,-5.2c2.912,-1.1093 6.2227,-1.664 9.932,-1.664c3.7093,0 7.0027,0.5547 9.88,1.664c2.912,1.1093 5.2173,2.8253 6.916,5.148c1.6987,2.3227 2.548,5.2347 2.548,8.736z M61.5382,33.96c0,1.4213 0.468,2.5133 1.404,3.276c0.9707,0.7627 2.2707,1.144 3.9,1.144c1.6293,0 2.912,-0.3813 3.848,-1.144c0.9707,-0.7973 1.456,-1.9067 1.456,-3.328v-8.216c0,-1.4213 -0.4853,-2.5133 -1.456,-3.276c-0.936,-0.7973 -2.2187,-1.196 -3.848,-1.196c-1.6293,0 -2.9293,0.3813 -3.9,1.144c-0.936,0.7627 -1.404,1.8547 -1.404,3.276z M127.298,11.6c0.381,0 0.711,0.1387 0.988,0.416c0.277,0.2773 0.416,0.6067 0.416,0.988v33.592c0,0.3813 -0.139,0.7107 -0.416,0.988c-0.277,0.2773 -0.607,0.416 -0.988,0.416h-8.372c-0.832,0 -1.525,-0.364 -2.08,-1.092l-11.336,-14.456v14.144c0,0.3813 -0.139,0.7107 -0.416,0.988c-0.277,0.2773 -0.607,0.416 -0.988,0.416h-9.6721c-0.3814,0 -0.7107,-0.1387 -0.988,-0.416c-0.2774,-0.2773 -0.416,-0.6067 -0.416,-0.988v-33.592c0,-0.3813 0.1386,-0.7107 0.416,-0.988c0.2773,-0.2773 0.6066,-0.416 0.988,-0.416h8.4241c0.832,0 1.508,0.3467 2.028,1.04l11.336,15.652v-15.288c0,-0.3813 0.139,-0.7107 0.416,-0.988c0.277,-0.2773 0.607,-0.416 0.988,-0.416z M173.142,11.6c0.381,0 0.71,0.1387 0.988,0.416c0.277,0.2773 0.416,0.6067 0.416,0.988v8.372c0,0.3813 -0.139,0.7107 -0.416,0.988c-0.278,0.2773 -0.607,0.416 -0.988,0.416h-11.18v23.816c0,0.3813 -0.139,0.7107 -0.416,0.988c-0.278,0.2773 -0.607,0.416 -0.988,0.416h-10.712c-0.382,0 -0.711,-0.1387 -0.988,-0.416c-0.278,-0.2773 -0.416,-0.6067 -0.416,-0.988v-23.816h-11.18c-0.382,0 -0.711,-0.1387 -0.988,-0.416c-0.278,-0.2773 -0.416,-0.6067 -0.416,-0.988v-8.372c0,-0.3813 0.138,-0.7107 0.416,-0.988c0.277,-0.2773 0.606,-0.416 0.988,-0.416z M191.893,46.232c-0.45,1.1787 -1.23,1.768 -2.34,1.768h-9.828c-0.312,0 -0.589,-0.104 -0.832,-0.312c-0.208,-0.2427 -0.312,-0.52 -0.312,-0.832l0.052,-0.312l11.336,-33.228c0.139,-0.4507 0.399,-0.8493 0.78,-1.196c0.382,-0.3467 0.902,-0.52 1.56,-0.52h14.456c0.659,0 1.179,0.1733 1.56,0.52c0.382,0.3467 0.642,0.7453 0.78,1.196l11.336,33.228l0.052,0.312c0,0.312 -0.121,0.5893 -0.364,0.832c-0.208,0.208 -0.468,0.312 -0.78,0.312h-9.828c-1.109,0 -1.889,-0.5893 -2.34,-1.768l-1.3,-3.64h-12.688z M199.537,21.636l-3.692,10.816h7.384z M238.777,33.96c0,1.4213 0.468,2.5133 1.404,3.276c0.971,0.7627 2.271,1.144 3.9,1.144c1.456,0 2.531,-0.2427 3.224,-0.728c0.693,-0.4853 1.283,-1.2133 1.768,-2.184c0.451,-0.9013 1.057,-1.352 1.82,-1.352h11.232c0.312,0 0.572,0.1213 0.78,0.364c0.243,0.208 0.364,0.468 0.364,0.78c0,2.1147 -0.711,4.1947 -2.132,6.24c-1.421,2.0107 -3.588,3.692 -6.5,5.044c-2.877,1.3173 -6.396,1.976 -10.556,1.976c-3.709,0 -7.02,-0.5547 -9.932,-1.664c-2.877,-1.144 -5.165,-2.8773 -6.864,-5.2c-1.699,-2.3573 -2.548,-5.2867 -2.548,-8.788v-6.136c0,-3.5013 0.849,-6.4133 2.548,-8.736c1.699,-2.3573 3.987,-4.0907 6.864,-5.2c2.912,-1.144 6.223,-1.716 9.932,-1.716c4.16,0 7.679,0.676 10.556,2.028c2.912,1.3173 5.079,2.9987 6.5,5.044c1.421,2.0107 2.132,4.0733 2.132,6.188c0,0.312 -0.121,0.5893 -0.364,0.832c-0.208,0.208 -0.468,0.312 -0.78,0.312h-11.232c-0.763,0 -1.369,-0.4507 -1.82,-1.352c-0.485,-0.9707 -1.075,-1.6987 -1.768,-2.184c-0.693,-0.4853 -1.768,-0.728 -3.224,-0.728c-1.629,0 -2.929,0.3813 -3.9,1.144c-0.936,0.7627 -1.404,1.8547 -1.404,3.276z M305.681,11.6c0.381,0 0.71,0.1387 0.988,0.416c0.277,0.2773 0.416,0.6067 0.416,0.988v8.372c0,0.3813 -0.139,0.7107 -0.416,0.988c-0.278,0.2773 -0.607,0.416 -0.988,0.416h-11.18v23.816c0,0.3813 -0.139,0.7107 -0.416,0.988c-0.278,0.2773 -0.607,0.416 -0.988,0.416h-10.712c-0.382,0 -0.711,-0.1387 -0.988,-0.416c-0.278,-0.2773 -0.416,-0.6067 -0.416,-0.988v-23.816h-11.18c-0.382,0 -0.711,-0.1387 -0.988,-0.416c-0.278,-0.2773 -0.416,-0.6067 -0.416,-0.988v-8.372c0,-0.3813 0.138,-0.7107 0.416,-0.988c0.277,-0.2773 0.606,-0.416 0.988,-0.416z M323.912,25.432c0,-1.456 0.347,-2.7907 1.04,-4.004c0.728,-1.248 1.699,-2.2187 2.912,-2.912c1.248,-0.728 2.6,-1.092 4.056,-1.092c1.456,0 2.791,0.364 4.004,1.092c1.248,0.6933 2.219,1.664 2.912,2.912c0.728,1.2133 1.092,2.548 1.092,4.004c0,1.456 -0.364,2.808 -1.092,4.056c-0.693,1.2133 -1.664,2.184 -2.912,2.912c-1.213,0.6933 -2.548,1.04 -4.004,1.04c-1.456,0 -2.808,-0.3467 -4.056,-1.04c-1.213,-0.728 -2.184,-1.6987 -2.912,-2.912c-0.693,-1.248 -1.04,-2.6 -1.04,-4.056z" fill="none" stroke="rgb(255, 255, 255)" stroke-width="4" stroke-linecap="butt" stroke-linejoin="miter" stroke-dasharray="0 0" stroke-opacity="1"></path></g></g></g></g></g></g><g transform="matrix(1,0,0,1,2124,0)"><g id="280139" opacity="1" style="mix-blend-mode:normal"><g><g><defs><clipPath id="280139_stroke_clip_path" clipPathUnits="userSpaceOnUse"><path d="M-2,-2 H356 V66 H-2 Z M17.8785,33.96c0,1.4213 0.468,2.5133 1.404,3.276c0.9707,0.7627 2.2707,1.144 3.9,1.144c1.456,0 2.5307,-0.2427 3.224,-0.728c0.6933,-0.4853 1.2827,-1.2133 1.768,-2.184c0.4507,-0.9013 1.0573,-1.352 1.82,-1.352h11.232c0.312,0 0.572,0.1213 0.78,0.364c0.2427,0.208 0.364,0.468 0.364,0.78c0,2.1147 -0.7107,4.1947 -2.132,6.24c-1.4213,2.0107 -3.588,3.692 -6.5,5.044c-2.8773,1.3173 -6.396,1.976 -10.556,1.976c-3.7093,0 -7.02,-0.5547 -9.932,-1.664c-2.8773,-1.144 -5.16533,-2.8773 -6.864,-5.2c-1.69867,-2.3573 -2.548,-5.2867 -2.548,-8.788v-6.136c0,-3.5013 0.84933,-6.4133 2.548,-8.736c1.69867,-2.3573 3.9867,-4.0907 6.864,-5.2c2.912,-1.144 6.2227,-1.716 9.932,-1.716c4.16,0 7.6787,0.676 10.556,2.028c2.912,1.3173 5.0787,2.9987 6.5,5.044c1.4213,2.0107 2.132,4.0733 2.132,6.188c0,0.312 -0.1213,0.5893 -0.364,0.832c-0.208,0.208 -0.468,0.312 -0.78,0.312h-11.232c-0.7627,0 -1.3693,-0.4507 -1.82,-1.352c-0.4853,-0.9707 -1.0747,-1.6987 -1.768,-2.184c-0.6933,-0.4853 -1.768,-0.728 -3.224,-0.728c-1.6293,0 -2.9293,0.3813 -3.9,1.144c-0.936,0.7627 -1.404,1.8547 -1.404,3.276zM86.1862,32.972c0,5.304 -1.768,9.2213 -5.304,11.752c-3.5013,2.5307 -8.1813,3.796 -14.04,3.796c-5.8587,0 -10.556,-1.2653 -14.092,-3.796c-3.5013,-2.5307 -5.252,-6.4827 -5.252,-11.856v-6.136c0,-3.536 0.832,-6.4653 2.496,-8.788c1.6987,-2.3573 4.004,-4.0907 6.916,-5.2c2.912,-1.1093 6.2227,-1.664 9.932,-1.664c3.7093,0 7.0027,0.5547 9.88,1.664c2.912,1.1093 5.2173,2.8253 6.916,5.148c1.6987,2.3227 2.548,5.2347 2.548,8.736zM61.5382,33.96c0,1.4213 0.468,2.5133 1.404,3.276c0.9707,0.7627 2.2707,1.144 3.9,1.144c1.6293,0 2.912,-0.3813 3.848,-1.144c0.9707,-0.7973 1.456,-1.9067 1.456,-3.328v-8.216c0,-1.4213 -0.4853,-2.5133 -1.456,-3.276c-0.936,-0.7973 -2.2187,-1.196 -3.848,-1.196c-1.6293,0 -2.9293,0.3813 -3.9,1.144c-0.936,0.7627 -1.404,1.8547 -1.404,3.276zM127.298,11.6c0.381,0 0.711,0.1387 0.988,0.416c0.277,0.2773 0.416,0.6067 0.416,0.988v33.592c0,0.3813 -0.139,0.7107 -0.416,0.988c-0.277,0.2773 -0.607,0.416 -0.988,0.416h-8.372c-0.832,0 -1.525,-0.364 -2.08,-1.092l-11.336,-14.456v14.144c0,0.3813 -0.139,0.7107 -0.416,0.988c-0.277,0.2773 -0.607,0.416 -0.988,0.416h-9.6721c-0.3814,0 -0.7107,-0.1387 -0.988,-0.416c-0.2774,-0.2773 -0.416,-0.6067 -0.416,-0.988v-33.592c0,-0.3813 0.1386,-0.7107 0.416,-0.988c0.2773,-0.2773 0.6066,-0.416 0.988,-0.416h8.4241c0.832,0 1.508,0.3467 2.028,1.04l11.336,15.652v-15.288c0,-0.3813 0.139,-0.7107 0.416,-0.988c0.277,-0.2773 0.607,-0.416 0.988,-0.416zM173.142,11.6c0.381,0 0.71,0.1387 0.988,0.416c0.277,0.2773 0.416,0.6067 0.416,0.988v8.372c0,0.3813 -0.139,0.7107 -0.416,0.988c-0.278,0.2773 -0.607,0.416 -0.988,0.416h-11.18v23.816c0,0.3813 -0.139,0.7107 -0.416,0.988c-0.278,0.2773 -0.607,0.416 -0.988,0.416h-10.712c-0.382,0 -0.711,-0.1387 -0.988,-0.416c-0.278,-0.2773 -0.416,-0.6067 -0.416,-0.988v-23.816h-11.18c-0.382,0 -0.711,-0.1387 -0.988,-0.416c-0.278,-0.2773 -0.416,-0.6067 -0.416,-0.988v-8.372c0,-0.3813 0.138,-0.7107 0.416,-0.988c0.277,-0.2773 0.606,-0.416 0.988,-0.416zM191.893,46.232c-0.45,1.1787 -1.23,1.768 -2.34,1.768h-9.828c-0.312,0 -0.589,-0.104 -0.832,-0.312c-0.208,-0.2427 -0.312,-0.52 -0.312,-0.832l0.052,-0.312l11.336,-33.228c0.139,-0.4507 0.399,-0.8493 0.78,-1.196c0.382,-0.3467 0.902,-0.52 1.56,-0.52h14.456c0.659,0 1.179,0.1733 1.56,0.52c0.382,0.3467 0.642,0.7453 0.78,1.196l11.336,33.228l0.052,0.312c0,0.312 -0.121,0.5893 -0.364,0.832c-0.208,0.208 -0.468,0.312 -0.78,0.312h-9.828c-1.109,0 -1.889,-0.5893 -2.34,-1.768l-1.3,-3.64h-12.688zM199.537,21.636l-3.692,10.816h7.384zM238.777,33.96c0,1.4213 0.468,2.5133 1.404,3.276c0.971,0.7627 2.271,1.144 3.9,1.144c1.456,0 2.531,-0.2427 3.224,-0.728c0.693,-0.4853 1.283,-1.2133 1.768,-2.184c0.451,-0.9013 1.057,-1.352 1.82,-1.352h11.232c0.312,0 0.572,0.1213 0.78,0.364c0.243,0.208 0.364,0.468 0.364,0.78c0,2.1147 -0.711,4.1947 -2.132,6.24c-1.421,2.0107 -3.588,3.692 -6.5,5.044c-2.877,1.3173 -6.396,1.976 -10.556,1.976c-3.709,0 -7.02,-0.5547 -9.932,-1.664c-2.877,-1.144 -5.165,-2.8773 -6.864,-5.2c-1.699,-2.3573 -2.548,-5.2867 -2.548,-8.788v-6.136c0,-3.5013 0.849,-6.4133 2.548,-8.736c1.699,-2.3573 3.987,-4.0907 6.864,-5.2c2.912,-1.144 6.223,-1.716 9.932,-1.716c4.16,0 7.679,0.676 10.556,2.028c2.912,1.3173 5.079,2.9987 6.5,5.044c1.421,2.0107 2.132,4.0733 2.132,6.188c0,0.312 -0.121,0.5893 -0.364,0.832c-0.208,0.208 -0.468,0.312 -0.78,0.312h-11.232c-0.763,0 -1.369,-0.4507 -1.82,-1.352c-0.485,-0.9707 -1.075,-1.6987 -1.768,-2.184c-0.693,-0.4853 -1.768,-0.728 -3.224,-0.728c-1.629,0 -2.929,0.3813 -3.9,1.144c-0.936,0.7627 -1.404,1.8547 -1.404,3.276zM305.681,11.6c0.381,0 0.71,0.1387 0.988,0.416c0.277,0.2773 0.416,0.6067 0.416,0.988v8.372c0,0.3813 -0.139,0.7107 -0.416,0.988c-0.278,0.2773 -0.607,0.416 -0.988,0.416h-11.18v23.816c0,0.3813 -0.139,0.7107 -0.416,0.988c-0.278,0.2773 -0.607,0.416 -0.988,0.416h-10.712c-0.382,0 -0.711,-0.1387 -0.988,-0.416c-0.278,-0.2773 -0.416,-0.6067 -0.416,-0.988v-23.816h-11.18c-0.382,0 -0.711,-0.1387 -0.988,-0.416c-0.278,-0.2773 -0.416,-0.6067 -0.416,-0.988v-8.372c0,-0.3813 0.138,-0.7107 0.416,-0.988c0.277,-0.2773 0.606,-0.416 0.988,-0.416zM323.912,25.432c0,-1.456 0.347,-2.7907 1.04,-4.004c0.728,-1.248 1.699,-2.2187 2.912,-2.912c1.248,-0.728 2.6,-1.092 4.056,-1.092c1.456,0 2.791,0.364 4.004,1.092c1.248,0.6933 2.219,1.664 2.912,2.912c0.728,1.2133 1.092,2.548 1.092,4.004c0,1.456 -0.364,2.808 -1.092,4.056c-0.693,1.2133 -1.664,2.184 -2.912,2.912c-1.213,0.6933 -2.548,1.04 -4.004,1.04c-1.456,0 -2.808,-0.3467 -4.056,-1.04c-1.213,-0.728 -2.184,-1.6987 -2.912,-2.912c-0.693,-1.248 -1.04,-2.6 -1.04,-4.056z" clip-rule="evenodd"></path></clipPath></defs><g style="mix-blend-mode:NORMAL"><g clip-path="url(#280139_stroke_clip_path)"><path id="280139_stroke_path" d="M17.8785,33.96c0,1.4213 0.468,2.5133 1.404,3.276c0.9707,0.7627 2.2707,1.144 3.9,1.144c1.456,0 2.5307,-0.2427 3.224,-0.728c0.6933,-0.4853 1.2827,-1.2133 1.768,-2.184c0.4507,-0.9013 1.0573,-1.352 1.82,-1.352h11.232c0.312,0 0.572,0.1213 0.78,0.364c0.2427,0.208 0.364,0.468 0.364,0.78c0,2.1147 -0.7107,4.1947 -2.132,6.24c-1.4213,2.0107 -3.588,3.692 -6.5,5.044c-2.8773,1.3173 -6.396,1.976 -10.556,1.976c-3.7093,0 -7.02,-0.5547 -9.932,-1.664c-2.8773,-1.144 -5.16533,-2.8773 -6.864,-5.2c-1.69867,-2.3573 -2.548,-5.2867 -2.548,-8.788v-6.136c0,-3.5013 0.84933,-6.4133 2.548,-8.736c1.69867,-2.3573 3.9867,-4.0907 6.864,-5.2c2.912,-1.144 6.2227,-1.716 9.932,-1.716c4.16,0 7.6787,0.676 10.556,2.028c2.912,1.3173 5.0787,2.9987 6.5,5.044c1.4213,2.0107 2.132,4.0733 2.132,6.188c0,0.312 -0.1213,0.5893 -0.364,0.832c-0.208,0.208 -0.468,0.312 -0.78,0.312h-11.232c-0.7627,0 -1.3693,-0.4507 -1.82,-1.352c-0.4853,-0.9707 -1.0747,-1.6987 -1.768,-2.184c-0.6933,-0.4853 -1.768,-0.728 -3.224,-0.728c-1.6293,0 -2.9293,0.3813 -3.9,1.144c-0.936,0.7627 -1.404,1.8547 -1.404,3.276z M86.1862,32.972c0,5.304 -1.768,9.2213 -5.304,11.752c-3.5013,2.5307 -8.1813,3.796 -14.04,3.796c-5.8587,0 -10.556,-1.2653 -14.092,-3.796c-3.5013,-2.5307 -5.252,-6.4827 -5.252,-11.856v-6.136c0,-3.536 0.832,-6.4653 2.496,-8.788c1.6987,-2.3573 4.004,-4.0907 6.916,-5.2c2.912,-1.1093 6.2227,-1.664 9.932,-1.664c3.7093,0 7.0027,0.5547 9.88,1.664c2.912,1.1093 5.2173,2.8253 6.916,5.148c1.6987,2.3227 2.548,5.2347 2.548,8.736z M61.5382,33.96c0,1.4213 0.468,2.5133 1.404,3.276c0.9707,0.7627 2.2707,1.144 3.9,1.144c1.6293,0 2.912,-0.3813 3.848,-1.144c0.9707,-0.7973 1.456,-1.9067 1.456,-3.328v-8.216c0,-1.4213 -0.4853,-2.5133 -1.456,-3.276c-0.936,-0.7973 -2.2187,-1.196 -3.848,-1.196c-1.6293,0 -2.9293,0.3813 -3.9,1.144c-0.936,0.7627 -1.404,1.8547 -1.404,3.276z M127.298,11.6c0.381,0 0.711,0.1387 0.988,0.416c0.277,0.2773 0.416,0.6067 0.416,0.988v33.592c0,0.3813 -0.139,0.7107 -0.416,0.988c-0.277,0.2773 -0.607,0.416 -0.988,0.416h-8.372c-0.832,0 -1.525,-0.364 -2.08,-1.092l-11.336,-14.456v14.144c0,0.3813 -0.139,0.7107 -0.416,0.988c-0.277,0.2773 -0.607,0.416 -0.988,0.416h-9.6721c-0.3814,0 -0.7107,-0.1387 -0.988,-0.416c-0.2774,-0.2773 -0.416,-0.6067 -0.416,-0.988v-33.592c0,-0.3813 0.1386,-0.7107 0.416,-0.988c0.2773,-0.2773 0.6066,-0.416 0.988,-0.416h8.4241c0.832,0 1.508,0.3467 2.028,1.04l11.336,15.652v-15.288c0,-0.3813 0.139,-0.7107 0.416,-0.988c0.277,-0.2773 0.607,-0.416 0.988,-0.416z M173.142,11.6c0.381,0 0.71,0.1387 0.988,0.416c0.277,0.2773 0.416,0.6067 0.416,0.988v8.372c0,0.3813 -0.139,0.7107 -0.416,0.988c-0.278,0.2773 -0.607,0.416 -0.988,0.416h-11.18v23.816c0,0.3813 -0.139,0.7107 -0.416,0.988c-0.278,0.2773 -0.607,0.416 -0.988,0.416h-10.712c-0.382,0 -0.711,-0.1387 -0.988,-0.416c-0.278,-0.2773 -0.416,-0.6067 -0.416,-0.988v-23.816h-11.18c-0.382,0 -0.711,-0.1387 -0.988,-0.416c-0.278,-0.2773 -0.416,-0.6067 -0.416,-0.988v-8.372c0,-0.3813 0.138,-0.7107 0.416,-0.988c0.277,-0.2773 0.606,-0.416 0.988,-0.416z M191.893,46.232c-0.45,1.1787 -1.23,1.768 -2.34,1.768h-9.828c-0.312,0 -0.589,-0.104 -0.832,-0.312c-0.208,-0.2427 -0.312,-0.52 -0.312,-0.832l0.052,-0.312l11.336,-33.228c0.139,-0.4507 0.399,-0.8493 0.78,-1.196c0.382,-0.3467 0.902,-0.52 1.56,-0.52h14.456c0.659,0 1.179,0.1733 1.56,0.52c0.382,0.3467 0.642,0.7453 0.78,1.196l11.336,33.228l0.052,0.312c0,0.312 -0.121,0.5893 -0.364,0.832c-0.208,0.208 -0.468,0.312 -0.78,0.312h-9.828c-1.109,0 -1.889,-0.5893 -2.34,-1.768l-1.3,-3.64h-12.688z M199.537,21.636l-3.692,10.816h7.384z M238.777,33.96c0,1.4213 0.468,2.5133 1.404,3.276c0.971,0.7627 2.271,1.144 3.9,1.144c1.456,0 2.531,-0.2427 3.224,-0.728c0.693,-0.4853 1.283,-1.2133 1.768,-2.184c0.451,-0.9013 1.057,-1.352 1.82,-1.352h11.232c0.312,0 0.572,0.1213 0.78,0.364c0.243,0.208 0.364,0.468 0.364,0.78c0,2.1147 -0.711,4.1947 -2.132,6.24c-1.421,2.0107 -3.588,3.692 -6.5,5.044c-2.877,1.3173 -6.396,1.976 -10.556,1.976c-3.709,0 -7.02,-0.5547 -9.932,-1.664c-2.877,-1.144 -5.165,-2.8773 -6.864,-5.2c-1.699,-2.3573 -2.548,-5.2867 -2.548,-8.788v-6.136c0,-3.5013 0.849,-6.4133 2.548,-8.736c1.699,-2.3573 3.987,-4.0907 6.864,-5.2c2.912,-1.144 6.223,-1.716 9.932,-1.716c4.16,0 7.679,0.676 10.556,2.028c2.912,1.3173 5.079,2.9987 6.5,5.044c1.421,2.0107 2.132,4.0733 2.132,6.188c0,0.312 -0.121,0.5893 -0.364,0.832c-0.208,0.208 -0.468,0.312 -0.78,0.312h-11.232c-0.763,0 -1.369,-0.4507 -1.82,-1.352c-0.485,-0.9707 -1.075,-1.6987 -1.768,-2.184c-0.693,-0.4853 -1.768,-0.728 -3.224,-0.728c-1.629,0 -2.929,0.3813 -3.9,1.144c-0.936,0.7627 -1.404,1.8547 -1.404,3.276z M305.681,11.6c0.381,0 0.71,0.1387 0.988,0.416c0.277,0.2773 0.416,0.6067 0.416,0.988v8.372c0,0.3813 -0.139,0.7107 -0.416,0.988c-0.278,0.2773 -0.607,0.416 -0.988,0.416h-11.18v23.816c0,0.3813 -0.139,0.7107 -0.416,0.988c-0.278,0.2773 -0.607,0.416 -0.988,0.416h-10.712c-0.382,0 -0.711,-0.1387 -0.988,-0.416c-0.278,-0.2773 -0.416,-0.6067 -0.416,-0.988v-23.816h-11.18c-0.382,0 -0.711,-0.1387 -0.988,-0.416c-0.278,-0.2773 -0.416,-0.6067 -0.416,-0.988v-8.372c0,-0.3813 0.138,-0.7107 0.416,-0.988c0.277,-0.2773 0.606,-0.416 0.988,-0.416z M323.912,25.432c0,-1.456 0.347,-2.7907 1.04,-4.004c0.728,-1.248 1.699,-2.2187 2.912,-2.912c1.248,-0.728 2.6,-1.092 4.056,-1.092c1.456,0 2.791,0.364 4.004,1.092c1.248,0.6933 2.219,1.664 2.912,2.912c0.728,1.2133 1.092,2.548 1.092,4.004c0,1.456 -0.364,2.808 -1.092,4.056c-0.693,1.2133 -1.664,2.184 -2.912,2.912c-1.213,0.6933 -2.548,1.04 -4.004,1.04c-1.456,0 -2.808,-0.3467 -4.056,-1.04c-1.213,-0.728 -2.184,-1.6987 -2.912,-2.912c-0.693,-1.248 -1.04,-2.6 -1.04,-4.056z" fill="none" stroke="rgb(255, 255, 255)" stroke-width="4" stroke-linecap="butt" stroke-linejoin="miter" stroke-dasharray="0 0" stroke-opacity="1"></path></g></g></g></g></g></g></g></g></g></g></g></g></g></g><animateTransform href="#280140" attributeName="transform" type="translate" values="0 0;-1062 0" dur="10s" repeatCount="indefinite" calcMode="spline" keyTimes="0;1" keySplines="0 0 1 1" additive="sum" fill="freeze"></animateTransform></svg>