<svg id="209257" viewBox="0 0 444 413" xmlns="http://www.w3.org/2000/svg" xmlns:xlink="http://www.w3.org/1999/xlink"><g transform="matrix(1,0,0,1,0,0)"><g id="209257" opacity="1" style="mix-blend-mode:normal"><g><defs><clipPath id="209257_clipPath" x="-50%" y="-50%" width="200%" height="200%"><path d="M0,0h444v0v413v0h-444v0v-413z" fill="white" clip-rule="nonzero"></path></clipPath></defs><g clip-path="url(#209257_clipPath)"><g transform="matrix(0.9999999999999999,0,0,0.9999999999999999,44.79186214110942,23.785245256107828)"><g id="209256" opacity="1" style="mix-blend-mode:normal"><g><g><defs><clipPath id="209256_stroke_clip_path" clipPathUnits="userSpaceOnUse"><path d="M-1,-1 H362 V362 H-1 Z M172.31749,345.29343l-1.32777,15.70657l-5.80486,-0.49185c-1.68741,-0.14297 -2.96441,-0.61324 -3.83101,-1.41083c-0.87416,-0.7912 -1.25665,-1.8325 -1.14748,-3.12393c0.06668,-0.78882 0.31047,-1.47123 0.73137,-2.04724c0.42031,-0.56903 0.95753,-0.98401 1.61163,-1.24496c-0.87009,-0.34089 -1.52522,-0.85691 -1.96541,-1.54807c-0.44775,-0.68476 -0.63209,-1.49489 -0.55301,-2.4303c0.07554,-0.89353 0.36098,-1.65323 0.85632,-2.27917c0.48778,-0.61956 1.14474,-1.08064 1.97092,-1.38327c0.81861,-0.29624 1.76134,-0.3992 2.82817,-0.30881zM168.32419,354.15124l-2.40561,-0.20383c-0.7182,-0.06085 -1.30093,0.06202 -1.74821,0.36862c-0.44728,0.30661 -0.69571,0.75313 -0.74529,1.33951c-0.04839,0.57242 0.12622,1.04068 0.52382,1.40482c0.39004,0.37052 0.95811,0.58739 1.70419,0.6506l2.35332,0.1994zM168.85796,347.83719l-2.60434,-0.22064c-0.57177,-0.04845 -1.07361,-0.01015 -1.50555,0.11496c-0.43253,0.13209 -0.77306,0.33879 -1.02156,0.62006c-0.25607,0.28765 -0.4012,0.63394 -0.43542,1.03882c-0.03423,0.40488 0.04115,0.75927 0.22614,1.0632c0.17802,0.30334 0.45607,0.54484 0.83415,0.72452c0.37749,0.18666 0.83468,0.30274 1.37158,0.34824l2.80305,0.23752zM150.25626,358.60937l2.50684,-15.56165l3.19171,0.51532l-2.50685,15.56162zM147.66333,342.16699l-3.62244,15.33985l-9.88811,-2.34033l0.64963,-2.75092l6.74188,1.59567l0.82352,-3.48727l-6.32307,-1.49658l0.65202,-2.76117l6.32307,1.49658l0.84766,-3.58954l-6.84404,-1.61984l0.64964,-2.75095zM119.30275,333.7438l3.50538,1.23398l3.376,12.595l3.56548,-10.15143l3.04988,1.07364l-5.22285,14.87021l-3.50539,-1.23398l-3.36903,-12.61481l-3.57243,10.17123l-3.04989,-1.07364zM106.57279,327.85199l3.07323,1.50653l-1.28662,16.9202l-3.04495,-1.49265l1.17012,-12.8587l-9.40941,8.8197l-3.05437,-1.49725zM97.471,322.99151l-8.3595,13.35751l-8.61028,-5.40076l1.49914,-2.39548l5.87064,3.68237l1.9004,-3.03662l-5.50594,-3.45358l1.5047,-2.40436l5.50596,3.45361l1.95612,-3.12564l-5.95959,-3.73816l1.49914,-2.39545zM73.32504,305.8815l2.92245,2.29746l-0.85104,13.0127l6.63818,-8.46326l2.5427,1.9989l-9.72389,12.39734l-2.92245,-2.29746l0.86401,-13.02921l-6.65114,8.47977l-2.54271,-1.9989zM48.51858,303.84851l6.10793,-6.1456c1.08585,-1.09255 2.21464,-1.83597 3.38636,-2.23026c1.16676,-0.39923 2.32451,-0.44674 3.47324,-0.14249c1.13883,0.30427 2.21671,0.96289 3.23361,1.97586c1.01195,1.00803 1.67522,2.08383 1.98981,3.22736c0.30966,1.14849 0.27052,2.31022 -0.11744,3.48523c-0.39292,1.17007 -1.13231,2.30137 -2.21816,3.39392l-6.10793,6.14563l-2.29176,-2.28287l5.8266,-5.86255c0.7749,-0.77969 1.32475,-1.5266 1.64954,-2.24075c0.31983,-0.7191 0.42203,-1.40298 0.30659,-2.05164c-0.12037,-0.64369 -0.46331,-1.24721 -1.0288,-1.81052c-0.5655,-0.56331 -1.17002,-0.90357 -1.81358,-1.02084c-0.64849,-0.11231 -1.32859,-0.00409 -2.0403,0.32465c-0.71667,0.32379 -1.46245,0.87553 -2.23736,1.65521l-5.82659,5.86255zM56.10965,288.66903l-12.20765,9.9548l-6.41688,-7.88693l2.18924,-1.78522l4.37514,5.37744l2.77521,-2.26306l-4.10336,-5.0434l2.19738,-1.79187l4.10336,5.0434l2.85659,-2.32941l-4.44144,-5.45892l2.18924,-1.78525zM35.13257,272.72118c0.21347,0.33732 0.27796,0.69451 0.19348,1.07153c-0.09039,0.38077 -0.30406,0.67798 -0.641,0.89169c-0.33694,0.21371 -0.69666,0.28017 -1.07917,0.19934c-0.38251,-0.08083 -0.68049,-0.28994 -0.89396,-0.62726c-0.21721,-0.34324 -0.28062,-0.70523 -0.19023,-1.086c0.08665,-0.38669 0.29844,-0.6869 0.63538,-0.9006c0.33694,-0.21371 0.69854,-0.27718 1.08479,-0.19043c0.37659,0.08458 0.6735,0.29848 0.89071,0.64172zM34.1696,256.32589l-14.22707,6.75232l-2.49552,-5.26999c-0.72543,-1.53194 -0.96184,-2.87344 -0.70924,-4.02448c0.24328,-1.15437 0.94981,-2.00914 2.11959,-2.56433c0.71452,-0.33912 1.42627,-0.47147 2.13525,-0.39705c0.70266,0.07742 1.33116,0.33348 1.88549,0.76816c-0.14342,-0.92432 -0.02751,-1.75076 0.34771,-2.47931c0.3659,-0.73188 0.9725,-1.29888 1.8198,-1.70102c0.80936,-0.38413 1.60882,-0.51935 2.39837,-0.40564c0.78023,0.11038 1.50877,0.44689 2.18563,1.00949c0.66754,0.55927 1.23062,1.32318 1.68926,2.29172zM24.51403,257.32662l-1.03418,-2.18396c-0.30876,-0.65202 -0.70798,-1.09443 -1.19767,-1.32719c-0.48969,-0.23277 -1.00011,-0.22309 -1.53125,0.02899c-0.5185,0.24608 -0.83491,0.63271 -0.94925,1.15991c-0.12365,0.52387 -0.02511,1.12449 0.29564,1.80183l1.0117,2.13647zM30.23331,254.61219l-1.11961,-2.36436c-0.24581,-0.51909 -0.53136,-0.93403 -0.85665,-1.24483c-0.33161,-0.30779 -0.68133,-0.49845 -1.04915,-0.57198c-0.37714,-0.07686 -0.74908,-0.02826 -1.11582,0.1458c-0.36674,0.17406 -0.63477,0.41758 -0.80409,0.73053c-0.17232,0.30662 -0.24094,0.66869 -0.20585,1.08621c0.02876,0.42052 0.15855,0.87449 0.38936,1.36192l1.20505,2.5448zM11.57619,243.93606l14.69508,-5.65923l1.16072,3.0208l-14.69509,5.65924zM24.46622,233.42122l-15.06483,4.58241l-2.95383,-9.73287l2.70162,-0.82178l2.01398,6.63605l3.42474,-1.04173l-1.88887,-6.22383l2.71167,-0.82483l1.88887,6.22382l3.52517,-1.07228l-2.04449,-6.7366l2.70163,-0.82178zM17.47111,204.6453l0.6981,3.65375l-9.17468,9.25693l10.55708,-2.02167l0.60739,3.17897l-15.46447,2.96143l-0.6981,-3.65375l9.1953,-9.2609l-10.5777,2.02563l-0.60739,-3.17899zM16.15374,190.66713l0.24543,3.41695l-15.25408,7.39844l-0.24317,-3.38548l11.68926,-5.45612l-12.34726,-3.70464l-0.24392,-3.39598zM15.77093,180.34673l-15.73648,-0.51349l0.33099,-10.16679l2.82208,0.09209l-0.22568,6.93192l3.57743,0.11671l0.21166,-6.50128l2.83257,0.09244l-0.21166,6.50127l3.68234,0.12016l0.2291,-7.03693l2.82208,0.09207zM18.39515,150.84764l-0.51319,3.68434l-11.66171,5.80968l10.64547,1.48618l-0.44651,3.20558l-15.59395,-2.17702l0.51319,-3.68434l11.6825,-5.80676l-10.66626,-1.48909l0.44651,-3.2056zM7.67115,128.36126l8.37796,2.19327c1.48941,0.38992 2.69903,0.99262 3.62884,1.80809c0.93158,0.8087 1.55498,1.78654 1.8702,2.93352c0.31022,1.13843 0.28386,2.40236 -0.07905,3.79179c-0.36115,1.38266 -0.95619,2.49773 -1.78511,3.34518c-0.8357,0.84568 -1.8583,1.39621 -3.06783,1.65163c-1.20776,0.24863 -2.55634,0.17799 -4.04576,-0.21193l-8.37796,-2.19328l0.81789,-3.1313l7.99206,2.09225c1.0629,0.27826 1.9843,0.37827 2.7642,0.30003c0.78167,-0.08501 1.42346,-0.34062 1.92536,-0.7668c0.49513,-0.42795 0.8436,-1.02826 1.04542,-1.80092c0.20182,-0.77266 0.19148,-1.46691 -0.03102,-2.08273c-0.22927,-0.61759 -0.66481,-1.15161 -1.30662,-1.60204c-0.64004,-0.45721 -1.49152,-0.82494 -2.55442,-1.1032l-7.99206,-2.09225zM24.59382,127.29335l-14.7348,-5.55479l3.58062,-9.51964l2.64244,0.99615l-2.44133,6.49067l3.34971,1.26279l2.28968,-6.08746l2.65226,0.99986l-2.28968,6.08746l3.44794,1.29981l2.47832,-6.58901l2.64244,0.99616zM27.80897,101.12071c-0.18382,0.35439 -0.45972,0.58986 -0.82769,0.70642c-0.37418,0.11333 -0.73827,0.07799 -1.09226,-0.10603c-0.35399,-0.18403 -0.5923,-0.46185 -0.71494,-0.83347c-0.12264,-0.37162 -0.09205,-0.73462 0.09177,-1.08901c0.18704,-0.36061 0.46766,-0.59758 0.84184,-0.71091c0.37741,-0.11955 0.74311,-0.08731 1.09709,0.09672c0.35399,0.18403 0.59069,0.46496 0.71011,0.8428c0.11643,0.36839 0.08113,0.73289 -0.10592,1.0935zM41.4783,92.03989l-12.98603,-8.91308l3.2941,-4.81029c0.95756,-1.39831 1.99672,-2.2777 3.11745,-2.63817c1.11892,-0.37021 2.21225,-0.18888 3.27999,0.54398c0.65219,0.44763 1.12449,0.99689 1.4169,1.64777c0.28664,0.64692 0.38176,1.31952 0.28537,2.01781c0.7258,-0.58907 1.49754,-0.90452 2.31524,-0.94636c0.81588,-0.05158 1.61052,0.18804 2.38391,0.71886c0.73876,0.50705 1.25765,1.13076 1.55666,1.87111c0.2972,0.73061 0.37321,1.53024 0.22802,2.3989c-0.14701,0.85892 -0.52321,1.73041 -1.12861,2.61446zM35.75716,84.18892l1.36512,-1.99345c0.40756,-0.59515 0.58864,-1.16312 0.54325,-1.70392c-0.04539,-0.54079 -0.3105,-0.97757 -0.79531,-1.31033c-0.47327,-0.32483 -0.96622,-0.4041 -1.47885,-0.23782c-0.51445,0.15654 -0.98337,0.54393 -1.40675,1.16219l-1.33545,1.95012zM40.97755,87.77197l1.4779,-2.15813c0.32446,-0.47381 0.53903,-0.92961 0.64369,-1.36741c0.09889,-0.44176 0.08756,-0.84026 -0.034,-1.1955c-0.12337,-0.36498 -0.35243,-0.66234 -0.68718,-0.8921c-0.33475,-0.22976 -0.6798,-0.33918 -1.03514,-0.32825c-0.35138,0.00515 -0.69847,0.12792 -1.04126,0.36831c-0.34856,0.23642 -0.67518,0.57709 -0.97985,1.022l-1.59066,2.32281zM40.80849,66.25859l12.27784,9.86788l-2.02391,2.52392l-12.27784,-9.86789zM56.36995,72.12199l-11.53424,-10.7295l6.91626,-7.45187l2.06847,1.92416l-4.71563,5.08082l2.62212,2.43917l4.42268,-4.7652l2.07616,1.93131l-4.42269,4.7652l2.69901,2.5107l4.78708,-5.15781l2.06847,1.92416zM77.69272,51.59379l-2.80303,2.44204l-12.60661,-3.28161l7.05598,8.1174l-2.43879,2.12472l-10.33591,-11.89073l2.80303,-2.44204l12.62039,3.29746l-7.06976,-8.13326l2.43879,-2.12471zM89.09716,43.42223l-2.82632,1.93124l-14.06046,-9.47665l2.8003,-1.91347l10.59041,7.36932l-3.01314,-12.54694l2.80897,-1.9194zM97.81395,37.89935l-7.47293,-13.87413l8.94329,-4.82801l1.34015,2.48809l-6.0977,3.29182l1.69884,3.15405l5.7189,-3.08733l1.34513,2.49734l-5.71889,3.08733l1.74866,3.24655l6.19009,-3.3417l1.34015,2.48809zM124.60001,25.33048l-3.43877,1.40937l-10.88177,-7.16762l4.0722,9.9585l-2.99193,1.22623l-5.96515,-14.58764l3.43878,-1.40937l10.88972,7.18707l-4.08015,-9.97795l2.99193,-1.22623zM138.6174,4.73995l2.32111,8.35226c0.41264,1.48485 0.50084,2.83464 0.2646,4.04937c-0.2295,1.21286 -0.76004,2.24414 -1.59163,3.09387c-0.82673,0.8411 -1.9311,1.45412 -3.31314,1.83906c-1.3753,0.38307 -2.63724,0.42915 -3.78581,0.13824c-1.15045,-0.29766 -2.14016,-0.90551 -2.9691,-1.82356c-0.8222,-0.91992 -1.43962,-2.12231 -1.85226,-3.60716l-2.32111,-8.35226l3.11464,-0.86753l2.2142,7.96755c0.29448,1.05964 0.67165,1.90718 1.13152,2.54263c0.46661,0.63357 1.0101,1.06028 1.63049,1.28016c0.61852,0.21312 1.31205,0.21265 2.0806,-0.00141c0.76855,-0.21407 1.36267,-0.57225 1.78236,-1.07455c0.41782,-0.50905 0.65974,-1.15453 0.72572,-1.93644c0.07272,-0.78379 -0.03817,-1.7055 -0.33264,-2.76514l-2.2142,-7.96755zM148.0522,18.84498l-2.617,-15.54345l10.01935,-1.69075l0.4693,2.78746l-6.83134,1.15278l0.59492,3.53354l6.40698,-1.08117l0.47107,2.79782l-6.407,1.08117l0.61238,3.63717l6.93486,-1.17025l0.46931,2.78746zM172.2637,8.46064c-0.39841,0.01923 -0.74048,-0.10103 -1.02621,-0.36078c-0.28607,-0.26675 -0.43871,-0.59955 -0.45792,-0.99841c-0.01921,-0.39886 0.10075,-0.74482 0.35986,-1.03787c0.25912,-0.29306 0.58788,-0.4492 0.98628,-0.46843c0.4054,-0.01957 0.75113,0.10402 1.0372,0.37077c0.29306,0.26641 0.44919,0.59904 0.4684,0.9979c0.01921,0.39886 -0.10424,0.74498 -0.37035,1.03838c-0.25945,0.28606 -0.59187,0.43887 -0.99727,0.45844zM186.97929,15.71973l1.16187,-15.71973l5.80969,0.43037c1.68883,0.12511 2.97073,0.58184 3.8457,1.37022c0.88247,0.7819 1.27594,1.81911 1.1804,3.11162c-0.05835,0.78948 -0.29491,1.47444 -0.7097,2.05487c-0.41428,0.57344 -0.94709,0.9941 -1.5984,1.26197c0.87364,0.33166 1.5342,0.84072 1.98166,1.52717c0.45495,0.67998 0.64782,1.48808 0.57863,2.42427c-0.0661,0.89428 -0.3435,1.65699 -0.83221,2.28815c-0.48121,0.62468 -1.13328,1.0927 -1.95621,1.40405c-0.81544,0.30488 -1.75702,0.41778 -2.82475,0.33868zM190.87886,6.82017l2.40761,0.17835c0.7188,0.05325 1.30021,-0.07579 1.74423,-0.38711c0.44402,-0.31132 0.68773,-0.76042 0.73111,-1.34729c0.04234,-0.5729 -0.13722,-1.0393 -0.53865,-1.3992c-0.39393,-0.36637 -0.96424,-0.57722 -1.71095,-0.63253l-2.3553,-0.17448zM190.41177,13.1395l2.60652,0.19309c0.57225,0.04239 1.07366,-0.00125 1.50426,-0.13092c0.43111,-0.13666 0.76943,-0.34693 1.01495,-0.63081c0.25302,-0.29035 0.3945,-0.63813 0.42445,-1.04335c0.02995,-0.40522 -0.04916,-0.75881 -0.23735,-1.06077c-0.18121,-0.30144 -0.46181,-0.53999 -0.84177,-0.71566c-0.37944,-0.18265 -0.83784,-0.29389 -1.3752,-0.33369l-2.80539,-0.20782zM208.89899,2.17107l-2.34239,15.5873l-3.19696,-0.48151l2.34238,-15.5873zM211.66548,18.58507l3.46027,-15.37734l9.91226,2.23556l-0.62054,2.75767l-6.75836,-1.52424l-0.78664,3.49578l6.33853,1.42956l-0.62286,2.76792l-6.3385,-1.42956l-0.80972,3.5983l6.86076,1.54734l-0.62053,2.75767zM240.11325,26.70765l-3.51823,-1.19683l-3.50879,-12.55854l-3.45808,10.18856l-3.06105,-1.0413l5.06554,-14.92465l3.51822,1.19683l3.50204,12.57844l3.46483,-10.20846l3.06107,1.0413zM252.9046,32.46441l-3.08897,-1.47392l1.10789,-16.93288l3.06053,1.46036l-1.03427,12.87037l9.31575,-8.91881l3.07001,1.46488zM262.05725,37.22827l8.21799,-13.44524l8.66681,5.30936l-1.47375,2.41118l-5.90918,-3.62002l-1.86823,3.05655l5.54208,3.39514l-1.47922,2.42014l-5.54211,-3.39514l-1.923,3.14618l5.99872,3.67487l-1.47375,2.41118zM286.38235,54.08185l-2.94653,-2.26638l0.71356,-13.02099l-6.5484,8.53304l-2.56369,-1.97188l9.59244,-12.49957l2.94653,2.26639l-0.72638,13.03766l6.56122,-8.54971l2.56366,1.97189zM311.20926,55.85216l-6.04272,6.20991c-1.07426,1.10398 -2.19512,1.85931 -3.36261,2.26598c-1.16248,0.41156 -2.31965,0.4713 -3.47153,0.17922c-1.14198,-0.2922 -2.22676,-0.93938 -3.2543,-1.94153c-1.02253,-0.99726 -1.69715,-2.06595 -2.0238,-3.20609c-0.32177,-1.14515 -0.2949,-2.30726 0.08063,-3.48631c0.38054,-1.17417 1.10796,-2.31324 2.18222,-3.41722l6.04269,-6.20991l2.31573,2.2585l-5.76434,5.92388c-0.76663,0.78784 -1.30856,1.54054 -1.62579,2.25809c-0.31222,0.72244 -0.40719,1.40736 -0.28491,2.05476c0.12716,0.64238 0.47644,1.24221 1.04785,1.7995c0.57142,0.55729 1.17953,0.89116 1.82428,1.00162c0.64964,0.10544 1.32851,-0.00997 2.03671,-0.34621c0.71321,-0.33136 1.45313,-0.89096 2.21976,-1.67881l5.7644,-5.92388zM303.77887,71.11109l12.10184,-10.08343l6.49979,7.81859l-2.17026,1.8083l-4.43167,-5.33086l-2.75116,2.2923l4.15637,4.9997l-2.17831,1.81502l-4.15637,-4.99969l-2.83185,2.35952l4.49884,5.41162l-2.17029,1.8083zM324.92307,86.83608c-0.21702,-0.33504 -0.28527,-0.69152 -0.20477,-1.06941c0.08637,-0.38171 0.2969,-0.6812 0.63156,-0.89846c0.33466,-0.21726 0.69363,-0.2875 1.07697,-0.21072c0.38334,0.07678 0.68353,0.28268 0.90054,0.61772c0.22082,0.34092 0.28806,0.70225 0.20169,1.08395c-0.08256,0.38758 -0.29119,0.69 -0.62585,0.90726c-0.33466,0.21726 -0.69556,0.28457 -1.0827,0.20192c-0.37747,-0.08059 -0.67661,-0.29134 -0.89743,-0.63226zM326.05908,103.22026l14.15497,-6.90251l2.55103,5.24329c0.74156,1.52417 0.99214,2.86308 0.75171,4.01673c-0.23108,1.15688 -0.92855,2.01908 -2.09241,2.58662c-0.71089,0.34666 -1.42119,0.48654 -2.13092,0.41963c-0.70344,-0.06998 -1.33464,-0.31937 -1.89352,-0.74816c0.15317,0.92275 0.046,1.75037 -0.3215,2.48285c-0.35815,0.73571 -0.95872,1.30911 -1.80173,1.72019c-0.80526,0.39268 -1.60325,0.53633 -2.39395,0.43098c-0.78135,-0.10212 -1.51341,-0.43088 -2.19617,-0.98628c-0.6734,-0.55218 -1.24451,-1.31008 -1.71335,-2.27371zM335.70352,102.11739l1.05719,2.17289c0.31562,0.64872 0.71952,1.08686 1.21164,1.31444c0.49212,0.22757 1.0024,0.21251 1.53085,-0.04518c0.51587,-0.25156 0.82819,-0.64153 0.93695,-1.16991c0.11811,-0.52515 0.01321,-1.12468 -0.31467,-1.79859l-1.03421,-2.12565zM330.01324,104.89219l1.14453,2.35239c0.25127,0.51646 0.54117,0.92835 0.86972,1.23569c0.33484,0.30427 0.68657,0.49122 1.05515,0.56084c0.37793,0.07286 0.74931,0.02033 1.1142,-0.1576c0.36488,-0.17793 0.63032,-0.42427 0.79633,-0.739c0.16907,-0.30843 0.23388,-0.6712 0.1944,-1.08833c-0.0332,-0.42019 -0.16777,-0.87277 -0.40372,-1.35773l-1.23184,-2.53189zM348.78189,115.37027l-14.63452,5.81445l-1.19254,-3.00836l14.63449,-5.81445zM336.00381,126.02095l15.01559,-4.74159l3.05643,9.70107l-2.69278,0.85033l-2.08392,-6.61437l-3.41354,1.07793l1.9545,6.20348l-2.70285,0.85347l-1.95447,-6.20346l-3.51364,1.10954l2.11551,6.71457l-2.69278,0.85033zM343.30225,154.72125l-0.73663,-3.64616l9.07642,-9.35352l-10.53513,2.13327l-0.64093,-3.17236l15.43234,-3.12492l0.73663,3.64616l-9.09698,9.35768l10.55569,-2.13744l0.64093,3.17235zM344.76721,168.68468l-0.28152,-3.41415l15.17511,-7.55946l0.27893,3.38272l-11.63101,5.57953l12.38571,3.57375l0.27975,3.3932zM345.25897,179.00044l15.74103,0.34692l-0.2236,10.16974l-2.82291,-0.06221l0.1525,-6.93391l-3.57849,-0.07886l-0.14297,6.50316l-2.83337,-0.06244l0.14297,-6.50317l-3.68341,-0.08118l-0.15475,7.03897l-2.82294,-0.06221zM342.94635,208.52568l0.47424,-3.68958l11.59973,-5.93277l-10.66058,-1.37343l0.41266,-3.21014l15.61606,2.01186l-0.47424,3.68958l-11.62054,5.93008l10.6814,1.37611l-0.41266,3.21014zM353.90729,230.8973l-8.40067,-2.10449c-1.49345,-0.37413 -2.70936,-0.96399 -3.64774,-1.76958c-0.94007,-0.79879 -1.57375,-1.76997 -1.90106,-2.91354c-0.32222,-1.13508 -0.30923,-2.39923 0.039,-3.79244c0.34653,-1.38641 0.92976,-2.5077 1.74969,-3.36388c0.82672,-0.85448 1.84344,-1.41579 3.0502,-1.68399c1.20506,-0.2614 2.55431,-0.20505 4.04776,0.16908l8.40067,2.10448l-0.78476,3.1398l-8.01373,-2.00754c-1.06578,-0.26699 -1.98818,-0.35727 -2.76721,-0.27078c-0.78073,0.09328 -1.41977,0.35567 -1.91714,0.78714c-0.49058,0.43317 -0.83269,1.03713 -1.02634,1.81189c-0.19365,0.77476 -0.17598,1.46884 0.05301,2.08228c0.23578,0.61513 0.67692,1.14451 1.32346,1.58812c0.64484,0.45041 1.50014,0.80912 2.56592,1.07611l8.01373,2.00754zM336.99677,232.14425l14.7926,5.39853l-3.47989,9.55701l-2.65283,-0.96814l2.37268,-6.51614l-3.36285,-1.22725l-2.22528,6.11134l-2.66266,-0.97174l2.22525,-6.11134l-3.46146,-1.26328l-2.4086,6.6149l-2.6528,-0.96815zM334.05826,258.34945c0.18007,-0.35632 0.4535,-0.5947 0.82022,-0.71515c0.37297,-0.11729 0.73738,-0.08579 1.09329,0.09448c0.35591,0.18027 0.59717,0.45554 0.72372,0.82584c0.12656,0.3703 0.09977,0.73362 -0.08029,1.08994c-0.18323,0.36257 -0.46132,0.6025 -0.83429,0.71979c-0.37612,0.12354 -0.74214,0.09516 -1.09805,-0.08511c-0.35591,-0.18027 -0.59556,-0.45865 -0.71896,-0.83521c-0.12031,-0.36714 -0.08887,-0.73201 0.09436,-1.09457zM320.4855,267.57442l13.07941,8.77515l-3.2431,4.84485c-0.94275,1.40836 -1.97255,2.29871 -3.08942,2.67102c-1.11495,0.38203 -2.21016,0.2123 -3.28558,-0.50922c-0.65688,-0.44071 -1.1349,-0.98494 -1.43417,-1.63269c-0.29346,-0.64385 -0.39569,-1.31541 -0.30667,-2.01468c-0.71954,0.59672 -1.48791,0.92033 -2.30511,0.97083c-0.81529,0.06021 -1.6124,-0.171 -2.39136,-0.6936c-0.74407,-0.49921 -1.26951,-1.11741 -1.57632,-1.85455c-0.3049,-0.72743 -0.38937,-1.52619 -0.25336,-2.39633c0.13793,-0.86043 0.50492,-1.73584 1.10095,-2.62625zM326.28922,275.3644l-1.34396,2.00775c-0.40125,0.59943 -0.57634,1.16928 -0.52524,1.70956c0.0511,0.54028 0.32078,0.97424 0.80908,1.30185c0.47667,0.31981 0.97044,0.39387 1.48129,0.22217c0.51277,-0.16198 0.97755,-0.55433 1.39438,-1.17703l1.31479,-1.96411zM321.03131,271.83678l-1.45502,2.17365c-0.31944,0.47721 -0.5292,0.93526 -0.62924,1.37415c-0.09422,0.44278 -0.0787,0.84114 0.0466,1.19507c0.12722,0.36365 0.35944,0.65856 0.69659,0.88477c0.33716,0.2262 0.68331,0.33198 1.03851,0.31729c0.35131,-0.00887 0.69709,-0.13527 1.03732,-0.37927c0.34604,-0.2401 0.66906,-0.58423 0.96902,-1.03235l1.56604,-2.33951zM321.42731,293.34719l-12.38138,-9.7374l1.99716,-2.54523l12.38138,9.73743zM305.80487,287.6488l11.64688,10.60681l-6.83719,7.52466l-2.08865,-1.90216l4.66168,-5.13043l-2.64774,-2.41129l-4.3721,4.81177l-2.09644,-1.90924l4.37213,-4.81177l-2.72537,-2.48199l-4.73236,5.20819l-2.08868,-1.90216zM284.70004,308.40152l2.77707,-2.47156l12.64059,3.14801l-7.1413,-8.0423l2.4162,-2.15039l10.46091,11.7807l-2.7771,2.47156l-12.65451,-3.16373l7.15527,8.05798l-2.41626,2.15042zM273.3826,316.69333l2.80576,-1.96106l14.15973,9.3273l-2.77991,1.94302l-10.66766,-7.25684l3.14548,12.51434l-2.78854,1.94904zM264.72476,322.30813l7.61902,13.79428l-8.89182,4.92236l-1.36633,-2.47376l6.06259,-3.35617l-1.73206,-3.1359l-5.68597,3.14767l-1.37143,-2.48294l5.68597,-3.14771l-1.78284,-3.22788l-6.15448,3.40704l-1.36633,-2.47379zM238.07295,335.15982l3.42371,-1.44568l10.95685,7.05203l-4.17714,-9.91483l2.97882,-1.25784l6.11884,14.52368l-3.42369,1.44571l-10.965,-7.07144l4.18529,9.9342l-2.97882,1.25784zM224.2737,355.89755l-2.40918,-8.32724c-0.4283,-1.4804 -0.53076,-2.82919 -0.30736,-4.04636c0.21668,-1.21522 0.73631,-2.25206 1.55888,-3.11053c0.8178,-0.8498 1.91565,-1.47447 3.29355,-1.87402c1.37117,-0.3976 2.63256,-0.45702 3.78415,-0.17828c1.15353,0.28547 2.14957,0.8828 2.98816,1.79202c0.83187,0.91117 1.46196,2.10698 1.89026,3.58737l2.40916,8.32721l-3.1053,0.90045l-2.2982,-7.94367c-0.30565,-1.05646 -0.69174,-1.89998 -1.15829,-2.53052c-0.47327,-0.62859 -1.02126,-1.04955 -1.64394,-1.26285c-0.62073,-0.20657 -1.31421,-0.19875 -2.08046,0.02344c-0.76624,0.22219 -1.35656,0.58664 -1.77094,1.09335c-0.41242,0.51344 -0.64748,1.16147 -0.7052,1.94403c-0.06444,0.78451 0.05615,1.70501 0.3618,2.76147l2.2982,7.94367zM214.69041,341.89316l2.78098,15.51486l-10.00092,1.79669l-0.49872,-2.78235l6.8188,-1.22501l-0.6322,-3.52707l-6.39522,1.14896l-0.50058,-2.79269l6.39523,-1.14893l-0.65076,-3.63046l-6.92212,1.24356l-0.49873,-2.78235zM190.5899,352.53314c0.39818,-0.02344 0.74151,0.09318 1.02997,0.34988c0.28887,0.2637 0.44501,0.5949 0.46843,0.99353c0.02342,0.39863 -0.09287,0.74581 -0.34888,1.0416c-0.25601,0.29578 -0.5831,0.45541 -0.98128,0.47885c-0.40517,0.02385 -0.75219,-0.09607 -1.04106,-0.35977c-0.29586,-0.26329 -0.45551,-0.59426 -0.47893,-0.99289c-0.02342,-0.39863 0.09638,-0.74604 0.35938,-1.04224c0.25642,-0.28879 0.5872,-0.44511 0.99237,-0.46896z" clip-rule="evenodd"></path></clipPath></defs><g style="mix-blend-mode:NORMAL"><g clip-path="url(#209256_stroke_clip_path)"><path id="209256_stroke_path" d="M172.31749,345.29343l-1.32777,15.70657l-5.80486,-0.49185c-1.68741,-0.14297 -2.96441,-0.61324 -3.83101,-1.41083c-0.87416,-0.7912 -1.25665,-1.8325 -1.14748,-3.12393c0.06668,-0.78882 0.31047,-1.47123 0.73137,-2.04724c0.42031,-0.56903 0.95753,-0.98401 1.61163,-1.24496c-0.87009,-0.34089 -1.52522,-0.85691 -1.96541,-1.54807c-0.44775,-0.68476 -0.63209,-1.49489 -0.55301,-2.4303c0.07554,-0.89353 0.36098,-1.65323 0.85632,-2.27917c0.48778,-0.61956 1.14474,-1.08064 1.97092,-1.38327c0.81861,-0.29624 1.76134,-0.3992 2.82817,-0.30881zM168.32419,354.15124l-2.40561,-0.20383c-0.7182,-0.06085 -1.30093,0.06202 -1.74821,0.36862c-0.44728,0.30661 -0.69571,0.75313 -0.74529,1.33951c-0.04839,0.57242 0.12622,1.04068 0.52382,1.40482c0.39004,0.37052 0.95811,0.58739 1.70419,0.6506l2.35332,0.1994zM168.85796,347.83719l-2.60434,-0.22064c-0.57177,-0.04845 -1.07361,-0.01015 -1.50555,0.11496c-0.43253,0.13209 -0.77306,0.33879 -1.02156,0.62006c-0.25607,0.28765 -0.4012,0.63394 -0.43542,1.03882c-0.03423,0.40488 0.04115,0.75927 0.22614,1.0632c0.17802,0.30334 0.45607,0.54484 0.83415,0.72452c0.37749,0.18666 0.83468,0.30274 1.37158,0.34824l2.80305,0.23752zM150.25626,358.60937l2.50684,-15.56165l3.19171,0.51532l-2.50685,15.56162zM147.66333,342.16699l-3.62244,15.33985l-9.88811,-2.34033l0.64963,-2.75092l6.74188,1.59567l0.82352,-3.48727l-6.32307,-1.49658l0.65202,-2.76117l6.32307,1.49658l0.84766,-3.58954l-6.84404,-1.61984l0.64964,-2.75095zM119.30275,333.7438l3.50538,1.23398l3.376,12.595l3.56548,-10.15143l3.04988,1.07364l-5.22285,14.87021l-3.50539,-1.23398l-3.36903,-12.61481l-3.57243,10.17123l-3.04989,-1.07364zM106.57279,327.85199l3.07323,1.50653l-1.28662,16.9202l-3.04495,-1.49265l1.17012,-12.8587l-9.40941,8.8197l-3.05437,-1.49725zM97.471,322.99151l-8.3595,13.35751l-8.61028,-5.40076l1.49914,-2.39548l5.87064,3.68237l1.9004,-3.03662l-5.50594,-3.45358l1.5047,-2.40436l5.50596,3.45361l1.95612,-3.12564l-5.95959,-3.73816l1.49914,-2.39545zM73.32504,305.8815l2.92245,2.29746l-0.85104,13.0127l6.63818,-8.46326l2.5427,1.9989l-9.72389,12.39734l-2.92245,-2.29746l0.86401,-13.02921l-6.65114,8.47977l-2.54271,-1.9989zM48.51858,303.84851l6.10793,-6.1456c1.08585,-1.09255 2.21464,-1.83597 3.38636,-2.23026c1.16676,-0.39923 2.32451,-0.44674 3.47324,-0.14249c1.13883,0.30427 2.21671,0.96289 3.23361,1.97586c1.01195,1.00803 1.67522,2.08383 1.98981,3.22736c0.30966,1.14849 0.27052,2.31022 -0.11744,3.48523c-0.39292,1.17007 -1.13231,2.30137 -2.21816,3.39392l-6.10793,6.14563l-2.29176,-2.28287l5.8266,-5.86255c0.7749,-0.77969 1.32475,-1.5266 1.64954,-2.24075c0.31983,-0.7191 0.42203,-1.40298 0.30659,-2.05164c-0.12037,-0.64369 -0.46331,-1.24721 -1.0288,-1.81052c-0.5655,-0.56331 -1.17002,-0.90357 -1.81358,-1.02084c-0.64849,-0.11231 -1.32859,-0.00409 -2.0403,0.32465c-0.71667,0.32379 -1.46245,0.87553 -2.23736,1.65521l-5.82659,5.86255zM56.10965,288.66903l-12.20765,9.9548l-6.41688,-7.88693l2.18924,-1.78522l4.37514,5.37744l2.77521,-2.26306l-4.10336,-5.0434l2.19738,-1.79187l4.10336,5.0434l2.85659,-2.32941l-4.44144,-5.45892l2.18924,-1.78525zM35.13257,272.72118c0.21347,0.33732 0.27796,0.69451 0.19348,1.07153c-0.09039,0.38077 -0.30406,0.67798 -0.641,0.89169c-0.33694,0.21371 -0.69666,0.28017 -1.07917,0.19934c-0.38251,-0.08083 -0.68049,-0.28994 -0.89396,-0.62726c-0.21721,-0.34324 -0.28062,-0.70523 -0.19023,-1.086c0.08665,-0.38669 0.29844,-0.6869 0.63538,-0.9006c0.33694,-0.21371 0.69854,-0.27718 1.08479,-0.19043c0.37659,0.08458 0.6735,0.29848 0.89071,0.64172zM34.1696,256.32589l-14.22707,6.75232l-2.49552,-5.26999c-0.72543,-1.53194 -0.96184,-2.87344 -0.70924,-4.02448c0.24328,-1.15437 0.94981,-2.00914 2.11959,-2.56433c0.71452,-0.33912 1.42627,-0.47147 2.13525,-0.39705c0.70266,0.07742 1.33116,0.33348 1.88549,0.76816c-0.14342,-0.92432 -0.02751,-1.75076 0.34771,-2.47931c0.3659,-0.73188 0.9725,-1.29888 1.8198,-1.70102c0.80936,-0.38413 1.60882,-0.51935 2.39837,-0.40564c0.78023,0.11038 1.50877,0.44689 2.18563,1.00949c0.66754,0.55927 1.23062,1.32318 1.68926,2.29172zM24.51403,257.32662l-1.03418,-2.18396c-0.30876,-0.65202 -0.70798,-1.09443 -1.19767,-1.32719c-0.48969,-0.23277 -1.00011,-0.22309 -1.53125,0.02899c-0.5185,0.24608 -0.83491,0.63271 -0.94925,1.15991c-0.12365,0.52387 -0.02511,1.12449 0.29564,1.80183l1.0117,2.13647zM30.23331,254.61219l-1.11961,-2.36436c-0.24581,-0.51909 -0.53136,-0.93403 -0.85665,-1.24483c-0.33161,-0.30779 -0.68133,-0.49845 -1.04915,-0.57198c-0.37714,-0.07686 -0.74908,-0.02826 -1.11582,0.1458c-0.36674,0.17406 -0.63477,0.41758 -0.80409,0.73053c-0.17232,0.30662 -0.24094,0.66869 -0.20585,1.08621c0.02876,0.42052 0.15855,0.87449 0.38936,1.36192l1.20505,2.5448zM11.57619,243.93606l14.69508,-5.65923l1.16072,3.0208l-14.69509,5.65924zM24.46622,233.42122l-15.06483,4.58241l-2.95383,-9.73287l2.70162,-0.82178l2.01398,6.63605l3.42474,-1.04173l-1.88887,-6.22383l2.71167,-0.82483l1.88887,6.22382l3.52517,-1.07228l-2.04449,-6.7366l2.70163,-0.82178zM17.47111,204.6453l0.6981,3.65375l-9.17468,9.25693l10.55708,-2.02167l0.60739,3.17897l-15.46447,2.96143l-0.6981,-3.65375l9.1953,-9.2609l-10.5777,2.02563l-0.60739,-3.17899zM16.15374,190.66713l0.24543,3.41695l-15.25408,7.39844l-0.24317,-3.38548l11.68926,-5.45612l-12.34726,-3.70464l-0.24392,-3.39598zM15.77093,180.34673l-15.73648,-0.51349l0.33099,-10.16679l2.82208,0.09209l-0.22568,6.93192l3.57743,0.11671l0.21166,-6.50128l2.83257,0.09244l-0.21166,6.50127l3.68234,0.12016l0.2291,-7.03693l2.82208,0.09207zM18.39515,150.84764l-0.51319,3.68434l-11.66171,5.80968l10.64547,1.48618l-0.44651,3.20558l-15.59395,-2.17702l0.51319,-3.68434l11.6825,-5.80676l-10.66626,-1.48909l0.44651,-3.2056zM7.67115,128.36126l8.37796,2.19327c1.48941,0.38992 2.69903,0.99262 3.62884,1.80809c0.93158,0.8087 1.55498,1.78654 1.8702,2.93352c0.31022,1.13843 0.28386,2.40236 -0.07905,3.79179c-0.36115,1.38266 -0.95619,2.49773 -1.78511,3.34518c-0.8357,0.84568 -1.8583,1.39621 -3.06783,1.65163c-1.20776,0.24863 -2.55634,0.17799 -4.04576,-0.21193l-8.37796,-2.19328l0.81789,-3.1313l7.99206,2.09225c1.0629,0.27826 1.9843,0.37827 2.7642,0.30003c0.78167,-0.08501 1.42346,-0.34062 1.92536,-0.7668c0.49513,-0.42795 0.8436,-1.02826 1.04542,-1.80092c0.20182,-0.77266 0.19148,-1.46691 -0.03102,-2.08273c-0.22927,-0.61759 -0.66481,-1.15161 -1.30662,-1.60204c-0.64004,-0.45721 -1.49152,-0.82494 -2.55442,-1.1032l-7.99206,-2.09225zM24.59382,127.29335l-14.7348,-5.55479l3.58062,-9.51964l2.64244,0.99615l-2.44133,6.49067l3.34971,1.26279l2.28968,-6.08746l2.65226,0.99986l-2.28968,6.08746l3.44794,1.29981l2.47832,-6.58901l2.64244,0.99616zM27.80897,101.12071c-0.18382,0.35439 -0.45972,0.58986 -0.82769,0.70642c-0.37418,0.11333 -0.73827,0.07799 -1.09226,-0.10603c-0.35399,-0.18403 -0.5923,-0.46185 -0.71494,-0.83347c-0.12264,-0.37162 -0.09205,-0.73462 0.09177,-1.08901c0.18704,-0.36061 0.46766,-0.59758 0.84184,-0.71091c0.37741,-0.11955 0.74311,-0.08731 1.09709,0.09672c0.35399,0.18403 0.59069,0.46496 0.71011,0.8428c0.11643,0.36839 0.08113,0.73289 -0.10592,1.0935zM41.4783,92.03989l-12.98603,-8.91308l3.2941,-4.81029c0.95756,-1.39831 1.99672,-2.2777 3.11745,-2.63817c1.11892,-0.37021 2.21225,-0.18888 3.27999,0.54398c0.65219,0.44763 1.12449,0.99689 1.4169,1.64777c0.28664,0.64692 0.38176,1.31952 0.28537,2.01781c0.7258,-0.58907 1.49754,-0.90452 2.31524,-0.94636c0.81588,-0.05158 1.61052,0.18804 2.38391,0.71886c0.73876,0.50705 1.25765,1.13076 1.55666,1.87111c0.2972,0.73061 0.37321,1.53024 0.22802,2.3989c-0.14701,0.85892 -0.52321,1.73041 -1.12861,2.61446zM35.75716,84.18892l1.36512,-1.99345c0.40756,-0.59515 0.58864,-1.16312 0.54325,-1.70392c-0.04539,-0.54079 -0.3105,-0.97757 -0.79531,-1.31033c-0.47327,-0.32483 -0.96622,-0.4041 -1.47885,-0.23782c-0.51445,0.15654 -0.98337,0.54393 -1.40675,1.16219l-1.33545,1.95012zM40.97755,87.77197l1.4779,-2.15813c0.32446,-0.47381 0.53903,-0.92961 0.64369,-1.36741c0.09889,-0.44176 0.08756,-0.84026 -0.034,-1.1955c-0.12337,-0.36498 -0.35243,-0.66234 -0.68718,-0.8921c-0.33475,-0.22976 -0.6798,-0.33918 -1.03514,-0.32825c-0.35138,0.00515 -0.69847,0.12792 -1.04126,0.36831c-0.34856,0.23642 -0.67518,0.57709 -0.97985,1.022l-1.59066,2.32281zM40.80849,66.25859l12.27784,9.86788l-2.02391,2.52392l-12.27784,-9.86789zM56.36995,72.12199l-11.53424,-10.7295l6.91626,-7.45187l2.06847,1.92416l-4.71563,5.08082l2.62212,2.43917l4.42268,-4.7652l2.07616,1.93131l-4.42269,4.7652l2.69901,2.5107l4.78708,-5.15781l2.06847,1.92416zM77.69272,51.59379l-2.80303,2.44204l-12.60661,-3.28161l7.05598,8.1174l-2.43879,2.12472l-10.33591,-11.89073l2.80303,-2.44204l12.62039,3.29746l-7.06976,-8.13326l2.43879,-2.12471zM89.09716,43.42223l-2.82632,1.93124l-14.06046,-9.47665l2.8003,-1.91347l10.59041,7.36932l-3.01314,-12.54694l2.80897,-1.9194zM97.81395,37.89935l-7.47293,-13.87413l8.94329,-4.82801l1.34015,2.48809l-6.0977,3.29182l1.69884,3.15405l5.7189,-3.08733l1.34513,2.49734l-5.71889,3.08733l1.74866,3.24655l6.19009,-3.3417l1.34015,2.48809zM124.60001,25.33048l-3.43877,1.40937l-10.88177,-7.16762l4.0722,9.9585l-2.99193,1.22623l-5.96515,-14.58764l3.43878,-1.40937l10.88972,7.18707l-4.08015,-9.97795l2.99193,-1.22623zM138.6174,4.73995l2.32111,8.35226c0.41264,1.48485 0.50084,2.83464 0.2646,4.04937c-0.2295,1.21286 -0.76004,2.24414 -1.59163,3.09387c-0.82673,0.8411 -1.9311,1.45412 -3.31314,1.83906c-1.3753,0.38307 -2.63724,0.42915 -3.78581,0.13824c-1.15045,-0.29766 -2.14016,-0.90551 -2.9691,-1.82356c-0.8222,-0.91992 -1.43962,-2.12231 -1.85226,-3.60716l-2.32111,-8.35226l3.11464,-0.86753l2.2142,7.96755c0.29448,1.05964 0.67165,1.90718 1.13152,2.54263c0.46661,0.63357 1.0101,1.06028 1.63049,1.28016c0.61852,0.21312 1.31205,0.21265 2.0806,-0.00141c0.76855,-0.21407 1.36267,-0.57225 1.78236,-1.07455c0.41782,-0.50905 0.65974,-1.15453 0.72572,-1.93644c0.07272,-0.78379 -0.03817,-1.7055 -0.33264,-2.76514l-2.2142,-7.96755zM148.0522,18.84498l-2.617,-15.54345l10.01935,-1.69075l0.4693,2.78746l-6.83134,1.15278l0.59492,3.53354l6.40698,-1.08117l0.47107,2.79782l-6.407,1.08117l0.61238,3.63717l6.93486,-1.17025l0.46931,2.78746zM172.2637,8.46064c-0.39841,0.01923 -0.74048,-0.10103 -1.02621,-0.36078c-0.28607,-0.26675 -0.43871,-0.59955 -0.45792,-0.99841c-0.01921,-0.39886 0.10075,-0.74482 0.35986,-1.03787c0.25912,-0.29306 0.58788,-0.4492 0.98628,-0.46843c0.4054,-0.01957 0.75113,0.10402 1.0372,0.37077c0.29306,0.26641 0.44919,0.59904 0.4684,0.9979c0.01921,0.39886 -0.10424,0.74498 -0.37035,1.03838c-0.25945,0.28606 -0.59187,0.43887 -0.99727,0.45844zM186.97929,15.71973l1.16187,-15.71973l5.80969,0.43037c1.68883,0.12511 2.97073,0.58184 3.8457,1.37022c0.88247,0.7819 1.27594,1.81911 1.1804,3.11162c-0.05835,0.78948 -0.29491,1.47444 -0.7097,2.05487c-0.41428,0.57344 -0.94709,0.9941 -1.5984,1.26197c0.87364,0.33166 1.5342,0.84072 1.98166,1.52717c0.45495,0.67998 0.64782,1.48808 0.57863,2.42427c-0.0661,0.89428 -0.3435,1.65699 -0.83221,2.28815c-0.48121,0.62468 -1.13328,1.0927 -1.95621,1.40405c-0.81544,0.30488 -1.75702,0.41778 -2.82475,0.33868zM190.87886,6.82017l2.40761,0.17835c0.7188,0.05325 1.30021,-0.07579 1.74423,-0.38711c0.44402,-0.31132 0.68773,-0.76042 0.73111,-1.34729c0.04234,-0.5729 -0.13722,-1.0393 -0.53865,-1.3992c-0.39393,-0.36637 -0.96424,-0.57722 -1.71095,-0.63253l-2.3553,-0.17448zM190.41177,13.1395l2.60652,0.19309c0.57225,0.04239 1.07366,-0.00125 1.50426,-0.13092c0.43111,-0.13666 0.76943,-0.34693 1.01495,-0.63081c0.25302,-0.29035 0.3945,-0.63813 0.42445,-1.04335c0.02995,-0.40522 -0.04916,-0.75881 -0.23735,-1.06077c-0.18121,-0.30144 -0.46181,-0.53999 -0.84177,-0.71566c-0.37944,-0.18265 -0.83784,-0.29389 -1.3752,-0.33369l-2.80539,-0.20782zM208.89899,2.17107l-2.34239,15.5873l-3.19696,-0.48151l2.34238,-15.5873zM211.66548,18.58507l3.46027,-15.37734l9.91226,2.23556l-0.62054,2.75767l-6.75836,-1.52424l-0.78664,3.49578l6.33853,1.42956l-0.62286,2.76792l-6.3385,-1.42956l-0.80972,3.5983l6.86076,1.54734l-0.62053,2.75767zM240.11325,26.70765l-3.51823,-1.19683l-3.50879,-12.55854l-3.45808,10.18856l-3.06105,-1.0413l5.06554,-14.92465l3.51822,1.19683l3.50204,12.57844l3.46483,-10.20846l3.06107,1.0413zM252.9046,32.46441l-3.08897,-1.47392l1.10789,-16.93288l3.06053,1.46036l-1.03427,12.87037l9.31575,-8.91881l3.07001,1.46488zM262.05725,37.22827l8.21799,-13.44524l8.66681,5.30936l-1.47375,2.41118l-5.90918,-3.62002l-1.86823,3.05655l5.54208,3.39514l-1.47922,2.42014l-5.54211,-3.39514l-1.923,3.14618l5.99872,3.67487l-1.47375,2.41118zM286.38235,54.08185l-2.94653,-2.26638l0.71356,-13.02099l-6.5484,8.53304l-2.56369,-1.97188l9.59244,-12.49957l2.94653,2.26639l-0.72638,13.03766l6.56122,-8.54971l2.56366,1.97189zM311.20926,55.85216l-6.04272,6.20991c-1.07426,1.10398 -2.19512,1.85931 -3.36261,2.26598c-1.16248,0.41156 -2.31965,0.4713 -3.47153,0.17922c-1.14198,-0.2922 -2.22676,-0.93938 -3.2543,-1.94153c-1.02253,-0.99726 -1.69715,-2.06595 -2.0238,-3.20609c-0.32177,-1.14515 -0.2949,-2.30726 0.08063,-3.48631c0.38054,-1.17417 1.10796,-2.31324 2.18222,-3.41722l6.04269,-6.20991l2.31573,2.2585l-5.76434,5.92388c-0.76663,0.78784 -1.30856,1.54054 -1.62579,2.25809c-0.31222,0.72244 -0.40719,1.40736 -0.28491,2.05476c0.12716,0.64238 0.47644,1.24221 1.04785,1.7995c0.57142,0.55729 1.17953,0.89116 1.82428,1.00162c0.64964,0.10544 1.32851,-0.00997 2.03671,-0.34621c0.71321,-0.33136 1.45313,-0.89096 2.21976,-1.67881l5.7644,-5.92388zM303.77887,71.11109l12.10184,-10.08343l6.49979,7.81859l-2.17026,1.8083l-4.43167,-5.33086l-2.75116,2.2923l4.15637,4.9997l-2.17831,1.81502l-4.15637,-4.99969l-2.83185,2.35952l4.49884,5.41162l-2.17029,1.8083zM324.92307,86.83608c-0.21702,-0.33504 -0.28527,-0.69152 -0.20477,-1.06941c0.08637,-0.38171 0.2969,-0.6812 0.63156,-0.89846c0.33466,-0.21726 0.69363,-0.2875 1.07697,-0.21072c0.38334,0.07678 0.68353,0.28268 0.90054,0.61772c0.22082,0.34092 0.28806,0.70225 0.20169,1.08395c-0.08256,0.38758 -0.29119,0.69 -0.62585,0.90726c-0.33466,0.21726 -0.69556,0.28457 -1.0827,0.20192c-0.37747,-0.08059 -0.67661,-0.29134 -0.89743,-0.63226zM326.05908,103.22026l14.15497,-6.90251l2.55103,5.24329c0.74156,1.52417 0.99214,2.86308 0.75171,4.01673c-0.23108,1.15688 -0.92855,2.01908 -2.09241,2.58662c-0.71089,0.34666 -1.42119,0.48654 -2.13092,0.41963c-0.70344,-0.06998 -1.33464,-0.31937 -1.89352,-0.74816c0.15317,0.92275 0.046,1.75037 -0.3215,2.48285c-0.35815,0.73571 -0.95872,1.30911 -1.80173,1.72019c-0.80526,0.39268 -1.60325,0.53633 -2.39395,0.43098c-0.78135,-0.10212 -1.51341,-0.43088 -2.19617,-0.98628c-0.6734,-0.55218 -1.24451,-1.31008 -1.71335,-2.27371zM335.70352,102.11739l1.05719,2.17289c0.31562,0.64872 0.71952,1.08686 1.21164,1.31444c0.49212,0.22757 1.0024,0.21251 1.53085,-0.04518c0.51587,-0.25156 0.82819,-0.64153 0.93695,-1.16991c0.11811,-0.52515 0.01321,-1.12468 -0.31467,-1.79859l-1.03421,-2.12565zM330.01324,104.89219l1.14453,2.35239c0.25127,0.51646 0.54117,0.92835 0.86972,1.23569c0.33484,0.30427 0.68657,0.49122 1.05515,0.56084c0.37793,0.07286 0.74931,0.02033 1.1142,-0.1576c0.36488,-0.17793 0.63032,-0.42427 0.79633,-0.739c0.16907,-0.30843 0.23388,-0.6712 0.1944,-1.08833c-0.0332,-0.42019 -0.16777,-0.87277 -0.40372,-1.35773l-1.23184,-2.53189zM348.78189,115.37027l-14.63452,5.81445l-1.19254,-3.00836l14.63449,-5.81445zM336.00381,126.02095l15.01559,-4.74159l3.05643,9.70107l-2.69278,0.85033l-2.08392,-6.61437l-3.41354,1.07793l1.9545,6.20348l-2.70285,0.85347l-1.95447,-6.20346l-3.51364,1.10954l2.11551,6.71457l-2.69278,0.85033zM343.30225,154.72125l-0.73663,-3.64616l9.07642,-9.35352l-10.53513,2.13327l-0.64093,-3.17236l15.43234,-3.12492l0.73663,3.64616l-9.09698,9.35768l10.55569,-2.13744l0.64093,3.17235zM344.76721,168.68468l-0.28152,-3.41415l15.17511,-7.55946l0.27893,3.38272l-11.63101,5.57953l12.38571,3.57375l0.27975,3.3932zM345.25897,179.00044l15.74103,0.34692l-0.2236,10.16974l-2.82291,-0.06221l0.1525,-6.93391l-3.57849,-0.07886l-0.14297,6.50316l-2.83337,-0.06244l0.14297,-6.50317l-3.68341,-0.08118l-0.15475,7.03897l-2.82294,-0.06221zM342.94635,208.52568l0.47424,-3.68958l11.59973,-5.93277l-10.66058,-1.37343l0.41266,-3.21014l15.61606,2.01186l-0.47424,3.68958l-11.62054,5.93008l10.6814,1.37611l-0.41266,3.21014zM353.90729,230.8973l-8.40067,-2.10449c-1.49345,-0.37413 -2.70936,-0.96399 -3.64774,-1.76958c-0.94007,-0.79879 -1.57375,-1.76997 -1.90106,-2.91354c-0.32222,-1.13508 -0.30923,-2.39923 0.039,-3.79244c0.34653,-1.38641 0.92976,-2.5077 1.74969,-3.36388c0.82672,-0.85448 1.84344,-1.41579 3.0502,-1.68399c1.20506,-0.2614 2.55431,-0.20505 4.04776,0.16908l8.40067,2.10448l-0.78476,3.1398l-8.01373,-2.00754c-1.06578,-0.26699 -1.98818,-0.35727 -2.76721,-0.27078c-0.78073,0.09328 -1.41977,0.35567 -1.91714,0.78714c-0.49058,0.43317 -0.83269,1.03713 -1.02634,1.81189c-0.19365,0.77476 -0.17598,1.46884 0.05301,2.08228c0.23578,0.61513 0.67692,1.14451 1.32346,1.58812c0.64484,0.45041 1.50014,0.80912 2.56592,1.07611l8.01373,2.00754zM336.99677,232.14425l14.7926,5.39853l-3.47989,9.55701l-2.65283,-0.96814l2.37268,-6.51614l-3.36285,-1.22725l-2.22528,6.11134l-2.66266,-0.97174l2.22525,-6.11134l-3.46146,-1.26328l-2.4086,6.6149l-2.6528,-0.96815zM334.05826,258.34945c0.18007,-0.35632 0.4535,-0.5947 0.82022,-0.71515c0.37297,-0.11729 0.73738,-0.08579 1.09329,0.09448c0.35591,0.18027 0.59717,0.45554 0.72372,0.82584c0.12656,0.3703 0.09977,0.73362 -0.08029,1.08994c-0.18323,0.36257 -0.46132,0.6025 -0.83429,0.71979c-0.37612,0.12354 -0.74214,0.09516 -1.09805,-0.08511c-0.35591,-0.18027 -0.59556,-0.45865 -0.71896,-0.83521c-0.12031,-0.36714 -0.08887,-0.73201 0.09436,-1.09457zM320.4855,267.57442l13.07941,8.77515l-3.2431,4.84485c-0.94275,1.40836 -1.97255,2.29871 -3.08942,2.67102c-1.11495,0.38203 -2.21016,0.2123 -3.28558,-0.50922c-0.65688,-0.44071 -1.1349,-0.98494 -1.43417,-1.63269c-0.29346,-0.64385 -0.39569,-1.31541 -0.30667,-2.01468c-0.71954,0.59672 -1.48791,0.92033 -2.30511,0.97083c-0.81529,0.06021 -1.6124,-0.171 -2.39136,-0.6936c-0.74407,-0.49921 -1.26951,-1.11741 -1.57632,-1.85455c-0.3049,-0.72743 -0.38937,-1.52619 -0.25336,-2.39633c0.13793,-0.86043 0.50492,-1.73584 1.10095,-2.62625zM326.28922,275.3644l-1.34396,2.00775c-0.40125,0.59943 -0.57634,1.16928 -0.52524,1.70956c0.0511,0.54028 0.32078,0.97424 0.80908,1.30185c0.47667,0.31981 0.97044,0.39387 1.48129,0.22217c0.51277,-0.16198 0.97755,-0.55433 1.39438,-1.17703l1.31479,-1.96411zM321.03131,271.83678l-1.45502,2.17365c-0.31944,0.47721 -0.5292,0.93526 -0.62924,1.37415c-0.09422,0.44278 -0.0787,0.84114 0.0466,1.19507c0.12722,0.36365 0.35944,0.65856 0.69659,0.88477c0.33716,0.2262 0.68331,0.33198 1.03851,0.31729c0.35131,-0.00887 0.69709,-0.13527 1.03732,-0.37927c0.34604,-0.2401 0.66906,-0.58423 0.96902,-1.03235l1.56604,-2.33951zM321.42731,293.34719l-12.38138,-9.7374l1.99716,-2.54523l12.38138,9.73743zM305.80487,287.6488l11.64688,10.60681l-6.83719,7.52466l-2.08865,-1.90216l4.66168,-5.13043l-2.64774,-2.41129l-4.3721,4.81177l-2.09644,-1.90924l4.37213,-4.81177l-2.72537,-2.48199l-4.73236,5.20819l-2.08868,-1.90216zM284.70004,308.40152l2.77707,-2.47156l12.64059,3.14801l-7.1413,-8.0423l2.4162,-2.15039l10.46091,11.7807l-2.7771,2.47156l-12.65451,-3.16373l7.15527,8.05798l-2.41626,2.15042zM273.3826,316.69333l2.80576,-1.96106l14.15973,9.3273l-2.77991,1.94302l-10.66766,-7.25684l3.14548,12.51434l-2.78854,1.94904zM264.72476,322.30813l7.61902,13.79428l-8.89182,4.92236l-1.36633,-2.47376l6.06259,-3.35617l-1.73206,-3.1359l-5.68597,3.14767l-1.37143,-2.48294l5.68597,-3.14771l-1.78284,-3.22788l-6.15448,3.40704l-1.36633,-2.47379zM238.07295,335.15982l3.42371,-1.44568l10.95685,7.05203l-4.17714,-9.91483l2.97882,-1.25784l6.11884,14.52368l-3.42369,1.44571l-10.965,-7.07144l4.18529,9.9342l-2.97882,1.25784zM224.2737,355.89755l-2.40918,-8.32724c-0.4283,-1.4804 -0.53076,-2.82919 -0.30736,-4.04636c0.21668,-1.21522 0.73631,-2.25206 1.55888,-3.11053c0.8178,-0.8498 1.91565,-1.47447 3.29355,-1.87402c1.37117,-0.3976 2.63256,-0.45702 3.78415,-0.17828c1.15353,0.28547 2.14957,0.8828 2.98816,1.79202c0.83187,0.91117 1.46196,2.10698 1.89026,3.58737l2.40916,8.32721l-3.1053,0.90045l-2.2982,-7.94367c-0.30565,-1.05646 -0.69174,-1.89998 -1.15829,-2.53052c-0.47327,-0.62859 -1.02126,-1.04955 -1.64394,-1.26285c-0.62073,-0.20657 -1.31421,-0.19875 -2.08046,0.02344c-0.76624,0.22219 -1.35656,0.58664 -1.77094,1.09335c-0.41242,0.51344 -0.64748,1.16147 -0.7052,1.94403c-0.06444,0.78451 0.05615,1.70501 0.3618,2.76147l2.2982,7.94367zM214.69041,341.89316l2.78098,15.51486l-10.00092,1.79669l-0.49872,-2.78235l6.8188,-1.22501l-0.6322,-3.52707l-6.39522,1.14896l-0.50058,-2.79269l6.39523,-1.14893l-0.65076,-3.63046l-6.92212,1.24356l-0.49873,-2.78235zM190.5899,352.53314c0.39818,-0.02344 0.74151,0.09318 1.02997,0.34988c0.28887,0.2637 0.44501,0.5949 0.46843,0.99353c0.02342,0.39863 -0.09287,0.74581 -0.34888,1.0416c-0.25601,0.29578 -0.5831,0.45541 -0.98128,0.47885c-0.40517,0.02385 -0.75219,-0.09607 -1.04106,-0.35977c-0.29586,-0.26329 -0.45551,-0.59426 -0.47893,-0.99289c-0.02342,-0.39863 0.09638,-0.74604 0.35938,-1.04224c0.25642,-0.28879 0.5872,-0.44511 0.99237,-0.46896z" fill="none" stroke="rgb(255, 255, 255)" stroke-width="2" stroke-linecap="butt" stroke-linejoin="miter" stroke-dasharray="0 0" stroke-opacity="1"></path></g></g></g></g></g></g></g></g></g></g><animateTransform href="#209256" attributeName="transform" type="rotate" values="0 180.5 180.5;360 180.5 180.5" dur="18s" repeatCount="indefinite" calcMode="spline" keyTimes="0;1" keySplines="0 0 1 1" additive="sum" fill="freeze"></animateTransform></svg>