<svg id="237119" viewBox="0 0 97 128" xmlns="http://www.w3.org/2000/svg" xmlns:xlink="http://www.w3.org/1999/xlink"><g transform="matrix(1,0,0,1,0,0)"><g id="237119" opacity="1" style="mix-blend-mode:normal"><g><defs><clipPath id="237119_clipPath" x="-50%" y="-50%" width="200%" height="200%"><path d="M0,0h97v0v128v0h-97v0v-128z" fill="white" clip-rule="nonzero"></path></clipPath></defs><g clip-path="url(#237119_clipPath)"><g transform="matrix(1,0,0,1,7,9)"><g id="237116" opacity="1" style="mix-blend-mode:normal"><g><g><g transform="matrix(1,0,0,1,0,0)"><g id="237117" opacity="1" style="mix-blend-mode:normal"><g><g><path id="237117_fill_path" d="M1.0533,1.0533c1.4044,-1.4044 3.68137,-1.4044 5.08577,0l35.4739,35.4739l35.4739,-35.4739c1.4044,-1.4044 3.68138,-1.4044 5.08578,0c1.40439,1.4044 1.40439,3.68137 0,5.08577l-40.55968,40.55967l-40.55967,-40.55967c-1.4044,-1.4044 -1.4044,-3.68137 0,-5.08577z" fill-rule="evenodd" fill="rgb(255, 255, 255)" fill-opacity="1" style="mix-blend-mode:NORMAL"></path></g></g></g></g><g transform="matrix(1,0,0,1,0,26.2008)"><g id="237118" opacity="1" style="mix-blend-mode:normal"><g><g><path id="237118_fill_path" d="M1.0533,1.0533c1.4044,-1.4044 3.68137,-1.4044 5.08577,0l35.4739,35.4739l35.4739,-35.4739c1.4044,-1.4044 3.68138,-1.4044 5.08578,0c1.40439,1.4044 1.40439,3.68137 0,5.08577l-40.55968,40.55967l-40.55967,-40.55967c-1.4044,-1.4044 -1.4044,-3.68137 0,-5.08577z" fill-rule="evenodd" fill="rgb(255, 255, 255)" fill-opacity="1" style="mix-blend-mode:NORMAL"></path></g></g></g></g></g></g></g></g></g></g></g></g><animateTransform href="#237116" attributeName="transform" type="translate" values="0 0;0 44;0 0" dur="2s" repeatCount="indefinite" calcMode="spline" keyTimes="0;0.5;1" keySplines="0.42 0 0.58 1;0.42 0 0.58 1" additive="sum" fill="freeze"></animateTransform></svg>